G04 DipTrace Beta 2.3.5.2*
%INBottomPaste.ger*%
%MOIN*%
%ADD28R,0.0472X0.063*%
%ADD40R,0.0551X0.063*%
%ADD58R,0.0432X0.0826*%
%ADD59R,0.0471X0.055*%
%ADD61R,0.0451X0.0077*%
%ADD73R,0.118X0.0629*%
%ADD75R,0.0668X0.2912*%
%ADD80C,0.0589*%
%ADD82R,0.0589X0.0589*%
%ADD86R,0.0432X0.0511*%
%ADD88R,0.0511X0.0432*%
%FSLAX44Y44*%
G04*
G70*
G90*
G75*
G01*
%LNBotPaste*%
%LPD*%
D88*
X7565Y14316D3*
Y15064D3*
X8815Y14004D3*
Y14753D3*
D86*
X7177Y9591D3*
X7925D3*
D40*
X6252Y13564D3*
X7355D3*
D88*
X10065Y8565D3*
Y7817D3*
D40*
X6588Y4503D3*
X7690D3*
D28*
X6628Y8565D3*
X7966D3*
D82*
X5627Y16940D3*
D80*
X4627D3*
X5627Y15940D3*
X4627D3*
X5627Y14940D3*
X4627D3*
D75*
X4565Y19236D3*
X5785D3*
D73*
X6877Y18128D3*
Y20333D3*
X8252Y18128D3*
Y20333D3*
X9627Y18128D3*
Y20333D3*
D88*
X6815Y11190D3*
Y10442D3*
X6065Y11253D3*
Y10504D3*
X6815Y15814D3*
Y15066D3*
X9690Y14003D3*
Y14751D3*
X8815Y11753D3*
Y12501D3*
X8127Y11753D3*
Y12501D3*
D61*
X5815Y6503D3*
Y6758D3*
Y7014D3*
Y7270D3*
Y7526D3*
D59*
X5726Y5754D3*
Y8274D3*
D58*
X4762Y5538D3*
Y8491D3*
M02*
