G04 DipTrace Beta 2.3.5.2*
%INIoDriverRevC.gbl*%
%MOIN*%
%ADD13C,0.0061*%
%ADD14C,0.022*%
%ADD16C,0.0118*%
%ADD17C,0.013*%
%ADD18C,0.0157*%
%ADD21R,0.0591X0.0512*%
%ADD22R,0.0512X0.0591*%
%ADD23R,0.063X0.0709*%
%ADD25R,0.0551X0.0709*%
%ADD26R,0.0669X0.0669*%
%ADD27C,0.0669*%
%ADD30R,0.0197X0.0335*%
%ADD31R,0.0748X0.2992*%
%ADD32R,0.126X0.0709*%
%ADD39R,0.0531X0.0157*%
%ADD40R,0.0551X0.063*%
%ADD41R,0.0512X0.0906*%
%ADD43C,0.04*%
%ADD45C,0.0295*%
%ADD47C,0.0335*%
%FSLAX44Y44*%
G04*
G70*
G90*
G75*
G01*
%LNBottom*%
%LPD*%
X8253Y18128D2*
D14*
X8878Y18753D1*
X8253Y20333D2*
Y21065D1*
X7457Y21861D1*
Y21961D1*
X4753Y7503D2*
D13*
X5065D1*
X5565Y7003D1*
X5803D1*
X5815Y7014D1*
X4753Y6440D2*
X5065Y6753D1*
X5809D1*
X5815Y6759D1*
X4628Y14940D2*
Y14565D1*
X4503Y14315D1*
X6878Y18128D2*
D14*
Y18441D1*
X7190Y18753D1*
X6878Y20333D2*
X7065D1*
Y21127D1*
X6457Y21736D1*
Y21961D1*
X5628Y16940D2*
D13*
Y16878D1*
X5065Y16315D1*
Y14440D1*
X4315Y13690D1*
Y11628D1*
X4628Y11315D1*
Y10939D1*
X4315Y10626D1*
X4628Y15940D2*
Y15815D1*
X4190Y15378D1*
Y11253D1*
X4315Y11128D1*
X8429Y9126D2*
D17*
Y9027D1*
X7966Y8565D1*
X9284Y11619D2*
D13*
Y11533D1*
X9503Y11314D1*
Y11001D1*
X9315Y10814D1*
X9128D1*
X9065Y10751D1*
Y10439D1*
X9003Y10376D1*
Y9565D1*
X8940Y9503D1*
Y9126D1*
X9878Y11691D2*
X9880D1*
X9503Y11314D1*
X10065Y7817D2*
X10253D1*
Y6489D1*
X10213D1*
X4940Y18378D2*
D14*
X4628D1*
Y19173D1*
X4565Y19236D1*
X5785D2*
Y21283D1*
X5457Y21611D1*
Y21961D1*
X8065Y11751D2*
D13*
Y10565D1*
X7937Y10437D1*
X8378Y7563D2*
X8126Y7815D1*
X7878D1*
X5628Y15940D2*
Y15815D1*
X5190Y15378D1*
Y14377D1*
X4440Y13627D1*
Y12065D1*
X4690Y11815D1*
Y11690D1*
X8753Y11751D2*
Y10753D1*
X8440Y10440D1*
X6588Y4503D2*
X6378D1*
X6003Y4128D1*
X5440D1*
X5003Y4565D1*
X4690D1*
Y4628D1*
X4253Y5065D1*
Y10126D1*
X5628Y11501D1*
Y14127D1*
X6065Y11253D2*
X5878D1*
X6440Y11815D1*
Y11940D1*
X6628Y12128D1*
Y12190D1*
X6586Y12232D1*
X6273D1*
X6190Y12315D1*
Y12565D1*
X6815Y11190D2*
Y12628D1*
X6565Y12878D1*
X5878Y10565D2*
X5940Y10503D1*
Y10440D1*
X6003Y10378D1*
Y10315D1*
X6065Y10378D1*
Y10505D1*
X5190Y9628D2*
Y10003D1*
X5315Y10128D1*
Y10253D1*
X5190Y10378D1*
Y10440D1*
X5315Y10565D1*
X5378D1*
X5503Y10440D1*
X5628D1*
X5692Y10505D1*
X6065D1*
X5628Y9940D2*
X6313D1*
X6815Y10442D1*
X6366Y13564D2*
D17*
X6314D1*
X5815Y13065D1*
Y12253D1*
X6003Y12065D1*
X5940D1*
X6065Y11940D1*
X5815Y6503D2*
D18*
X5940D1*
X5815D2*
D13*
X5503D1*
X5128Y6128D1*
X4628D1*
X4378Y6378D1*
Y9516D1*
X4544Y9682D1*
X6347Y6095D2*
D14*
X6754Y5688D1*
X9884D1*
X6347Y6095D2*
X6323D1*
Y6245D1*
X6095Y6473D1*
D18*
X6075D1*
X6045Y6503D1*
X5815D1*
X6815Y15066D2*
D17*
Y15127D1*
X6378D1*
X8815Y14005D2*
Y13690D1*
X8690Y13565D1*
X7177Y9591D2*
Y9646D1*
X6752Y9221D1*
X9003Y4503D2*
D14*
X9565Y5065D1*
X10190D1*
X10567Y5442D1*
Y10516D1*
X10638D1*
Y18993D1*
X10378Y19253D1*
X9128D1*
X8801Y19579D1*
X8065Y12499D2*
D17*
X8753D1*
D13*
X9253Y12503D1*
X4628Y16940D2*
D17*
Y17065D1*
X5003Y17440D1*
X6065D1*
X6128Y17378D1*
Y16628D1*
X6503Y16253D1*
X7253D1*
X7315Y16190D1*
Y15128D1*
X6877D1*
X6815Y15066D1*
X7315Y15128D2*
X7565Y15064D1*
X7177Y9591D2*
Y9676D1*
X7565Y10064D1*
X8574D1*
X8684Y9953D1*
X6628Y8565D2*
Y8389D1*
X6981Y8036D1*
Y7835D1*
X7000Y7816D1*
X10065Y18440D2*
D14*
X9939D1*
X9628Y18128D1*
Y20333D2*
Y20690D1*
X8457Y21861D1*
Y21961D1*
X9690Y14003D2*
D17*
Y13815D1*
X9190Y13315D1*
X7940Y7251D2*
D13*
X7878D1*
X7579Y7550D1*
Y7952D1*
X7714Y8087D1*
X8275D1*
X8378Y8190D1*
Y8626D1*
X8690Y8938D1*
Y9440D1*
X8878Y9628D1*
Y10440D1*
X8940Y10503D1*
Y10878D1*
X9190Y11128D1*
X6815Y15814D2*
Y15628D1*
X6254D1*
X5566Y14940D1*
X5628D1*
X6117Y14451D1*
X6554D1*
X7003Y14002D1*
Y13156D1*
X7292Y12867D1*
D43*
X8878Y18753D3*
X4753Y7503D3*
Y6440D3*
X4503Y14315D3*
X7190Y18753D3*
X4315Y10626D3*
Y11128D3*
D45*
X10213Y6489D3*
D43*
X4940Y18378D3*
X7937Y10437D3*
D47*
X8378Y7563D3*
X7878Y7815D3*
D3*
D43*
X4690Y11690D3*
X8440Y10440D3*
X5628Y14127D3*
X6190Y12565D3*
X6565Y12878D3*
X5190Y9628D3*
X5628Y9940D3*
X6065Y11940D3*
X4544Y9682D3*
X6347Y6095D3*
X9884Y5688D3*
X6347Y6095D3*
X6378Y15127D3*
X8690Y13565D3*
X6752Y9221D3*
X8801Y19579D3*
X9253Y12503D3*
X10567Y10516D3*
X7000Y7816D3*
X10065Y18440D3*
X9190Y13315D3*
D47*
X7940Y7251D3*
D43*
X9190Y11128D3*
X7292Y12867D3*
X9440Y7003D3*
X8940D3*
Y6565D3*
X9440D3*
X8807Y5190D3*
X6503Y7938D3*
X8128Y15253D3*
X8878Y15315D3*
X5190Y7940D3*
X7440Y11190D3*
X7378Y11878D3*
X8065Y13190D3*
X7440Y10440D3*
X5190Y5626D3*
X4690Y7001D3*
X9008Y8103D3*
X7378Y16814D3*
X8690Y21002D3*
X7628D3*
X6628D3*
X4815Y21065D3*
D47*
X6977Y6997D3*
X4752Y12376D3*
X9284Y11619D3*
X4227Y22162D2*
D13*
X5071D1*
X5843D2*
X6071D1*
X6843D2*
X7071D1*
X7842D2*
X8071D1*
X9892D2*
X10653D1*
X4227Y22102D2*
X5045D1*
X5868D2*
X6045D1*
X6868D2*
X7045D1*
X7868D2*
X8045D1*
X9892D2*
X10653D1*
X4227Y22042D2*
X5029D1*
X5885D2*
X6029D1*
X6885D2*
X7029D1*
X7885D2*
X8029D1*
X9892D2*
X10653D1*
X4227Y21982D2*
X5022D1*
X5892D2*
X6022D1*
X6891D2*
X7022D1*
X7891D2*
X8022D1*
X9892D2*
X10653D1*
X4227Y21921D2*
X5023D1*
X5891D2*
X6023D1*
X6890D2*
X7023D1*
X7890D2*
X8023D1*
X9892D2*
X10653D1*
X4227Y21861D2*
X5034D1*
X5880D2*
X6034D1*
X6880D2*
X7034D1*
X7880D2*
X8034D1*
X9892D2*
X10653D1*
X4227Y21801D2*
X5053D1*
X5861D2*
X6053D1*
X6861D2*
X7053D1*
X7861D2*
X8053D1*
X9892D2*
X10653D1*
X4227Y21741D2*
X5083D1*
X5831D2*
X6083D1*
X6831D2*
X7083D1*
X7872D2*
X8083D1*
X9892D2*
X10653D1*
X4227Y21681D2*
X5126D1*
X5788D2*
X6126D1*
X6807D2*
X7126D1*
X7933D2*
X8126D1*
X9892D2*
X10653D1*
X4227Y21621D2*
X5189D1*
X5743D2*
X6189D1*
X6867D2*
X7189D1*
X7992D2*
X8189D1*
X9892D2*
X10653D1*
X4227Y21561D2*
X5253D1*
X5803D2*
X6297D1*
X6927D2*
X7297D1*
X8053D2*
X8297D1*
X9892D2*
X10653D1*
X4227Y21501D2*
X5278D1*
X5863D2*
X6396D1*
X6987D2*
X7521D1*
X8112D2*
X8521D1*
X9113D2*
X10653D1*
X4227Y21441D2*
X5332D1*
X5923D2*
X6456D1*
X7048D2*
X7582D1*
X8173D2*
X8582D1*
X9173D2*
X10653D1*
X4227Y21380D2*
X5392D1*
X5971D2*
X6516D1*
X7107D2*
X7641D1*
X8233D2*
X8642D1*
X9233D2*
X10653D1*
X4227Y21320D2*
X5452D1*
X5992D2*
X6577D1*
X7168D2*
X7702D1*
X8293D2*
X8702D1*
X9292D2*
X10653D1*
X4227Y21260D2*
X5513D1*
X5996D2*
X6636D1*
X7227D2*
X7762D1*
X8353D2*
X8762D1*
X9353D2*
X10653D1*
X4227Y21200D2*
X5572D1*
X5996D2*
X6697D1*
X7263D2*
X7822D1*
X8413D2*
X8822D1*
X9413D2*
X10653D1*
X4227Y21140D2*
X5574D1*
X5996D2*
X6757D1*
X7275D2*
X7882D1*
X8449D2*
X8882D1*
X9473D2*
X10653D1*
X4227Y21080D2*
X5574D1*
X5996D2*
X6817D1*
X7276D2*
X7942D1*
X8462D2*
X8942D1*
X9533D2*
X10653D1*
X4227Y21020D2*
X5574D1*
X5996D2*
X6854D1*
X7276D2*
X8002D1*
X8463D2*
X9002D1*
X9594D2*
X10653D1*
X4227Y20960D2*
X5574D1*
X5996D2*
X6854D1*
X7276D2*
X8041D1*
X8463D2*
X9062D1*
X9653D2*
X10653D1*
X4227Y20900D2*
X5574D1*
X5996D2*
X6854D1*
X7276D2*
X8041D1*
X8463D2*
X9123D1*
X9714D2*
X10653D1*
X4227Y20840D2*
X5574D1*
X5996D2*
X6854D1*
X7276D2*
X8041D1*
X8463D2*
X9182D1*
X9774D2*
X10653D1*
X5039Y20779D2*
X5310D1*
X10358D2*
X10653D1*
X5039Y20719D2*
X5310D1*
X10358D2*
X10653D1*
X5039Y20659D2*
X5310D1*
X10358D2*
X10653D1*
X5039Y20599D2*
X5310D1*
X10358D2*
X10653D1*
X5039Y20539D2*
X5310D1*
X10358D2*
X10653D1*
X5039Y20479D2*
X5310D1*
X10358D2*
X10653D1*
X5039Y20419D2*
X5310D1*
X10358D2*
X10653D1*
X5039Y20359D2*
X5310D1*
X10358D2*
X10653D1*
X5039Y20299D2*
X5310D1*
X10358D2*
X10653D1*
X5039Y20238D2*
X5310D1*
X10358D2*
X10653D1*
X5039Y20178D2*
X5310D1*
X10358D2*
X10653D1*
X5039Y20118D2*
X5310D1*
X10358D2*
X10653D1*
X5039Y20058D2*
X5310D1*
X10358D2*
X10653D1*
X5039Y19998D2*
X5310D1*
X10358D2*
X10653D1*
X5039Y19938D2*
X5310D1*
X10358D2*
X10653D1*
X5039Y19878D2*
X5310D1*
X6260D2*
X10653D1*
X5039Y19818D2*
X5310D1*
X6260D2*
X8622D1*
X8981D2*
X10653D1*
X5039Y19758D2*
X5310D1*
X6260D2*
X8560D1*
X9042D2*
X10653D1*
X5039Y19698D2*
X5310D1*
X6260D2*
X8525D1*
X9078D2*
X10653D1*
X5039Y19637D2*
X5310D1*
X6260D2*
X8507D1*
X9096D2*
X10653D1*
X5039Y19577D2*
X5310D1*
X6260D2*
X8501D1*
X9102D2*
X10653D1*
X5039Y19517D2*
X5310D1*
X6260D2*
X8508D1*
X9159D2*
X10653D1*
X5039Y19457D2*
X5310D1*
X6260D2*
X8527D1*
X10400D2*
X10653D1*
X5039Y19397D2*
X5310D1*
X6260D2*
X8564D1*
X10529D2*
X10653D1*
X5039Y19337D2*
X5310D1*
X6260D2*
X8628D1*
X10589D2*
X10653D1*
X5039Y19277D2*
X5310D1*
X6260D2*
X8808D1*
X5039Y19217D2*
X5310D1*
X6260D2*
X8869D1*
X5039Y19157D2*
X5310D1*
X6260D2*
X8928D1*
X5039Y19096D2*
X5310D1*
X6260D2*
X8989D1*
X5039Y19036D2*
X5310D1*
X6260D2*
X7104D1*
X7276D2*
X8791D1*
X8964D2*
X10298D1*
X5039Y18976D2*
X5310D1*
X6260D2*
X6991D1*
X7389D2*
X8679D1*
X9076D2*
X10359D1*
X5039Y18916D2*
X5310D1*
X6260D2*
X6939D1*
X7441D2*
X8626D1*
X9128D2*
X10418D1*
X5039Y18856D2*
X5310D1*
X6260D2*
X6908D1*
X7472D2*
X8595D1*
X9159D2*
X10427D1*
X5039Y18796D2*
X5310D1*
X6260D2*
X6893D1*
X7487D2*
X8580D1*
X9175D2*
X10427D1*
X5039Y18736D2*
X5310D1*
X6260D2*
X6877D1*
X7490D2*
X8564D1*
X9177D2*
X10427D1*
X5039Y18676D2*
X5310D1*
X6260D2*
X6817D1*
X7481D2*
X8505D1*
X9168D2*
X9884D1*
X10247D2*
X10427D1*
X5120Y18616D2*
X5310D1*
X6260D2*
X6757D1*
X7457D2*
X8444D1*
X9144D2*
X9823D1*
X10308D2*
X10427D1*
X5181Y18556D2*
X5310D1*
X10358D2*
X10427D1*
X5216Y18495D2*
X5310D1*
X10361D2*
X10427D1*
X5235Y18435D2*
X5310D1*
X10366D2*
X10427D1*
X5241Y18375D2*
X5310D1*
X10359D2*
X10427D1*
X5234Y18315D2*
X5310D1*
X10358D2*
X10427D1*
X5214Y18255D2*
X5310D1*
X10358D2*
X10427D1*
X5178Y18195D2*
X5310D1*
X10358D2*
X10427D1*
X5113Y18135D2*
X5310D1*
X10358D2*
X10427D1*
X5039Y18075D2*
X5310D1*
X10358D2*
X10427D1*
X5039Y18015D2*
X5310D1*
X10358D2*
X10427D1*
X5039Y17955D2*
X5310D1*
X10358D2*
X10427D1*
X5039Y17894D2*
X5310D1*
X10358D2*
X10427D1*
X5039Y17834D2*
X5310D1*
X10358D2*
X10427D1*
X5039Y17774D2*
X5310D1*
X10358D2*
X10427D1*
X5039Y17714D2*
X5310D1*
X10358D2*
X10427D1*
X5039Y17654D2*
X5310D1*
X6260D2*
X10427D1*
X4227Y17594D2*
X4954D1*
X6113D2*
X10427D1*
X4227Y17534D2*
X4865D1*
X6203D2*
X10427D1*
X4227Y17474D2*
X4804D1*
X6261D2*
X10427D1*
X4227Y17414D2*
X4745D1*
X6289D2*
X10427D1*
X4227Y17353D2*
X4506D1*
X6294D2*
X10427D1*
X4227Y17293D2*
X4377D1*
X6294D2*
X10427D1*
X4227Y17233D2*
X4308D1*
X5027D2*
X5192D1*
X6294D2*
X10427D1*
X4227Y17173D2*
X4261D1*
X4994D2*
X5192D1*
X6294D2*
X10427D1*
X5027Y17113D2*
X5192D1*
X6294D2*
X10427D1*
X5048Y17053D2*
X5192D1*
X6294D2*
X10427D1*
X5060Y16993D2*
X5192D1*
X6294D2*
X10427D1*
X5062Y16933D2*
X5192D1*
X6294D2*
X10427D1*
X5058Y16873D2*
X5192D1*
X6294D2*
X10427D1*
X5043Y16813D2*
X5192D1*
X6294D2*
X10427D1*
X5019Y16752D2*
X5192D1*
X6294D2*
X10427D1*
X4227Y16692D2*
X4271D1*
X4984D2*
X5192D1*
X6295D2*
X10427D1*
X4227Y16632D2*
X4323D1*
X4933D2*
X5192D1*
X6355D2*
X10427D1*
X4227Y16572D2*
X4401D1*
X4854D2*
X5139D1*
X6415D2*
X10427D1*
X4227Y16512D2*
X4593D1*
X4662D2*
X5079D1*
X6475D2*
X10427D1*
X4227Y16452D2*
X5018D1*
X5385D2*
X6072D1*
X6535D2*
X10427D1*
X4227Y16392D2*
X4960D1*
X5325D2*
X6132D1*
X7337D2*
X10427D1*
X4227Y16332D2*
X4446D1*
X4809D2*
X4935D1*
X5265D2*
X5445D1*
X5809D2*
X6192D1*
X7405D2*
X10427D1*
X4227Y16272D2*
X4349D1*
X4906D2*
X4935D1*
X5204D2*
X5349D1*
X5906D2*
X6253D1*
X7459D2*
X10427D1*
X4227Y16211D2*
X4289D1*
X5197D2*
X5289D1*
X5966D2*
X6312D1*
X7480D2*
X10427D1*
X4227Y16151D2*
X4248D1*
X5197D2*
X5248D1*
X6008D2*
X6372D1*
X7481D2*
X10427D1*
X5197Y16091D2*
X5219D1*
X6035D2*
X6420D1*
X7481D2*
X10427D1*
X6053Y16031D2*
X6420D1*
X7481D2*
X10427D1*
X6061Y15971D2*
X6420D1*
X7481D2*
X10427D1*
X6062Y15911D2*
X6420D1*
X7481D2*
X10427D1*
X6054Y15851D2*
X6420D1*
X7481D2*
X10427D1*
X5197Y15791D2*
X5219D1*
X6036D2*
X6420D1*
X7481D2*
X10427D1*
X5197Y15731D2*
X5247D1*
X6009D2*
X6176D1*
X7481D2*
X10427D1*
X5197Y15671D2*
X5288D1*
X5967D2*
X6113D1*
X7481D2*
X10427D1*
X4909Y15610D2*
X4934D1*
X5197D2*
X5240D1*
X5909D2*
X6053D1*
X7481D2*
X10427D1*
X4813Y15550D2*
X4934D1*
X5813D2*
X5993D1*
X7481D2*
X10427D1*
X4486Y15490D2*
X4934D1*
X5486D2*
X5933D1*
X6299D2*
X6420D1*
X7481D2*
X10427D1*
X4426Y15430D2*
X4934D1*
X5426D2*
X5873D1*
X6239D2*
X7150D1*
X7481D2*
X10427D1*
X4366Y15370D2*
X4934D1*
X5366D2*
X5813D1*
X6179D2*
X6206D1*
X7961D2*
X10427D1*
X4322Y15310D2*
X4403D1*
X4851D2*
X4934D1*
X5321D2*
X5404D1*
X6119D2*
X6141D1*
X7961D2*
X10427D1*
X6058Y15250D2*
X6104D1*
X7961D2*
X10427D1*
X5999Y15190D2*
X6084D1*
X7961D2*
X10427D1*
X6019Y15130D2*
X6077D1*
X7961D2*
X10427D1*
X6043Y15069D2*
X6083D1*
X7961D2*
X8419D1*
X9211D2*
X9295D1*
X10086D2*
X10427D1*
X6058Y15009D2*
X6102D1*
X7961D2*
X8419D1*
X9211D2*
X9295D1*
X10086D2*
X10427D1*
X6062Y14949D2*
X6136D1*
X7961D2*
X8419D1*
X9211D2*
X9295D1*
X10086D2*
X10427D1*
X6059Y14889D2*
X6198D1*
X7961D2*
X8419D1*
X9211D2*
X9295D1*
X10086D2*
X10427D1*
X6048Y14829D2*
X6420D1*
X7961D2*
X8419D1*
X9211D2*
X9295D1*
X10086D2*
X10427D1*
X6027Y14769D2*
X6420D1*
X7961D2*
X8419D1*
X9211D2*
X9295D1*
X10086D2*
X10427D1*
X6042Y14709D2*
X8419D1*
X9211D2*
X9295D1*
X10086D2*
X10427D1*
X6103Y14649D2*
X7169D1*
X7961D2*
X8419D1*
X9211D2*
X9295D1*
X10086D2*
X10427D1*
X4322Y14589D2*
X4375D1*
X4880D2*
X4934D1*
X5321D2*
X5375D1*
X6162D2*
X7169D1*
X7961D2*
X8419D1*
X9211D2*
X9295D1*
X10086D2*
X10427D1*
X4322Y14529D2*
X4500D1*
X4755D2*
X4934D1*
X5321D2*
X5500D1*
X5755D2*
X5856D1*
X6659D2*
X7169D1*
X7961D2*
X8419D1*
X9211D2*
X9295D1*
X10086D2*
X10427D1*
X4322Y14468D2*
X4910D1*
X5321D2*
X5917D1*
X6720D2*
X7169D1*
X7961D2*
X8419D1*
X9211D2*
X9295D1*
X10086D2*
X10427D1*
X4322Y14408D2*
X4850D1*
X5321D2*
X5536D1*
X5720D2*
X5976D1*
X6779D2*
X7169D1*
X7961D2*
X8419D1*
X9211D2*
X9295D1*
X10086D2*
X10427D1*
X4322Y14348D2*
X4790D1*
X5319D2*
X5427D1*
X5827D2*
X6039D1*
X6840D2*
X7169D1*
X7961D2*
X8419D1*
X9211D2*
X9295D1*
X10086D2*
X10427D1*
X4322Y14288D2*
X4730D1*
X5285D2*
X5375D1*
X5880D2*
X6534D1*
X6900D2*
X7169D1*
X7961D2*
X8419D1*
X9211D2*
X9295D1*
X10086D2*
X10427D1*
X4322Y14228D2*
X4670D1*
X5225D2*
X5345D1*
X5910D2*
X6594D1*
X6960D2*
X7169D1*
X7961D2*
X8419D1*
X9211D2*
X9295D1*
X10086D2*
X10427D1*
X4322Y14168D2*
X4610D1*
X5164D2*
X5330D1*
X5925D2*
X6654D1*
X7020D2*
X7169D1*
X7961D2*
X8419D1*
X9211D2*
X9295D1*
X10086D2*
X10427D1*
X4322Y14108D2*
X4549D1*
X5105D2*
X5327D1*
X5928D2*
X6714D1*
X7081D2*
X7169D1*
X7961D2*
X8419D1*
X9211D2*
X9295D1*
X10086D2*
X10427D1*
X4322Y14048D2*
X4490D1*
X5044D2*
X5338D1*
X5917D2*
X6774D1*
X7126D2*
X7169D1*
X7961D2*
X8419D1*
X9211D2*
X9295D1*
X10086D2*
X10427D1*
X4322Y13988D2*
X4429D1*
X4984D2*
X5362D1*
X5893D2*
X5951D1*
X6782D2*
X6834D1*
X7961D2*
X8419D1*
X9211D2*
X9295D1*
X10086D2*
X10427D1*
X4322Y13927D2*
X4370D1*
X4924D2*
X5404D1*
X5850D2*
X5951D1*
X6782D2*
X6872D1*
X7885D2*
X8419D1*
X9211D2*
X9295D1*
X10086D2*
X10427D1*
X4864Y13867D2*
X5482D1*
X5773D2*
X5951D1*
X6782D2*
X6872D1*
X7885D2*
X8419D1*
X9211D2*
X9295D1*
X10086D2*
X10427D1*
X4804Y13807D2*
X5496D1*
X5759D2*
X5951D1*
X6782D2*
X6872D1*
X7885D2*
X8419D1*
X9211D2*
X9295D1*
X10086D2*
X10427D1*
X4744Y13747D2*
X5496D1*
X5759D2*
X5951D1*
X6782D2*
X6872D1*
X7885D2*
X8419D1*
X9211D2*
X9295D1*
X10086D2*
X10427D1*
X4683Y13687D2*
X5496D1*
X5759D2*
X5951D1*
X6782D2*
X6872D1*
X7885D2*
X8416D1*
X9211D2*
X9295D1*
X10086D2*
X10427D1*
X4624Y13627D2*
X5496D1*
X5759D2*
X5951D1*
X6782D2*
X6872D1*
X7885D2*
X8396D1*
X8984D2*
X9271D1*
X9734D2*
X10427D1*
X4571Y13567D2*
X5496D1*
X5759D2*
X5951D1*
X6782D2*
X6872D1*
X7885D2*
X8390D1*
X8991D2*
X9032D1*
X9673D2*
X10427D1*
X4571Y13507D2*
X5496D1*
X5759D2*
X5951D1*
X6782D2*
X6872D1*
X7885D2*
X8395D1*
X9613D2*
X10427D1*
X4571Y13447D2*
X5496D1*
X5759D2*
X5951D1*
X6782D2*
X6872D1*
X7885D2*
X8415D1*
X9554D2*
X10427D1*
X4571Y13387D2*
X5496D1*
X5759D2*
X5905D1*
X6782D2*
X6872D1*
X7885D2*
X8450D1*
X9493D2*
X10427D1*
X4571Y13326D2*
X5496D1*
X5759D2*
X5845D1*
X6782D2*
X6872D1*
X7885D2*
X8512D1*
X8868D2*
X8889D1*
X9490D2*
X10427D1*
X4571Y13266D2*
X5496D1*
X5759D2*
X5785D1*
X6782D2*
X6872D1*
X7885D2*
X8893D1*
X9486D2*
X10427D1*
X4571Y13206D2*
X5496D1*
X6782D2*
X6872D1*
X7885D2*
X8911D1*
X9470D2*
X10427D1*
X4571Y13146D2*
X5496D1*
X6782D2*
X6872D1*
X7885D2*
X8943D1*
X9437D2*
X10427D1*
X4571Y13086D2*
X5496D1*
X6779D2*
X6893D1*
X7494D2*
X8999D1*
X9381D2*
X10427D1*
X4571Y13026D2*
X5496D1*
X6825D2*
X6949D1*
X7546D2*
X9129D1*
X9251D2*
X10427D1*
X4571Y12966D2*
X5496D1*
X6852D2*
X7008D1*
X7575D2*
X10427D1*
X4571Y12906D2*
X5496D1*
X6865D2*
X6993D1*
X7589D2*
X10427D1*
X4571Y12846D2*
X5496D1*
X6864D2*
X6991D1*
X7591D2*
X7669D1*
X9149D2*
X10427D1*
X4571Y12785D2*
X5496D1*
X6851D2*
X7002D1*
X7580D2*
X7669D1*
X9340D2*
X9482D1*
X10274D2*
X10427D1*
X4571Y12725D2*
X5496D1*
X6901D2*
X7027D1*
X7556D2*
X7669D1*
X9452D2*
X9481D1*
X10274D2*
X10427D1*
X4571Y12665D2*
X5496D1*
X6940D2*
X7071D1*
X7512D2*
X7669D1*
X10274D2*
X10427D1*
X4571Y12605D2*
X5496D1*
X6946D2*
X7151D1*
X7433D2*
X7669D1*
X10274D2*
X10427D1*
X4571Y12545D2*
X5496D1*
X6946D2*
X7669D1*
X10274D2*
X10427D1*
X4571Y12485D2*
X5496D1*
X6946D2*
X7669D1*
X10274D2*
X10427D1*
X4571Y12425D2*
X5496D1*
X6946D2*
X7669D1*
X10274D2*
X10427D1*
X4571Y12365D2*
X5496D1*
X6946D2*
X7669D1*
X10274D2*
X10427D1*
X4571Y12305D2*
X5496D1*
X6946D2*
X7669D1*
X10274D2*
X10427D1*
X4571Y12245D2*
X5496D1*
X6946D2*
X7669D1*
X9400D2*
X9482D1*
X10274D2*
X10427D1*
X4571Y12184D2*
X5496D1*
X6946D2*
X7669D1*
X9149D2*
X9482D1*
X10274D2*
X10427D1*
X4571Y12124D2*
X5496D1*
X6946D2*
X9482D1*
X10274D2*
X10427D1*
X4624Y12064D2*
X5496D1*
X6946D2*
X7669D1*
X9149D2*
X10427D1*
X4684Y12004D2*
X5496D1*
X6946D2*
X7669D1*
X9149D2*
X9482D1*
X10274D2*
X10427D1*
X4845Y11944D2*
X5496D1*
X6946D2*
X7669D1*
X9149D2*
X9482D1*
X10274D2*
X10427D1*
X4918Y11884D2*
X5496D1*
X6946D2*
X7669D1*
X9149D2*
X9482D1*
X10274D2*
X10427D1*
X4959Y11824D2*
X5496D1*
X6946D2*
X7669D1*
X9453D2*
X9482D1*
X10274D2*
X10427D1*
X4982Y11764D2*
X5496D1*
X6946D2*
X7669D1*
X10274D2*
X10427D1*
X4990Y11704D2*
X5496D1*
X6946D2*
X7669D1*
X10274D2*
X10427D1*
X4987Y11643D2*
X5496D1*
X6946D2*
X7669D1*
X10274D2*
X10427D1*
X4970Y11583D2*
X5496D1*
X6946D2*
X7669D1*
X10274D2*
X10427D1*
X4939Y11523D2*
X5467D1*
X7211D2*
X7669D1*
X10274D2*
X10427D1*
X4884Y11463D2*
X5406D1*
X7211D2*
X7669D1*
X10274D2*
X10427D1*
X4762Y11403D2*
X5346D1*
X7211D2*
X7669D1*
X10274D2*
X10427D1*
X4756Y11343D2*
X5286D1*
X7211D2*
X7934D1*
X8197D2*
X8621D1*
X10274D2*
X10427D1*
X4759Y11283D2*
X5226D1*
X5592D2*
X5669D1*
X7211D2*
X7934D1*
X8197D2*
X8621D1*
X9655D2*
X10427D1*
X4759Y11223D2*
X5166D1*
X5532D2*
X5669D1*
X7211D2*
X7934D1*
X8197D2*
X8621D1*
X9634D2*
X10427D1*
X4759Y11163D2*
X5106D1*
X5472D2*
X5669D1*
X7211D2*
X7934D1*
X8197D2*
X8621D1*
X9634D2*
X10427D1*
X4759Y11103D2*
X5045D1*
X5412D2*
X5669D1*
X7211D2*
X7934D1*
X8197D2*
X8621D1*
X9634D2*
X10427D1*
X4759Y11042D2*
X4986D1*
X5352D2*
X5669D1*
X7211D2*
X7934D1*
X8197D2*
X8621D1*
X9634D2*
X10427D1*
X4759Y10982D2*
X4925D1*
X5292D2*
X5669D1*
X7211D2*
X7934D1*
X8197D2*
X8621D1*
X9633D2*
X10427D1*
X4758Y10922D2*
X4865D1*
X5231D2*
X5669D1*
X7211D2*
X7934D1*
X8197D2*
X8621D1*
X9606D2*
X10427D1*
X4732Y10862D2*
X4805D1*
X5172D2*
X6420D1*
X7211D2*
X7934D1*
X8197D2*
X8621D1*
X9547D2*
X10427D1*
X4674Y10802D2*
X4745D1*
X5111D2*
X5669D1*
X6461D2*
X7934D1*
X8197D2*
X8619D1*
X9486D2*
X10427D1*
X4613Y10742D2*
X4685D1*
X5051D2*
X5669D1*
X7211D2*
X7934D1*
X8197D2*
X8559D1*
X9427D2*
X10371D1*
X4991Y10682D2*
X5264D1*
X5429D2*
X5669D1*
X7211D2*
X7768D1*
X8197D2*
X8266D1*
X9197D2*
X10318D1*
X4931Y10622D2*
X5188D1*
X5504D2*
X5641D1*
X7211D2*
X7702D1*
X9197D2*
X10286D1*
X4871Y10562D2*
X5129D1*
X7211D2*
X7664D1*
X9197D2*
X10270D1*
X4811Y10501D2*
X5075D1*
X7211D2*
X7643D1*
X9197D2*
X10267D1*
X4750Y10441D2*
X5059D1*
X7211D2*
X7636D1*
X9197D2*
X10276D1*
X4691Y10381D2*
X5059D1*
X7211D2*
X7641D1*
X9183D2*
X10299D1*
X4631Y10321D2*
X5072D1*
X7211D2*
X7659D1*
X9134D2*
X10341D1*
X4570Y10261D2*
X5124D1*
X7211D2*
X7694D1*
X9134D2*
X10356D1*
X4511Y10201D2*
X5183D1*
X7211D2*
X7478D1*
X9134D2*
X10356D1*
X4450Y10141D2*
X5145D1*
X7211D2*
X7411D1*
X9134D2*
X10356D1*
X4390Y10081D2*
X5087D1*
X6637D2*
X7350D1*
X9134D2*
X10356D1*
X4384Y10021D2*
X5060D1*
X6577D2*
X7291D1*
X9134D2*
X10356D1*
X4384Y9961D2*
X4443D1*
X4645D2*
X5059D1*
X6516D2*
X6821D1*
X9134D2*
X10356D1*
X4747Y9900D2*
X5059D1*
X6457D2*
X6821D1*
X8282D2*
X8486D1*
X9134D2*
X10356D1*
X4798Y9840D2*
X4980D1*
X6394D2*
X6821D1*
X8282D2*
X8486D1*
X9134D2*
X10356D1*
X4827Y9780D2*
X4932D1*
X5881D2*
X6821D1*
X7533D2*
X7569D1*
X8282D2*
X8486D1*
X9134D2*
X10356D1*
X4842Y9720D2*
X4904D1*
X5829D2*
X6821D1*
X7533D2*
X7569D1*
X8282D2*
X8486D1*
X9134D2*
X10356D1*
X4844Y9660D2*
X4892D1*
X5489D2*
X5531D1*
X5725D2*
X6821D1*
X7533D2*
X7569D1*
X8282D2*
X8726D1*
X9134D2*
X10356D1*
X4832Y9600D2*
X4891D1*
X5489D2*
X6821D1*
X7533D2*
X7569D1*
X8282D2*
X8667D1*
X9134D2*
X10356D1*
X4808Y9540D2*
X4903D1*
X5477D2*
X6821D1*
X7533D2*
X7569D1*
X8282D2*
X8607D1*
X9131D2*
X10356D1*
X4764Y9480D2*
X4929D1*
X5451D2*
X6605D1*
X7533D2*
X7569D1*
X8282D2*
X8565D1*
X9101D2*
X10356D1*
X4683Y9420D2*
X4975D1*
X5405D2*
X6529D1*
X7533D2*
X7569D1*
X8282D2*
X8559D1*
X9072D2*
X10356D1*
X4509Y9359D2*
X5063D1*
X5318D2*
X6486D1*
X7533D2*
X7569D1*
X9139D2*
X10356D1*
X4509Y9299D2*
X6462D1*
X7533D2*
X7569D1*
X9139D2*
X10356D1*
X4509Y9239D2*
X6452D1*
X7533D2*
X7569D1*
X9139D2*
X10356D1*
X4509Y9179D2*
X6455D1*
X7050D2*
X8229D1*
X9139D2*
X10356D1*
X4509Y9119D2*
X6469D1*
X7034D2*
X8229D1*
X9139D2*
X10356D1*
X4509Y9059D2*
X6500D1*
X7004D2*
X8228D1*
X9139D2*
X10356D1*
X5118Y8999D2*
X6252D1*
X7004D2*
X7590D1*
X9139D2*
X10356D1*
X5118Y8939D2*
X6252D1*
X7004D2*
X7590D1*
X9139D2*
X10356D1*
X5118Y8879D2*
X6252D1*
X7004D2*
X7590D1*
X9139D2*
X9669D1*
X5118Y8819D2*
X6252D1*
X7004D2*
X7590D1*
X8753D2*
X9669D1*
X5118Y8758D2*
X6252D1*
X7004D2*
X7590D1*
X8694D2*
X9669D1*
X5118Y8698D2*
X6252D1*
X7004D2*
X7590D1*
X8633D2*
X9669D1*
X5118Y8638D2*
X5350D1*
X6103D2*
X6252D1*
X7004D2*
X7590D1*
X8573D2*
X9669D1*
X5118Y8578D2*
X5350D1*
X6103D2*
X6252D1*
X7004D2*
X7590D1*
X8513D2*
X9669D1*
X5118Y8518D2*
X5350D1*
X6103D2*
X6252D1*
X7004D2*
X7590D1*
X8509D2*
X9669D1*
X5118Y8458D2*
X5350D1*
X6103D2*
X6252D1*
X7004D2*
X7590D1*
X8509D2*
X9669D1*
X5118Y8398D2*
X5350D1*
X6103D2*
X6252D1*
X7004D2*
X7590D1*
X8509D2*
X9669D1*
X5118Y8338D2*
X5350D1*
X6103D2*
X6252D1*
X7004D2*
X7590D1*
X8509D2*
X9669D1*
X5118Y8278D2*
X5350D1*
X6103D2*
X6252D1*
X7004D2*
X7590D1*
X8509D2*
X9669D1*
X5118Y8217D2*
X5350D1*
X6103D2*
X6252D1*
X7031D2*
X7590D1*
X8509D2*
X9669D1*
X5118Y8157D2*
X5350D1*
X6103D2*
X6252D1*
X7091D2*
X7590D1*
X8505D2*
X9669D1*
X5118Y8097D2*
X5350D1*
X6103D2*
X6688D1*
X7134D2*
X7541D1*
X8468D2*
X9669D1*
X5118Y8037D2*
X5350D1*
X6103D2*
X6748D1*
X7200D2*
X7481D1*
X8408D2*
X9669D1*
X5118Y7977D2*
X5350D1*
X6103D2*
X6748D1*
X7252D2*
X7450D1*
X8341D2*
X9669D1*
X4509Y7917D2*
X5350D1*
X6103D2*
X6718D1*
X7283D2*
X7447D1*
X8205D2*
X9669D1*
X4509Y7857D2*
X6703D1*
X7298D2*
X7447D1*
X8268D2*
X9669D1*
X4509Y7797D2*
X4732D1*
X4774D2*
X6701D1*
X7300D2*
X7447D1*
X8503D2*
X9669D1*
X4509Y7737D2*
X4567D1*
X4938D2*
X6710D1*
X7290D2*
X7447D1*
X8580D2*
X9669D1*
X4996Y7677D2*
X5448D1*
X6181D2*
X6734D1*
X7266D2*
X7447D1*
X8620D2*
X9669D1*
X5124Y7616D2*
X5448D1*
X6181D2*
X6777D1*
X7224D2*
X7447D1*
X8055D2*
X8115D1*
X8640D2*
X9669D1*
X5195Y7556D2*
X5448D1*
X6181D2*
X6854D1*
X7146D2*
X7447D1*
X7755D2*
X7832D1*
X7923D2*
X8110D1*
X8646D2*
X9669D1*
X5254Y7496D2*
X5448D1*
X6181D2*
X7460D1*
X7816D2*
X7843D1*
X8037D2*
X8119D1*
X8637D2*
X9669D1*
X5315Y7436D2*
X5448D1*
X6181D2*
X7510D1*
X8613D2*
X10122D1*
X5375Y7376D2*
X5448D1*
X6181D2*
X7569D1*
X8567D2*
X10122D1*
X4987Y7316D2*
X5068D1*
X6181D2*
X7630D1*
X8200D2*
X8286D1*
X8469D2*
X10122D1*
X4509Y7256D2*
X4586D1*
X4919D2*
X5129D1*
X6181D2*
X7673D1*
X8208D2*
X10122D1*
X4509Y7196D2*
X5189D1*
X6181D2*
X7679D1*
X8202D2*
X10122D1*
X4509Y7136D2*
X5249D1*
X6181D2*
X7699D1*
X8181D2*
X10122D1*
X4509Y7075D2*
X5309D1*
X6181D2*
X7740D1*
X8141D2*
X10122D1*
X4509Y7015D2*
X5370D1*
X6181D2*
X7820D1*
X8060D2*
X10122D1*
X4509Y6955D2*
X5429D1*
X6181D2*
X10122D1*
X4509Y6895D2*
X5448D1*
X6181D2*
X10122D1*
X4509Y6835D2*
X4965D1*
X6181D2*
X10122D1*
X4509Y6775D2*
X4904D1*
X6181D2*
X10122D1*
X4509Y6715D2*
X4640D1*
X6181D2*
X10120D1*
X4509Y6655D2*
X4545D1*
X6195D2*
X10031D1*
X6269Y6595D2*
X9988D1*
X6329Y6535D2*
X9969D1*
X6389Y6474D2*
X9965D1*
X6449Y6414D2*
X9976D1*
X6502Y6354D2*
X10006D1*
X5477Y6294D2*
X5978D1*
X6570D2*
X10063D1*
X5417Y6234D2*
X6039D1*
X6612D2*
X10356D1*
X5357Y6174D2*
X6057D1*
X6636D2*
X10356D1*
X5297Y6114D2*
X5350D1*
X6647D2*
X10356D1*
X5237Y6054D2*
X5350D1*
X6684D2*
X10356D1*
X5118Y5994D2*
X5350D1*
X6744D2*
X10356D1*
X5118Y5934D2*
X5350D1*
X6804D2*
X9715D1*
X10053D2*
X10356D1*
X5118Y5873D2*
X5350D1*
X6103D2*
X6147D1*
X10119D2*
X10356D1*
X5118Y5813D2*
X5350D1*
X6103D2*
X6255D1*
X10156D2*
X10356D1*
X5118Y5753D2*
X5350D1*
X6103D2*
X6393D1*
X10177D2*
X10356D1*
X5118Y5693D2*
X5350D1*
X6103D2*
X6453D1*
X10184D2*
X10356D1*
X5118Y5633D2*
X5350D1*
X6103D2*
X6514D1*
X10179D2*
X10356D1*
X5118Y5573D2*
X5350D1*
X6103D2*
X6573D1*
X10161D2*
X10356D1*
X5118Y5513D2*
X5350D1*
X6103D2*
X6642D1*
X10126D2*
X10343D1*
X5118Y5453D2*
X5350D1*
X6103D2*
X9701D1*
X10066D2*
X10282D1*
X5118Y5393D2*
X5350D1*
X6103D2*
X10222D1*
X5118Y5332D2*
X10162D1*
X5118Y5272D2*
X10102D1*
X5118Y5212D2*
X9416D1*
X10633D2*
X10654D1*
X5118Y5152D2*
X9357D1*
X10573D2*
X10653D1*
X5118Y5092D2*
X9297D1*
X10512D2*
X10653D1*
X5118Y5032D2*
X9236D1*
X10453D2*
X10653D1*
X5126Y4972D2*
X5547D1*
X5833D2*
X9177D1*
X10392D2*
X10653D1*
X5126Y4912D2*
X5431D1*
X5949D2*
X6172D1*
X7004D2*
X7275D1*
X8105D2*
X8867D1*
X10438D2*
X10653D1*
X5126Y4852D2*
X5365D1*
X6015D2*
X6172D1*
X7004D2*
X7275D1*
X8105D2*
X8747D1*
X10438D2*
X10653D1*
X5126Y4792D2*
X5320D1*
X6060D2*
X6172D1*
X7004D2*
X7275D1*
X8105D2*
X8679D1*
X10438D2*
X10653D1*
X5126Y4731D2*
X5288D1*
X6092D2*
X6172D1*
X7004D2*
X7275D1*
X8105D2*
X8633D1*
X10438D2*
X10653D1*
X5126Y4671D2*
X5268D1*
X6112D2*
X6172D1*
X7004D2*
X7275D1*
X8105D2*
X8602D1*
X10438D2*
X10653D1*
X5140Y4611D2*
X5257D1*
X6123D2*
X6172D1*
X7004D2*
X7275D1*
X8105D2*
X8582D1*
X10438D2*
X10653D1*
X5200Y4551D2*
X5255D1*
X6125D2*
X6172D1*
X7004D2*
X7275D1*
X8105D2*
X8570D1*
X10438D2*
X10653D1*
X6119Y4491D2*
X6172D1*
X7004D2*
X7275D1*
X8105D2*
X8567D1*
X10438D2*
X10653D1*
X6104Y4431D2*
X6123D1*
X7004D2*
X7275D1*
X8105D2*
X8574D1*
X10438D2*
X10653D1*
X7004Y4371D2*
X7275D1*
X8105D2*
X8588D1*
X10438D2*
X10653D1*
X7004Y4311D2*
X7275D1*
X8105D2*
X8612D1*
X10438D2*
X10653D1*
X7004Y4251D2*
X7275D1*
X8105D2*
X8650D1*
X10438D2*
X10653D1*
X7004Y4190D2*
X7275D1*
X8105D2*
X8703D1*
X10438D2*
X10653D1*
X7182Y14667D2*
X7955D1*
Y13966D1*
X7878D1*
Y13115D1*
X7450D1*
X7483Y13091D1*
X7505Y13069D1*
X7525Y13046D1*
X7543Y13021D1*
X7557Y12994D1*
X7569Y12965D1*
X7578Y12936D1*
X7584Y12906D1*
X7586Y12867D1*
X7585Y12836D1*
X7580Y12806D1*
X7572Y12776D1*
X7561Y12748D1*
X7547Y12720D1*
X7530Y12694D1*
X7511Y12670D1*
X7489Y12649D1*
X7466Y12629D1*
X7440Y12612D1*
X7413Y12598D1*
X7384Y12587D1*
X7355Y12579D1*
X7324Y12574D1*
X7294Y12572D1*
X7263Y12574D1*
X7233Y12578D1*
X7203Y12586D1*
X7174Y12597D1*
X7147Y12610D1*
X7121Y12627D1*
X7097Y12646D1*
X7075Y12667D1*
X7055Y12691D1*
X7038Y12717D1*
X7024Y12744D1*
X7013Y12772D1*
X7004Y12802D1*
X6999Y12832D1*
X6997Y12863D1*
X6998Y12893D1*
X7002Y12924D1*
X7015Y12967D1*
X6914Y13067D1*
X6895Y13091D1*
X6883Y13119D1*
X6877Y13156D1*
Y13951D1*
X6740Y14087D1*
X6502Y14325D1*
X6117D1*
X6087Y14329D1*
X6058Y14340D1*
X6029Y14362D1*
X5830Y14561D1*
X5777Y14538D1*
X5718Y14520D1*
X5657Y14512D1*
X5596D1*
X5535Y14521D1*
X5476Y14539D1*
X5420Y14564D1*
X5369Y14598D1*
X5323Y14638D1*
X5316Y14646D1*
X5315Y14377D1*
X5312Y14346D1*
X5301Y14318D1*
X5279Y14288D1*
X4566Y13575D1*
X4565Y12117D1*
X4697Y11985D1*
X4745Y11980D1*
X4775Y11972D1*
X4804Y11962D1*
X4831Y11949D1*
X4857Y11933D1*
X4882Y11914D1*
X4904Y11893D1*
X4924Y11869D1*
X4941Y11844D1*
X4956Y11817D1*
X4968Y11789D1*
X4977Y11759D1*
X4982Y11729D1*
X4985Y11690D1*
X4983Y11660D1*
X4978Y11629D1*
X4970Y11600D1*
X4960Y11571D1*
X4946Y11543D1*
X4929Y11518D1*
X4910Y11494D1*
X4888Y11472D1*
X4864Y11453D1*
X4839Y11436D1*
X4811Y11422D1*
X4783Y11411D1*
X4753Y11402D1*
X4722Y11397D1*
X4741Y11369D1*
X4750Y11340D1*
X4753Y11284D1*
Y10939D1*
X4749Y10909D1*
X4738Y10880D1*
X4716Y10850D1*
X4592Y10725D1*
X4601Y10695D1*
X4607Y10659D1*
X5503Y11554D1*
X5502Y11808D1*
Y13861D1*
X5483Y13870D1*
X5457Y13887D1*
X5433Y13906D1*
X5411Y13927D1*
X5391Y13951D1*
X5374Y13976D1*
X5360Y14003D1*
X5349Y14032D1*
X5340Y14062D1*
X5335Y14092D1*
X5333Y14122D1*
X5334Y14153D1*
X5338Y14183D1*
X5346Y14213D1*
X5357Y14242D1*
X5370Y14270D1*
X5386Y14296D1*
X5405Y14320D1*
X5426Y14342D1*
X5450Y14362D1*
X5475Y14379D1*
X5502Y14393D1*
X5531Y14405D1*
X5560Y14413D1*
X5591Y14419D1*
X5621Y14421D1*
X5652Y14420D1*
X5682Y14416D1*
X5712Y14409D1*
X5741Y14398D1*
X5769Y14385D1*
X5795Y14369D1*
X5819Y14350D1*
X5841Y14329D1*
X5861Y14306D1*
X5879Y14281D1*
X5893Y14254D1*
X5905Y14225D1*
X5914Y14196D1*
X5920Y14166D1*
X5922Y14127D1*
X5921Y14096D1*
X5916Y14066D1*
X5908Y14036D1*
X5897Y14007D1*
X5883Y13980D1*
X5866Y13954D1*
X5847Y13930D1*
X5825Y13908D1*
X5802Y13889D1*
X5753Y13860D1*
Y13227D1*
X5957Y13432D1*
Y14013D1*
X6776D1*
Y13115D1*
X6740D1*
X6779Y13080D1*
X6799Y13057D1*
X6816Y13032D1*
X6831Y13005D1*
X6843Y12976D1*
X6852Y12947D1*
X6857Y12917D1*
X6860Y12878D1*
X6858Y12847D1*
X6853Y12817D1*
X6842Y12777D1*
X6904Y12716D1*
X6923Y12692D1*
X6935Y12664D1*
X6940Y12628D1*
Y11540D1*
X7205Y11541D1*
Y10840D1*
X6456D1*
Y10793D1*
X7205D1*
Y10092D1*
X6642D1*
X6402Y9852D1*
X6378Y9833D1*
X6350Y9820D1*
X6313Y9815D1*
X5894D1*
X5866Y9768D1*
X5847Y9744D1*
X5826Y9722D1*
X5802Y9703D1*
X5776Y9686D1*
X5749Y9672D1*
X5720Y9661D1*
X5691Y9652D1*
X5660Y9647D1*
X5630Y9646D1*
X5599Y9647D1*
X5569Y9652D1*
X5539Y9659D1*
X5510Y9670D1*
X5479Y9686D1*
X5485Y9636D1*
X5483Y9597D1*
X5478Y9567D1*
X5470Y9537D1*
X5460Y9508D1*
X5446Y9481D1*
X5429Y9455D1*
X5410Y9431D1*
X5388Y9410D1*
X5364Y9390D1*
X5339Y9373D1*
X5311Y9359D1*
X5283Y9348D1*
X5253Y9340D1*
X5223Y9335D1*
X5192Y9333D1*
X5162Y9334D1*
X5131Y9339D1*
X5102Y9347D1*
X5073Y9357D1*
X5045Y9371D1*
X5019Y9388D1*
X4995Y9407D1*
X4973Y9428D1*
X4954Y9452D1*
X4937Y9477D1*
X4923Y9505D1*
X4911Y9533D1*
X4903Y9563D1*
X4898Y9593D1*
X4896Y9623D1*
X4897Y9654D1*
X4901Y9685D1*
X4909Y9714D1*
X4919Y9743D1*
X4933Y9771D1*
X4949Y9797D1*
X4968Y9821D1*
X4989Y9843D1*
X5013Y9863D1*
X5038Y9880D1*
X5064Y9894D1*
X5065Y10003D1*
X5069Y10033D1*
X5080Y10062D1*
X5102Y10091D1*
X5190Y10180D1*
Y10202D1*
X5102Y10289D1*
X5083Y10313D1*
X5070Y10341D1*
X5065Y10378D1*
Y10440D1*
X5069Y10471D1*
X5080Y10499D1*
X5102Y10529D1*
X5227Y10654D1*
X5251Y10673D1*
X5279Y10685D1*
X5315Y10690D1*
X5378D1*
X5408Y10687D1*
X5437Y10676D1*
X5466Y10654D1*
X5555Y10565D1*
X5577D1*
X5604Y10593D1*
X5628Y10612D1*
X5667Y10627D1*
X5675Y10645D1*
Y10855D1*
X6425D1*
X6424Y10902D1*
X5675D1*
Y11371D1*
X4377Y10074D1*
X4378Y9926D1*
X4418Y9949D1*
X4447Y9960D1*
X4476Y9969D1*
X4507Y9974D1*
X4537Y9976D1*
X4568Y9975D1*
X4598Y9971D1*
X4628Y9964D1*
X4657Y9954D1*
X4685Y9940D1*
X4711Y9924D1*
X4735Y9906D1*
X4757Y9884D1*
X4777Y9861D1*
X4795Y9836D1*
X4809Y9809D1*
X4821Y9780D1*
X4830Y9751D1*
X4835Y9721D1*
X4838Y9682D1*
X4836Y9651D1*
X4832Y9621D1*
X4824Y9591D1*
X4813Y9562D1*
X4799Y9535D1*
X4782Y9509D1*
X4763Y9485D1*
X4741Y9464D1*
X4718Y9444D1*
X4692Y9427D1*
X4665Y9413D1*
X4636Y9402D1*
X4607Y9394D1*
X4576Y9389D1*
X4546Y9387D1*
X4503Y9390D1*
X4504Y9038D1*
X5112D1*
Y7944D1*
X4503D1*
Y7659D1*
X4530Y7696D1*
X4552Y7718D1*
X4575Y7738D1*
X4601Y7755D1*
X4628Y7769D1*
X4656Y7781D1*
X4686Y7790D1*
X4716Y7795D1*
X4746Y7797D1*
X4777Y7796D1*
X4807Y7792D1*
X4837Y7785D1*
X4866Y7775D1*
X4894Y7761D1*
X4920Y7745D1*
X4944Y7726D1*
X4967Y7705D1*
X4986Y7682D1*
X5004Y7657D1*
X5020Y7627D1*
X5065Y7628D1*
X5096Y7624D1*
X5124Y7613D1*
X5154Y7591D1*
X5454Y7291D1*
X5455Y7444D1*
Y7700D1*
X6175D1*
Y7097D1*
Y7034D1*
Y6841D1*
Y6778D1*
Y6662D1*
X6217Y6637D1*
X6261Y6596D1*
X6468Y6390D1*
X6493Y6358D1*
X6514Y6338D1*
X6538Y6319D1*
X6561Y6298D1*
X6580Y6274D1*
X6598Y6249D1*
X6612Y6222D1*
X6624Y6194D1*
X6633Y6164D1*
X6639Y6134D1*
X6641Y6090D1*
X6838Y5893D1*
X9672D1*
X9706Y5923D1*
X9731Y5940D1*
X9759Y5955D1*
X9787Y5967D1*
X9816Y5975D1*
X9847Y5980D1*
X9877Y5983D1*
X9908Y5982D1*
X9938Y5978D1*
X9968Y5970D1*
X9997Y5960D1*
X10025Y5947D1*
X10051Y5931D1*
X10075Y5912D1*
X10097Y5891D1*
X10117Y5867D1*
X10135Y5842D1*
X10149Y5815D1*
X10161Y5787D1*
X10170Y5757D1*
X10176Y5727D1*
X10178Y5688D1*
X10177Y5658D1*
X10172Y5627D1*
X10164Y5598D1*
X10153Y5569D1*
X10139Y5542D1*
X10122Y5516D1*
X10103Y5492D1*
X10081Y5470D1*
X10058Y5451D1*
X10032Y5434D1*
X10005Y5420D1*
X9976Y5409D1*
X9947Y5400D1*
X9916Y5395D1*
X9886Y5394D1*
X9855Y5395D1*
X9825Y5400D1*
X9795Y5407D1*
X9766Y5418D1*
X9739Y5432D1*
X9713Y5448D1*
X9672Y5484D1*
X9484Y5483D1*
X6754D1*
X6723Y5486D1*
X6693Y5493D1*
X6665Y5504D1*
X6638Y5519D1*
X6609Y5543D1*
X6352Y5801D1*
X6318Y5802D1*
X6288Y5807D1*
X6258Y5814D1*
X6229Y5825D1*
X6202Y5839D1*
X6176Y5855D1*
X6152Y5874D1*
X6130Y5896D1*
X6097Y5939D1*
Y5345D1*
X5356D1*
Y6164D1*
X6061D1*
X6073Y6204D1*
X5949Y6329D1*
X5507D1*
X5216Y6039D1*
X5192Y6020D1*
X5164Y6008D1*
X5128Y6002D1*
X5113D1*
X5112Y5963D1*
Y4994D1*
X5119D1*
Y4625D1*
X5271Y4474D1*
X5264Y4513D1*
X5261Y4562D1*
X5263Y4611D1*
X5271Y4659D1*
X5285Y4706D1*
X5304Y4752D1*
X5327Y4795D1*
X5356Y4835D1*
X5389Y4871D1*
X5426Y4903D1*
X5466Y4931D1*
X5510Y4955D1*
X5555Y4973D1*
X5603Y4985D1*
X5651Y4993D1*
X5700Y4994D1*
X5749Y4990D1*
X5797Y4981D1*
X5844Y4966D1*
X5889Y4946D1*
X5931Y4920D1*
X5970Y4890D1*
X6005Y4856D1*
X6037Y4818D1*
X6063Y4777D1*
X6085Y4733D1*
X6102Y4687D1*
X6113Y4639D1*
X6119Y4590D1*
Y4541D1*
X6113Y4492D1*
X6102Y4444D1*
X6085Y4398D1*
X6077Y4379D1*
X6178Y4480D1*
Y4952D1*
X6997D1*
Y4158D1*
X7281D1*
Y4293D1*
Y4952D1*
X8100D1*
Y4158D1*
X8746D1*
X8698Y4201D1*
X8658Y4247D1*
X8625Y4299D1*
X8600Y4355D1*
X8583Y4414D1*
X8574Y4475D1*
X8575Y4536D1*
X8584Y4597D1*
X8602Y4655D1*
X8627Y4711D1*
X8661Y4763D1*
X8702Y4809D1*
X8748Y4848D1*
X8800Y4881D1*
X8856Y4906D1*
X8915Y4923D1*
X8976Y4931D1*
X9037Y4930D1*
X9098Y4921D1*
X9125Y4914D1*
X9420Y5210D1*
X9444Y5230D1*
X9470Y5246D1*
X9498Y5259D1*
X9527Y5266D1*
X9565Y5270D1*
X10105D1*
X10362Y5527D1*
Y6299D1*
X10341Y6283D1*
X10314Y6269D1*
X10285Y6258D1*
X10255Y6250D1*
X10225Y6247D1*
X10194D1*
X10164Y6252D1*
X10134Y6260D1*
X10106Y6272D1*
X10079Y6287D1*
X10055Y6305D1*
X10033Y6327D1*
X10014Y6351D1*
X9998Y6377D1*
X9985Y6405D1*
X9977Y6435D1*
X9972Y6465D1*
X9971Y6496D1*
X9973Y6526D1*
X9980Y6556D1*
X9990Y6585D1*
X10004Y6612D1*
X10022Y6638D1*
X10042Y6661D1*
X10065Y6681D1*
X10091Y6698D1*
X10128Y6715D1*
X10127Y7072D1*
Y7467D1*
X9675D1*
Y8168D1*
X10363D1*
X10362Y8215D1*
X9675D1*
Y8916D1*
X10363D1*
X10362Y10305D1*
X10331Y10341D1*
X10314Y10366D1*
X10300Y10393D1*
X10288Y10422D1*
X10280Y10451D1*
X10275Y10482D1*
X10273Y10512D1*
X10274Y10543D1*
X10278Y10573D1*
X10286Y10603D1*
X10296Y10632D1*
X10310Y10659D1*
X10326Y10685D1*
X10345Y10710D1*
X10366Y10732D1*
X10390Y10752D1*
X10433Y10778D1*
Y12328D1*
Y18909D1*
X10293Y19048D1*
X9128D1*
X9097Y19051D1*
X9067Y19057D1*
X9038Y19069D1*
X9012Y19084D1*
X8983Y19108D1*
X8806Y19285D1*
X8773Y19286D1*
X8742Y19291D1*
X8713Y19299D1*
X8684Y19309D1*
X8656Y19323D1*
X8630Y19339D1*
X8606Y19358D1*
X8584Y19380D1*
X8565Y19404D1*
X8548Y19429D1*
X8534Y19456D1*
X8522Y19485D1*
X8514Y19514D1*
X8509Y19545D1*
X8507Y19575D1*
X8508Y19606D1*
X8512Y19636D1*
X8520Y19666D1*
X8530Y19695D1*
X8544Y19722D1*
X8560Y19748D1*
X8579Y19773D1*
X8600Y19795D1*
X8624Y19815D1*
X8649Y19832D1*
X8676Y19846D1*
X8705Y19858D1*
X8734Y19866D1*
X8764Y19872D1*
X8795Y19874D1*
X8826Y19873D1*
X8856Y19869D1*
X8886Y19862D1*
X8915Y19851D1*
X8942Y19838D1*
X8969Y19822D1*
X8993Y19803D1*
X9015Y19782D1*
X9035Y19759D1*
X9052Y19733D1*
X9067Y19706D1*
X9079Y19678D1*
X9088Y19649D1*
X9093Y19618D1*
X9096Y19575D1*
X9213Y19458D1*
X10378D1*
X10408Y19456D1*
X10438Y19449D1*
X10467Y19438D1*
X10493Y19422D1*
X10522Y19398D1*
X10660Y19260D1*
X10659Y19482D1*
Y22222D1*
X9887D1*
X9886Y22182D1*
Y21532D1*
X9075D1*
X9772Y20835D1*
X9792Y20812D1*
X9809Y20785D1*
X9824Y20782D1*
X10352D1*
Y19884D1*
X8903Y19885D1*
X8916Y19884D1*
X7528Y19885D1*
X7541Y19884D1*
X6254D1*
Y18576D1*
X6522Y18577D1*
X6724D1*
X6895Y18749D1*
X6897Y18780D1*
X6901Y18810D1*
X6908Y18840D1*
X6919Y18869D1*
X6932Y18896D1*
X6949Y18922D1*
X6968Y18946D1*
X6989Y18968D1*
X7012Y18988D1*
X7038Y19005D1*
X7065Y19020D1*
X7093Y19031D1*
X7123Y19040D1*
X7153Y19045D1*
X7184Y19048D1*
X7214Y19047D1*
X7245Y19043D1*
X7275Y19035D1*
X7304Y19025D1*
X7331Y19012D1*
X7357Y18996D1*
X7382Y18977D1*
X7404Y18956D1*
X7424Y18932D1*
X7441Y18907D1*
X7456Y18880D1*
X7468Y18852D1*
X7476Y18822D1*
X7482Y18792D1*
X7485Y18753D1*
X7483Y18722D1*
X7478Y18692D1*
X7470Y18662D1*
X7459Y18634D1*
X7445Y18606D1*
X7426Y18577D1*
X7602Y18576D1*
X7589Y18577D1*
X8412D1*
X8583Y18749D1*
X8584Y18780D1*
X8588Y18810D1*
X8596Y18840D1*
X8606Y18869D1*
X8620Y18896D1*
X8636Y18922D1*
X8655Y18946D1*
X8676Y18968D1*
X8700Y18988D1*
X8725Y19005D1*
X8752Y19020D1*
X8781Y19031D1*
X8810Y19040D1*
X8841Y19045D1*
X8871Y19048D1*
X8902Y19047D1*
X8932Y19043D1*
X8962Y19035D1*
X8991Y19025D1*
X9019Y19012D1*
X9045Y18996D1*
X9069Y18977D1*
X9091Y18956D1*
X9111Y18932D1*
X9129Y18907D1*
X9143Y18880D1*
X9155Y18852D1*
X9164Y18822D1*
X9170Y18792D1*
X9172Y18753D1*
X9170Y18722D1*
X9166Y18692D1*
X9158Y18662D1*
X9147Y18634D1*
X9133Y18606D1*
X9113Y18577D1*
X9787D1*
X9825Y18609D1*
X9843Y18633D1*
X9864Y18655D1*
X9888Y18675D1*
X9913Y18692D1*
X9940Y18706D1*
X9969Y18718D1*
X9998Y18726D1*
X10029Y18732D1*
X10059Y18734D1*
X10090Y18733D1*
X10120Y18729D1*
X10150Y18722D1*
X10179Y18711D1*
X10207Y18698D1*
X10233Y18682D1*
X10257Y18663D1*
X10279Y18642D1*
X10299Y18619D1*
X10325Y18577D1*
X10352D1*
Y18507D1*
X10357Y18479D1*
X10360Y18440D1*
X10358Y18409D1*
X10352Y18372D1*
Y17679D1*
X8903Y17680D1*
X8916Y17679D1*
X7528Y17680D1*
X7541Y17679D1*
X6254D1*
Y17645D1*
X5317D1*
Y20827D1*
X5581D1*
X5580Y21198D1*
X5312Y21466D1*
X5292Y21490D1*
X5276Y21516D1*
X5264Y21544D1*
X5254Y21583D1*
X5198Y21619D1*
X5152Y21659D1*
X5112Y21706D1*
X5079Y21758D1*
X5054Y21814D1*
X5037Y21873D1*
X5029Y21933D1*
Y21995D1*
X5038Y22055D1*
X5056Y22114D1*
X5082Y22170D1*
X5116Y22222D1*
X4221D1*
Y20826D1*
X4403Y20827D1*
X5033D1*
Y18657D1*
X5081Y18636D1*
X5107Y18620D1*
X5132Y18601D1*
X5154Y18580D1*
X5174Y18557D1*
X5191Y18532D1*
X5206Y18505D1*
X5218Y18476D1*
X5227Y18447D1*
X5232Y18417D1*
X5235Y18378D1*
X5233Y18347D1*
X5228Y18317D1*
X5220Y18287D1*
X5210Y18258D1*
X5196Y18231D1*
X5179Y18205D1*
X5160Y18181D1*
X5138Y18160D1*
X5114Y18140D1*
X5089Y18123D1*
X5061Y18109D1*
X5034Y18098D1*
X5033Y17645D1*
X4221D1*
Y17077D1*
X4239Y17121D1*
X4268Y17175D1*
X4305Y17224D1*
X4349Y17267D1*
X4399Y17303D1*
X4453Y17332D1*
X4510Y17353D1*
X4570Y17366D1*
X4632Y17369D1*
X4693Y17364D1*
X4699Y17363D1*
X4890Y17553D1*
X4914Y17572D1*
X4940Y17587D1*
X4970Y17596D1*
X5003Y17600D1*
X6065D1*
X6096Y17597D1*
X6125Y17588D1*
X6152Y17574D1*
X6178Y17553D1*
X6240Y17490D1*
X6260Y17467D1*
X6275Y17440D1*
X6284Y17411D1*
X6287Y17378D1*
Y16693D1*
X6568Y16413D1*
X7253Y16412D1*
X7283Y16409D1*
X7313Y16401D1*
X7340Y16386D1*
X7365Y16365D1*
X7428Y16303D1*
X7447Y16279D1*
X7462Y16252D1*
X7471Y16223D1*
X7475Y16190D1*
Y15414D1*
X7575Y15415D1*
X7955D1*
Y14714D1*
X7175D1*
X7174Y14716D1*
X6425D1*
Y14836D1*
X6380Y14832D1*
X6349Y14834D1*
X6319Y14838D1*
X6289Y14846D1*
X6260Y14857D1*
X6233Y14870D1*
X6207Y14887D1*
X6183Y14906D1*
X6161Y14927D1*
X6141Y14951D1*
X6124Y14976D1*
X6110Y15004D1*
X6099Y15032D1*
X6090Y15062D1*
X6085Y15092D1*
X6083Y15123D1*
X6084Y15153D1*
X6089Y15184D1*
X6096Y15213D1*
X6107Y15242D1*
X6120Y15270D1*
X6136Y15296D1*
X6155Y15320D1*
X6177Y15342D1*
X6200Y15362D1*
X6225Y15379D1*
X6253Y15393D1*
X6281Y15405D1*
X6310Y15414D1*
X6341Y15419D1*
X6371Y15421D1*
X6430Y15417D1*
X7156D1*
Y15465D1*
X6929Y15464D1*
X6425D1*
Y15503D1*
X6306Y15502D1*
X5983Y15180D1*
X6007Y15141D1*
X6032Y15085D1*
X6048Y15026D1*
X6056Y14965D1*
Y14909D1*
X6047Y14849D1*
X6030Y14790D1*
X6006Y14738D1*
X6169Y14576D1*
X6554D1*
X6585Y14572D1*
X6613Y14561D1*
X6643Y14539D1*
X7091Y14091D1*
X7110Y14067D1*
X7125Y14027D1*
X7133Y14013D1*
X7176D1*
X7175Y14667D1*
X7182D1*
X8456Y14355D2*
X9205D1*
Y13654D1*
X8970D1*
X8977Y13634D1*
X8982Y13604D1*
X8985Y13565D1*
X8981Y13522D1*
X9013Y13550D1*
X9038Y13567D1*
X9065Y13582D1*
X9094Y13593D1*
X9123Y13602D1*
X9153Y13607D1*
X9184Y13610D1*
X9215Y13609D1*
X9251Y13603D1*
X9300Y13652D1*
Y14353D1*
X10080D1*
Y13652D1*
X9753D1*
X9478Y13377D1*
X9485Y13324D1*
X9483Y13285D1*
X9478Y13254D1*
X9470Y13225D1*
X9460Y13196D1*
X9446Y13168D1*
X9429Y13143D1*
X9410Y13119D1*
X9388Y13097D1*
X9364Y13078D1*
X9339Y13061D1*
X9311Y13047D1*
X9283Y13036D1*
X9253Y13027D1*
X9223Y13022D1*
X9192Y13021D1*
X9162Y13022D1*
X9131Y13027D1*
X9102Y13034D1*
X9073Y13045D1*
X9045Y13059D1*
X9019Y13075D1*
X8995Y13094D1*
X8973Y13116D1*
X8954Y13139D1*
X8937Y13165D1*
X8923Y13192D1*
X8911Y13221D1*
X8903Y13250D1*
X8898Y13280D1*
X8896Y13311D1*
X8899Y13358D1*
X8864Y13328D1*
X8839Y13311D1*
X8811Y13297D1*
X8783Y13286D1*
X8753Y13277D1*
X8723Y13272D1*
X8692Y13271D1*
X8662Y13272D1*
X8631Y13277D1*
X8602Y13284D1*
X8573Y13295D1*
X8545Y13309D1*
X8519Y13325D1*
X8495Y13344D1*
X8473Y13366D1*
X8454Y13389D1*
X8437Y13415D1*
X8423Y13442D1*
X8411Y13471D1*
X8403Y13500D1*
X8398Y13530D1*
X8396Y13561D1*
X8397Y13592D1*
X8401Y13622D1*
X8409Y13652D1*
X8425Y13694D1*
Y14355D1*
X8456D1*
X8431Y15103D2*
X9205D1*
Y14402D1*
X8425D1*
Y15103D1*
X8431D1*
X6858Y9981D2*
X7258D1*
X7452Y10176D1*
X7476Y10196D1*
X7503Y10211D1*
X7532Y10220D1*
X7565Y10223D1*
X7733D1*
X7700Y10261D1*
X7683Y10286D1*
X7669Y10314D1*
X7658Y10342D1*
X7649Y10372D1*
X7644Y10402D1*
X7642Y10433D1*
X7643Y10463D1*
X7648Y10494D1*
X7655Y10523D1*
X7666Y10552D1*
X7679Y10580D1*
X7695Y10606D1*
X7714Y10630D1*
X7736Y10652D1*
X7759Y10672D1*
X7785Y10689D1*
X7812Y10703D1*
X7840Y10715D1*
X7870Y10724D1*
X7900Y10729D1*
X7941Y10731D1*
X7940Y10872D1*
Y11401D1*
X7675D1*
Y12102D1*
X8455Y12101D1*
X8517Y12102D1*
X9143D1*
Y11840D1*
X9188Y11863D1*
X9217Y11872D1*
X9247Y11878D1*
X9278Y11881D1*
X9308Y11880D1*
X9339Y11875D1*
X9368Y11867D1*
X9397Y11855D1*
X9424Y11840D1*
X9449Y11822D1*
X9471Y11802D1*
X9488Y11782D1*
Y12041D1*
X10268D1*
Y11340D1*
X9706D1*
X9629Y11262D1*
X9628Y11001D1*
X9624Y10971D1*
X9613Y10942D1*
X9592Y10913D1*
X9404Y10725D1*
X9380Y10706D1*
X9352Y10694D1*
X9315Y10688D1*
X9190D1*
X9191Y10506D1*
Y10439D1*
X9187Y10408D1*
X9176Y10380D1*
X9154Y10350D1*
X9128Y10324D1*
Y10100D1*
Y9565D1*
X9124Y9535D1*
X9113Y9506D1*
X9091Y9477D1*
X9065Y9450D1*
X9066Y9389D1*
X9133Y9388D1*
Y8864D1*
X8791D1*
X8757Y8828D1*
X8503Y8574D1*
Y8190D1*
X8499Y8160D1*
X8488Y8131D1*
X8466Y8102D1*
X8363Y7999D1*
X8339Y7980D1*
X8311Y7967D1*
X8275Y7962D1*
X8093D1*
X8107Y7940D1*
X8126D1*
X8156Y7937D1*
X8185Y7926D1*
X8215Y7904D1*
X8304Y7815D1*
X8341Y7823D1*
X8372Y7825D1*
X8403Y7824D1*
X8433Y7819D1*
X8463Y7811D1*
X8491Y7800D1*
X8518Y7785D1*
X8543Y7767D1*
X8565Y7746D1*
X8585Y7723D1*
X8603Y7698D1*
X8617Y7670D1*
X8628Y7642D1*
X8635Y7612D1*
X8640Y7563D1*
X8638Y7533D1*
X8633Y7503D1*
X8624Y7473D1*
X8611Y7445D1*
X8596Y7419D1*
X8578Y7394D1*
X8556Y7372D1*
X8533Y7352D1*
X8507Y7336D1*
X8479Y7322D1*
X8450Y7312D1*
X8421Y7305D1*
X8390Y7302D1*
X8359D1*
X8329Y7306D1*
X8299Y7314D1*
X8270Y7325D1*
X8243Y7339D1*
X8218Y7356D1*
X8195Y7376D1*
X8174Y7399D1*
X8156Y7424D1*
X8141Y7451D1*
X8130Y7479D1*
X8122Y7509D1*
X8117Y7539D1*
X8116Y7570D1*
X8119Y7600D1*
X8127Y7637D1*
X8094Y7670D1*
X8077Y7646D1*
X8056Y7624D1*
X8033Y7604D1*
X8007Y7587D1*
X7979Y7574D1*
X7950Y7564D1*
X7920Y7557D1*
X7890Y7554D1*
X7859D1*
X7829Y7558D1*
X7799Y7565D1*
X7770Y7576D1*
X7743Y7590D1*
X7704Y7620D1*
Y7602D1*
X7822Y7484D1*
X7874Y7504D1*
X7904Y7510D1*
X7934Y7513D1*
X7965Y7512D1*
X7995Y7507D1*
X8025Y7499D1*
X8053Y7487D1*
X8080Y7472D1*
X8105Y7454D1*
X8128Y7434D1*
X8148Y7410D1*
X8165Y7385D1*
X8179Y7358D1*
X8190Y7329D1*
X8198Y7299D1*
X8202Y7251D1*
X8200Y7220D1*
X8195Y7190D1*
X8186Y7161D1*
X8174Y7132D1*
X8158Y7106D1*
X8140Y7081D1*
X8119Y7059D1*
X8095Y7040D1*
X8069Y7023D1*
X8042Y7009D1*
X8013Y6999D1*
X7983Y6992D1*
X7952Y6989D1*
X7922Y6990D1*
X7891Y6994D1*
X7862Y7001D1*
X7833Y7012D1*
X7806Y7026D1*
X7780Y7043D1*
X7757Y7064D1*
X7737Y7086D1*
X7719Y7111D1*
X7704Y7138D1*
X7692Y7167D1*
X7684Y7196D1*
X7680Y7227D1*
Y7272D1*
X7490Y7461D1*
X7471Y7485D1*
X7459Y7513D1*
X7454Y7550D1*
Y7952D1*
X7457Y7983D1*
X7468Y8011D1*
X7490Y8041D1*
X7596Y8147D1*
Y9014D1*
X8190D1*
X8235Y9060D1*
X8236Y9201D1*
X7914D1*
X7575D1*
Y9848D1*
X7528Y9801D1*
Y9201D1*
X7045D1*
X7040Y9160D1*
X7032Y9131D1*
X7022Y9102D1*
X7008Y9074D1*
X6991Y9049D1*
X6962Y9015D1*
X6998Y9014D1*
Y8243D1*
X7093Y8149D1*
X7113Y8125D1*
X7141Y8074D1*
X7168Y8058D1*
X7192Y8039D1*
X7214Y8018D1*
X7234Y7995D1*
X7251Y7970D1*
X7266Y7943D1*
X7278Y7914D1*
X7287Y7885D1*
X7292Y7855D1*
X7295Y7816D1*
X7293Y7785D1*
X7288Y7755D1*
X7280Y7725D1*
X7270Y7696D1*
X7256Y7669D1*
X7239Y7643D1*
X7220Y7619D1*
X7198Y7597D1*
X7174Y7578D1*
X7149Y7561D1*
X7121Y7547D1*
X7093Y7536D1*
X7063Y7528D1*
X7033Y7523D1*
X7002Y7521D1*
X6972Y7522D1*
X6941Y7527D1*
X6912Y7535D1*
X6883Y7545D1*
X6855Y7559D1*
X6829Y7576D1*
X6805Y7595D1*
X6783Y7616D1*
X6764Y7640D1*
X6747Y7665D1*
X6733Y7693D1*
X6721Y7721D1*
X6713Y7751D1*
X6708Y7781D1*
X6706Y7811D1*
X6707Y7842D1*
X6711Y7873D1*
X6719Y7902D1*
X6729Y7931D1*
X6743Y7959D1*
X6759Y7985D1*
X6780Y8011D1*
X6674Y8117D1*
X6257Y8116D1*
Y9014D1*
X6543D1*
X6516Y9045D1*
X6499Y9071D1*
X6485Y9098D1*
X6473Y9127D1*
X6465Y9156D1*
X6460Y9186D1*
X6458Y9217D1*
X6459Y9248D1*
X6463Y9278D1*
X6471Y9308D1*
X6481Y9337D1*
X6495Y9364D1*
X6511Y9390D1*
X6530Y9414D1*
X6551Y9436D1*
X6575Y9456D1*
X6600Y9473D1*
X6627Y9488D1*
X6656Y9499D1*
X6685Y9508D1*
X6715Y9513D1*
X6746Y9516D1*
X6777Y9515D1*
X6813Y9509D1*
X6827Y9539D1*
Y9981D1*
X6858D1*
X8276Y9904D2*
Y9388D1*
X8565D1*
Y9440D1*
X8569Y9471D1*
X8580Y9499D1*
X8602Y9529D1*
X8753Y9680D1*
Y9690D1*
X8491Y9691D1*
Y9905D1*
X8359Y9904D1*
X8275D1*
X6019Y16511D2*
X5438D1*
X5190Y16263D1*
Y15554D1*
X5299Y15664D1*
X5265Y15710D1*
X5236Y15764D1*
X5215Y15822D1*
X5202Y15882D1*
X5198Y15943D1*
X5203Y16004D1*
X5217Y16064D1*
X5239Y16121D1*
X5268Y16175D1*
X5305Y16224D1*
X5349Y16267D1*
X5399Y16303D1*
X5453Y16332D1*
X5510Y16353D1*
X5570Y16366D1*
X5632Y16369D1*
X5693Y16364D1*
X5753Y16351D1*
X5810Y16329D1*
X5864Y16299D1*
X5912Y16261D1*
X5955Y16218D1*
X5991Y16168D1*
X6020Y16114D1*
X6041Y16056D1*
X6053Y15996D1*
X6057Y15940D1*
X6052Y15879D1*
X6039Y15819D1*
X6018Y15762D1*
X5988Y15708D1*
X5952Y15659D1*
X5908Y15615D1*
X5859Y15579D1*
X5805Y15549D1*
X5748Y15528D1*
X5688Y15515D1*
X5626Y15511D1*
X5565Y15516D1*
X5515Y15526D1*
X5315Y15326D1*
Y15235D1*
X5349Y15267D1*
X5399Y15303D1*
X5453Y15332D1*
X5510Y15353D1*
X5570Y15366D1*
X5632Y15369D1*
X5693Y15364D1*
X5753Y15351D1*
X5788Y15338D1*
X5955Y15506D1*
X6165Y15716D1*
X6189Y15735D1*
X6217Y15748D1*
X6254Y15753D1*
X6425D1*
Y16113D1*
X6397Y16133D1*
X6019Y16511D1*
X5198Y16625D2*
Y17282D1*
X5068Y17281D1*
X4978Y17190D1*
X5007Y17141D1*
X5032Y17085D1*
X5048Y17026D1*
X5056Y16965D1*
Y16909D1*
X5047Y16849D1*
X5030Y16790D1*
X5004Y16734D1*
X4971Y16682D1*
X4931Y16636D1*
X4884Y16596D1*
X4833Y16563D1*
X4777Y16538D1*
X4718Y16520D1*
X4657Y16512D1*
X4596D1*
X4535Y16521D1*
X4476Y16539D1*
X4420Y16564D1*
X4369Y16598D1*
X4323Y16638D1*
X4283Y16685D1*
X4250Y16736D1*
X4225Y16792D1*
X4221Y16804D1*
Y16077D1*
X4239Y16121D1*
X4268Y16175D1*
X4305Y16224D1*
X4349Y16267D1*
X4399Y16303D1*
X4453Y16332D1*
X4510Y16353D1*
X4570Y16366D1*
X4632Y16369D1*
X4693Y16364D1*
X4753Y16351D1*
X4810Y16329D1*
X4864Y16299D1*
X4912Y16261D1*
X4940Y16234D1*
Y16315D1*
X4944Y16346D1*
X4955Y16374D1*
X4977Y16404D1*
X5198Y16626D1*
X4940Y15647D2*
X4908Y15615D1*
X4859Y15579D1*
X4805Y15549D1*
X4748Y15528D1*
X4688Y15515D1*
X4626Y15511D1*
X4565Y15516D1*
X4515Y15526D1*
X4315Y15326D1*
Y15235D1*
X4354Y15271D1*
X4393Y15300D1*
X4436Y15324D1*
X4481Y15344D1*
X4528Y15358D1*
X4577Y15366D1*
X4626Y15369D1*
X4675Y15367D1*
X4723Y15359D1*
X4770Y15345D1*
X4816Y15326D1*
X4858Y15302D1*
X4898Y15273D1*
X4935Y15240D1*
X4940Y15235D1*
Y15646D1*
Y14646D2*
X4904Y14611D1*
X4864Y14582D1*
X4822Y14557D1*
X4777Y14538D1*
X4730Y14523D1*
X4681Y14514D1*
X4632Y14511D1*
X4583Y14513D1*
X4535Y14521D1*
X4488Y14534D1*
X4442Y14553D1*
X4399Y14577D1*
X4359Y14605D1*
X4323Y14638D1*
X4315Y14646D1*
Y13868D1*
X4939Y14492D1*
X4940Y14646D1*
X10346Y4932D2*
X10432D1*
Y4158D1*
X10659D1*
Y5246D1*
X10365Y4950D1*
X10346Y4932D1*
X8495Y21534D2*
X8456Y21532D1*
X8394Y21537D1*
X8334Y21550D1*
X8277Y21572D1*
X8223Y21601D1*
X8174Y21638D1*
X8131Y21682D1*
X8095Y21731D1*
X8065Y21785D1*
X8044Y21843D1*
X8032Y21903D1*
X8028Y21964D1*
X8032Y22025D1*
X8046Y22085D1*
X8068Y22142D1*
X8098Y22196D1*
X8116Y22222D1*
X7797D1*
X7821Y22189D1*
X7849Y22135D1*
X7870Y22077D1*
X7882Y22017D1*
X7886Y21961D1*
X7882Y21900D1*
X7869Y21840D1*
X7847Y21783D1*
X7841Y21767D1*
X8397Y21210D1*
X8417Y21187D1*
X8434Y21161D1*
X8446Y21133D1*
X8454Y21103D1*
X8457Y21065D1*
Y20782D1*
X8977D1*
X9246D1*
X8983Y21045D1*
X8494Y21534D1*
X7495D2*
X7456Y21532D1*
X7394Y21537D1*
X7334Y21550D1*
X7277Y21572D1*
X7223Y21601D1*
X7174Y21638D1*
X7131Y21682D1*
X7095Y21731D1*
X7065Y21785D1*
X7044Y21843D1*
X7032Y21903D1*
X7028Y21964D1*
X7032Y22025D1*
X7046Y22085D1*
X7068Y22142D1*
X7098Y22196D1*
X7116Y22222D1*
X6797D1*
X6821Y22189D1*
X6849Y22135D1*
X6870Y22077D1*
X6882Y22017D1*
X6886Y21961D1*
X6882Y21900D1*
X6869Y21840D1*
X6847Y21783D1*
X6818Y21729D1*
X6790Y21691D1*
X6862Y21620D1*
X7210Y21272D1*
X7230Y21249D1*
X7246Y21223D1*
X7259Y21195D1*
X7266Y21165D1*
X7270Y21127D1*
Y20781D1*
X7473Y20782D1*
X7602Y20781D1*
X7589Y20782D1*
X8047D1*
X8048Y20981D1*
X7494Y21534D1*
X6360Y21543D2*
X6305Y21560D1*
X6250Y21585D1*
X6198Y21619D1*
X6152Y21659D1*
X6112Y21706D1*
X6079Y21758D1*
X6054Y21814D1*
X6037Y21873D1*
X6029Y21933D1*
Y21995D1*
X6038Y22055D1*
X6056Y22114D1*
X6082Y22170D1*
X6116Y22222D1*
X5797D1*
X5821Y22189D1*
X5849Y22135D1*
X5870Y22077D1*
X5882Y22017D1*
X5886Y21961D1*
X5882Y21900D1*
X5869Y21840D1*
X5847Y21783D1*
X5818Y21729D1*
X5781Y21680D1*
X5737Y21636D1*
X5728Y21629D1*
X5775Y21582D1*
X5930Y21428D1*
X5950Y21404D1*
X5966Y21378D1*
X5979Y21350D1*
X5987Y21321D1*
X5990Y21283D1*
Y20827D1*
X6254D1*
Y20782D1*
X6860D1*
Y21042D1*
X6359Y21544D1*
X9306Y15101D2*
X10080D1*
Y14400D1*
X9300D1*
Y15101D1*
X9306D1*
X8394Y12102D2*
X8455D1*
Y12149D1*
X8363D1*
Y12102D1*
X8394D1*
X8627Y11401D2*
X8363Y11402D1*
X8302Y11401D1*
X8191D1*
Y11076D1*
Y10597D1*
X8218Y10633D1*
X8239Y10655D1*
X8263Y10675D1*
X8288Y10692D1*
X8315Y10707D1*
X8344Y10718D1*
X8373Y10727D1*
X8403Y10732D1*
X8434Y10735D1*
X8465Y10734D1*
X8495Y10730D1*
X8540Y10717D1*
X8628Y10805D1*
X8627Y11400D1*
X8394Y12850D2*
X9143D1*
Y12776D1*
X9186Y12790D1*
X9216Y12795D1*
X9246Y12797D1*
X9277Y12796D1*
X9307Y12792D1*
X9337Y12785D1*
X9366Y12775D1*
X9394Y12761D1*
X9420Y12745D1*
X9444Y12726D1*
X9467Y12705D1*
X9488Y12680D1*
Y12789D1*
X10268D1*
Y12088D1*
X9488D1*
Y12326D1*
X9451Y12285D1*
X9427Y12265D1*
X9401Y12248D1*
X9374Y12234D1*
X9345Y12223D1*
X9316Y12215D1*
X9285Y12210D1*
X9255Y12208D1*
X9224Y12209D1*
X9194Y12214D1*
X9143Y12229D1*
Y12149D1*
X8363Y12150D1*
X8302Y12149D1*
X7675D1*
Y12850D1*
X8455Y12849D1*
X5455Y6878D2*
X5456Y6932D1*
X5455Y6936D1*
X5017Y7373D1*
X4991Y7330D1*
X4972Y7306D1*
X4951Y7285D1*
X4927Y7265D1*
X4901Y7248D1*
X4874Y7234D1*
X4845Y7223D1*
X4816Y7215D1*
X4785Y7210D1*
X4755Y7208D1*
X4724Y7209D1*
X4694Y7214D1*
X4664Y7222D1*
X4635Y7232D1*
X4608Y7246D1*
X4582Y7263D1*
X4558Y7282D1*
X4536Y7303D1*
X4503Y7347D1*
Y6596D1*
X4530Y6633D1*
X4552Y6655D1*
X4575Y6675D1*
X4601Y6692D1*
X4628Y6707D1*
X4656Y6718D1*
X4686Y6727D1*
X4716Y6732D1*
X4746Y6735D1*
X4777Y6734D1*
X4807Y6730D1*
X4853Y6717D1*
X4977Y6841D1*
X5001Y6860D1*
X5029Y6873D1*
X5065Y6878D1*
X5456D1*
X5455Y6933D1*
X5363Y8684D2*
X6097D1*
Y7865D1*
X5356D1*
Y8684D1*
X5363D1*
X8095Y7669D2*
X8077Y7646D1*
X8056Y7624D1*
X8033Y7604D1*
X8007Y7587D1*
X7979Y7574D1*
X7950Y7564D1*
X7920Y7557D1*
X7890Y7554D1*
X7859D1*
X7829Y7558D1*
X7799Y7565D1*
X7770Y7576D1*
X7743Y7590D1*
X7704Y7620D1*
X6352Y5801D2*
X6318Y5802D1*
X6288Y5807D1*
X6258Y5814D1*
X6229Y5825D1*
X6202Y5839D1*
X6176Y5855D1*
X6152Y5874D1*
X6130Y5896D1*
X6097Y5939D1*
X6502Y6345D2*
X6538Y6319D1*
X6561Y6298D1*
X6580Y6274D1*
X6598Y6249D1*
X6612Y6222D1*
X6624Y6194D1*
X6633Y6164D1*
X6639Y6134D1*
X6641Y6090D1*
X7565Y14667D2*
D17*
Y14316D1*
X7175D2*
X7955D1*
X8815Y15103D2*
Y14402D1*
X8425Y14753D2*
X9205D1*
X7925Y9591D2*
D16*
Y9202D1*
X7575Y9591D2*
X8276D1*
X7469Y13564D2*
D17*
X7878Y13115D1*
X10065Y8916D2*
Y8215D1*
X9675Y8565D2*
X10065D1*
X7690Y4951D2*
Y4503D1*
X7281D2*
X8100D1*
X4628Y15369D2*
Y14511D1*
X10003Y4503D2*
X10432D1*
X9457Y21961D2*
Y21532D1*
Y21961D2*
X9886D1*
X5387Y4869D2*
X5690Y4565D1*
X5994Y4869D2*
X5690Y4565D1*
X9690Y15101D2*
Y14400D1*
X9300Y14751D2*
X10080D1*
X9878Y12789D2*
Y12089D1*
Y12439D2*
X10268D1*
X5815Y7699D2*
Y7526D1*
X5455D2*
X6175D1*
X5727Y6164D2*
Y5345D1*
X5357Y5755D2*
X6097D1*
X5727Y8684D2*
Y7865D1*
X5357Y8274D2*
X6097D1*
X4762Y5538D2*
X5112D1*
X4762Y9038D2*
Y7944D1*
Y8491D2*
X5112D1*
D21*
X7565Y14316D3*
Y15064D3*
X8815Y14005D3*
Y14753D3*
D22*
X7177Y9591D3*
X7925D3*
D23*
X6366Y13564D3*
X7469D3*
D21*
X10065Y8565D3*
Y7817D3*
D23*
X6588Y4503D3*
X7690D3*
D25*
X6628Y8565D3*
X7966D3*
D26*
X5628Y16940D3*
D27*
X4628D3*
X5628Y15940D3*
X4628D3*
X5628Y14940D3*
X4628D3*
D26*
X10003Y4503D3*
D27*
X9003D3*
D26*
X9457Y21961D3*
D27*
X8457D3*
X7457D3*
X6457D3*
X5457D3*
D26*
X4690Y4565D3*
D27*
X5690D3*
D30*
X8940Y9126D3*
X8429D3*
X8684Y9953D3*
D31*
X4565Y19236D3*
X5785D3*
D32*
X6878Y18128D3*
Y20333D3*
X8253Y18128D3*
Y20333D3*
X9628Y18128D3*
Y20333D3*
D21*
X6815Y11190D3*
Y10442D3*
X6065Y11253D3*
Y10505D3*
X6815Y15814D3*
Y15066D3*
X9690Y14003D3*
Y14751D3*
X8753Y11751D3*
Y12499D3*
X8065Y11751D3*
Y12499D3*
X9878Y12439D3*
Y11691D3*
D39*
X5815Y6503D3*
Y6759D3*
Y7014D3*
Y7270D3*
Y7526D3*
D40*
X5727Y5755D3*
Y8274D3*
D41*
X4762Y5538D3*
Y8491D3*
M02*
