G04 DipTrace 2.4.0.2*
%INIoDriverRevF2.g2l*%
%MOIN*%
%ADD13C,0.0061*%
%ADD14C,0.022*%
%ADD16C,0.013*%
%ADD27R,0.0669X0.0669*%
%ADD28C,0.0669*%
%ADD30C,0.0787*%
%ADD48C,0.0295*%
%ADD50C,0.04*%
%FSLAX44Y44*%
G04*
G70*
G90*
G75*
G01*
%LNInner1*%
%LPD*%
X6250Y13250D2*
D13*
X6062Y13437D1*
X5562D1*
X5125Y13875D1*
X4250D1*
X8000Y15000D2*
X7000Y16000D1*
X5187D1*
X4750Y15562D1*
Y15500D1*
X4812D1*
X4250Y10562D2*
X4312Y10500D1*
X4437D1*
X4812Y10125D1*
Y9625D1*
X5125Y9312D1*
X8500D1*
X9000Y8812D1*
Y8125D1*
X4687Y4562D2*
X4125Y5125D1*
Y10125D1*
X4187Y10187D1*
X4250D1*
X5125Y9812D2*
Y10000D1*
X4562Y10562D1*
Y11250D1*
X4586Y11273D1*
X4836D1*
X4926Y11364D1*
Y11760D1*
X4812Y11875D1*
X4625D1*
X4562Y11937D1*
Y12312D1*
X4250Y12625D1*
Y12687D1*
X5500Y9812D2*
X5062Y10250D1*
Y12374D1*
X4374Y13062D1*
X4250D1*
X7437Y17187D2*
D14*
Y16875D1*
X7375Y16812D1*
X6000D1*
X5562Y16375D1*
X5250D1*
X5000D1*
X5500Y15750D2*
D13*
X6500Y14750D1*
Y9562D1*
X6625Y9437D1*
X8625D1*
X9250Y8812D1*
Y7937D1*
X9125Y7812D1*
X8062D1*
X7437Y8437D1*
X6625D1*
D48*
X8312Y18312D3*
X10625Y13437D3*
X8250Y19125D3*
X8375Y16375D3*
X9125D3*
X8000D3*
X6250Y13250D3*
X4250Y13875D3*
X8750Y16375D3*
X6250Y13250D3*
X6187Y8937D3*
X8759Y5572D3*
X4374Y7685D3*
X4499Y6444D3*
X6625Y18312D3*
X10625Y12625D3*
X6437Y19000D3*
X4250Y10937D3*
X7312Y16375D3*
X4250Y10937D3*
Y11312D3*
X6937Y16375D3*
X4250Y11312D3*
X10375Y6375D3*
X4375Y9750D3*
X7437Y15000D3*
X8000D3*
X4812Y15500D3*
X10625Y11500D3*
X5250Y18250D3*
X10625Y11875D3*
X4750Y18750D3*
X8500Y8312D3*
X4250Y11687D3*
X6562Y16375D3*
X4250Y11687D3*
X9000Y8125D3*
X4250Y10562D3*
X9000Y8125D3*
X6375Y7687D3*
X9000Y8125D3*
X9875Y5562D3*
X4250Y10187D3*
D3*
X5125Y9812D3*
X4250Y12687D3*
X5500Y9812D3*
X4250Y13062D3*
D50*
X7687Y7433D3*
D48*
X4250Y13500D3*
Y12062D3*
X6312Y6437D3*
X9937Y6062D3*
X5812Y11750D3*
X6312Y6437D3*
X5812Y11750D3*
X10625Y10750D3*
D3*
X6687Y9062D3*
X8891Y13579D3*
X6001Y13750D3*
X10625Y12250D3*
X5250Y16375D3*
X5000D3*
D50*
X7314Y8873D3*
D48*
X9875Y18250D3*
X10625Y13000D3*
X10000Y19125D3*
X9687Y13875D3*
X8312Y7562D3*
X10625Y11125D3*
X5500Y15750D3*
X6625Y8437D3*
D50*
X6937Y7437D3*
D48*
X7437Y16875D3*
Y17187D3*
X4250Y16250D3*
Y16000D3*
X5375Y19687D3*
X6062D3*
X7062D3*
X7750D3*
X8812D3*
X9437D3*
X8312Y11250D3*
Y11562D3*
Y11875D3*
X8937Y7000D3*
X9375D3*
Y6562D3*
X8937D3*
X4161Y22221D2*
D13*
X10713D1*
X4161Y22161D2*
X5310D1*
X5565D2*
X6310D1*
X6565D2*
X7310D1*
X7565D2*
X8310D1*
X8565D2*
X9002D1*
X9873D2*
X10713D1*
X4161Y22101D2*
X5185D1*
X5690D2*
X6185D1*
X6690D2*
X7185D1*
X7689D2*
X8185D1*
X8689D2*
X9002D1*
X9873D2*
X10713D1*
X4161Y22041D2*
X5116D1*
X5758D2*
X6116D1*
X6759D2*
X7116D1*
X7759D2*
X8116D1*
X8759D2*
X9002D1*
X9873D2*
X10713D1*
X4161Y21981D2*
X5070D1*
X5805D2*
X6070D1*
X6805D2*
X7070D1*
X7805D2*
X8070D1*
X8805D2*
X9002D1*
X9873D2*
X10713D1*
X4161Y21921D2*
X5037D1*
X5836D2*
X6037D1*
X6836D2*
X7037D1*
X7836D2*
X8037D1*
X8836D2*
X9002D1*
X9873D2*
X10713D1*
X4161Y21861D2*
X5016D1*
X5858D2*
X6016D1*
X6857D2*
X7016D1*
X7857D2*
X8016D1*
X8857D2*
X9002D1*
X9873D2*
X10713D1*
X4161Y21800D2*
X5005D1*
X5869D2*
X6005D1*
X6869D2*
X7004D1*
X7869D2*
X8004D1*
X8869D2*
X9002D1*
X9873D2*
X10713D1*
X4161Y21740D2*
X5002D1*
X5872D2*
X6002D1*
X6872D2*
X7002D1*
X7872D2*
X8002D1*
X8872D2*
X9002D1*
X9873D2*
X10713D1*
X4161Y21680D2*
X5007D1*
X5866D2*
X6007D1*
X6867D2*
X7007D1*
X7867D2*
X8007D1*
X8867D2*
X9002D1*
X9873D2*
X10713D1*
X4161Y21620D2*
X5022D1*
X5853D2*
X6022D1*
X6853D2*
X7022D1*
X7853D2*
X8022D1*
X8853D2*
X9002D1*
X9873D2*
X10713D1*
X4161Y21560D2*
X5046D1*
X5828D2*
X6046D1*
X6828D2*
X7046D1*
X7828D2*
X8046D1*
X8829D2*
X9002D1*
X9873D2*
X10713D1*
X4161Y21500D2*
X5081D1*
X5792D2*
X6082D1*
X6792D2*
X7082D1*
X7792D2*
X8082D1*
X8792D2*
X9002D1*
X9873D2*
X10713D1*
X4161Y21440D2*
X5134D1*
X5740D2*
X6134D1*
X6740D2*
X7134D1*
X7740D2*
X8134D1*
X8740D2*
X9002D1*
X9873D2*
X10713D1*
X4161Y21380D2*
X5213D1*
X5661D2*
X6213D1*
X6661D2*
X7213D1*
X7661D2*
X8214D1*
X8661D2*
X9002D1*
X9873D2*
X10713D1*
X4161Y21320D2*
X10713D1*
X4161Y21260D2*
X10713D1*
X4161Y21199D2*
X10713D1*
X4161Y21139D2*
X10713D1*
X4161Y21079D2*
X10713D1*
X4161Y21019D2*
X10713D1*
X4161Y20959D2*
X10713D1*
X4161Y20899D2*
X10713D1*
X4161Y20839D2*
X10713D1*
X4161Y20779D2*
X10713D1*
X4161Y20719D2*
X10713D1*
X4161Y20658D2*
X10713D1*
X4161Y20598D2*
X10713D1*
X4161Y20538D2*
X10713D1*
X4161Y20478D2*
X10713D1*
X4161Y20418D2*
X10713D1*
X4161Y20358D2*
X10713D1*
X4161Y20298D2*
X10713D1*
X4161Y20238D2*
X10713D1*
X4161Y20178D2*
X10713D1*
X4161Y20118D2*
X10713D1*
X4161Y20057D2*
X10713D1*
X4161Y19997D2*
X10713D1*
X4161Y19937D2*
X10713D1*
X4161Y19877D2*
X10713D1*
X4161Y19817D2*
X10713D1*
X4161Y19757D2*
X10713D1*
X4161Y19697D2*
X10713D1*
X4161Y19637D2*
X10713D1*
X4161Y19577D2*
X10713D1*
X4161Y19516D2*
X10713D1*
X4161Y19456D2*
X10713D1*
X4161Y19396D2*
X10713D1*
X4161Y19336D2*
X8125D1*
X8373D2*
X9876D1*
X10123D2*
X10713D1*
X4161Y19276D2*
X8054D1*
X8445D2*
X9805D1*
X10194D2*
X10713D1*
X4161Y19216D2*
X6322D1*
X6551D2*
X8019D1*
X8480D2*
X9769D1*
X10230D2*
X10713D1*
X4161Y19156D2*
X6246D1*
X6628D2*
X8003D1*
X8496D2*
X9753D1*
X10246D2*
X10713D1*
X4161Y19096D2*
X6209D1*
X6666D2*
X8003D1*
X8496D2*
X9753D1*
X10246D2*
X10713D1*
X4161Y19036D2*
X6192D1*
X6683D2*
X8018D1*
X8481D2*
X9768D1*
X10231D2*
X10713D1*
X4161Y18976D2*
X4656D1*
X4842D2*
X6190D1*
X6684D2*
X8052D1*
X8447D2*
X9803D1*
X10196D2*
X10713D1*
X4161Y18915D2*
X4567D1*
X4931D2*
X6204D1*
X6670D2*
X8122D1*
X8378D2*
X9871D1*
X10128D2*
X10713D1*
X4161Y18855D2*
X4526D1*
X4974D2*
X6237D1*
X6638D2*
X10713D1*
X4161Y18795D2*
X4506D1*
X4994D2*
X6301D1*
X6573D2*
X10713D1*
X4161Y18735D2*
X4502D1*
X4998D2*
X10713D1*
X4161Y18675D2*
X4513D1*
X4986D2*
X10713D1*
X4161Y18615D2*
X4542D1*
X4956D2*
X10713D1*
X4161Y18555D2*
X4600D1*
X4900D2*
X10713D1*
X4161Y18495D2*
X6459D1*
X6789D2*
X8147D1*
X8477D2*
X10713D1*
X4161Y18435D2*
X5087D1*
X5411D2*
X6410D1*
X6839D2*
X8098D1*
X8527D2*
X9713D1*
X10037D2*
X10713D1*
X4161Y18374D2*
X5036D1*
X5463D2*
X6385D1*
X6864D2*
X8072D1*
X8552D2*
X9661D1*
X10088D2*
X10713D1*
X4161Y18314D2*
X5010D1*
X5489D2*
X6376D1*
X6873D2*
X8064D1*
X8560D2*
X9635D1*
X10114D2*
X10713D1*
X4161Y18254D2*
X5002D1*
X5498D2*
X6384D1*
X6866D2*
X8071D1*
X8553D2*
X9626D1*
X10123D2*
X10713D1*
X4161Y18194D2*
X5007D1*
X5491D2*
X6407D1*
X6842D2*
X8095D1*
X8529D2*
X9633D1*
X10116D2*
X10713D1*
X4161Y18134D2*
X5030D1*
X5469D2*
X6455D1*
X6795D2*
X8142D1*
X8482D2*
X9656D1*
X10093D2*
X10713D1*
X4161Y18074D2*
X5077D1*
X5423D2*
X6575D1*
X6674D2*
X8262D1*
X8362D2*
X9702D1*
X10047D2*
X10713D1*
X4161Y18014D2*
X5188D1*
X5311D2*
X9813D1*
X9936D2*
X10713D1*
X4161Y17954D2*
X10713D1*
X4161Y17894D2*
X10713D1*
X4161Y17834D2*
X10713D1*
X4161Y17773D2*
X10713D1*
X4161Y17713D2*
X10713D1*
X4161Y17653D2*
X10713D1*
X4161Y17593D2*
X10713D1*
X4161Y17533D2*
X10713D1*
X4161Y17473D2*
X10713D1*
X4161Y17413D2*
X7343D1*
X7530D2*
X10713D1*
X4161Y17353D2*
X7254D1*
X7619D2*
X10713D1*
X4161Y17293D2*
X7213D1*
X7661D2*
X10713D1*
X4161Y17232D2*
X7194D1*
X7681D2*
X10713D1*
X4161Y17172D2*
X7189D1*
X7685D2*
X10713D1*
X4161Y17112D2*
X7200D1*
X7673D2*
X10713D1*
X4161Y17052D2*
X7226D1*
X7648D2*
X10713D1*
X4161Y16992D2*
X5896D1*
X7655D2*
X10713D1*
X4161Y16932D2*
X5824D1*
X7678D2*
X10713D1*
X4161Y16872D2*
X5764D1*
X7686D2*
X10713D1*
X4161Y16812D2*
X5703D1*
X7677D2*
X10713D1*
X4161Y16752D2*
X5644D1*
X7652D2*
X10713D1*
X4161Y16692D2*
X5583D1*
X7601D2*
X10713D1*
X4161Y16631D2*
X5524D1*
X7477D2*
X10713D1*
X4161Y16571D2*
X4852D1*
X6054D2*
X6415D1*
X7459D2*
X7853D1*
X8146D2*
X8227D1*
X8521D2*
X8602D1*
X8897D2*
X8978D1*
X9272D2*
X10713D1*
X4161Y16511D2*
X4793D1*
X5995D2*
X6356D1*
X7518D2*
X7793D1*
X9330D2*
X10713D1*
X4161Y16451D2*
X4764D1*
X5934D2*
X6326D1*
X7547D2*
X7764D1*
X9360D2*
X10713D1*
X4161Y16391D2*
X4752D1*
X5874D2*
X6315D1*
X7560D2*
X7752D1*
X9372D2*
X10713D1*
X4161Y16331D2*
X4755D1*
X5814D2*
X6317D1*
X7556D2*
X7755D1*
X9369D2*
X10713D1*
X4161Y16271D2*
X4774D1*
X5754D2*
X6338D1*
X7537D2*
X7775D1*
X9350D2*
X10713D1*
X4161Y16211D2*
X4816D1*
X5691D2*
X6378D1*
X7497D2*
X7815D1*
X9308D2*
X10713D1*
X4161Y16151D2*
X4901D1*
X5097D2*
X5151D1*
X5348D2*
X6464D1*
X6660D2*
X6838D1*
X7035D2*
X7214D1*
X7410D2*
X7902D1*
X8097D2*
X8276D1*
X8473D2*
X8651D1*
X8848D2*
X9026D1*
X9223D2*
X10713D1*
X4161Y16090D2*
X5095D1*
X7092D2*
X10713D1*
X4161Y16030D2*
X5034D1*
X7152D2*
X10713D1*
X4161Y15970D2*
X4975D1*
X7212D2*
X10713D1*
X4161Y15910D2*
X4914D1*
X7272D2*
X10713D1*
X4161Y15850D2*
X4855D1*
X5220D2*
X5273D1*
X5726D2*
X6966D1*
X7333D2*
X10713D1*
X4161Y15790D2*
X4794D1*
X5161D2*
X5255D1*
X5744D2*
X7026D1*
X7392D2*
X10713D1*
X4161Y15730D2*
X4731D1*
X5100D2*
X5252D1*
X5747D2*
X7086D1*
X7452D2*
X10713D1*
X4161Y15670D2*
X4634D1*
X5041D2*
X5265D1*
X5763D2*
X7147D1*
X7512D2*
X10713D1*
X4161Y15610D2*
X4590D1*
X5034D2*
X5295D1*
X5823D2*
X7206D1*
X7572D2*
X10713D1*
X4161Y15550D2*
X4569D1*
X5055D2*
X5357D1*
X5882D2*
X7266D1*
X7633D2*
X10713D1*
X4161Y15489D2*
X4564D1*
X5060D2*
X5577D1*
X5943D2*
X7326D1*
X7692D2*
X10713D1*
X4161Y15429D2*
X4574D1*
X5050D2*
X5637D1*
X6002D2*
X7386D1*
X7753D2*
X10713D1*
X4161Y15369D2*
X4602D1*
X5023D2*
X5696D1*
X6063D2*
X7447D1*
X7813D2*
X10713D1*
X4161Y15309D2*
X4656D1*
X4968D2*
X5757D1*
X6123D2*
X7506D1*
X7873D2*
X10713D1*
X4161Y15249D2*
X5816D1*
X6183D2*
X7567D1*
X7933D2*
X10713D1*
X4161Y15189D2*
X5877D1*
X6243D2*
X7280D1*
X7594D2*
X7627D1*
X8157D2*
X10713D1*
X4161Y15129D2*
X4473D1*
X4901D2*
X5937D1*
X6304D2*
X7226D1*
X7648D2*
X7687D1*
X8211D2*
X9598D1*
X10026D2*
X10713D1*
X4161Y15069D2*
X4377D1*
X4998D2*
X5997D1*
X6363D2*
X7199D1*
X7675D2*
X7747D1*
X8237D2*
X9501D1*
X10122D2*
X10713D1*
X4161Y15009D2*
X4314D1*
X5060D2*
X6057D1*
X6424D2*
X7189D1*
X7685D2*
X7751D1*
X8248D2*
X9438D1*
X10186D2*
X10713D1*
X4161Y14948D2*
X4269D1*
X5105D2*
X6118D1*
X6483D2*
X7195D1*
X7680D2*
X7757D1*
X8242D2*
X9394D1*
X10231D2*
X10713D1*
X4161Y14888D2*
X4236D1*
X5138D2*
X6177D1*
X6544D2*
X7216D1*
X7658D2*
X7778D1*
X8221D2*
X9361D1*
X10263D2*
X10713D1*
X4161Y14828D2*
X4214D1*
X5161D2*
X6238D1*
X6603D2*
X7260D1*
X7615D2*
X7822D1*
X8177D2*
X9338D1*
X10285D2*
X10713D1*
X4161Y14768D2*
X4199D1*
X5174D2*
X6297D1*
X6629D2*
X7360D1*
X7515D2*
X7922D1*
X8077D2*
X9325D1*
X10300D2*
X10713D1*
X4161Y14708D2*
X4193D1*
X5181D2*
X6358D1*
X6631D2*
X9318D1*
X10305D2*
X10713D1*
X4161Y14648D2*
X4195D1*
X5180D2*
X6368D1*
X6631D2*
X9319D1*
X10305D2*
X10713D1*
X4161Y14588D2*
X4203D1*
X5171D2*
X6368D1*
X6631D2*
X9328D1*
X10296D2*
X10713D1*
X4161Y14528D2*
X4220D1*
X5155D2*
X6368D1*
X6631D2*
X9344D1*
X10280D2*
X10713D1*
X4161Y14468D2*
X4245D1*
X5129D2*
X6368D1*
X6631D2*
X9370D1*
X10255D2*
X10713D1*
X4161Y14408D2*
X4281D1*
X5094D2*
X6368D1*
X6631D2*
X9406D1*
X10218D2*
X10713D1*
X4161Y14347D2*
X4330D1*
X5044D2*
X6368D1*
X6631D2*
X9455D1*
X10169D2*
X10713D1*
X4161Y14287D2*
X4401D1*
X4974D2*
X6368D1*
X6631D2*
X9525D1*
X10098D2*
X10713D1*
X4161Y14227D2*
X4517D1*
X4858D2*
X6368D1*
X6631D2*
X9642D1*
X9982D2*
X10713D1*
X4161Y14167D2*
X6368D1*
X6631D2*
X10713D1*
X4323Y14107D2*
X6368D1*
X6631D2*
X9614D1*
X9760D2*
X10713D1*
X4426Y14047D2*
X6368D1*
X6631D2*
X9511D1*
X9863D2*
X10713D1*
X5186Y13987D2*
X6368D1*
X6631D2*
X9466D1*
X9907D2*
X10713D1*
X5256Y13927D2*
X6368D1*
X6631D2*
X9445D1*
X9929D2*
X10713D1*
X5315Y13867D2*
X6368D1*
X6631D2*
X9439D1*
X9935D2*
X10713D1*
X5376Y13806D2*
X6368D1*
X6631D2*
X9449D1*
X9925D2*
X10713D1*
X4461Y13746D2*
X5070D1*
X5436D2*
X6368D1*
X6631D2*
X9476D1*
X9899D2*
X10713D1*
X4409Y13686D2*
X5129D1*
X5496D2*
X6368D1*
X6631D2*
X9528D1*
X9846D2*
X10713D1*
X4462Y13626D2*
X5190D1*
X5556D2*
X6368D1*
X6631D2*
X10467D1*
X4488Y13566D2*
X5250D1*
X5616D2*
X6368D1*
X6631D2*
X10413D1*
X4498Y13506D2*
X5310D1*
X6176D2*
X6368D1*
X6631D2*
X10386D1*
X4492Y13446D2*
X5370D1*
X6631D2*
X10377D1*
X4469Y13386D2*
X5430D1*
X6631D2*
X10381D1*
X4424Y13326D2*
X5499D1*
X6631D2*
X10404D1*
X4386Y13266D2*
X6002D1*
X6631D2*
X10448D1*
X4451Y13205D2*
X6005D1*
X6631D2*
X10491D1*
X4483Y13145D2*
X6025D1*
X6631D2*
X10425D1*
X4534Y13085D2*
X6066D1*
X6631D2*
X10392D1*
X4595Y13025D2*
X6152D1*
X6347D2*
X6369D1*
X6631D2*
X10378D1*
X4655Y12965D2*
X6368D1*
X6631D2*
X10379D1*
X4715Y12905D2*
X6368D1*
X6631D2*
X10396D1*
X4775Y12845D2*
X6368D1*
X6631D2*
X10432D1*
X4835Y12785D2*
X6368D1*
X6631D2*
X10437D1*
X4495Y12725D2*
X4529D1*
X4895D2*
X6368D1*
X6631D2*
X10398D1*
X4497Y12665D2*
X4589D1*
X4955D2*
X6368D1*
X6631D2*
X10380D1*
X4483Y12604D2*
X4649D1*
X5015D2*
X6368D1*
X6631D2*
X10377D1*
X4513Y12544D2*
X4709D1*
X5075D2*
X6368D1*
X6631D2*
X10390D1*
X4573Y12484D2*
X4769D1*
X5136D2*
X6368D1*
X6631D2*
X10421D1*
X4633Y12424D2*
X4829D1*
X5183D2*
X6368D1*
X6631D2*
X10451D1*
X4682Y12364D2*
X4889D1*
X5193D2*
X6368D1*
X6631D2*
X10405D1*
X4693Y12304D2*
X4931D1*
X5193D2*
X6368D1*
X6631D2*
X10382D1*
X4693Y12244D2*
X4931D1*
X5193D2*
X6368D1*
X6631D2*
X10377D1*
X4693Y12184D2*
X4931D1*
X5193D2*
X6368D1*
X6631D2*
X10385D1*
X4693Y12124D2*
X4931D1*
X5193D2*
X6368D1*
X6631D2*
X10411D1*
X4693Y12063D2*
X4931D1*
X5193D2*
X6368D1*
X6631D2*
X8154D1*
X8470D2*
X10463D1*
X4693Y12003D2*
X4931D1*
X5193D2*
X6368D1*
X6631D2*
X8101D1*
X8523D2*
X10413D1*
X5193Y11943D2*
X5661D1*
X5963D2*
X6368D1*
X6631D2*
X8074D1*
X8550D2*
X10386D1*
X4419Y11883D2*
X4443D1*
X5193D2*
X5604D1*
X6020D2*
X6368D1*
X6631D2*
X8064D1*
X8560D2*
X10377D1*
X4455Y11823D2*
X4493D1*
X5193D2*
X5576D1*
X6048D2*
X6368D1*
X6631D2*
X8070D1*
X8555D2*
X10381D1*
X4485Y11763D2*
X4561D1*
X5193D2*
X5564D1*
X6060D2*
X6368D1*
X6631D2*
X8091D1*
X8533D2*
X10404D1*
X4498Y11703D2*
X4794D1*
X5193D2*
X5569D1*
X6056D2*
X6368D1*
X6631D2*
X8109D1*
X8515D2*
X10448D1*
X4494Y11643D2*
X4794D1*
X5193D2*
X5589D1*
X6035D2*
X6368D1*
X6631D2*
X8077D1*
X8546D2*
X10423D1*
X4474Y11583D2*
X4794D1*
X5193D2*
X5630D1*
X5994D2*
X6368D1*
X6631D2*
X8065D1*
X8559D2*
X10391D1*
X4433Y11523D2*
X4794D1*
X5193D2*
X5722D1*
X5903D2*
X6368D1*
X6631D2*
X8067D1*
X8557D2*
X10378D1*
X4445Y11462D2*
X4794D1*
X5193D2*
X6368D1*
X6631D2*
X8085D1*
X8539D2*
X10380D1*
X4480Y11402D2*
X4782D1*
X5193D2*
X6368D1*
X6631D2*
X8118D1*
X8506D2*
X10397D1*
X5193Y11342D2*
X6368D1*
X6631D2*
X8082D1*
X8542D2*
X10434D1*
X5193Y11282D2*
X6368D1*
X6631D2*
X8066D1*
X8558D2*
X10434D1*
X5193Y11222D2*
X6368D1*
X6631D2*
X8065D1*
X8559D2*
X10397D1*
X4899Y11162D2*
X4931D1*
X5193D2*
X6368D1*
X6631D2*
X8080D1*
X8544D2*
X10380D1*
X4693Y11102D2*
X4931D1*
X5193D2*
X6368D1*
X6631D2*
X8114D1*
X8510D2*
X10378D1*
X4693Y11042D2*
X4931D1*
X5193D2*
X6368D1*
X6631D2*
X8182D1*
X8442D2*
X10391D1*
X4693Y10982D2*
X4931D1*
X5193D2*
X6368D1*
X6631D2*
X10423D1*
X4693Y10921D2*
X4931D1*
X5193D2*
X6368D1*
X6631D2*
X10486D1*
X4693Y10861D2*
X4931D1*
X5193D2*
X6368D1*
X6631D2*
X10713D1*
X4693Y10801D2*
X4931D1*
X5193D2*
X6368D1*
X6631D2*
X10713D1*
X4693Y10741D2*
X4931D1*
X5193D2*
X6368D1*
X6631D2*
X10713D1*
X4693Y10681D2*
X4931D1*
X5193D2*
X6368D1*
X6631D2*
X10713D1*
X4693Y10621D2*
X4931D1*
X5193D2*
X6368D1*
X6631D2*
X10713D1*
X4746Y10561D2*
X4931D1*
X5193D2*
X6368D1*
X6631D2*
X10713D1*
X4807Y10501D2*
X4931D1*
X5193D2*
X6368D1*
X6631D2*
X10713D1*
X4866Y10441D2*
X4931D1*
X5193D2*
X6368D1*
X6631D2*
X10713D1*
X5193Y10381D2*
X6368D1*
X6631D2*
X10713D1*
X5193Y10320D2*
X6368D1*
X6631D2*
X10713D1*
X5235Y10260D2*
X6368D1*
X6631D2*
X10713D1*
X4498Y10200D2*
X4554D1*
X5294D2*
X6368D1*
X6631D2*
X10713D1*
X4493Y10140D2*
X4613D1*
X5355D2*
X6368D1*
X6631D2*
X10713D1*
X4473Y10080D2*
X4674D1*
X5415D2*
X6368D1*
X6631D2*
X10713D1*
X4431Y10020D2*
X4680D1*
X5630D2*
X6368D1*
X6631D2*
X10713D1*
X4501Y9960D2*
X4680D1*
X5697D2*
X6368D1*
X6631D2*
X10713D1*
X4571Y9900D2*
X4680D1*
X5731D2*
X6368D1*
X6631D2*
X10713D1*
X4605Y9840D2*
X4680D1*
X5746D2*
X6368D1*
X6631D2*
X10713D1*
X4621Y9779D2*
X4680D1*
X5745D2*
X6368D1*
X6631D2*
X10713D1*
X4621Y9719D2*
X4680D1*
X5729D2*
X6368D1*
X6631D2*
X10713D1*
X4605Y9659D2*
X4680D1*
X5693D2*
X6368D1*
X6631D2*
X10713D1*
X4571Y9599D2*
X4683D1*
X5246D2*
X5378D1*
X5620D2*
X6368D1*
X6645D2*
X10713D1*
X4501Y9539D2*
X4715D1*
X5080D2*
X6370D1*
X8703D2*
X10713D1*
X4256Y9479D2*
X4774D1*
X5141D2*
X6400D1*
X8765D2*
X10713D1*
X4256Y9419D2*
X4835D1*
X8826D2*
X10713D1*
X4256Y9359D2*
X4894D1*
X8886D2*
X10713D1*
X4256Y9299D2*
X4955D1*
X8946D2*
X10713D1*
X4256Y9239D2*
X5015D1*
X9006D2*
X10713D1*
X4256Y9178D2*
X6163D1*
X6211D2*
X8450D1*
X9067D2*
X10713D1*
X4256Y9118D2*
X6021D1*
X6354D2*
X7146D1*
X7483D2*
X8510D1*
X9126D2*
X10713D1*
X4256Y9058D2*
X5971D1*
X6403D2*
X7079D1*
X7549D2*
X8571D1*
X9187D2*
X10713D1*
X4256Y8998D2*
X5947D1*
X6428D2*
X7042D1*
X7587D2*
X8630D1*
X9247D2*
X10713D1*
X4256Y8938D2*
X5938D1*
X6435D2*
X7021D1*
X7607D2*
X8691D1*
X9306D2*
X10713D1*
X4256Y8878D2*
X5946D1*
X6428D2*
X7013D1*
X7615D2*
X8750D1*
X9362D2*
X10713D1*
X4256Y8818D2*
X5970D1*
X6404D2*
X7019D1*
X7610D2*
X8811D1*
X9380D2*
X10713D1*
X4256Y8758D2*
X6018D1*
X6356D2*
X7037D1*
X7592D2*
X8868D1*
X9380D2*
X10713D1*
X4256Y8698D2*
X6145D1*
X6229D2*
X7072D1*
X7557D2*
X8868D1*
X9380D2*
X10713D1*
X4256Y8637D2*
X6482D1*
X6766D2*
X7131D1*
X7498D2*
X8868D1*
X9380D2*
X10713D1*
X4256Y8577D2*
X6421D1*
X6828D2*
X8868D1*
X9380D2*
X10713D1*
X4256Y8517D2*
X6390D1*
X7540D2*
X8365D1*
X8634D2*
X8868D1*
X9380D2*
X10713D1*
X4256Y8457D2*
X6377D1*
X7600D2*
X8300D1*
X8699D2*
X8868D1*
X9380D2*
X10713D1*
X4256Y8397D2*
X6380D1*
X7660D2*
X8266D1*
X8733D2*
X8868D1*
X9380D2*
X10713D1*
X4256Y8337D2*
X6398D1*
X7720D2*
X8253D1*
X8746D2*
X8868D1*
X9380D2*
X10713D1*
X4256Y8277D2*
X6436D1*
X6812D2*
X7414D1*
X7781D2*
X8254D1*
X8745D2*
X8805D1*
X9380D2*
X10713D1*
X4256Y8217D2*
X6518D1*
X6731D2*
X7474D1*
X7840D2*
X8271D1*
X8728D2*
X8769D1*
X9380D2*
X10713D1*
X4256Y8157D2*
X7534D1*
X7901D2*
X8308D1*
X8691D2*
X8753D1*
X9380D2*
X10713D1*
X4256Y8097D2*
X7595D1*
X7961D2*
X8384D1*
X8616D2*
X8753D1*
X9380D2*
X10713D1*
X4256Y8036D2*
X7654D1*
X8021D2*
X8768D1*
X9380D2*
X10713D1*
X4256Y7976D2*
X7715D1*
X8081D2*
X8802D1*
X9380D2*
X10713D1*
X4256Y7916D2*
X4296D1*
X4453D2*
X6291D1*
X6458D2*
X7775D1*
X9379D2*
X10713D1*
X4552Y7856D2*
X6196D1*
X6554D2*
X7835D1*
X9352D2*
X10713D1*
X4596Y7796D2*
X6152D1*
X6596D2*
X7895D1*
X9292D2*
X10713D1*
X4617Y7736D2*
X6131D1*
X6618D2*
X7955D1*
X9232D2*
X10713D1*
X4622Y7676D2*
X6126D1*
X6622D2*
X7514D1*
X7860D2*
X8092D1*
X8532D2*
X10713D1*
X4612Y7616D2*
X6137D1*
X6612D2*
X7450D1*
X7925D2*
X8070D1*
X8554D2*
X10713D1*
X4585Y7556D2*
X6165D1*
X6584D2*
X7413D1*
X7961D2*
X8064D1*
X8560D2*
X10713D1*
X4530Y7495D2*
X6220D1*
X6528D2*
X7393D1*
X7981D2*
X8074D1*
X8551D2*
X10713D1*
X4256Y7435D2*
X7386D1*
X7988D2*
X8099D1*
X8524D2*
X10713D1*
X4256Y7375D2*
X7392D1*
X7982D2*
X8152D1*
X8473D2*
X10713D1*
X4256Y7315D2*
X7411D1*
X7963D2*
X10713D1*
X4256Y7255D2*
X7447D1*
X7927D2*
X10713D1*
X4256Y7195D2*
X7508D1*
X7866D2*
X8788D1*
X9086D2*
X9225D1*
X9523D2*
X10713D1*
X4256Y7135D2*
X8730D1*
X9144D2*
X9168D1*
X9581D2*
X10713D1*
X4256Y7075D2*
X8701D1*
X9611D2*
X10713D1*
X4256Y7015D2*
X8690D1*
X9622D2*
X10713D1*
X4256Y6955D2*
X8693D1*
X9618D2*
X10713D1*
X4256Y6894D2*
X8713D1*
X9599D2*
X10713D1*
X4256Y6834D2*
X8754D1*
X9558D2*
X10713D1*
X4256Y6774D2*
X8814D1*
X9497D2*
X10713D1*
X4256Y6714D2*
X8742D1*
X9569D2*
X10713D1*
X4256Y6654D2*
X4372D1*
X4626D2*
X6198D1*
X6426D2*
X8707D1*
X9605D2*
X10713D1*
X4256Y6594D2*
X4303D1*
X4695D2*
X6122D1*
X6502D2*
X8691D1*
X9620D2*
X10266D1*
X10483D2*
X10713D1*
X4730Y6534D2*
X6084D1*
X6540D2*
X8691D1*
X9621D2*
X10186D1*
X10563D2*
X10713D1*
X4745Y6474D2*
X6067D1*
X6557D2*
X8706D1*
X9606D2*
X10147D1*
X10601D2*
X10713D1*
X4745Y6414D2*
X6065D1*
X6559D2*
X8740D1*
X9135D2*
X9177D1*
X9572D2*
X10129D1*
X10619D2*
X10713D1*
X4730Y6353D2*
X6078D1*
X6546D2*
X8808D1*
X9066D2*
X9245D1*
X9503D2*
X10127D1*
X10622D2*
X10713D1*
X4256Y6293D2*
X4304D1*
X4694D2*
X6111D1*
X6513D2*
X9859D1*
X10015D2*
X10141D1*
X10609D2*
X10713D1*
X4256Y6233D2*
X4374D1*
X4624D2*
X6175D1*
X6449D2*
X9760D1*
X10115D2*
X10171D1*
X10577D2*
X10713D1*
X4256Y6173D2*
X9715D1*
X10159D2*
X10234D1*
X10515D2*
X10713D1*
X4256Y6113D2*
X9694D1*
X10180D2*
X10713D1*
X4256Y6053D2*
X9689D1*
X10186D2*
X10713D1*
X4256Y5993D2*
X9699D1*
X10175D2*
X10713D1*
X4256Y5933D2*
X9726D1*
X10148D2*
X10713D1*
X4256Y5873D2*
X9780D1*
X10094D2*
X10713D1*
X4256Y5813D2*
X8727D1*
X8792D2*
X10713D1*
X4256Y5752D2*
X8592D1*
X8926D2*
X9719D1*
X10030D2*
X10713D1*
X4256Y5692D2*
X8543D1*
X8975D2*
X9665D1*
X10085D2*
X10713D1*
X4256Y5632D2*
X8519D1*
X9000D2*
X9637D1*
X10113D2*
X10713D1*
X4256Y5572D2*
X8511D1*
X9008D2*
X9626D1*
X10122D2*
X10713D1*
X4256Y5512D2*
X8519D1*
X9000D2*
X9631D1*
X10117D2*
X10713D1*
X4256Y5452D2*
X8543D1*
X8975D2*
X9653D1*
X10096D2*
X10713D1*
X4256Y5392D2*
X8592D1*
X8927D2*
X9696D1*
X10053D2*
X10713D1*
X4256Y5332D2*
X8722D1*
X8796D2*
X9794D1*
X9955D2*
X10713D1*
X4256Y5272D2*
X10713D1*
X4256Y5211D2*
X7148D1*
X7475D2*
X10713D1*
X4281Y5151D2*
X7028D1*
X7595D2*
X10713D1*
X4341Y5091D2*
X6957D1*
X7666D2*
X8542D1*
X9413D2*
X9782D1*
X10173D2*
X10713D1*
X4401Y5031D2*
X6908D1*
X7717D2*
X8542D1*
X9413D2*
X9691D1*
X10263D2*
X10713D1*
X5122Y4971D2*
X5552D1*
X5823D2*
X6871D1*
X7753D2*
X8542D1*
X9413D2*
X9634D1*
X10321D2*
X10713D1*
X5122Y4911D2*
X5431D1*
X5943D2*
X6845D1*
X7779D2*
X8542D1*
X9413D2*
X9595D1*
X10360D2*
X10713D1*
X5122Y4851D2*
X5364D1*
X6010D2*
X6828D1*
X7796D2*
X8542D1*
X9413D2*
X9568D1*
X10387D2*
X10713D1*
X5122Y4791D2*
X5317D1*
X6056D2*
X6819D1*
X7805D2*
X8542D1*
X9413D2*
X9550D1*
X10404D2*
X10713D1*
X5122Y4731D2*
X5287D1*
X6088D2*
X6818D1*
X7806D2*
X8542D1*
X9413D2*
X9543D1*
X10412D2*
X10713D1*
X5122Y4671D2*
X5266D1*
X6108D2*
X6824D1*
X7800D2*
X8542D1*
X9413D2*
X9544D1*
X10411D2*
X10713D1*
X5122Y4610D2*
X5254D1*
X6120D2*
X6838D1*
X7786D2*
X8542D1*
X9413D2*
X9553D1*
X10401D2*
X10713D1*
X5122Y4550D2*
X5252D1*
X6122D2*
X6861D1*
X7763D2*
X8542D1*
X9413D2*
X9572D1*
X10383D2*
X10713D1*
X5122Y4490D2*
X5258D1*
X6117D2*
X6892D1*
X7732D2*
X8542D1*
X9413D2*
X9600D1*
X10354D2*
X10713D1*
X5122Y4430D2*
X5272D1*
X6101D2*
X6936D1*
X7688D2*
X8542D1*
X9413D2*
X9643D1*
X10312D2*
X10713D1*
X5122Y4370D2*
X5297D1*
X6077D2*
X6999D1*
X7625D2*
X8542D1*
X9413D2*
X9705D1*
X10250D2*
X10713D1*
X5122Y4310D2*
X5334D1*
X6041D2*
X7094D1*
X7530D2*
X8542D1*
X9413D2*
X9807D1*
X10148D2*
X10713D1*
X5122Y4250D2*
X5387D1*
X5987D2*
X10713D1*
X5122Y4190D2*
X5467D1*
X5906D2*
X10713D1*
X9038Y22179D2*
X9866D1*
Y21320D1*
X9008D1*
Y22179D1*
X9038D1*
X8865Y21719D2*
X8856Y21658D1*
X8839Y21599D1*
X8814Y21543D1*
X8780Y21492D1*
X8740Y21446D1*
X8694Y21405D1*
X8642Y21372D1*
X8586Y21347D1*
X8527Y21330D1*
X8466Y21321D1*
X8405D1*
X8344Y21330D1*
X8285Y21348D1*
X8230Y21374D1*
X8178Y21407D1*
X8132Y21447D1*
X8092Y21494D1*
X8059Y21546D1*
X8034Y21602D1*
X8017Y21661D1*
X8009Y21722D1*
Y21783D1*
X8018Y21844D1*
X8036Y21902D1*
X8062Y21958D1*
X8095Y22009D1*
X8136Y22055D1*
X8183Y22095D1*
X8235Y22128D1*
X8291Y22153D1*
X8350Y22170D1*
X8410Y22178D1*
X8472Y22177D1*
X8532Y22168D1*
X8591Y22150D1*
X8647Y22124D1*
X8698Y22090D1*
X8744Y22050D1*
X8784Y22003D1*
X8816Y21951D1*
X8841Y21895D1*
X8858Y21836D1*
X8865Y21775D1*
Y21719D1*
X7865D2*
X7856Y21658D1*
X7839Y21599D1*
X7814Y21543D1*
X7780Y21492D1*
X7740Y21446D1*
X7694Y21405D1*
X7642Y21372D1*
X7586Y21347D1*
X7527Y21330D1*
X7466Y21321D1*
X7405D1*
X7344Y21330D1*
X7285Y21348D1*
X7230Y21374D1*
X7178Y21407D1*
X7132Y21447D1*
X7092Y21494D1*
X7059Y21546D1*
X7034Y21602D1*
X7017Y21661D1*
X7009Y21722D1*
Y21783D1*
X7018Y21844D1*
X7036Y21902D1*
X7062Y21958D1*
X7095Y22009D1*
X7136Y22055D1*
X7183Y22095D1*
X7235Y22128D1*
X7291Y22153D1*
X7350Y22170D1*
X7410Y22178D1*
X7472Y22177D1*
X7532Y22168D1*
X7591Y22150D1*
X7647Y22124D1*
X7698Y22090D1*
X7744Y22050D1*
X7784Y22003D1*
X7816Y21951D1*
X7841Y21895D1*
X7858Y21836D1*
X7865Y21775D1*
Y21719D1*
X6865D2*
X6856Y21658D1*
X6839Y21599D1*
X6814Y21543D1*
X6780Y21492D1*
X6740Y21446D1*
X6694Y21405D1*
X6642Y21372D1*
X6586Y21347D1*
X6527Y21330D1*
X6466Y21321D1*
X6405D1*
X6344Y21330D1*
X6285Y21348D1*
X6230Y21374D1*
X6178Y21407D1*
X6132Y21447D1*
X6092Y21494D1*
X6059Y21546D1*
X6034Y21602D1*
X6017Y21661D1*
X6009Y21722D1*
Y21783D1*
X6018Y21844D1*
X6036Y21902D1*
X6062Y21958D1*
X6095Y22009D1*
X6136Y22055D1*
X6183Y22095D1*
X6235Y22128D1*
X6291Y22153D1*
X6350Y22170D1*
X6410Y22178D1*
X6472Y22177D1*
X6532Y22168D1*
X6591Y22150D1*
X6647Y22124D1*
X6698Y22090D1*
X6744Y22050D1*
X6784Y22003D1*
X6816Y21951D1*
X6841Y21895D1*
X6858Y21836D1*
X6865Y21775D1*
Y21719D1*
X5865D2*
X5856Y21658D1*
X5839Y21599D1*
X5814Y21543D1*
X5780Y21492D1*
X5740Y21446D1*
X5694Y21405D1*
X5642Y21372D1*
X5586Y21347D1*
X5527Y21330D1*
X5466Y21321D1*
X5405D1*
X5344Y21330D1*
X5285Y21348D1*
X5230Y21374D1*
X5178Y21407D1*
X5132Y21447D1*
X5092Y21494D1*
X5059Y21546D1*
X5034Y21602D1*
X5017Y21661D1*
X5009Y21722D1*
Y21783D1*
X5018Y21844D1*
X5036Y21902D1*
X5062Y21958D1*
X5095Y22009D1*
X5136Y22055D1*
X5183Y22095D1*
X5235Y22128D1*
X5291Y22153D1*
X5350Y22170D1*
X5410Y22178D1*
X5472Y22177D1*
X5532Y22168D1*
X5591Y22150D1*
X5647Y22124D1*
X5698Y22090D1*
X5744Y22050D1*
X5784Y22003D1*
X5816Y21951D1*
X5841Y21895D1*
X5858Y21836D1*
X5865Y21775D1*
Y21719D1*
X4435Y4991D2*
X5116D1*
Y4156D1*
X5550Y4155D1*
X5507Y4172D1*
X5453Y4202D1*
X5404Y4239D1*
X5361Y4283D1*
X5325Y4332D1*
X5296Y4386D1*
X5274Y4443D1*
X5262Y4503D1*
X5258Y4565D1*
X5263Y4626D1*
X5276Y4686D1*
X5298Y4743D1*
X5328Y4797D1*
X5365Y4846D1*
X5409Y4889D1*
X5458Y4925D1*
X5512Y4954D1*
X5570Y4975D1*
X5630Y4987D1*
X5691Y4991D1*
X5752Y4986D1*
X5812Y4973D1*
X5869Y4951D1*
X5923Y4921D1*
X5972Y4883D1*
X6015Y4839D1*
X6051Y4790D1*
X6080Y4736D1*
X6100Y4678D1*
X6113Y4618D1*
X6116Y4562D1*
X6112Y4501D1*
X6099Y4441D1*
X6077Y4383D1*
X6048Y4330D1*
X6011Y4280D1*
X5968Y4237D1*
X5918Y4200D1*
X5864Y4171D1*
X5822Y4155D1*
X10719D1*
Y10902D1*
X10697Y10893D1*
X10667Y10886D1*
X10636Y10883D1*
X10606D1*
X10575Y10887D1*
X10546Y10895D1*
X10517Y10907D1*
X10491Y10923D1*
X10466Y10941D1*
X10444Y10962D1*
X10425Y10987D1*
X10410Y11013D1*
X10397Y11041D1*
X10388Y11070D1*
X10383Y11101D1*
X10382Y11131D1*
X10385Y11162D1*
X10392Y11192D1*
X10402Y11221D1*
X10416Y11248D1*
X10433Y11273D1*
X10454Y11296D1*
X10472Y11312D1*
X10444Y11337D1*
X10425Y11362D1*
X10410Y11388D1*
X10397Y11416D1*
X10388Y11445D1*
X10383Y11476D1*
X10382Y11506D1*
X10385Y11537D1*
X10392Y11567D1*
X10402Y11596D1*
X10416Y11623D1*
X10433Y11648D1*
X10454Y11671D1*
X10472Y11687D1*
X10444Y11712D1*
X10425Y11737D1*
X10410Y11763D1*
X10397Y11791D1*
X10388Y11820D1*
X10383Y11851D1*
X10382Y11881D1*
X10385Y11912D1*
X10392Y11942D1*
X10402Y11971D1*
X10416Y11998D1*
X10433Y12023D1*
X10454Y12046D1*
X10472Y12062D1*
X10444Y12087D1*
X10425Y12112D1*
X10410Y12138D1*
X10397Y12166D1*
X10388Y12195D1*
X10383Y12226D1*
X10382Y12256D1*
X10385Y12287D1*
X10392Y12317D1*
X10402Y12346D1*
X10416Y12373D1*
X10433Y12398D1*
X10454Y12421D1*
X10472Y12437D1*
X10444Y12462D1*
X10425Y12487D1*
X10410Y12513D1*
X10397Y12541D1*
X10388Y12570D1*
X10383Y12601D1*
X10382Y12631D1*
X10385Y12662D1*
X10392Y12692D1*
X10402Y12721D1*
X10416Y12748D1*
X10433Y12773D1*
X10454Y12796D1*
X10472Y12812D1*
X10444Y12837D1*
X10425Y12862D1*
X10410Y12888D1*
X10397Y12916D1*
X10388Y12945D1*
X10383Y12976D1*
X10382Y13006D1*
X10385Y13037D1*
X10392Y13067D1*
X10402Y13096D1*
X10416Y13123D1*
X10433Y13148D1*
X10454Y13171D1*
X10477Y13192D1*
X10502Y13209D1*
X10520Y13218D1*
X10491Y13235D1*
X10466Y13254D1*
X10444Y13275D1*
X10425Y13299D1*
X10410Y13325D1*
X10397Y13353D1*
X10388Y13383D1*
X10383Y13413D1*
X10382Y13444D1*
X10385Y13474D1*
X10392Y13504D1*
X10402Y13533D1*
X10416Y13561D1*
X10433Y13586D1*
X10454Y13609D1*
X10477Y13629D1*
X10502Y13646D1*
X10530Y13660D1*
X10559Y13670D1*
X10589Y13677D1*
X10619Y13679D1*
X10650Y13678D1*
X10680Y13673D1*
X10719Y13659D1*
Y15302D1*
Y22281D1*
X4155D1*
Y14098D1*
X4184Y14108D1*
X4214Y14114D1*
X4244Y14117D1*
X4275Y14115D1*
X4305Y14110D1*
X4335Y14101D1*
X4363Y14089D1*
X4389Y14073D1*
X4413Y14054D1*
X4434Y14031D1*
X4457Y13999D1*
X5125Y14000D1*
X5155Y13996D1*
X5183Y13985D1*
X5213Y13963D1*
X5614Y13562D1*
X6062D1*
X6092Y13559D1*
X6121Y13548D1*
X6151Y13526D1*
X6192Y13484D1*
X6214Y13489D1*
X6244Y13492D1*
X6275Y13490D1*
X6305Y13485D1*
X6335Y13476D1*
X6375Y13456D1*
X6374Y13708D1*
Y14697D1*
X5558Y15514D1*
X5511Y15508D1*
X5481D1*
X5450Y15512D1*
X5421Y15520D1*
X5392Y15532D1*
X5366Y15548D1*
X5341Y15566D1*
X5319Y15587D1*
X5300Y15612D1*
X5285Y15638D1*
X5272Y15666D1*
X5263Y15695D1*
X5258Y15726D1*
X5257Y15756D1*
X5260Y15787D1*
X5267Y15817D1*
X5277Y15846D1*
X5292Y15874D1*
X5239D1*
X5008Y15643D1*
X5030Y15605D1*
X5042Y15577D1*
X5050Y15547D1*
X5054Y15500D1*
X5052Y15469D1*
X5046Y15439D1*
X5037Y15410D1*
X5024Y15382D1*
X5007Y15356D1*
X4987Y15333D1*
X4965Y15312D1*
X4940Y15294D1*
X4913Y15279D1*
X4884Y15268D1*
X4854Y15261D1*
X4824Y15258D1*
X4793D1*
X4763Y15262D1*
X4733Y15270D1*
X4705Y15282D1*
X4678Y15298D1*
X4654Y15316D1*
X4632Y15337D1*
X4613Y15362D1*
X4597Y15388D1*
X4585Y15416D1*
X4576Y15445D1*
X4571Y15476D1*
X4570Y15506D1*
X4573Y15537D1*
X4579Y15567D1*
X4590Y15596D1*
X4604Y15623D1*
X4621Y15648D1*
X4641Y15671D1*
X4664Y15692D1*
X4690Y15709D1*
X4717Y15722D1*
X4742Y15731D1*
X5098Y16088D1*
X5123Y16107D1*
X5151Y16119D1*
X5187Y16125D1*
X7000D1*
X7030Y16121D1*
X7058Y16110D1*
X7088Y16088D1*
X7941Y15235D1*
X7994Y15242D1*
X8025Y15240D1*
X8055Y15235D1*
X8085Y15226D1*
X8113Y15214D1*
X8139Y15198D1*
X8163Y15179D1*
X8184Y15156D1*
X8202Y15132D1*
X8217Y15105D1*
X8229Y15077D1*
X8237Y15047D1*
X8242Y15000D1*
X8240Y14969D1*
X8234Y14939D1*
X8224Y14910D1*
X8211Y14882D1*
X8195Y14856D1*
X8175Y14833D1*
X8152Y14812D1*
X8127Y14794D1*
X8100Y14779D1*
X8072Y14768D1*
X8042Y14761D1*
X8011Y14758D1*
X7981D1*
X7950Y14762D1*
X7921Y14770D1*
X7892Y14782D1*
X7866Y14798D1*
X7841Y14816D1*
X7819Y14837D1*
X7800Y14862D1*
X7785Y14888D1*
X7772Y14916D1*
X7763Y14945D1*
X7758Y14976D1*
X7757Y15006D1*
X7760Y15037D1*
X7765Y15056D1*
X7520Y15302D1*
X6948Y15874D1*
X5925D1*
X5707D1*
X5729Y15827D1*
X5737Y15797D1*
X5742Y15750D1*
X5740Y15719D1*
X5735Y15692D1*
X6588Y14838D1*
X6607Y14814D1*
X6619Y14786D1*
X6625Y14750D1*
Y9614D1*
X6677Y9562D1*
X7024D1*
X8625D1*
X8655Y9559D1*
X8683Y9548D1*
X8713Y9526D1*
X9338Y8901D1*
X9357Y8876D1*
X9369Y8848D1*
X9375Y8812D1*
Y7937D1*
X9371Y7907D1*
X9360Y7878D1*
X9338Y7848D1*
X9213Y7723D1*
X9189Y7705D1*
X9161Y7692D1*
X9125Y7687D1*
X8519D1*
X8530Y7668D1*
X8542Y7639D1*
X8549Y7610D1*
X8554Y7562D1*
X8552Y7531D1*
X8546Y7501D1*
X8537Y7472D1*
X8524Y7444D1*
X8507Y7419D1*
X8487Y7395D1*
X8465Y7374D1*
X8440Y7356D1*
X8413Y7342D1*
X8384Y7331D1*
X8354Y7324D1*
X8324Y7320D1*
X8293Y7321D1*
X8263Y7325D1*
X8233Y7333D1*
X8205Y7345D1*
X8178Y7360D1*
X8154Y7379D1*
X8132Y7400D1*
X8113Y7424D1*
X8097Y7450D1*
X8085Y7478D1*
X8076Y7508D1*
X8071Y7538D1*
X8070Y7569D1*
X8073Y7599D1*
X8079Y7629D1*
X8090Y7658D1*
X8104Y7686D1*
X8062Y7687D1*
X8032Y7690D1*
X8003Y7701D1*
X7973Y7723D1*
X7385Y8312D1*
X6831D1*
X6820Y8294D1*
X6800Y8270D1*
X6777Y8249D1*
X6752Y8231D1*
X6725Y8217D1*
X6697Y8206D1*
X6667Y8199D1*
X6636Y8195D1*
X6606Y8196D1*
X6575Y8200D1*
X6546Y8208D1*
X6517Y8220D1*
X6491Y8235D1*
X6466Y8254D1*
X6444Y8275D1*
X6425Y8299D1*
X6410Y8325D1*
X6397Y8353D1*
X6388Y8383D1*
X6383Y8413D1*
X6382Y8444D1*
X6385Y8474D1*
X6392Y8504D1*
X6402Y8533D1*
X6416Y8561D1*
X6433Y8586D1*
X6454Y8609D1*
X6477Y8629D1*
X6502Y8646D1*
X6530Y8660D1*
X6559Y8670D1*
X6589Y8677D1*
X6619Y8679D1*
X6650Y8678D1*
X6680Y8673D1*
X6710Y8664D1*
X6738Y8651D1*
X6764Y8635D1*
X6788Y8616D1*
X6809Y8594D1*
X6832Y8562D1*
X7437D1*
X7467Y8559D1*
X7496Y8548D1*
X7526Y8526D1*
X8114Y7937D1*
X8846D1*
X8819Y7962D1*
X8800Y7987D1*
X8785Y8013D1*
X8772Y8041D1*
X8763Y8070D1*
X8758Y8101D1*
X8757Y8131D1*
X8760Y8162D1*
X8767Y8192D1*
X8777Y8221D1*
X8791Y8248D1*
X8808Y8273D1*
X8829Y8296D1*
X8852Y8317D1*
X8875Y8332D1*
X8874Y8493D1*
Y8761D1*
X8447Y9187D1*
X5125D1*
X5094Y9190D1*
X5066Y9201D1*
X5036Y9223D1*
X4723Y9536D1*
X4705Y9560D1*
X4692Y9588D1*
X4687Y9625D1*
Y10073D1*
X4468Y10292D1*
X4479Y10264D1*
X4487Y10235D1*
X4492Y10187D1*
X4490Y10156D1*
X4484Y10126D1*
X4474Y10097D1*
X4461Y10069D1*
X4445Y10044D1*
X4425Y10020D1*
X4391Y9991D1*
X4430Y9985D1*
X4460Y9976D1*
X4488Y9964D1*
X4514Y9948D1*
X4538Y9929D1*
X4559Y9906D1*
X4577Y9882D1*
X4592Y9855D1*
X4604Y9827D1*
X4612Y9797D1*
X4617Y9750D1*
X4615Y9719D1*
X4609Y9689D1*
X4599Y9660D1*
X4586Y9632D1*
X4570Y9606D1*
X4550Y9583D1*
X4527Y9562D1*
X4502Y9544D1*
X4475Y9529D1*
X4447Y9518D1*
X4417Y9511D1*
X4386Y9508D1*
X4356D1*
X4325Y9512D1*
X4296Y9520D1*
X4267Y9532D1*
X4250Y9541D1*
Y7893D1*
X4280Y7908D1*
X4308Y7918D1*
X4338Y7925D1*
X4369Y7927D1*
X4400Y7926D1*
X4430Y7921D1*
X4459Y7912D1*
X4487Y7900D1*
X4513Y7883D1*
X4537Y7864D1*
X4559Y7842D1*
X4577Y7818D1*
X4592Y7791D1*
X4604Y7763D1*
X4612Y7733D1*
X4616Y7685D1*
X4615Y7655D1*
X4609Y7625D1*
X4599Y7595D1*
X4586Y7568D1*
X4569Y7542D1*
X4550Y7518D1*
X4527Y7497D1*
X4502Y7480D1*
X4475Y7465D1*
X4447Y7454D1*
X4417Y7447D1*
X4386Y7443D1*
X4356Y7444D1*
X4325Y7448D1*
X4296Y7456D1*
X4267Y7468D1*
X4250Y7478D1*
Y5176D1*
X4435Y4991D1*
X8579Y5135D2*
X9407D1*
Y4277D1*
X8548D1*
Y5135D1*
X8579D1*
X10407Y4700D2*
X10403Y4651D1*
X10394Y4603D1*
X10379Y4556D1*
X10360Y4511D1*
X10335Y4469D1*
X10305Y4429D1*
X10272Y4394D1*
X10234Y4362D1*
X10193Y4335D1*
X10149Y4313D1*
X10103Y4296D1*
X10055Y4284D1*
X10007Y4278D1*
X9958Y4277D1*
X9909Y4283D1*
X9861Y4293D1*
X9814Y4309D1*
X9770Y4330D1*
X9729Y4356D1*
X9690Y4387D1*
X9656Y4422D1*
X9625Y4461D1*
X9600Y4503D1*
X9579Y4547D1*
X9563Y4594D1*
X9553Y4642D1*
X9548Y4691D1*
X9549Y4740D1*
X9556Y4788D1*
X9568Y4836D1*
X9586Y4882D1*
X9608Y4925D1*
X9636Y4966D1*
X9668Y5003D1*
X9704Y5037D1*
X9743Y5066D1*
X9786Y5090D1*
X9831Y5110D1*
X9878Y5124D1*
X9926Y5132D1*
X9975Y5135D1*
X10024Y5133D1*
X10073Y5125D1*
X10120Y5111D1*
X10165Y5092D1*
X10208Y5068D1*
X10248Y5039D1*
X10284Y5006D1*
X10316Y4969D1*
X10344Y4929D1*
X10367Y4885D1*
X10385Y4840D1*
X10398Y4792D1*
X10405Y4744D1*
X10407Y4700D1*
X10299Y14656D2*
X10292Y14595D1*
X10276Y14536D1*
X10254Y14479D1*
X10224Y14425D1*
X10188Y14376D1*
X10146Y14331D1*
X10099Y14292D1*
X10047Y14259D1*
X9991Y14233D1*
X9933Y14214D1*
X9873Y14202D1*
X9811Y14199D1*
X9750Y14203D1*
X9690Y14214D1*
X9631Y14233D1*
X9576Y14260D1*
X9524Y14293D1*
X9477Y14332D1*
X9435Y14377D1*
X9399Y14426D1*
X9370Y14480D1*
X9347Y14537D1*
X9332Y14597D1*
X9325Y14658D1*
Y14719D1*
X9333Y14780D1*
X9348Y14839D1*
X9371Y14896D1*
X9401Y14950D1*
X9437Y15000D1*
X9479Y15044D1*
X9527Y15083D1*
X9578Y15116D1*
X9634Y15142D1*
X9693Y15160D1*
X9753Y15172D1*
X9814Y15175D1*
X9875Y15171D1*
X9936Y15159D1*
X9994Y15140D1*
X10049Y15114D1*
X10101Y15081D1*
X10148Y15041D1*
X10190Y14996D1*
X10226Y14946D1*
X10255Y14892D1*
X10277Y14835D1*
X10292Y14776D1*
X10300Y14715D1*
X10299Y14656D1*
X5174D2*
X5167Y14595D1*
X5151Y14536D1*
X5129Y14479D1*
X5099Y14425D1*
X5063Y14376D1*
X5021Y14331D1*
X4974Y14292D1*
X4922Y14259D1*
X4866Y14233D1*
X4808Y14214D1*
X4748Y14202D1*
X4686Y14199D1*
X4625Y14203D1*
X4565Y14214D1*
X4506Y14233D1*
X4451Y14260D1*
X4399Y14293D1*
X4352Y14332D1*
X4310Y14377D1*
X4274Y14426D1*
X4245Y14480D1*
X4222Y14537D1*
X4207Y14597D1*
X4200Y14658D1*
Y14719D1*
X4208Y14780D1*
X4223Y14839D1*
X4246Y14896D1*
X4276Y14950D1*
X4312Y15000D1*
X4354Y15044D1*
X4402Y15083D1*
X4453Y15116D1*
X4509Y15142D1*
X4568Y15160D1*
X4628Y15172D1*
X4689Y15175D1*
X4750Y15171D1*
X4811Y15159D1*
X4869Y15140D1*
X4924Y15114D1*
X4976Y15081D1*
X5023Y15041D1*
X5065Y14996D1*
X5101Y14946D1*
X5130Y14892D1*
X5152Y14835D1*
X5167Y14776D1*
X5175Y14715D1*
X5174Y14656D1*
X7799Y4719D2*
X7792Y4658D1*
X7776Y4598D1*
X7754Y4541D1*
X7724Y4488D1*
X7688Y4438D1*
X7646Y4393D1*
X7599Y4354D1*
X7547Y4321D1*
X7491Y4295D1*
X7433Y4276D1*
X7373Y4265D1*
X7311Y4261D1*
X7250Y4265D1*
X7190Y4277D1*
X7131Y4296D1*
X7076Y4322D1*
X7024Y4355D1*
X6977Y4394D1*
X6935Y4439D1*
X6899Y4489D1*
X6870Y4543D1*
X6847Y4600D1*
X6832Y4659D1*
X6825Y4720D1*
Y4782D1*
X6833Y4843D1*
X6848Y4902D1*
X6871Y4959D1*
X6901Y5013D1*
X6937Y5062D1*
X6979Y5107D1*
X7027Y5146D1*
X7078Y5178D1*
X7134Y5204D1*
X7193Y5223D1*
X7253Y5234D1*
X7314Y5238D1*
X7375Y5234D1*
X7436Y5222D1*
X7494Y5203D1*
X7549Y5176D1*
X7601Y5143D1*
X7648Y5104D1*
X7690Y5059D1*
X7726Y5009D1*
X7755Y4955D1*
X7777Y4898D1*
X7792Y4838D1*
X7800Y4777D1*
X7799Y4719D1*
X7677Y16844D2*
X7671Y16814D1*
X7662Y16785D1*
X7649Y16757D1*
X7632Y16731D1*
X7612Y16708D1*
X7590Y16687D1*
X7565Y16669D1*
X7538Y16654D1*
X7509Y16643D1*
X7479Y16636D1*
X7442Y16619D1*
X7412Y16611D1*
X7381Y16607D1*
X7425Y16589D1*
X7451Y16573D1*
X7475Y16554D1*
X7497Y16531D1*
X7515Y16507D1*
X7530Y16480D1*
X7542Y16452D1*
X7550Y16422D1*
X7554Y16375D1*
X7552Y16344D1*
X7546Y16314D1*
X7537Y16285D1*
X7524Y16257D1*
X7507Y16231D1*
X7487Y16208D1*
X7465Y16187D1*
X7440Y16169D1*
X7413Y16154D1*
X7384Y16143D1*
X7354Y16136D1*
X7324Y16133D1*
X7293D1*
X7263Y16137D1*
X7233Y16145D1*
X7205Y16157D1*
X7178Y16173D1*
X7154Y16191D1*
X7124Y16222D1*
X7112Y16208D1*
X7090Y16187D1*
X7065Y16169D1*
X7038Y16154D1*
X7009Y16143D1*
X6979Y16136D1*
X6949Y16133D1*
X6918D1*
X6888Y16137D1*
X6858Y16145D1*
X6830Y16157D1*
X6803Y16173D1*
X6779Y16191D1*
X6749Y16222D1*
X6737Y16208D1*
X6715Y16187D1*
X6690Y16169D1*
X6663Y16154D1*
X6634Y16143D1*
X6604Y16136D1*
X6574Y16133D1*
X6543D1*
X6513Y16137D1*
X6483Y16145D1*
X6455Y16157D1*
X6428Y16172D1*
X6404Y16191D1*
X6382Y16212D1*
X6363Y16237D1*
X6347Y16263D1*
X6335Y16291D1*
X6326Y16320D1*
X6321Y16351D1*
X6320Y16381D1*
X6323Y16412D1*
X6329Y16442D1*
X6340Y16471D1*
X6354Y16498D1*
X6371Y16523D1*
X6391Y16546D1*
X6414Y16567D1*
X6440Y16584D1*
X6467Y16597D1*
X6495Y16607D1*
X6084D1*
X5707Y16230D1*
X5684Y16210D1*
X5658Y16193D1*
X5629Y16181D1*
X5600Y16173D1*
X5562Y16170D1*
X5377Y16169D1*
X5350Y16154D1*
X5322Y16143D1*
X5292Y16136D1*
X5261Y16133D1*
X5231D1*
X5200Y16137D1*
X5171Y16145D1*
X5142Y16157D1*
X5125Y16167D1*
X5100Y16154D1*
X5072Y16143D1*
X5042Y16136D1*
X5011Y16133D1*
X4981D1*
X4950Y16137D1*
X4921Y16145D1*
X4892Y16157D1*
X4866Y16173D1*
X4841Y16191D1*
X4819Y16212D1*
X4800Y16237D1*
X4785Y16263D1*
X4772Y16291D1*
X4763Y16320D1*
X4758Y16351D1*
X4757Y16381D1*
X4760Y16412D1*
X4767Y16442D1*
X4777Y16471D1*
X4791Y16498D1*
X4808Y16523D1*
X4829Y16546D1*
X4852Y16567D1*
X4877Y16584D1*
X4905Y16597D1*
X4934Y16608D1*
X4964Y16614D1*
X4994Y16617D1*
X5025Y16615D1*
X5055Y16610D1*
X5085Y16601D1*
X5125Y16581D1*
X5155Y16597D1*
X5184Y16608D1*
X5214Y16614D1*
X5244Y16617D1*
X5275Y16615D1*
X5305Y16610D1*
X5335Y16601D1*
X5378Y16579D1*
X5477D1*
X5855Y16957D1*
X5878Y16977D1*
X5904Y16993D1*
X5932Y17005D1*
X5962Y17013D1*
X6000Y17017D1*
X7233D1*
X7232Y17058D1*
X7210Y17103D1*
X7201Y17133D1*
X7196Y17163D1*
X7195Y17194D1*
X7198Y17224D1*
X7204Y17254D1*
X7215Y17283D1*
X7229Y17311D1*
X7246Y17336D1*
X7266Y17359D1*
X7289Y17379D1*
X7315Y17396D1*
X7342Y17410D1*
X7371Y17420D1*
X7401Y17427D1*
X7432Y17429D1*
X7462Y17428D1*
X7493Y17423D1*
X7522Y17414D1*
X7550Y17401D1*
X7576Y17385D1*
X7600Y17366D1*
X7622Y17344D1*
X7640Y17319D1*
X7655Y17293D1*
X7667Y17264D1*
X7675Y17235D1*
X7679Y17187D1*
X7677Y17156D1*
X7671Y17126D1*
X7662Y17097D1*
X7642Y17059D1*
Y17004D1*
X7655Y16980D1*
X7667Y16952D1*
X7675Y16922D1*
X7679Y16875D1*
X7677Y16844D1*
X8552Y11219D2*
X8546Y11189D1*
X8537Y11160D1*
X8524Y11132D1*
X8507Y11106D1*
X8487Y11083D1*
X8465Y11062D1*
X8440Y11044D1*
X8413Y11029D1*
X8384Y11018D1*
X8354Y11011D1*
X8324Y11008D1*
X8293D1*
X8263Y11012D1*
X8233Y11020D1*
X8205Y11032D1*
X8178Y11048D1*
X8154Y11066D1*
X8132Y11087D1*
X8113Y11112D1*
X8097Y11138D1*
X8085Y11166D1*
X8076Y11195D1*
X8071Y11226D1*
X8070Y11256D1*
X8073Y11287D1*
X8079Y11317D1*
X8090Y11346D1*
X8104Y11373D1*
X8127Y11405D1*
X8097Y11450D1*
X8085Y11478D1*
X8076Y11508D1*
X8071Y11538D1*
X8070Y11569D1*
X8073Y11599D1*
X8079Y11629D1*
X8090Y11658D1*
X8104Y11686D1*
X8128Y11719D1*
X8113Y11737D1*
X8097Y11763D1*
X8085Y11791D1*
X8076Y11820D1*
X8071Y11851D1*
X8070Y11881D1*
X8073Y11912D1*
X8079Y11942D1*
X8090Y11971D1*
X8104Y11998D1*
X8121Y12023D1*
X8141Y12046D1*
X8164Y12067D1*
X8190Y12084D1*
X8217Y12097D1*
X8246Y12108D1*
X8276Y12114D1*
X8307Y12117D1*
X8337Y12115D1*
X8368Y12110D1*
X8397Y12101D1*
X8425Y12089D1*
X8451Y12073D1*
X8475Y12054D1*
X8497Y12031D1*
X8515Y12007D1*
X8530Y11980D1*
X8542Y11952D1*
X8550Y11922D1*
X8554Y11875D1*
X8552Y11844D1*
X8546Y11814D1*
X8537Y11785D1*
X8524Y11757D1*
X8497Y11719D1*
X8515Y11694D1*
X8530Y11668D1*
X8542Y11639D1*
X8550Y11610D1*
X8554Y11562D1*
X8552Y11531D1*
X8546Y11501D1*
X8537Y11472D1*
X8524Y11444D1*
X8497Y11406D1*
X8515Y11382D1*
X8530Y11355D1*
X8542Y11327D1*
X8550Y11297D1*
X8554Y11250D1*
X8552Y11219D1*
X8833Y6781D2*
X8803Y6798D1*
X8779Y6816D1*
X8757Y6837D1*
X8738Y6862D1*
X8722Y6888D1*
X8710Y6916D1*
X8701Y6945D1*
X8696Y6976D1*
X8695Y7006D1*
X8698Y7037D1*
X8704Y7067D1*
X8715Y7096D1*
X8729Y7123D1*
X8746Y7148D1*
X8766Y7171D1*
X8789Y7192D1*
X8815Y7209D1*
X8842Y7222D1*
X8871Y7233D1*
X8901Y7239D1*
X8932Y7242D1*
X8962Y7240D1*
X8993Y7235D1*
X9022Y7226D1*
X9050Y7214D1*
X9076Y7198D1*
X9100Y7179D1*
X9122Y7156D1*
X9140Y7132D1*
X9156Y7102D1*
X9166Y7123D1*
X9183Y7148D1*
X9204Y7171D1*
X9227Y7192D1*
X9252Y7209D1*
X9280Y7222D1*
X9309Y7233D1*
X9339Y7239D1*
X9369Y7242D1*
X9400Y7240D1*
X9430Y7235D1*
X9460Y7226D1*
X9488Y7214D1*
X9514Y7198D1*
X9538Y7179D1*
X9559Y7156D1*
X9577Y7132D1*
X9592Y7105D1*
X9604Y7077D1*
X9612Y7047D1*
X9617Y7000D1*
X9615Y6969D1*
X9609Y6939D1*
X9599Y6910D1*
X9586Y6882D1*
X9570Y6856D1*
X9550Y6833D1*
X9527Y6812D1*
X9502Y6794D1*
X9478Y6781D1*
X9514Y6760D1*
X9538Y6741D1*
X9559Y6719D1*
X9577Y6694D1*
X9592Y6668D1*
X9604Y6639D1*
X9612Y6610D1*
X9617Y6562D1*
X9615Y6531D1*
X9609Y6501D1*
X9599Y6472D1*
X9586Y6444D1*
X9570Y6419D1*
X9550Y6395D1*
X9527Y6374D1*
X9502Y6356D1*
X9475Y6342D1*
X9447Y6331D1*
X9417Y6324D1*
X9386Y6320D1*
X9356Y6321D1*
X9325Y6325D1*
X9296Y6333D1*
X9267Y6345D1*
X9241Y6360D1*
X9216Y6379D1*
X9194Y6400D1*
X9175Y6424D1*
X9156Y6458D1*
X9132Y6419D1*
X9112Y6395D1*
X9090Y6374D1*
X9065Y6356D1*
X9038Y6342D1*
X9009Y6331D1*
X8979Y6324D1*
X8949Y6320D1*
X8918Y6321D1*
X8888Y6325D1*
X8858Y6333D1*
X8830Y6345D1*
X8803Y6360D1*
X8779Y6379D1*
X8757Y6400D1*
X8738Y6424D1*
X8722Y6450D1*
X8710Y6478D1*
X8701Y6508D1*
X8696Y6538D1*
X8695Y6569D1*
X8698Y6599D1*
X8704Y6629D1*
X8715Y6658D1*
X8729Y6686D1*
X8746Y6711D1*
X8766Y6734D1*
X8789Y6754D1*
X8815Y6771D1*
X8833Y6780D1*
X8552Y18281D2*
X8546Y18251D1*
X8537Y18222D1*
X8524Y18194D1*
X8507Y18169D1*
X8487Y18145D1*
X8465Y18124D1*
X8440Y18106D1*
X8413Y18092D1*
X8384Y18081D1*
X8354Y18074D1*
X8324Y18070D1*
X8293Y18071D1*
X8263Y18075D1*
X8233Y18083D1*
X8205Y18095D1*
X8178Y18110D1*
X8154Y18129D1*
X8132Y18150D1*
X8113Y18174D1*
X8097Y18200D1*
X8085Y18228D1*
X8076Y18258D1*
X8071Y18288D1*
X8070Y18319D1*
X8073Y18349D1*
X8079Y18379D1*
X8090Y18408D1*
X8104Y18436D1*
X8121Y18461D1*
X8141Y18484D1*
X8164Y18504D1*
X8190Y18521D1*
X8217Y18535D1*
X8246Y18545D1*
X8276Y18552D1*
X8307Y18554D1*
X8337Y18553D1*
X8368Y18548D1*
X8397Y18539D1*
X8425Y18526D1*
X8451Y18510D1*
X8475Y18491D1*
X8497Y18469D1*
X8515Y18444D1*
X8530Y18418D1*
X8542Y18389D1*
X8550Y18360D1*
X8554Y18312D1*
X8552Y18281D1*
X8490Y19094D2*
X8484Y19064D1*
X8474Y19035D1*
X8461Y19007D1*
X8445Y18981D1*
X8425Y18958D1*
X8402Y18937D1*
X8377Y18919D1*
X8350Y18904D1*
X8322Y18893D1*
X8292Y18886D1*
X8261Y18883D1*
X8231D1*
X8200Y18887D1*
X8171Y18895D1*
X8142Y18907D1*
X8116Y18923D1*
X8091Y18941D1*
X8069Y18962D1*
X8050Y18987D1*
X8035Y19013D1*
X8022Y19041D1*
X8013Y19070D1*
X8008Y19101D1*
X8007Y19131D1*
X8010Y19162D1*
X8017Y19192D1*
X8027Y19221D1*
X8041Y19248D1*
X8058Y19273D1*
X8079Y19296D1*
X8102Y19317D1*
X8127Y19334D1*
X8155Y19347D1*
X8184Y19358D1*
X8214Y19364D1*
X8244Y19367D1*
X8275Y19365D1*
X8305Y19360D1*
X8335Y19351D1*
X8363Y19339D1*
X8389Y19323D1*
X8413Y19304D1*
X8434Y19281D1*
X8452Y19257D1*
X8467Y19230D1*
X8479Y19202D1*
X8487Y19172D1*
X8492Y19125D1*
X8490Y19094D1*
X8562Y16221D2*
X8527Y16187D1*
X8502Y16169D1*
X8475Y16154D1*
X8447Y16143D1*
X8417Y16136D1*
X8386Y16133D1*
X8356D1*
X8325Y16137D1*
X8296Y16145D1*
X8267Y16157D1*
X8241Y16173D1*
X8216Y16191D1*
X8187Y16222D1*
X8175Y16208D1*
X8152Y16187D1*
X8127Y16169D1*
X8100Y16154D1*
X8072Y16143D1*
X8042Y16136D1*
X8011Y16133D1*
X7981D1*
X7950Y16137D1*
X7921Y16145D1*
X7892Y16157D1*
X7866Y16173D1*
X7841Y16191D1*
X7819Y16212D1*
X7800Y16237D1*
X7785Y16263D1*
X7772Y16291D1*
X7763Y16320D1*
X7758Y16351D1*
X7757Y16381D1*
X7760Y16412D1*
X7767Y16442D1*
X7777Y16471D1*
X7791Y16498D1*
X7808Y16523D1*
X7829Y16546D1*
X7852Y16567D1*
X7877Y16584D1*
X7905Y16597D1*
X7934Y16608D1*
X7964Y16614D1*
X7994Y16617D1*
X8025Y16615D1*
X8055Y16610D1*
X8085Y16601D1*
X8113Y16589D1*
X8139Y16573D1*
X8163Y16554D1*
X8187Y16528D1*
X8204Y16546D1*
X8227Y16567D1*
X8252Y16584D1*
X8280Y16597D1*
X8309Y16608D1*
X8339Y16614D1*
X8369Y16617D1*
X8400Y16615D1*
X8430Y16610D1*
X8460Y16601D1*
X8488Y16589D1*
X8514Y16573D1*
X8538Y16554D1*
X8562Y16528D1*
X8579Y16546D1*
X8602Y16567D1*
X8627Y16584D1*
X8655Y16597D1*
X8684Y16608D1*
X8714Y16614D1*
X8744Y16617D1*
X8775Y16615D1*
X8805Y16610D1*
X8835Y16601D1*
X8863Y16589D1*
X8889Y16573D1*
X8913Y16554D1*
X8937Y16528D1*
X8954Y16546D1*
X8977Y16567D1*
X9002Y16584D1*
X9030Y16597D1*
X9059Y16608D1*
X9089Y16614D1*
X9119Y16617D1*
X9150Y16615D1*
X9180Y16610D1*
X9210Y16601D1*
X9238Y16589D1*
X9264Y16573D1*
X9288Y16554D1*
X9309Y16531D1*
X9327Y16507D1*
X9342Y16480D1*
X9354Y16452D1*
X9362Y16422D1*
X9367Y16375D1*
X9365Y16344D1*
X9359Y16314D1*
X9349Y16285D1*
X9336Y16257D1*
X9320Y16231D1*
X9300Y16208D1*
X9277Y16187D1*
X9252Y16169D1*
X9225Y16154D1*
X9197Y16143D1*
X9167Y16136D1*
X9136Y16133D1*
X9106D1*
X9075Y16137D1*
X9046Y16145D1*
X9017Y16157D1*
X8991Y16173D1*
X8966Y16191D1*
X8937Y16222D1*
X8925Y16208D1*
X8902Y16187D1*
X8877Y16169D1*
X8850Y16154D1*
X8822Y16143D1*
X8792Y16136D1*
X8761Y16133D1*
X8731D1*
X8700Y16137D1*
X8671Y16145D1*
X8642Y16157D1*
X8616Y16173D1*
X8591Y16191D1*
X8562Y16222D1*
X6375Y13042D2*
X6350Y13029D1*
X6322Y13018D1*
X6292Y13011D1*
X6261Y13008D1*
X6231D1*
X6200Y13012D1*
X6171Y13020D1*
X6142Y13032D1*
X6116Y13048D1*
X6091Y13066D1*
X6069Y13087D1*
X6050Y13112D1*
X6035Y13138D1*
X6022Y13166D1*
X6013Y13195D1*
X6008Y13226D1*
X6007Y13256D1*
X6010Y13287D1*
X6015Y13306D1*
X6011Y13312D1*
X5562D1*
X5532Y13315D1*
X5503Y13326D1*
X5473Y13348D1*
X5072Y13749D1*
X4458D1*
X4425Y13708D1*
X4403Y13687D1*
X4434Y13656D1*
X4452Y13632D1*
X4467Y13605D1*
X4479Y13577D1*
X4487Y13547D1*
X4492Y13500D1*
X4490Y13469D1*
X4484Y13439D1*
X4474Y13410D1*
X4461Y13382D1*
X4445Y13356D1*
X4425Y13333D1*
X4402Y13312D1*
X4377Y13294D1*
X4353Y13281D1*
X4389Y13260D1*
X4413Y13241D1*
X4434Y13219D1*
X4452Y13194D1*
X4467Y13168D1*
X4481Y13133D1*
X5151Y12463D1*
X5169Y12439D1*
X5182Y12411D1*
X5187Y12374D1*
Y10301D1*
X5442Y10047D1*
X5464Y10052D1*
X5494Y10054D1*
X5525Y10053D1*
X5555Y10048D1*
X5585Y10039D1*
X5613Y10026D1*
X5639Y10010D1*
X5663Y9991D1*
X5684Y9969D1*
X5702Y9944D1*
X5717Y9918D1*
X5729Y9889D1*
X5737Y9860D1*
X5742Y9812D1*
X5740Y9781D1*
X5734Y9751D1*
X5724Y9722D1*
X5711Y9694D1*
X5695Y9669D1*
X5675Y9645D1*
X5652Y9624D1*
X5627Y9606D1*
X5600Y9592D1*
X5572Y9581D1*
X5542Y9574D1*
X5511Y9570D1*
X5481Y9571D1*
X5450Y9575D1*
X5421Y9583D1*
X5392Y9595D1*
X5366Y9610D1*
X5341Y9629D1*
X5312Y9660D1*
X5300Y9645D1*
X5277Y9624D1*
X5252Y9606D1*
X5225Y9592D1*
X5197Y9581D1*
X5167Y9574D1*
X5136Y9570D1*
X5106Y9571D1*
X5075Y9575D1*
X5046Y9583D1*
X5020Y9594D1*
X5177Y9437D1*
X6448D1*
X6411Y9473D1*
X6392Y9498D1*
X6380Y9526D1*
X6374Y9562D1*
Y13043D1*
X6350Y13029D1*
X6322Y13018D1*
X6292Y13011D1*
X6261Y13008D1*
X6231D1*
X6200Y13012D1*
X6171Y13020D1*
X6142Y13032D1*
X6116Y13048D1*
X6091Y13066D1*
X6069Y13087D1*
X6050Y13112D1*
X6035Y13138D1*
X6022Y13166D1*
X6013Y13195D1*
X6008Y13226D1*
X6007Y13256D1*
X6010Y13287D1*
X6015Y13306D1*
X6427Y8906D2*
X6421Y8876D1*
X6412Y8847D1*
X6399Y8819D1*
X6382Y8794D1*
X6362Y8770D1*
X6340Y8749D1*
X6315Y8731D1*
X6288Y8717D1*
X6259Y8706D1*
X6229Y8699D1*
X6199Y8695D1*
X6168Y8696D1*
X6138Y8700D1*
X6108Y8708D1*
X6080Y8720D1*
X6053Y8735D1*
X6029Y8754D1*
X6007Y8775D1*
X5988Y8799D1*
X5972Y8825D1*
X5960Y8853D1*
X5951Y8883D1*
X5946Y8913D1*
X5945Y8944D1*
X5948Y8974D1*
X5954Y9004D1*
X5965Y9033D1*
X5979Y9061D1*
X5996Y9086D1*
X6016Y9109D1*
X6039Y9129D1*
X6065Y9146D1*
X6092Y9160D1*
X6121Y9170D1*
X6151Y9177D1*
X6182Y9179D1*
X6212Y9178D1*
X6243Y9173D1*
X6272Y9164D1*
X6300Y9151D1*
X6326Y9135D1*
X6350Y9116D1*
X6372Y9094D1*
X6390Y9069D1*
X6405Y9043D1*
X6417Y9014D1*
X6425Y8985D1*
X6429Y8937D1*
X6427Y8906D1*
X9000Y5541D2*
X8994Y5511D1*
X8984Y5482D1*
X8971Y5454D1*
X8955Y5428D1*
X8935Y5405D1*
X8912Y5384D1*
X8887Y5366D1*
X8860Y5352D1*
X8832Y5341D1*
X8802Y5333D1*
X8771Y5330D1*
X8741D1*
X8710Y5335D1*
X8681Y5343D1*
X8652Y5355D1*
X8626Y5370D1*
X8601Y5388D1*
X8579Y5410D1*
X8560Y5434D1*
X8544Y5460D1*
X8532Y5488D1*
X8523Y5518D1*
X8518Y5548D1*
X8517Y5579D1*
X8520Y5609D1*
X8527Y5639D1*
X8537Y5668D1*
X8551Y5695D1*
X8568Y5721D1*
X8589Y5744D1*
X8612Y5764D1*
X8637Y5781D1*
X8665Y5795D1*
X8694Y5805D1*
X8724Y5811D1*
X8754Y5814D1*
X8785Y5813D1*
X8815Y5808D1*
X8844Y5799D1*
X8872Y5786D1*
X8899Y5770D1*
X8923Y5751D1*
X8944Y5729D1*
X8962Y5704D1*
X8977Y5677D1*
X8989Y5649D1*
X8997Y5619D1*
X9002Y5572D1*
X9000Y5541D1*
X4740Y6413D2*
X4734Y6383D1*
X4724Y6354D1*
X4711Y6326D1*
X4694Y6301D1*
X4675Y6277D1*
X4652Y6256D1*
X4627Y6238D1*
X4600Y6224D1*
X4572Y6213D1*
X4542Y6206D1*
X4511Y6202D1*
X4481Y6203D1*
X4450Y6207D1*
X4421Y6215D1*
X4392Y6227D1*
X4366Y6242D1*
X4341Y6261D1*
X4319Y6282D1*
X4300Y6306D1*
X4284Y6332D1*
X4272Y6360D1*
X4263Y6390D1*
X4258Y6420D1*
X4257Y6451D1*
X4260Y6481D1*
X4267Y6511D1*
X4277Y6540D1*
X4291Y6568D1*
X4308Y6593D1*
X4329Y6616D1*
X4352Y6636D1*
X4377Y6653D1*
X4405Y6667D1*
X4433Y6677D1*
X4463Y6684D1*
X4494Y6686D1*
X4525Y6685D1*
X4555Y6680D1*
X4584Y6671D1*
X4612Y6658D1*
X4638Y6642D1*
X4662Y6623D1*
X4684Y6601D1*
X4702Y6576D1*
X4717Y6550D1*
X4729Y6521D1*
X4737Y6492D1*
X4741Y6444D1*
X4740Y6413D1*
X6865Y18281D2*
X6859Y18251D1*
X6849Y18222D1*
X6836Y18194D1*
X6820Y18169D1*
X6800Y18145D1*
X6777Y18124D1*
X6752Y18106D1*
X6725Y18092D1*
X6697Y18081D1*
X6667Y18074D1*
X6636Y18070D1*
X6606Y18071D1*
X6575Y18075D1*
X6546Y18083D1*
X6517Y18095D1*
X6491Y18110D1*
X6466Y18129D1*
X6444Y18150D1*
X6425Y18174D1*
X6410Y18200D1*
X6397Y18228D1*
X6388Y18258D1*
X6383Y18288D1*
X6382Y18319D1*
X6385Y18349D1*
X6392Y18379D1*
X6402Y18408D1*
X6416Y18436D1*
X6433Y18461D1*
X6454Y18484D1*
X6477Y18504D1*
X6502Y18521D1*
X6530Y18535D1*
X6559Y18545D1*
X6589Y18552D1*
X6619Y18554D1*
X6650Y18553D1*
X6680Y18548D1*
X6710Y18539D1*
X6738Y18526D1*
X6764Y18510D1*
X6788Y18491D1*
X6809Y18469D1*
X6827Y18444D1*
X6842Y18418D1*
X6854Y18389D1*
X6862Y18360D1*
X6867Y18312D1*
X6865Y18281D1*
X6677Y18969D2*
X6671Y18939D1*
X6662Y18910D1*
X6649Y18882D1*
X6632Y18856D1*
X6612Y18833D1*
X6590Y18812D1*
X6565Y18794D1*
X6538Y18779D1*
X6509Y18768D1*
X6479Y18761D1*
X6449Y18758D1*
X6418D1*
X6388Y18762D1*
X6358Y18770D1*
X6330Y18782D1*
X6303Y18798D1*
X6279Y18816D1*
X6257Y18837D1*
X6238Y18862D1*
X6222Y18888D1*
X6210Y18916D1*
X6201Y18945D1*
X6196Y18976D1*
X6195Y19006D1*
X6198Y19037D1*
X6204Y19067D1*
X6215Y19096D1*
X6229Y19123D1*
X6246Y19148D1*
X6266Y19171D1*
X6289Y19192D1*
X6315Y19209D1*
X6342Y19222D1*
X6371Y19233D1*
X6401Y19239D1*
X6432Y19242D1*
X6462Y19240D1*
X6493Y19235D1*
X6522Y19226D1*
X6550Y19214D1*
X6576Y19198D1*
X6600Y19179D1*
X6622Y19156D1*
X6640Y19132D1*
X6655Y19105D1*
X6667Y19077D1*
X6675Y19047D1*
X6679Y19000D1*
X6677Y18969D1*
X10615Y6344D2*
X10609Y6314D1*
X10599Y6285D1*
X10586Y6257D1*
X10570Y6231D1*
X10550Y6208D1*
X10527Y6187D1*
X10502Y6169D1*
X10475Y6154D1*
X10447Y6143D1*
X10417Y6136D1*
X10386Y6133D1*
X10356D1*
X10325Y6137D1*
X10296Y6145D1*
X10267Y6157D1*
X10241Y6173D1*
X10216Y6191D1*
X10194Y6212D1*
X10175Y6237D1*
X10160Y6263D1*
X10147Y6291D1*
X10138Y6320D1*
X10133Y6351D1*
X10132Y6381D1*
X10135Y6412D1*
X10142Y6442D1*
X10152Y6471D1*
X10166Y6498D1*
X10183Y6523D1*
X10204Y6546D1*
X10227Y6567D1*
X10252Y6584D1*
X10280Y6597D1*
X10309Y6608D1*
X10339Y6614D1*
X10369Y6617D1*
X10400Y6615D1*
X10430Y6610D1*
X10460Y6601D1*
X10488Y6589D1*
X10514Y6573D1*
X10538Y6554D1*
X10559Y6531D1*
X10577Y6507D1*
X10592Y6480D1*
X10604Y6452D1*
X10612Y6422D1*
X10617Y6375D1*
X10615Y6344D1*
X7677Y14969D2*
X7671Y14939D1*
X7662Y14910D1*
X7649Y14882D1*
X7632Y14856D1*
X7612Y14833D1*
X7590Y14812D1*
X7565Y14794D1*
X7538Y14779D1*
X7509Y14768D1*
X7479Y14761D1*
X7449Y14758D1*
X7418D1*
X7388Y14762D1*
X7358Y14770D1*
X7330Y14782D1*
X7303Y14798D1*
X7279Y14816D1*
X7257Y14837D1*
X7238Y14862D1*
X7222Y14888D1*
X7210Y14916D1*
X7201Y14945D1*
X7196Y14976D1*
X7195Y15006D1*
X7198Y15037D1*
X7204Y15067D1*
X7215Y15096D1*
X7229Y15123D1*
X7246Y15148D1*
X7266Y15171D1*
X7289Y15192D1*
X7315Y15209D1*
X7342Y15222D1*
X7371Y15233D1*
X7401Y15239D1*
X7432Y15242D1*
X7462Y15240D1*
X7493Y15235D1*
X7522Y15226D1*
X7550Y15214D1*
X7576Y15198D1*
X7600Y15179D1*
X7622Y15156D1*
X7640Y15132D1*
X7655Y15105D1*
X7667Y15077D1*
X7675Y15047D1*
X7679Y15000D1*
X7677Y14969D1*
X5490Y18219D2*
X5484Y18189D1*
X5474Y18160D1*
X5461Y18132D1*
X5445Y18106D1*
X5425Y18083D1*
X5402Y18062D1*
X5377Y18044D1*
X5350Y18029D1*
X5322Y18018D1*
X5292Y18011D1*
X5261Y18008D1*
X5231D1*
X5200Y18012D1*
X5171Y18020D1*
X5142Y18032D1*
X5116Y18048D1*
X5091Y18066D1*
X5069Y18087D1*
X5050Y18112D1*
X5035Y18138D1*
X5022Y18166D1*
X5013Y18195D1*
X5008Y18226D1*
X5007Y18256D1*
X5010Y18287D1*
X5017Y18317D1*
X5027Y18346D1*
X5041Y18373D1*
X5058Y18398D1*
X5079Y18421D1*
X5102Y18442D1*
X5127Y18459D1*
X5155Y18472D1*
X5184Y18483D1*
X5214Y18489D1*
X5244Y18492D1*
X5275Y18490D1*
X5305Y18485D1*
X5335Y18476D1*
X5363Y18464D1*
X5389Y18448D1*
X5413Y18429D1*
X5434Y18406D1*
X5452Y18382D1*
X5467Y18355D1*
X5479Y18327D1*
X5487Y18297D1*
X5492Y18250D1*
X5490Y18219D1*
X4990Y18719D2*
X4984Y18689D1*
X4974Y18660D1*
X4961Y18632D1*
X4945Y18606D1*
X4925Y18583D1*
X4902Y18562D1*
X4877Y18544D1*
X4850Y18529D1*
X4822Y18518D1*
X4792Y18511D1*
X4761Y18508D1*
X4731D1*
X4700Y18512D1*
X4671Y18520D1*
X4642Y18532D1*
X4616Y18548D1*
X4591Y18566D1*
X4569Y18587D1*
X4550Y18612D1*
X4535Y18638D1*
X4522Y18666D1*
X4513Y18695D1*
X4508Y18726D1*
X4507Y18756D1*
X4510Y18787D1*
X4517Y18817D1*
X4527Y18846D1*
X4541Y18873D1*
X4558Y18898D1*
X4579Y18921D1*
X4602Y18942D1*
X4627Y18959D1*
X4655Y18972D1*
X4684Y18983D1*
X4714Y18989D1*
X4744Y18992D1*
X4775Y18990D1*
X4805Y18985D1*
X4835Y18976D1*
X4863Y18964D1*
X4889Y18948D1*
X4913Y18929D1*
X4934Y18906D1*
X4952Y18882D1*
X4967Y18855D1*
X4979Y18827D1*
X4987Y18797D1*
X4992Y18750D1*
X4990Y18719D1*
X8740Y8281D2*
X8734Y8251D1*
X8724Y8222D1*
X8711Y8194D1*
X8695Y8169D1*
X8675Y8145D1*
X8652Y8124D1*
X8627Y8106D1*
X8600Y8092D1*
X8572Y8081D1*
X8542Y8074D1*
X8511Y8070D1*
X8481Y8071D1*
X8450Y8075D1*
X8421Y8083D1*
X8392Y8095D1*
X8366Y8110D1*
X8341Y8129D1*
X8319Y8150D1*
X8300Y8174D1*
X8285Y8200D1*
X8272Y8228D1*
X8263Y8258D1*
X8258Y8288D1*
X8257Y8319D1*
X8260Y8349D1*
X8267Y8379D1*
X8277Y8408D1*
X8291Y8436D1*
X8308Y8461D1*
X8329Y8484D1*
X8352Y8504D1*
X8377Y8521D1*
X8405Y8535D1*
X8434Y8545D1*
X8464Y8552D1*
X8494Y8554D1*
X8525Y8553D1*
X8555Y8548D1*
X8585Y8539D1*
X8613Y8526D1*
X8639Y8510D1*
X8663Y8491D1*
X8684Y8469D1*
X8702Y8444D1*
X8717Y8418D1*
X8729Y8389D1*
X8737Y8360D1*
X8742Y8312D1*
X8740Y8281D1*
X4403Y11874D2*
X4434Y11844D1*
X4452Y11819D1*
X4467Y11793D1*
X4479Y11764D1*
X4487Y11735D1*
X4492Y11687D1*
X4490Y11656D1*
X4484Y11626D1*
X4474Y11597D1*
X4461Y11569D1*
X4445Y11544D1*
X4425Y11520D1*
X4403Y11499D1*
X4434Y11469D1*
X4452Y11444D1*
X4467Y11418D1*
X4479Y11389D1*
X4488Y11353D1*
X4514Y11376D1*
X4534Y11387D1*
X4555Y11395D1*
X4586Y11399D1*
X4784D1*
X4801Y11416D1*
Y11708D1*
X4760Y11750D1*
X4625Y11749D1*
X4594Y11753D1*
X4566Y11764D1*
X4536Y11786D1*
X4473Y11848D1*
X4455Y11873D1*
X4442Y11902D1*
X4425Y11895D1*
X4403Y11875D1*
X4434Y11844D1*
X4452Y11819D1*
X4467Y11793D1*
X4479Y11764D1*
X4487Y11735D1*
X4492Y11687D1*
X4490Y11656D1*
X4484Y11626D1*
X4474Y11597D1*
X4461Y11569D1*
X4445Y11544D1*
X4425Y11520D1*
X4403Y11500D1*
X4434Y11469D1*
X4452Y11444D1*
X4467Y11418D1*
X4479Y11389D1*
X4488Y11353D1*
X4506Y11370D1*
X4532Y11386D1*
X4561Y11396D1*
X4586Y11399D1*
X8847Y7937D2*
X8819Y7962D1*
X8800Y7987D1*
X8785Y8013D1*
X8772Y8041D1*
X8763Y8070D1*
X8758Y8101D1*
X8757Y8131D1*
X8760Y8162D1*
X8767Y8192D1*
X8777Y8221D1*
X8791Y8248D1*
X8808Y8273D1*
X8829Y8296D1*
X8852Y8317D1*
X8875Y8332D1*
X6615Y7656D2*
X6609Y7626D1*
X6599Y7597D1*
X6586Y7569D1*
X6570Y7544D1*
X6550Y7520D1*
X6527Y7499D1*
X6502Y7481D1*
X6475Y7467D1*
X6447Y7456D1*
X6417Y7449D1*
X6386Y7445D1*
X6356Y7446D1*
X6325Y7450D1*
X6296Y7458D1*
X6267Y7470D1*
X6241Y7485D1*
X6216Y7504D1*
X6194Y7525D1*
X6175Y7549D1*
X6160Y7575D1*
X6147Y7603D1*
X6138Y7633D1*
X6133Y7663D1*
X6132Y7694D1*
X6135Y7724D1*
X6142Y7754D1*
X6152Y7783D1*
X6166Y7811D1*
X6183Y7836D1*
X6204Y7859D1*
X6227Y7879D1*
X6252Y7896D1*
X6280Y7910D1*
X6309Y7920D1*
X6339Y7927D1*
X6369Y7929D1*
X6400Y7928D1*
X6430Y7923D1*
X6460Y7914D1*
X6488Y7901D1*
X6514Y7885D1*
X6538Y7866D1*
X6559Y7844D1*
X6577Y7819D1*
X6592Y7793D1*
X6604Y7764D1*
X6612Y7735D1*
X6617Y7687D1*
X6615Y7656D1*
X8847Y7937D2*
X8819Y7962D1*
X8800Y7987D1*
X8785Y8013D1*
X8772Y8041D1*
X8763Y8070D1*
X8758Y8101D1*
X8757Y8131D1*
X8760Y8162D1*
X8767Y8192D1*
X8777Y8221D1*
X8791Y8248D1*
X8808Y8273D1*
X8829Y8296D1*
X8852Y8317D1*
X8875Y8332D1*
X10115Y5531D2*
X10109Y5501D1*
X10099Y5472D1*
X10086Y5444D1*
X10070Y5419D1*
X10050Y5395D1*
X10027Y5374D1*
X10002Y5356D1*
X9975Y5342D1*
X9947Y5331D1*
X9917Y5324D1*
X9886Y5320D1*
X9856Y5321D1*
X9825Y5325D1*
X9796Y5333D1*
X9767Y5345D1*
X9741Y5360D1*
X9716Y5379D1*
X9694Y5400D1*
X9675Y5424D1*
X9660Y5450D1*
X9647Y5478D1*
X9638Y5508D1*
X9633Y5538D1*
X9632Y5569D1*
X9635Y5599D1*
X9642Y5629D1*
X9652Y5658D1*
X9666Y5686D1*
X9683Y5711D1*
X9704Y5734D1*
X9727Y5754D1*
X9752Y5771D1*
X9780Y5785D1*
X9809Y5795D1*
X9839Y5802D1*
X9869Y5804D1*
X9900Y5803D1*
X9930Y5798D1*
X9960Y5789D1*
X9988Y5776D1*
X10014Y5760D1*
X10038Y5741D1*
X10059Y5719D1*
X10077Y5694D1*
X10092Y5668D1*
X10104Y5639D1*
X10112Y5610D1*
X10117Y5562D1*
X10115Y5531D1*
X4468Y10292D2*
X4479Y10264D1*
X4487Y10235D1*
X4492Y10187D1*
X4490Y10156D1*
X4484Y10126D1*
X4474Y10097D1*
X4461Y10069D1*
X4445Y10044D1*
X4425Y10020D1*
X4391Y9991D1*
X4687Y10615D2*
X4936Y10365D1*
X4937Y11171D1*
Y11197D1*
X4900Y11166D1*
X4872Y11153D1*
X4836Y11148D1*
X4687D1*
Y10613D1*
X4922Y11941D2*
X4937Y11927D1*
Y12323D1*
X4583Y12677D1*
X4468Y12791D1*
X4479Y12764D1*
X4487Y12735D1*
X4492Y12687D1*
X4490Y12656D1*
X4484Y12626D1*
X4467Y12582D1*
X4512Y12539D1*
X4651Y12401D1*
X4669Y12376D1*
X4682Y12348D1*
X4687Y12312D1*
Y12000D1*
X4812D1*
X4842Y11996D1*
X4871Y11985D1*
X4901Y11963D1*
X4922Y11941D1*
X7980Y7403D2*
X7975Y7372D1*
X7967Y7343D1*
X7956Y7314D1*
X7942Y7287D1*
X7926Y7261D1*
X7907Y7237D1*
X7885Y7215D1*
X7861Y7196D1*
X7836Y7179D1*
X7808Y7165D1*
X7780Y7154D1*
X7750Y7146D1*
X7720Y7141D1*
X7689Y7139D1*
X7658Y7140D1*
X7628Y7145D1*
X7598Y7152D1*
X7570Y7163D1*
X7542Y7177D1*
X7516Y7193D1*
X7492Y7212D1*
X7470Y7234D1*
X7451Y7257D1*
X7434Y7283D1*
X7419Y7310D1*
X7408Y7339D1*
X7400Y7368D1*
X7394Y7398D1*
X7392Y7429D1*
X7394Y7460D1*
X7398Y7490D1*
X7405Y7520D1*
X7416Y7549D1*
X7429Y7576D1*
X7446Y7602D1*
X7465Y7627D1*
X7486Y7649D1*
X7509Y7668D1*
X7535Y7686D1*
X7562Y7700D1*
X7590Y7712D1*
X7620Y7720D1*
X7650Y7726D1*
X7681Y7728D1*
X7711Y7727D1*
X7742Y7723D1*
X7772Y7715D1*
X7801Y7705D1*
X7828Y7692D1*
X7854Y7676D1*
X7879Y7657D1*
X7901Y7636D1*
X7921Y7613D1*
X7938Y7587D1*
X7953Y7560D1*
X7965Y7532D1*
X7973Y7502D1*
X7979Y7472D1*
X7982Y7433D1*
X7980Y7403D1*
X6552Y6406D2*
X6546Y6376D1*
X6537Y6347D1*
X6524Y6319D1*
X6507Y6294D1*
X6487Y6270D1*
X6465Y6249D1*
X6440Y6231D1*
X6413Y6217D1*
X6384Y6206D1*
X6354Y6199D1*
X6324Y6195D1*
X6293Y6196D1*
X6263Y6200D1*
X6233Y6208D1*
X6205Y6220D1*
X6178Y6235D1*
X6154Y6254D1*
X6132Y6275D1*
X6113Y6299D1*
X6097Y6325D1*
X6085Y6353D1*
X6076Y6383D1*
X6071Y6413D1*
X6070Y6444D1*
X6073Y6474D1*
X6079Y6504D1*
X6090Y6533D1*
X6104Y6561D1*
X6121Y6586D1*
X6141Y6609D1*
X6164Y6629D1*
X6190Y6646D1*
X6217Y6660D1*
X6246Y6670D1*
X6276Y6677D1*
X6307Y6679D1*
X6337Y6678D1*
X6368Y6673D1*
X6397Y6664D1*
X6425Y6651D1*
X6451Y6635D1*
X6475Y6616D1*
X6497Y6594D1*
X6515Y6569D1*
X6530Y6543D1*
X6542Y6514D1*
X6550Y6485D1*
X6554Y6437D1*
X6552Y6406D1*
X10177Y6031D2*
X10171Y6001D1*
X10162Y5972D1*
X10149Y5944D1*
X10132Y5919D1*
X10112Y5895D1*
X10090Y5874D1*
X10065Y5856D1*
X10038Y5842D1*
X10009Y5831D1*
X9979Y5824D1*
X9949Y5820D1*
X9918Y5821D1*
X9888Y5825D1*
X9858Y5833D1*
X9830Y5845D1*
X9803Y5860D1*
X9779Y5879D1*
X9757Y5900D1*
X9738Y5924D1*
X9722Y5950D1*
X9710Y5978D1*
X9701Y6008D1*
X9696Y6038D1*
X9695Y6069D1*
X9698Y6099D1*
X9704Y6129D1*
X9715Y6158D1*
X9729Y6186D1*
X9746Y6211D1*
X9766Y6234D1*
X9789Y6254D1*
X9815Y6271D1*
X9842Y6285D1*
X9871Y6295D1*
X9901Y6302D1*
X9932Y6304D1*
X9962Y6303D1*
X9993Y6298D1*
X10022Y6289D1*
X10050Y6276D1*
X10076Y6260D1*
X10100Y6241D1*
X10122Y6219D1*
X10140Y6194D1*
X10155Y6168D1*
X10167Y6139D1*
X10175Y6110D1*
X10179Y6062D1*
X10177Y6031D1*
X6052Y11719D2*
X6047Y11689D1*
X6037Y11660D1*
X6024Y11632D1*
X6007Y11606D1*
X5988Y11583D1*
X5965Y11562D1*
X5940Y11544D1*
X5913Y11529D1*
X5884Y11518D1*
X5855Y11511D1*
X5824Y11508D1*
X5793D1*
X5763Y11512D1*
X5733Y11520D1*
X5705Y11532D1*
X5678Y11548D1*
X5654Y11566D1*
X5632Y11588D1*
X5613Y11612D1*
X5597Y11638D1*
X5585Y11666D1*
X5576Y11695D1*
X5571Y11726D1*
X5570Y11756D1*
X5573Y11787D1*
X5579Y11817D1*
X5590Y11846D1*
X5604Y11873D1*
X5621Y11898D1*
X5641Y11921D1*
X5664Y11942D1*
X5690Y11959D1*
X5717Y11972D1*
X5746Y11983D1*
X5776Y11989D1*
X5807Y11992D1*
X5838Y11990D1*
X5868Y11985D1*
X5897Y11976D1*
X5925Y11964D1*
X5951Y11948D1*
X5975Y11929D1*
X5997Y11907D1*
X6015Y11882D1*
X6030Y11855D1*
X6042Y11827D1*
X6050Y11797D1*
X6054Y11750D1*
X6052Y11719D1*
X6552Y6406D2*
X6546Y6376D1*
X6537Y6347D1*
X6524Y6319D1*
X6507Y6294D1*
X6487Y6270D1*
X6465Y6249D1*
X6440Y6231D1*
X6413Y6217D1*
X6384Y6206D1*
X6354Y6199D1*
X6324Y6195D1*
X6293Y6196D1*
X6263Y6200D1*
X6233Y6208D1*
X6205Y6220D1*
X6178Y6235D1*
X6154Y6254D1*
X6132Y6275D1*
X6113Y6299D1*
X6097Y6325D1*
X6085Y6353D1*
X6076Y6383D1*
X6071Y6413D1*
X6070Y6444D1*
X6073Y6474D1*
X6079Y6504D1*
X6090Y6533D1*
X6104Y6561D1*
X6121Y6586D1*
X6141Y6609D1*
X6164Y6629D1*
X6190Y6646D1*
X6217Y6660D1*
X6246Y6670D1*
X6276Y6677D1*
X6307Y6679D1*
X6337Y6678D1*
X6368Y6673D1*
X6397Y6664D1*
X6425Y6651D1*
X6451Y6635D1*
X6475Y6616D1*
X6497Y6594D1*
X6515Y6569D1*
X6530Y6543D1*
X6542Y6514D1*
X6550Y6485D1*
X6554Y6437D1*
X6552Y6406D1*
X6052Y11719D2*
X6047Y11689D1*
X6037Y11660D1*
X6024Y11632D1*
X6007Y11606D1*
X5988Y11583D1*
X5965Y11562D1*
X5940Y11544D1*
X5913Y11529D1*
X5884Y11518D1*
X5855Y11511D1*
X5824Y11508D1*
X5793D1*
X5763Y11512D1*
X5733Y11520D1*
X5705Y11532D1*
X5678Y11548D1*
X5654Y11566D1*
X5632Y11588D1*
X5613Y11612D1*
X5597Y11638D1*
X5585Y11666D1*
X5576Y11695D1*
X5571Y11726D1*
X5570Y11756D1*
X5573Y11787D1*
X5579Y11817D1*
X5590Y11846D1*
X5604Y11873D1*
X5621Y11898D1*
X5641Y11921D1*
X5664Y11942D1*
X5690Y11959D1*
X5717Y11972D1*
X5746Y11983D1*
X5776Y11989D1*
X5807Y11992D1*
X5838Y11990D1*
X5868Y11985D1*
X5897Y11976D1*
X5925Y11964D1*
X5951Y11948D1*
X5975Y11929D1*
X5997Y11907D1*
X6015Y11882D1*
X6030Y11855D1*
X6042Y11827D1*
X6050Y11797D1*
X6054Y11750D1*
X6052Y11719D1*
X7607Y8842D2*
X7602Y8812D1*
X7594Y8782D1*
X7583Y8754D1*
X7570Y8726D1*
X7553Y8700D1*
X7534Y8677D1*
X7512Y8655D1*
X7488Y8635D1*
X7463Y8618D1*
X7435Y8604D1*
X7407Y8593D1*
X7377Y8585D1*
X7347Y8580D1*
X7316Y8578D1*
X7286Y8580D1*
X7255Y8584D1*
X7225Y8592D1*
X7197Y8603D1*
X7169Y8616D1*
X7143Y8633D1*
X7119Y8652D1*
X7097Y8673D1*
X7078Y8697D1*
X7061Y8723D1*
X7046Y8750D1*
X7035Y8778D1*
X7027Y8808D1*
X7022Y8838D1*
X7020Y8869D1*
X7021Y8899D1*
X7025Y8930D1*
X7033Y8960D1*
X7043Y8988D1*
X7057Y9016D1*
X7073Y9042D1*
X7092Y9066D1*
X7113Y9088D1*
X7137Y9108D1*
X7162Y9125D1*
X7189Y9140D1*
X7218Y9151D1*
X7247Y9160D1*
X7277Y9165D1*
X7308Y9167D1*
X7338Y9166D1*
X7369Y9162D1*
X7399Y9155D1*
X7428Y9145D1*
X7455Y9131D1*
X7481Y9115D1*
X7506Y9097D1*
X7528Y9075D1*
X7548Y9052D1*
X7565Y9027D1*
X7580Y9000D1*
X7592Y8971D1*
X7600Y8942D1*
X7606Y8912D1*
X7609Y8873D1*
X7607Y8842D1*
X10115Y18219D2*
X10109Y18189D1*
X10099Y18160D1*
X10086Y18132D1*
X10070Y18106D1*
X10050Y18083D1*
X10027Y18062D1*
X10002Y18044D1*
X9975Y18029D1*
X9947Y18018D1*
X9917Y18011D1*
X9886Y18008D1*
X9856D1*
X9825Y18012D1*
X9796Y18020D1*
X9767Y18032D1*
X9741Y18048D1*
X9716Y18066D1*
X9694Y18087D1*
X9675Y18112D1*
X9660Y18138D1*
X9647Y18166D1*
X9638Y18195D1*
X9633Y18226D1*
X9632Y18256D1*
X9635Y18287D1*
X9642Y18317D1*
X9652Y18346D1*
X9666Y18373D1*
X9683Y18398D1*
X9704Y18421D1*
X9727Y18442D1*
X9752Y18459D1*
X9780Y18472D1*
X9809Y18483D1*
X9839Y18489D1*
X9869Y18492D1*
X9900Y18490D1*
X9930Y18485D1*
X9960Y18476D1*
X9988Y18464D1*
X10014Y18448D1*
X10038Y18429D1*
X10059Y18406D1*
X10077Y18382D1*
X10092Y18355D1*
X10104Y18327D1*
X10112Y18297D1*
X10117Y18250D1*
X10115Y18219D1*
X10240Y19094D2*
X10234Y19064D1*
X10224Y19035D1*
X10211Y19007D1*
X10195Y18981D1*
X10175Y18958D1*
X10152Y18937D1*
X10127Y18919D1*
X10100Y18904D1*
X10072Y18893D1*
X10042Y18886D1*
X10011Y18883D1*
X9981D1*
X9950Y18887D1*
X9921Y18895D1*
X9892Y18907D1*
X9866Y18923D1*
X9841Y18941D1*
X9819Y18962D1*
X9800Y18987D1*
X9785Y19013D1*
X9772Y19041D1*
X9763Y19070D1*
X9758Y19101D1*
X9757Y19131D1*
X9760Y19162D1*
X9767Y19192D1*
X9777Y19221D1*
X9791Y19248D1*
X9808Y19273D1*
X9829Y19296D1*
X9852Y19317D1*
X9877Y19334D1*
X9905Y19347D1*
X9934Y19358D1*
X9964Y19364D1*
X9994Y19367D1*
X10025Y19365D1*
X10055Y19360D1*
X10085Y19351D1*
X10113Y19339D1*
X10139Y19323D1*
X10163Y19304D1*
X10184Y19281D1*
X10202Y19257D1*
X10217Y19230D1*
X10229Y19202D1*
X10237Y19172D1*
X10242Y19125D1*
X10240Y19094D1*
X9927Y13844D2*
X9921Y13814D1*
X9912Y13785D1*
X9899Y13757D1*
X9882Y13731D1*
X9862Y13708D1*
X9840Y13687D1*
X9815Y13669D1*
X9788Y13654D1*
X9759Y13643D1*
X9729Y13636D1*
X9699Y13633D1*
X9668D1*
X9638Y13637D1*
X9608Y13645D1*
X9580Y13657D1*
X9553Y13673D1*
X9529Y13691D1*
X9507Y13712D1*
X9488Y13737D1*
X9472Y13763D1*
X9460Y13791D1*
X9451Y13820D1*
X9446Y13851D1*
X9445Y13881D1*
X9448Y13912D1*
X9454Y13942D1*
X9465Y13971D1*
X9479Y13998D1*
X9496Y14023D1*
X9516Y14046D1*
X9539Y14067D1*
X9565Y14084D1*
X9592Y14097D1*
X9621Y14108D1*
X9651Y14114D1*
X9682Y14117D1*
X9712Y14115D1*
X9743Y14110D1*
X9772Y14101D1*
X9800Y14089D1*
X9826Y14073D1*
X9850Y14054D1*
X9872Y14031D1*
X9890Y14007D1*
X9905Y13980D1*
X9917Y13952D1*
X9925Y13922D1*
X9929Y13875D1*
X9927Y13844D1*
X9674Y5010D2*
D16*
X10281Y4403D1*
Y5010D2*
X9674Y4403D1*
D27*
X9437Y21750D3*
D28*
X8437D3*
X7437D3*
X6437D3*
X5437D3*
D27*
X4687Y4562D3*
D28*
X5687D3*
D27*
X8977Y4706D3*
D28*
X9977D3*
D30*
X9812Y14687D3*
X4687D3*
X7312Y4750D3*
M02*
