M48
INCH
T01C0.0138
T02C0.0191
T03C0.0433
T04C0.0591
%
T01
X+007437Y+016875
X+007437Y+017187
X+007312Y+016375
X+006937Y+016375
X+006562Y+016375
X+005500Y+015750
X+005250Y+016375
X+005000Y+016375
X+004250Y+016250
X+004250Y+016000
X+004812Y+015500
X+004250Y+013875
X+004250Y+013500
X+004250Y+013062
X+004250Y+012687
X+004250Y+012062
X+004250Y+011687
X+004250Y+011312
X+004250Y+010937
X+004250Y+010562
X+004250Y+010187
X+004375Y+009750
X+005125Y+009812
X+005500Y+009812
X+006187Y+008937
X+006687Y+009062
X+006625Y+008437
X+006375Y+007687
X+006312Y+006437
X+004499Y+006444
X+004374Y+007685
X+008312Y+007562
X+008500Y+008312
X+009000Y+008125
X+008937Y+007000
X+008937Y+006562
X+009375Y+006562
X+009375Y+007000
X+009937Y+006062
X+009875Y+005562
X+010375Y+006375
X+008759Y+005572
X+010625Y+010750
X+010625Y+011125
X+010625Y+011500
X+010625Y+011875
X+010625Y+012250
X+010625Y+012625
X+010625Y+013000
X+010625Y+013437
X+009687Y+013875
X+008891Y+013579
X+008000Y+015000
X+007437Y+015000
X+008000Y+016375
X+008375Y+016375
X+008750Y+016375
X+009125Y+016375
X+009875Y+018250
X+010000Y+019125
X+009437Y+019687
X+008812Y+019687
X+008250Y+019125
X+007750Y+019687
X+007062Y+019687
X+006437Y+019000
X+006625Y+018312
X+005250Y+018250
X+004750Y+018750
X+005375Y+019687
X+006062Y+019687
X+008312Y+018312
X+006001Y+013750
X+006250Y+013250
X+005812Y+011750
X+008312Y+011875
X+008312Y+011562
X+008312Y+011250
T02
X+006937Y+007437
X+007687Y+007433
X+007314Y+008873
T03
X+009437Y+021750
X+008437Y+021750
X+007437Y+021750
X+006437Y+021750
X+005437Y+021750
X+005687Y+004562
X+004687Y+004562
X+008977Y+004706
X+009977Y+004706
T04
X+009812Y+014687
X+004687Y+014687
X+007312Y+004750
T00
M30
