G04 DipTrace 2.4.0.2*
%INIoDriverRevF2.gbo*%
%MOIN*%
%ADD10C,0.0098*%
%ADD12C,0.003*%
%ADD13C,0.0061*%
%ADD17C,0.0157*%
%ADD23C,0.0236*%
%ADD25O,0.0431X0.0437*%
%ADD31C,0.0154*%
%ADD105C,0.0046*%
%FSLAX44Y44*%
G04*
G70*
G90*
G75*
G01*
%LNBotSilk*%
%LPD*%
X8897Y9308D2*
D10*
Y9780D1*
X8227Y9308D2*
Y9780D1*
D23*
X8562Y8343D3*
X5897Y17359D2*
D10*
Y15359D1*
D25*
X9409Y15515D3*
X8977Y17359D2*
D10*
Y15359D1*
X9426Y5253D2*
X9111D1*
X9426Y5804D2*
X9111D1*
D31*
X5417Y15338D3*
X5325Y15840D2*
D10*
X4144D1*
Y16036D1*
X5325D1*
Y15840D1*
D31*
X9394Y9656D3*
X9738Y9787D2*
D10*
Y10575D1*
X9934D1*
Y9787D1*
X9738D1*
X5528Y18598D2*
Y19856D1*
X4346Y18598D2*
Y19856D1*
X7153Y18598D2*
Y19856D1*
X5971Y18598D2*
Y19856D1*
X8778Y18598D2*
Y19856D1*
X7596Y18598D2*
Y19856D1*
X10403Y18598D2*
Y19856D1*
X9221Y18598D2*
Y19856D1*
X6636Y13109D2*
Y11140D1*
X5612Y13109D2*
Y11140D1*
X6636D2*
X5612D1*
X6321Y13109D2*
X6636D1*
X5927D2*
X5612D1*
X6321D2*
G02X5927Y13109I-197J0D01*
G01*
D17*
X6275Y6500D3*
X5278Y5515D2*
D10*
X5184D1*
X4326D2*
X3676D1*
Y8508D1*
X4326D1*
X5278D2*
X5184D1*
G36*
X9063Y17625D2*
X10563D1*
Y15125D1*
X9063D1*
Y17625D1*
G37*
X7777Y14720D2*
D12*
X7957D1*
X7773Y14690D2*
X7962D1*
X7765Y14660D2*
X7806D1*
X7928D2*
X7969D1*
X7757Y14630D2*
X7802D1*
X7932D2*
X7977D1*
X7749Y14600D2*
X7795D1*
X7939D2*
X7986D1*
X7448Y14570D2*
X7508D1*
X7737D2*
X7786D1*
X7947D2*
X7998D1*
X8226D2*
X8286D1*
X7420Y14540D2*
X7560D1*
X7695D2*
X7775D1*
X7956D2*
X8039D1*
X8175D2*
X8315D1*
X7395Y14510D2*
X7621D1*
X7636D2*
X7759D1*
X7967D2*
X8099D1*
X8114D2*
X8340D1*
X7377Y14480D2*
X7454D1*
X7538D2*
X7726D1*
X8003D2*
X8196D1*
X8280D2*
X8357D1*
X7365Y14450D2*
X7434D1*
X7568D2*
X7688D1*
X8047D2*
X8166D1*
X8300D2*
X8369D1*
X7365Y14420D2*
X7429D1*
X8306D2*
X8369D1*
X7376Y14390D2*
X7438D1*
X8297D2*
X8358D1*
X7391Y14361D2*
X7451D1*
X8283D2*
X8344D1*
X7404Y14331D2*
X7464D1*
X8271D2*
X8331D1*
X7411Y14301D2*
X7470D1*
X8264D2*
X8323D1*
X7414Y14271D2*
X7470D1*
X8264D2*
X8320D1*
X7413Y14241D2*
X7464D1*
X7777D2*
X7957D1*
X8270D2*
X8322D1*
X7394Y14211D2*
X7453D1*
X7738D2*
X7996D1*
X8278D2*
X8340D1*
X7349Y14181D2*
X7438D1*
X7709D2*
X7778D1*
X7956D2*
X8026D1*
X8289D2*
X8386D1*
X7298Y14151D2*
X7420D1*
X7687D2*
X7749D1*
X7982D2*
X8047D1*
X8305D2*
X8437D1*
X7250Y14121D2*
X7381D1*
X7673D2*
X7724D1*
X8003D2*
X8062D1*
X8348D2*
X8484D1*
X7226Y14091D2*
X7333D1*
X7664D2*
X7706D1*
X8021D2*
X8070D1*
X8399D2*
X8509D1*
X7217Y14061D2*
X7291D1*
X7661D2*
X7696D1*
X8033D2*
X8074D1*
X8448D2*
X8518D1*
X7212Y14031D2*
X7260D1*
X7659D2*
X7692D1*
X8039D2*
X8076D1*
X8471D2*
X8522D1*
X7212Y14001D2*
X7248D1*
X7658D2*
X7694D1*
X8039D2*
X8076D1*
X8486D2*
X8522D1*
X7215Y13972D2*
X7303D1*
X7659D2*
X7702D1*
X8031D2*
X8075D1*
X8431D2*
X8519D1*
X7239Y13942D2*
X7353D1*
X7664D2*
X7715D1*
X8015D2*
X8070D1*
X8381D2*
X8496D1*
X7289Y13912D2*
X7391D1*
X7676D2*
X7735D1*
X7992D2*
X8058D1*
X8344D2*
X8446D1*
X7338Y13882D2*
X7417D1*
X7695D2*
X7758D1*
X7968D2*
X8040D1*
X8317D2*
X8397D1*
X7374Y13852D2*
X7437D1*
X7714D2*
X7781D1*
X7948D2*
X8021D1*
X8297D2*
X8360D1*
X7401Y13822D2*
X7453D1*
X7729D2*
X7786D1*
X7948D2*
X8005D1*
X8281D2*
X8333D1*
X7409Y13792D2*
X7464D1*
X7727D2*
X7778D1*
X7952D2*
X8006D1*
X8269D2*
X8326D1*
X7412Y13762D2*
X7470D1*
X7720D2*
X7768D1*
X7959D2*
X8011D1*
X8263D2*
X8322D1*
X7404Y13732D2*
X7463D1*
X7709D2*
X7758D1*
X7969D2*
X8018D1*
X8262D2*
X8330D1*
X7393Y13702D2*
X7451D1*
X7696D2*
X7748D1*
X7981D2*
X8031D1*
X8274D2*
X8341D1*
X7381Y13672D2*
X7435D1*
X7680D2*
X7738D1*
X7994D2*
X8049D1*
X8288D2*
X8353D1*
X7372Y13642D2*
X7413D1*
X7643D2*
X7727D1*
X8006D2*
X8088D1*
X8302D2*
X8362D1*
X7367Y13613D2*
X7388D1*
X7598D2*
X7718D1*
X8016D2*
X8136D1*
X8306D2*
X8367D1*
X7374Y13583D2*
X7424D1*
X7549D2*
X7707D1*
X8027D2*
X8185D1*
X8294D2*
X8357D1*
X7385Y13553D2*
X7464D1*
X7499D2*
X7697D1*
X8037D2*
X8235D1*
X8263D2*
X8342D1*
X7402Y13523D2*
X7563D1*
X7658D2*
X7688D1*
X8047D2*
X8077D1*
X8172D2*
X8325D1*
X7424Y13493D2*
X7522D1*
X8212D2*
X8306D1*
X7448Y13463D2*
X7478D1*
X8256D2*
X8286D1*
X9148Y13600D2*
X9208D1*
X8998Y13570D2*
X9058D1*
X9140D2*
X9227D1*
X8984Y13540D2*
X9086D1*
X9117D2*
X9148D1*
X9203D2*
X9247D1*
X8976Y13510D2*
X9148D1*
X9224D2*
X9266D1*
X8971Y13480D2*
X8998D1*
X9053D2*
X9148D1*
X9243D2*
X9282D1*
X8970Y13450D2*
X8998D1*
X9075D2*
X9148D1*
X9259D2*
X9295D1*
X8970Y13420D2*
X8998D1*
X9092D2*
X9148D1*
X9273D2*
X9306D1*
X8973Y13390D2*
X8999D1*
X9106D2*
X9149D1*
X9285D2*
X9316D1*
X8981Y13361D2*
X9003D1*
X9117D2*
X9153D1*
X9293D2*
X9322D1*
X8988Y13331D2*
X9011D1*
X9127D2*
X9160D1*
X9300D2*
X9326D1*
X8995Y13301D2*
X9019D1*
X9137D2*
X9169D1*
X9309D2*
X9332D1*
X9001Y13271D2*
X9028D1*
X9144D2*
X9178D1*
X9317D2*
X9342D1*
X9010Y13241D2*
X9038D1*
X9151D2*
X9188D1*
X9324D2*
X9359D1*
X9018Y13211D2*
X9048D1*
X9163D2*
X9198D1*
X9333D2*
X9388D1*
X9024Y13181D2*
X9058D1*
X9178D2*
X9208D1*
X9347D2*
X9427D1*
X9031Y13151D2*
X9068D1*
X9382D2*
X9470D1*
X9039Y13121D2*
X9077D1*
X9427D2*
X9513D1*
X9048Y13091D2*
X9083D1*
X9475D2*
X9554D1*
X9052Y13061D2*
X9086D1*
X9520D2*
X9591D1*
X9052Y13031D2*
X9086D1*
X9387D2*
X9477D1*
X9559D2*
X9623D1*
X9041Y13001D2*
X9081D1*
X9387D2*
X9477D1*
X9593D2*
X9650D1*
X9014Y12972D2*
X9072D1*
X9387D2*
X9477D1*
X9625D2*
X9673D1*
X8977Y12942D2*
X9049D1*
X9387D2*
X9477D1*
X9657D2*
X9690D1*
X8929Y12912D2*
X9019D1*
X9642D2*
X9703D1*
X8875Y12882D2*
X8979D1*
X9640D2*
X9710D1*
X8490Y12852D2*
X8930D1*
X9660D2*
X9712D1*
X8440Y12822D2*
X8879D1*
X9686D2*
X9712D1*
X8390Y12792D2*
X8525D1*
X9642D2*
X9697D1*
X8340Y12762D2*
X8449D1*
X9595D2*
X9673D1*
X8293Y12732D2*
X8383D1*
X9552D2*
X9640D1*
X8250Y12702D2*
X8327D1*
X9514D2*
X9600D1*
X8216Y12672D2*
X8279D1*
X9480D2*
X9559D1*
X8186Y12642D2*
X8239D1*
X9450D2*
X9519D1*
X8159Y12613D2*
X8209D1*
X9424D2*
X9484D1*
X8134Y12583D2*
X8184D1*
X9405D2*
X9455D1*
X8112Y12553D2*
X8162D1*
X9391D2*
X9432D1*
X8091Y12523D2*
X8141D1*
X9379D2*
X9414D1*
X8071Y12493D2*
X8121D1*
X9369D2*
X9401D1*
X8052Y12463D2*
X8101D1*
X9363D2*
X9393D1*
X8036Y12433D2*
X8082D1*
X9358D2*
X9390D1*
X8023Y12403D2*
X8066D1*
X9353D2*
X9387D1*
X8012Y12373D2*
X8053D1*
X9344D2*
X9382D1*
X8001Y12343D2*
X8042D1*
X9332D2*
X9374D1*
X7992Y12313D2*
X8031D1*
X9319D2*
X9362D1*
X7986Y12283D2*
X8022D1*
X9305D2*
X9349D1*
X7983Y12253D2*
X8016D1*
X9290D2*
X9334D1*
X7981Y12224D2*
X8012D1*
X9274D2*
X9320D1*
X7978Y12194D2*
X8006D1*
X9256D2*
X9304D1*
X7970Y12164D2*
X7995D1*
X9238D2*
X9286D1*
X7941Y12134D2*
X7981D1*
X9224D2*
X9268D1*
X7910Y12104D2*
X7995D1*
X9215D2*
X9254D1*
X7882Y12074D2*
X8004D1*
X8968D2*
X9028D1*
X9211D2*
X9245D1*
X7872Y12044D2*
X7886D1*
X7981D2*
X8011D1*
X8877D2*
X9034D1*
X9209D2*
X9242D1*
X7866Y12014D2*
X7875D1*
X8777D2*
X9045D1*
X9210D2*
X9242D1*
X7864Y11984D2*
X7861D1*
X8690D2*
X8894D1*
X9028D2*
X9061D1*
X9212D2*
X9256D1*
X7866Y11954D2*
X7896D1*
X8632D2*
X8759D1*
X9040D2*
X9079D1*
X9229D2*
X9275D1*
X7881Y11924D2*
X7934D1*
X8591D2*
X8797D1*
X9054D2*
X9101D1*
X9252D2*
X9295D1*
X7906Y11894D2*
X7977D1*
X8699D2*
X8827D1*
X9071D2*
X9129D1*
X9273D2*
X9310D1*
X7943Y11864D2*
X8024D1*
X8819D2*
X8837D1*
X9094D2*
X9166D1*
X9287D2*
X9320D1*
X7991Y11835D2*
X8076D1*
X8819D2*
X8841D1*
X9120D2*
X9208D1*
X9297D2*
X9324D1*
X8044Y11805D2*
X8803D1*
X9148D2*
X9327D1*
X8101Y11775D2*
X8759D1*
X7777Y14720D2*
X7773Y14690D1*
X7765Y14660D1*
X7757Y14630D1*
X7749Y14600D1*
X7737Y14570D1*
X7695Y14540D1*
X7636Y14510D1*
X7568Y14480D1*
X7957Y14720D2*
X7962Y14690D1*
X7969Y14660D1*
X7977Y14630D1*
X7986Y14600D1*
X7998Y14570D1*
X8039Y14540D1*
X8099Y14510D1*
X8166Y14480D1*
X7807Y14690D2*
X7806Y14660D1*
X7802Y14630D1*
X7795Y14600D1*
X7786Y14570D1*
X7775Y14540D1*
X7759Y14510D1*
X7726Y14480D1*
X7688Y14450D1*
X7927Y14690D2*
X7928Y14660D1*
X7932Y14630D1*
X7939Y14600D1*
X7947Y14570D1*
X7956Y14540D1*
X7967Y14510D1*
X8003Y14480D1*
X8047Y14450D1*
X7448Y14570D2*
X7420Y14540D1*
X7395Y14510D1*
X7377Y14480D1*
X7365Y14450D1*
Y14420D1*
X7376Y14390D1*
X7391Y14361D1*
X7404Y14331D1*
X7411Y14301D1*
X7414Y14271D1*
X7413Y14241D1*
X7394Y14211D1*
X7349Y14181D1*
X7298Y14151D1*
X7250Y14121D1*
X7226Y14091D1*
X7217Y14061D1*
X7212Y14031D1*
Y14001D1*
X7215Y13972D1*
X7239Y13942D1*
X7289Y13912D1*
X7338Y13882D1*
X7374Y13852D1*
X7401Y13822D1*
X7409Y13792D1*
X7412Y13762D1*
X7404Y13732D1*
X7393Y13702D1*
X7381Y13672D1*
X7372Y13642D1*
X7367Y13613D1*
X7374Y13583D1*
X7385Y13553D1*
X7402Y13523D1*
X7424Y13493D1*
X7448Y13463D1*
X7508Y14570D2*
X7560Y14540D1*
X7621Y14510D1*
X7688Y14480D1*
X8226Y14570D2*
X8175Y14540D1*
X8114Y14510D1*
X8047Y14480D1*
X8286Y14570D2*
X8315Y14540D1*
X8340Y14510D1*
X8357Y14480D1*
X8369Y14450D1*
Y14420D1*
X8358Y14390D1*
X8344Y14361D1*
X8331Y14331D1*
X8323Y14301D1*
X8320Y14271D1*
X8322Y14241D1*
X8340Y14211D1*
X8386Y14181D1*
X8437Y14151D1*
X8484Y14121D1*
X8509Y14091D1*
X8518Y14061D1*
X8522Y14031D1*
Y14001D1*
X8519Y13972D1*
X8496Y13942D1*
X8446Y13912D1*
X8397Y13882D1*
X8360Y13852D1*
X8333Y13822D1*
X8326Y13792D1*
X8322Y13762D1*
X8330Y13732D1*
X8341Y13702D1*
X8353Y13672D1*
X8362Y13642D1*
X8367Y13613D1*
X8357Y13583D1*
X8342Y13553D1*
X8325Y13523D1*
X8306Y13493D1*
X8286Y13463D1*
X7478Y14510D2*
X7454Y14480D1*
X7434Y14450D1*
X7429Y14420D1*
X7438Y14390D1*
X7451Y14361D1*
X7464Y14331D1*
X7470Y14301D1*
Y14271D1*
X7464Y14241D1*
X7453Y14211D1*
X7438Y14181D1*
X7420Y14151D1*
X7381Y14121D1*
X7333Y14091D1*
X7291Y14061D1*
X7260Y14031D1*
X7248Y14001D1*
X7303Y13972D1*
X7353Y13942D1*
X7391Y13912D1*
X7417Y13882D1*
X7437Y13852D1*
X7453Y13822D1*
X7464Y13792D1*
X7470Y13762D1*
X7463Y13732D1*
X7451Y13702D1*
X7435Y13672D1*
X7413Y13642D1*
X7388Y13613D1*
X7424Y13583D1*
X7464Y13553D1*
X7508Y13523D1*
Y14510D2*
X7538Y14480D1*
X7568Y14450D1*
X8226Y14510D2*
X8196Y14480D1*
X8166Y14450D1*
X8256Y14510D2*
X8280Y14480D1*
X8300Y14450D1*
X8306Y14420D1*
X8297Y14390D1*
X8283Y14361D1*
X8271Y14331D1*
X8264Y14301D1*
Y14271D1*
X8270Y14241D1*
X8278Y14211D1*
X8289Y14181D1*
X8305Y14151D1*
X8348Y14121D1*
X8399Y14091D1*
X8448Y14061D1*
X8471Y14031D1*
X8486Y14001D1*
X8431Y13972D1*
X8381Y13942D1*
X8344Y13912D1*
X8317Y13882D1*
X8297Y13852D1*
X8281Y13822D1*
X8269Y13792D1*
X8263Y13762D1*
X8262Y13732D1*
X8274Y13702D1*
X8288Y13672D1*
X8302Y13642D1*
X8306Y13613D1*
X8294Y13583D1*
X8263Y13553D1*
X8226Y13523D1*
X7777Y14241D2*
X7738Y14211D1*
X7709Y14181D1*
X7687Y14151D1*
X7673Y14121D1*
X7664Y14091D1*
X7661Y14061D1*
X7659Y14031D1*
X7658Y14001D1*
X7659Y13972D1*
X7664Y13942D1*
X7676Y13912D1*
X7695Y13882D1*
X7714Y13852D1*
X7729Y13822D1*
X7727Y13792D1*
X7720Y13762D1*
X7709Y13732D1*
X7696Y13702D1*
X7680Y13672D1*
X7643Y13642D1*
X7598Y13613D1*
X7549Y13583D1*
X7499Y13553D1*
X7448Y13523D1*
X7957Y14241D2*
X7996Y14211D1*
X8026Y14181D1*
X8047Y14151D1*
X8062Y14121D1*
X8070Y14091D1*
X8074Y14061D1*
X8076Y14031D1*
Y14001D1*
X8075Y13972D1*
X8070Y13942D1*
X8058Y13912D1*
X8040Y13882D1*
X8021Y13852D1*
X8005Y13822D1*
X8006Y13792D1*
X8011Y13762D1*
X8018Y13732D1*
X8031Y13702D1*
X8049Y13672D1*
X8088Y13642D1*
X8136Y13613D1*
X8185Y13583D1*
X8235Y13553D1*
X8286Y13523D1*
X7807Y14211D2*
X7778Y14181D1*
X7749Y14151D1*
X7724Y14121D1*
X7706Y14091D1*
X7696Y14061D1*
X7692Y14031D1*
X7694Y14001D1*
X7702Y13972D1*
X7715Y13942D1*
X7735Y13912D1*
X7758Y13882D1*
X7781Y13852D1*
X7786Y13822D1*
X7778Y13792D1*
X7768Y13762D1*
X7758Y13732D1*
X7748Y13702D1*
X7738Y13672D1*
X7727Y13642D1*
X7718Y13613D1*
X7707Y13583D1*
X7697Y13553D1*
X7688Y13523D1*
X7927Y14211D2*
X7956Y14181D1*
X7982Y14151D1*
X8003Y14121D1*
X8021Y14091D1*
X8033Y14061D1*
X8039Y14031D1*
Y14001D1*
X8031Y13972D1*
X8015Y13942D1*
X7992Y13912D1*
X7968Y13882D1*
X7948Y13852D1*
Y13822D1*
X7952Y13792D1*
X7959Y13762D1*
X7969Y13732D1*
X7981Y13702D1*
X7994Y13672D1*
X8006Y13642D1*
X8016Y13613D1*
X8027Y13583D1*
X8037Y13553D1*
X8047Y13523D1*
X7598Y13553D2*
X7563Y13523D1*
X7522Y13493D1*
X7478Y13463D1*
X7628Y13553D2*
X7658Y13523D1*
X8107Y13553D2*
X8077Y13523D1*
X8137Y13553D2*
X8172Y13523D1*
X8212Y13493D1*
X8256Y13463D1*
X9148Y13600D2*
X9140Y13570D1*
X9117Y13540D1*
X9088Y13510D1*
X9208Y13600D2*
X9227Y13570D1*
X9247Y13540D1*
X9266Y13510D1*
X9282Y13480D1*
X9295Y13450D1*
X9306Y13420D1*
X9316Y13390D1*
X9322Y13361D1*
X9326Y13331D1*
X9332Y13301D1*
X9342Y13271D1*
X9359Y13241D1*
X9388Y13211D1*
X9427Y13181D1*
X9470Y13151D1*
X9513Y13121D1*
X9554Y13091D1*
X9591Y13061D1*
X9623Y13031D1*
X9650Y13001D1*
X9673Y12972D1*
X9690Y12942D1*
X9703Y12912D1*
X9710Y12882D1*
X9712Y12852D1*
Y12822D1*
X9697Y12792D1*
X9673Y12762D1*
X9640Y12732D1*
X9600Y12702D1*
X9559Y12672D1*
X9519Y12642D1*
X9484Y12613D1*
X9455Y12583D1*
X9432Y12553D1*
X9414Y12523D1*
X9401Y12493D1*
X9393Y12463D1*
X9390Y12433D1*
X9387Y12403D1*
X9382Y12373D1*
X9374Y12343D1*
X9362Y12313D1*
X9349Y12283D1*
X9334Y12253D1*
X9320Y12224D1*
X9304Y12194D1*
X9286Y12164D1*
X9268Y12134D1*
X9254Y12104D1*
X9245Y12074D1*
X9242Y12044D1*
Y12014D1*
X9256Y11984D1*
X9275Y11954D1*
X9295Y11924D1*
X9310Y11894D1*
X9320Y11864D1*
X9324Y11835D1*
X9327Y11805D1*
X8998Y13570D2*
X8984Y13540D1*
X8976Y13510D1*
X8971Y13480D1*
X8970Y13450D1*
Y13420D1*
X8973Y13390D1*
X8981Y13361D1*
X8988Y13331D1*
X8995Y13301D1*
X9001Y13271D1*
X9010Y13241D1*
X9018Y13211D1*
X9024Y13181D1*
X9031Y13151D1*
X9039Y13121D1*
X9048Y13091D1*
X9052Y13061D1*
Y13031D1*
X9041Y13001D1*
X9014Y12972D1*
X8977Y12942D1*
X8929Y12912D1*
X8875Y12882D1*
X8819Y12852D1*
X9058Y13570D2*
X9086Y13540D1*
X9118Y13510D1*
X9178Y13570D2*
X9203Y13540D1*
X9224Y13510D1*
X9243Y13480D1*
X9259Y13450D1*
X9273Y13420D1*
X9285Y13390D1*
X9293Y13361D1*
X9300Y13331D1*
X9309Y13301D1*
X9317Y13271D1*
X9324Y13241D1*
X9333Y13211D1*
X9347Y13181D1*
X9382Y13151D1*
X9427Y13121D1*
X9475Y13091D1*
X9520Y13061D1*
X9559Y13031D1*
X9593Y13001D1*
X9625Y12972D1*
X9657Y12942D1*
X9642Y12912D1*
X9640Y12882D1*
X9660Y12852D1*
X9686Y12822D1*
X9642Y12792D1*
X9595Y12762D1*
X9552Y12732D1*
X9514Y12702D1*
X9480Y12672D1*
X9450Y12642D1*
X9424Y12613D1*
X9405Y12583D1*
X9391Y12553D1*
X9379Y12523D1*
X9369Y12493D1*
X9363Y12463D1*
X9358Y12433D1*
X9353Y12403D1*
X9344Y12373D1*
X9332Y12343D1*
X9319Y12313D1*
X9305Y12283D1*
X9290Y12253D1*
X9274Y12224D1*
X9256Y12194D1*
X9238Y12164D1*
X9224Y12134D1*
X9215Y12104D1*
X9211Y12074D1*
X9209Y12044D1*
X9210Y12014D1*
X9212Y11984D1*
X9229Y11954D1*
X9252Y11924D1*
X9273Y11894D1*
X9287Y11864D1*
X9297Y11835D1*
X9148Y13510D2*
Y13480D1*
Y13450D1*
Y13420D1*
X9149Y13390D1*
X9153Y13361D1*
X9160Y13331D1*
X9169Y13301D1*
X9178Y13271D1*
X9188Y13241D1*
X9198Y13211D1*
X9208Y13181D1*
X8998Y13510D2*
Y13480D1*
Y13450D1*
Y13420D1*
X8999Y13390D1*
X9003Y13361D1*
X9011Y13331D1*
X9019Y13301D1*
X9028Y13271D1*
X9038Y13241D1*
X9048Y13211D1*
X9058Y13181D1*
X9068Y13151D1*
X9077Y13121D1*
X9083Y13091D1*
X9086Y13061D1*
Y13031D1*
X9081Y13001D1*
X9072Y12972D1*
X9049Y12942D1*
X9019Y12912D1*
X8979Y12882D1*
X8930Y12852D1*
X8879Y12822D1*
X9028Y13510D2*
X9053Y13480D1*
X9075Y13450D1*
X9092Y13420D1*
X9106Y13390D1*
X9117Y13361D1*
X9127Y13331D1*
X9137Y13301D1*
X9144Y13271D1*
X9151Y13241D1*
X9163Y13211D1*
X9178Y13181D1*
X9387Y13031D2*
Y13001D1*
Y12972D1*
Y12942D1*
X9477Y13031D2*
Y13001D1*
Y12972D1*
Y12942D1*
X8490Y12852D2*
X8440Y12822D1*
X8390Y12792D1*
X8340Y12762D1*
X8293Y12732D1*
X8250Y12702D1*
X8216Y12672D1*
X8186Y12642D1*
X8159Y12613D1*
X8134Y12583D1*
X8112Y12553D1*
X8091Y12523D1*
X8071Y12493D1*
X8052Y12463D1*
X8036Y12433D1*
X8023Y12403D1*
X8012Y12373D1*
X8001Y12343D1*
X7992Y12313D1*
X7986Y12283D1*
X7983Y12253D1*
X7981Y12224D1*
X7978Y12194D1*
X7970Y12164D1*
X7941Y12134D1*
X7910Y12104D1*
X7882Y12074D1*
X7872Y12044D1*
X7866Y12014D1*
X7864Y11984D1*
X7866Y11954D1*
X7881Y11924D1*
X7906Y11894D1*
X7943Y11864D1*
X7991Y11835D1*
X8044Y11805D1*
X8101Y11775D1*
X8609Y12822D2*
X8525Y12792D1*
X8449Y12762D1*
X8383Y12732D1*
X8327Y12702D1*
X8279Y12672D1*
X8239Y12642D1*
X8209Y12613D1*
X8184Y12583D1*
X8162Y12553D1*
X8141Y12523D1*
X8121Y12493D1*
X8101Y12463D1*
X8082Y12433D1*
X8066Y12403D1*
X8053Y12373D1*
X8042Y12343D1*
X8031Y12313D1*
X8022Y12283D1*
X8016Y12253D1*
X8012Y12224D1*
X8006Y12194D1*
X7995Y12164D1*
X7981Y12134D1*
X7995Y12104D1*
X8004Y12074D1*
X8011Y12044D1*
X8968Y12074D2*
X8877Y12044D1*
X8777Y12014D1*
X8690Y11984D1*
X8632Y11954D1*
X8591Y11924D1*
X8699Y11894D1*
X8819Y11864D1*
Y11835D1*
Y11805D1*
X9028Y12074D2*
X9034Y12044D1*
X9045Y12014D1*
X9061Y11984D1*
X9079Y11954D1*
X9101Y11924D1*
X9129Y11894D1*
X9166Y11864D1*
X9208Y11835D1*
X7891Y12074D2*
X7886Y12044D1*
X7875Y12014D1*
X7861Y11984D1*
X7896Y11954D1*
X7934Y11924D1*
X7977Y11894D1*
X8024Y11864D1*
X8076Y11835D1*
X8131Y11805D1*
X7951Y12074D2*
X7981Y12044D1*
X9028Y12014D2*
X8894Y11984D1*
X8759Y11954D1*
X8797Y11924D1*
X8827Y11894D1*
X8837Y11864D1*
X8841Y11835D1*
X8803Y11805D1*
X8759Y11775D1*
X9028Y11984D2*
X9040Y11954D1*
X9054Y11924D1*
X9071Y11894D1*
X9094Y11864D1*
X9120Y11835D1*
X9148Y11805D1*
X5944Y21064D2*
D13*
X5772D1*
X5715Y21083D1*
X5696Y21102D1*
X5677Y21140D1*
Y21179D1*
X5696Y21217D1*
X5715Y21236D1*
X5772Y21255D1*
X5944D1*
Y20853D1*
X5810Y21064D2*
X5677Y20853D1*
X5305Y21255D2*
X5553D1*
Y20853D1*
X5305D1*
X5553Y21064D2*
X5400D1*
X5181Y21255D2*
X5028Y20853D1*
X4875Y21255D1*
X4733Y20892D2*
X4752Y20872D1*
X4733Y20853D1*
X4713Y20872D1*
X4733Y20892D1*
X3952Y21255D2*
X4201D1*
Y20853D1*
Y21064D2*
X4048D1*
X10746Y21204D2*
D105*
Y20903D1*
X10645D1*
X10602Y20918D1*
X10573Y20946D1*
X10559Y20975D1*
X10545Y21018D1*
Y21090D1*
X10559Y21133D1*
X10573Y21161D1*
X10602Y21190D1*
X10645Y21204D1*
X10746D1*
X10452Y21018D2*
X10280D1*
Y21047D1*
X10294Y21075D1*
X10308Y21090D1*
X10337Y21104D1*
X10380D1*
X10409Y21090D1*
X10438Y21061D1*
X10452Y21018D1*
Y20989D1*
X10438Y20946D1*
X10409Y20918D1*
X10380Y20903D1*
X10337D1*
X10308Y20918D1*
X10280Y20946D1*
X10029Y21061D2*
X10044Y21090D1*
X10087Y21104D1*
X10130D1*
X10173Y21090D1*
X10187Y21061D1*
X10173Y21032D1*
X10144Y21018D1*
X10073Y21004D1*
X10044Y20989D1*
X10029Y20960D1*
Y20946D1*
X10044Y20918D1*
X10087Y20903D1*
X10130D1*
X10173Y20918D1*
X10187Y20946D1*
X9937Y21204D2*
X9923Y21190D1*
X9908Y21204D1*
X9923Y21219D1*
X9937Y21204D1*
X9923Y21104D2*
Y20903D1*
X9643Y21090D2*
Y20860D1*
X9657Y20817D1*
X9672Y20803D1*
X9701Y20788D1*
X9744D1*
X9772Y20803D1*
X9643Y21047D2*
X9672Y21075D1*
X9701Y21090D1*
X9744D1*
X9772Y21075D1*
X9801Y21047D1*
X9815Y21004D1*
Y20975D1*
X9801Y20932D1*
X9772Y20903D1*
X9744Y20889D1*
X9701D1*
X9672Y20903D1*
X9643Y20932D1*
X9551Y21104D2*
Y20903D1*
Y21047D2*
X9507Y21090D1*
X9479Y21104D1*
X9436D1*
X9407Y21090D1*
X9393Y21047D1*
Y20903D1*
X9286Y21104D2*
X9300Y21089D1*
X9286Y21075D1*
X9271Y21089D1*
X9286Y21104D1*
Y20932D2*
X9300Y20917D1*
X9286Y20903D1*
X9271Y20917D1*
X9286Y20932D1*
X8887Y21204D2*
Y20903D1*
X8758D1*
X8715Y20918D1*
X8700Y20932D1*
X8686Y20960D1*
Y21004D1*
X8700Y21032D1*
X8715Y21047D1*
X8758Y21061D1*
X8715Y21075D1*
X8700Y21090D1*
X8686Y21118D1*
Y21147D1*
X8700Y21176D1*
X8715Y21190D1*
X8758Y21204D1*
X8887D1*
Y21061D2*
X8758D1*
X8593Y21104D2*
Y20903D1*
Y21018D2*
X8579Y21061D1*
X8550Y21090D1*
X8521Y21104D1*
X8478D1*
X8214D2*
Y20903D1*
Y21061D2*
X8242Y21090D1*
X8271Y21104D1*
X8314D1*
X8343Y21090D1*
X8371Y21061D1*
X8386Y21018D1*
Y20989D1*
X8371Y20946D1*
X8343Y20918D1*
X8314Y20903D1*
X8271D1*
X8242Y20918D1*
X8214Y20946D1*
X8121Y21104D2*
Y20903D1*
Y21047D2*
X8078Y21090D1*
X8049Y21104D1*
X8006D1*
X7977Y21090D1*
X7963Y21047D1*
Y20903D1*
X7827Y21204D2*
Y20960D1*
X7813Y20918D1*
X7784Y20903D1*
X7756D1*
X7870Y21104D2*
X7770D1*
X7142Y20903D2*
Y21204D1*
X7257Y20903D1*
X7371Y21204D1*
Y20903D1*
X6877Y21104D2*
Y20903D1*
Y21061D2*
X6906Y21090D1*
X6935Y21104D1*
X6977D1*
X7006Y21090D1*
X7035Y21061D1*
X7049Y21018D1*
Y20989D1*
X7035Y20946D1*
X7006Y20918D1*
X6977Y20903D1*
X6935D1*
X6906Y20918D1*
X6877Y20946D1*
X6785Y21104D2*
Y20903D1*
Y21018D2*
X6770Y21061D1*
X6742Y21090D1*
X6713Y21104D1*
X6670D1*
X6534Y21204D2*
Y20960D1*
X6520Y20918D1*
X6491Y20903D1*
X6462D1*
X6577Y21104D2*
X6476D1*
X6370Y21204D2*
X6355Y21190D1*
X6341Y21204D1*
X6355Y21219D1*
X6370Y21204D1*
X6355Y21104D2*
Y20903D1*
X6248Y21104D2*
Y20903D1*
Y21047D2*
X6205Y21090D1*
X6176Y21104D1*
X6133D1*
X6104Y21090D1*
X6090Y21047D1*
Y20903D1*
M02*
