G04 DipTrace 2.4.0.2*
%INIoDriver15.gbs*%
%MOIN*%
%ADD58C,0.0866*%
%ADD84R,0.1339X0.0787*%
%ADD88R,0.0492X0.0335*%
%ADD92C,0.0748*%
%ADD94R,0.0748X0.0748*%
%ADD98R,0.0591X0.0669*%
%ADD100R,0.0669X0.0591*%
%FSLAX44Y44*%
G04*
G70*
G90*
G75*
G01*
%LNBotMask*%
%LPD*%
D100*
X4812Y11937D3*
Y12685D3*
X8000Y12248D3*
Y12996D3*
D98*
X8562Y8687D3*
X9310D3*
D100*
X9625Y5500D3*
Y6248D3*
X7750Y8875D3*
Y8126D3*
X9750Y11937D3*
Y11189D3*
Y12812D3*
Y13560D3*
X10312Y15185D3*
Y14437D3*
X6875Y8875D3*
Y8126D3*
X6937Y6562D3*
Y5814D3*
X5250Y5125D3*
Y4376D3*
D98*
X5500Y5812D3*
X6248D3*
D94*
X9437Y22812D3*
D92*
X8437D3*
X7437D3*
X6437D3*
X5437D3*
D94*
X10312Y15937D3*
D92*
Y16937D3*
D94*
X4437Y4437D3*
D92*
Y5437D3*
Y6437D3*
D88*
X8500Y17312D3*
Y18060D3*
X9405Y17686D3*
D100*
X7187Y14250D3*
Y13501D3*
D84*
X5187Y19187D3*
Y21392D3*
D100*
X6437Y17562D3*
Y18310D3*
D84*
X6687Y19187D3*
Y21392D3*
X8125Y19187D3*
Y21392D3*
X9625Y19187D3*
Y21392D3*
D100*
X8062Y14125D3*
Y14873D3*
X6437Y16875D3*
Y16126D3*
X5625Y12687D3*
Y11939D3*
X8250Y15687D3*
Y16435D3*
D98*
X5625Y10562D3*
X6373D3*
D100*
X4750Y8125D3*
Y8873D3*
X5500Y9062D3*
Y8314D3*
D58*
X9937Y18250D3*
X4875Y16812D3*
X6187Y4625D3*
G36*
X4437Y11250D2*
X5000D1*
Y10187D1*
X4437D1*
Y11250D1*
G37*
G36*
X5437Y7750D2*
X6375D1*
Y6750D1*
X5437D1*
Y7750D1*
G37*
G36*
X8687Y8250D2*
X9937D1*
Y7000D1*
X8687D1*
Y8250D1*
G37*
M02*
