G04 DipTrace 2.4.0.2*
%INIoDriverRevF2.g3l*%
%MOIN*%
%ADD13C,0.0061*%
%ADD14C,0.022*%
%ADD16C,0.013*%
%ADD27R,0.0669X0.0669*%
%ADD28C,0.0669*%
%ADD30C,0.0787*%
%ADD48C,0.0295*%
%ADD50C,0.04*%
%FSLAX44Y44*%
G04*
G70*
G90*
G75*
G01*
%LNInner2*%
%LPD*%
X10625Y13437D2*
D13*
X10687Y13500D1*
Y19312D1*
X10625Y19375D1*
X8437D1*
X8250Y19187D1*
Y19125D1*
X8750Y16375D2*
X7687Y15312D1*
Y14875D1*
X6250Y13437D1*
Y13250D1*
X10625Y12625D2*
X10312D1*
X10250Y12687D1*
Y14000D1*
X10437Y14187D1*
Y18437D1*
X10000Y18875D1*
X6625D1*
X6500Y19000D1*
X6437D1*
X7312Y16375D2*
X5562Y14625D1*
Y13875D1*
X5000Y13312D1*
Y11750D1*
X4500Y11250D1*
Y11062D1*
X4375Y10937D1*
X4250D1*
X6937Y16375D2*
X5437Y14875D1*
Y13937D1*
X4875Y13375D1*
Y11812D1*
X4375Y11312D1*
X4250D1*
X4375Y9750D2*
X4687Y10062D1*
Y11187D1*
X5125Y11625D1*
Y13250D1*
X5687Y13812D1*
Y14562D1*
X6125Y15000D1*
X7437D1*
X10625Y11875D2*
X10500Y12000D1*
X10312D1*
X10125Y12187D1*
Y14125D1*
X10312Y14312D1*
Y18312D1*
X9875Y18750D1*
X4750D1*
X6562Y16375D2*
X5312Y15125D1*
Y14000D1*
X4750Y13437D1*
Y12000D1*
X4437Y11687D1*
X4250D1*
X6375Y7687D2*
X6625Y7937D1*
X8875D1*
X9000Y8062D1*
Y8125D1*
X4250Y13500D2*
X4562Y13187D1*
Y12436D1*
X4250Y12123D1*
Y12062D1*
X6312Y6437D2*
D14*
X6812Y5937D1*
X9812D1*
X9937Y6062D1*
X6312Y6437D2*
D13*
X5875Y6875D1*
Y10625D1*
X5954Y10704D1*
X6142D1*
X6250Y10812D1*
Y11500D1*
X6176Y11573D1*
X5988D1*
X5812Y11750D1*
X10625Y13000D2*
Y13125D1*
X10584Y13165D1*
X10459D1*
X10375Y13250D1*
Y13937D1*
X10562Y14125D1*
Y19000D1*
X10437Y19125D1*
X10000D1*
X8312Y7562D2*
X8375Y7625D1*
X9187D1*
X9937Y8375D1*
Y10937D1*
X10125Y11125D1*
X10625D1*
D48*
X8312Y18312D3*
X10625Y13437D3*
X8250Y19125D3*
X8375Y16375D3*
X9125D3*
X8000D3*
X6250Y13250D3*
X4250Y13875D3*
X8750Y16375D3*
X6250Y13250D3*
X6187Y8937D3*
X8759Y5572D3*
X4374Y7685D3*
X4499Y6444D3*
X6625Y18312D3*
X10625Y12625D3*
X6437Y19000D3*
X4250Y10937D3*
X7312Y16375D3*
X4250Y10937D3*
Y11312D3*
X6937Y16375D3*
X4250Y11312D3*
X10375Y6375D3*
X4375Y9750D3*
X7437Y15000D3*
X8000D3*
X4812Y15500D3*
X10625Y11500D3*
X5250Y18250D3*
X10625Y11875D3*
X4750Y18750D3*
X8500Y8312D3*
X4250Y11687D3*
X6562Y16375D3*
X4250Y11687D3*
X9000Y8125D3*
X4250Y10562D3*
X9000Y8125D3*
X6375Y7687D3*
X9000Y8125D3*
X9875Y5562D3*
X4250Y10187D3*
D3*
X5125Y9812D3*
X4250Y12687D3*
X5500Y9812D3*
X4250Y13062D3*
D50*
X7687Y7433D3*
D48*
X4250Y13500D3*
Y12062D3*
X6312Y6437D3*
X9937Y6062D3*
X5812Y11750D3*
X6312Y6437D3*
X5812Y11750D3*
X10625Y10750D3*
D3*
X6687Y9062D3*
X8891Y13579D3*
X6001Y13750D3*
X10625Y12250D3*
X5250Y16375D3*
X5000D3*
D50*
X7314Y8873D3*
D48*
X9875Y18250D3*
X10625Y13000D3*
X10000Y19125D3*
X9687Y13875D3*
X8312Y7562D3*
X10625Y11125D3*
X5500Y15750D3*
X6625Y8437D3*
D50*
X6937Y7437D3*
D48*
X7437Y16875D3*
Y17187D3*
X4250Y16250D3*
Y16000D3*
X5375Y19687D3*
X6062D3*
X7062D3*
X7750D3*
X8812D3*
X9437D3*
X8312Y11250D3*
Y11562D3*
Y11875D3*
X8937Y7000D3*
X9375D3*
Y6562D3*
X8937D3*
X4161Y22221D2*
D13*
X10713D1*
X4161Y22161D2*
X5310D1*
X5565D2*
X6310D1*
X6565D2*
X7310D1*
X7565D2*
X8310D1*
X8565D2*
X9002D1*
X9873D2*
X10713D1*
X4161Y22101D2*
X5185D1*
X5690D2*
X6185D1*
X6690D2*
X7185D1*
X7689D2*
X8185D1*
X8689D2*
X9002D1*
X9873D2*
X10713D1*
X4161Y22041D2*
X5116D1*
X5758D2*
X6116D1*
X6759D2*
X7116D1*
X7759D2*
X8116D1*
X8759D2*
X9002D1*
X9873D2*
X10713D1*
X4161Y21981D2*
X5070D1*
X5805D2*
X6070D1*
X6805D2*
X7070D1*
X7805D2*
X8070D1*
X8805D2*
X9002D1*
X9873D2*
X10713D1*
X4161Y21921D2*
X5037D1*
X5836D2*
X6037D1*
X6836D2*
X7037D1*
X7836D2*
X8037D1*
X8836D2*
X9002D1*
X9873D2*
X10713D1*
X4161Y21861D2*
X5016D1*
X5858D2*
X6016D1*
X6857D2*
X7016D1*
X7857D2*
X8016D1*
X8857D2*
X9002D1*
X9873D2*
X10713D1*
X4161Y21800D2*
X5005D1*
X5869D2*
X6005D1*
X6869D2*
X7004D1*
X7869D2*
X8004D1*
X8869D2*
X9002D1*
X9873D2*
X10713D1*
X4161Y21740D2*
X5002D1*
X5872D2*
X6002D1*
X6872D2*
X7002D1*
X7872D2*
X8002D1*
X8872D2*
X9002D1*
X9873D2*
X10713D1*
X4161Y21680D2*
X5007D1*
X5866D2*
X6007D1*
X6867D2*
X7007D1*
X7867D2*
X8007D1*
X8867D2*
X9002D1*
X9873D2*
X10713D1*
X4161Y21620D2*
X5022D1*
X5853D2*
X6022D1*
X6853D2*
X7022D1*
X7853D2*
X8022D1*
X8853D2*
X9002D1*
X9873D2*
X10713D1*
X4161Y21560D2*
X5046D1*
X5828D2*
X6046D1*
X6828D2*
X7046D1*
X7828D2*
X8046D1*
X8829D2*
X9002D1*
X9873D2*
X10713D1*
X4161Y21500D2*
X5081D1*
X5792D2*
X6082D1*
X6792D2*
X7082D1*
X7792D2*
X8082D1*
X8792D2*
X9002D1*
X9873D2*
X10713D1*
X4161Y21440D2*
X5134D1*
X5740D2*
X6134D1*
X6740D2*
X7134D1*
X7740D2*
X8134D1*
X8740D2*
X9002D1*
X9873D2*
X10713D1*
X4161Y21380D2*
X5213D1*
X5661D2*
X6213D1*
X6661D2*
X7213D1*
X7661D2*
X8214D1*
X8661D2*
X9002D1*
X9873D2*
X10713D1*
X4161Y21320D2*
X10713D1*
X4161Y21260D2*
X10713D1*
X4161Y21199D2*
X10713D1*
X4161Y21139D2*
X10713D1*
X4161Y21079D2*
X10713D1*
X4161Y21019D2*
X10713D1*
X4161Y20959D2*
X10713D1*
X4161Y20899D2*
X10713D1*
X4161Y20839D2*
X10713D1*
X4161Y20779D2*
X10713D1*
X4161Y20719D2*
X10713D1*
X4161Y20658D2*
X10713D1*
X4161Y20598D2*
X10713D1*
X4161Y20538D2*
X10713D1*
X4161Y20478D2*
X10713D1*
X4161Y20418D2*
X10713D1*
X4161Y20358D2*
X10713D1*
X4161Y20298D2*
X10713D1*
X4161Y20238D2*
X10713D1*
X4161Y20178D2*
X10713D1*
X4161Y20118D2*
X10713D1*
X4161Y20057D2*
X10713D1*
X4161Y19997D2*
X10713D1*
X4161Y19937D2*
X10713D1*
X4161Y19877D2*
X5219D1*
X5530D2*
X5906D1*
X6218D2*
X6906D1*
X7218D2*
X7594D1*
X7905D2*
X8656D1*
X8968D2*
X9281D1*
X9593D2*
X10713D1*
X4161Y19817D2*
X5164D1*
X5585D2*
X5852D1*
X6272D2*
X6852D1*
X7272D2*
X7539D1*
X7960D2*
X8601D1*
X9022D2*
X9227D1*
X9647D2*
X10713D1*
X4161Y19757D2*
X5137D1*
X5613D2*
X5824D1*
X6300D2*
X6824D1*
X7300D2*
X7511D1*
X7987D2*
X8574D1*
X9050D2*
X9199D1*
X9675D2*
X10713D1*
X4161Y19697D2*
X5126D1*
X5622D2*
X5814D1*
X6310D2*
X6814D1*
X7310D2*
X7502D1*
X7998D2*
X8564D1*
X9060D2*
X9189D1*
X9685D2*
X10713D1*
X4161Y19637D2*
X5131D1*
X5618D2*
X5819D1*
X6305D2*
X6819D1*
X7305D2*
X7506D1*
X7993D2*
X8569D1*
X9055D2*
X9194D1*
X9680D2*
X10713D1*
X4161Y19577D2*
X5153D1*
X5596D2*
X5840D1*
X6284D2*
X6840D1*
X7284D2*
X7528D1*
X7971D2*
X8591D1*
X9034D2*
X9216D1*
X9659D2*
X10713D1*
X4161Y19516D2*
X5197D1*
X5552D2*
X5884D1*
X6240D2*
X6884D1*
X7240D2*
X7572D1*
X7927D2*
X8634D1*
X8990D2*
X9259D1*
X9615D2*
X10713D1*
X4161Y19456D2*
X5294D1*
X5454D2*
X5982D1*
X6142D2*
X6982D1*
X7142D2*
X7670D1*
X7830D2*
X8336D1*
X4161Y19396D2*
X8276D1*
X4161Y19336D2*
X8125D1*
X4161Y19276D2*
X8054D1*
X4161Y19216D2*
X6322D1*
X6551D2*
X8019D1*
X8480D2*
X9769D1*
X4161Y19156D2*
X6246D1*
X6628D2*
X8003D1*
X8496D2*
X9753D1*
X4161Y19096D2*
X6209D1*
X6666D2*
X8003D1*
X8496D2*
X9753D1*
X4161Y19036D2*
X6192D1*
X6683D2*
X8018D1*
X8481D2*
X9768D1*
X4161Y18976D2*
X4656D1*
X4842D2*
X6190D1*
X4161Y18915D2*
X4567D1*
X4931D2*
X6204D1*
X4161Y18855D2*
X4526D1*
X4161Y18795D2*
X4506D1*
X4161Y18735D2*
X4502D1*
X4161Y18675D2*
X4513D1*
X4161Y18615D2*
X4542D1*
X4956D2*
X9826D1*
X4161Y18555D2*
X4600D1*
X4900D2*
X9886D1*
X4161Y18495D2*
X6459D1*
X6789D2*
X8147D1*
X8477D2*
X9946D1*
X4161Y18435D2*
X5087D1*
X5411D2*
X6410D1*
X6839D2*
X8098D1*
X8527D2*
X9713D1*
X4161Y18374D2*
X5036D1*
X5463D2*
X6385D1*
X6864D2*
X8072D1*
X8552D2*
X9661D1*
X4161Y18314D2*
X5010D1*
X5489D2*
X6376D1*
X6873D2*
X8064D1*
X8560D2*
X9635D1*
X4161Y18254D2*
X5002D1*
X5498D2*
X6384D1*
X6866D2*
X8071D1*
X8553D2*
X9626D1*
X10123D2*
X10181D1*
X4161Y18194D2*
X5007D1*
X5491D2*
X6407D1*
X6842D2*
X8095D1*
X8529D2*
X9633D1*
X10116D2*
X10181D1*
X4161Y18134D2*
X5030D1*
X5469D2*
X6455D1*
X6795D2*
X8142D1*
X8482D2*
X9656D1*
X10093D2*
X10181D1*
X4161Y18074D2*
X5077D1*
X5423D2*
X6575D1*
X6674D2*
X8262D1*
X8362D2*
X9702D1*
X10047D2*
X10181D1*
X4161Y18014D2*
X5188D1*
X5311D2*
X9813D1*
X9936D2*
X10181D1*
X4161Y17954D2*
X10181D1*
X4161Y17894D2*
X10181D1*
X4161Y17834D2*
X10181D1*
X4161Y17773D2*
X10181D1*
X4161Y17713D2*
X10181D1*
X4161Y17653D2*
X10181D1*
X4161Y17593D2*
X10181D1*
X4161Y17533D2*
X10181D1*
X4161Y17473D2*
X10181D1*
X4161Y17413D2*
X7343D1*
X7530D2*
X10181D1*
X4161Y17353D2*
X7254D1*
X7619D2*
X10181D1*
X4161Y17293D2*
X7213D1*
X7661D2*
X10181D1*
X4161Y17232D2*
X7194D1*
X7681D2*
X10181D1*
X4161Y17172D2*
X7189D1*
X7685D2*
X10181D1*
X4161Y17112D2*
X7200D1*
X7673D2*
X10181D1*
X4161Y17052D2*
X7230D1*
X7644D2*
X10181D1*
X4161Y16992D2*
X7219D1*
X7655D2*
X10181D1*
X4161Y16932D2*
X7195D1*
X7678D2*
X10181D1*
X4161Y16872D2*
X7189D1*
X7686D2*
X10181D1*
X4161Y16812D2*
X7197D1*
X7677D2*
X10181D1*
X4161Y16752D2*
X7222D1*
X7652D2*
X10181D1*
X4161Y16692D2*
X7272D1*
X7601D2*
X10181D1*
X4161Y16631D2*
X10181D1*
X4161Y16571D2*
X4852D1*
X5397D2*
X6415D1*
X6709D2*
X6790D1*
X7084D2*
X7165D1*
X7459D2*
X7853D1*
X8146D2*
X8227D1*
X8521D2*
X8602D1*
X8897D2*
X8978D1*
X9272D2*
X10181D1*
X4161Y16511D2*
X4793D1*
X5455D2*
X6356D1*
X7518D2*
X7793D1*
X9330D2*
X10181D1*
X4389Y16451D2*
X4764D1*
X5485D2*
X6326D1*
X7547D2*
X7764D1*
X9360D2*
X10181D1*
X4452Y16391D2*
X4752D1*
X5497D2*
X6315D1*
X7560D2*
X7752D1*
X9372D2*
X10181D1*
X4483Y16331D2*
X4755D1*
X5494D2*
X6317D1*
X7556D2*
X7755D1*
X9369D2*
X10181D1*
X4497Y16271D2*
X4774D1*
X5475D2*
X6275D1*
X7537D2*
X7775D1*
X9350D2*
X10181D1*
X4495Y16211D2*
X4816D1*
X5434D2*
X6215D1*
X7497D2*
X7815D1*
X9308D2*
X10181D1*
X4477Y16151D2*
X4901D1*
X5097D2*
X5151D1*
X5348D2*
X6155D1*
X7410D2*
X7902D1*
X8097D2*
X8276D1*
X8848D2*
X9026D1*
X9223D2*
X10181D1*
X4480Y16090D2*
X6095D1*
X7212D2*
X8283D1*
X8648D2*
X10181D1*
X4496Y16030D2*
X6034D1*
X7151D2*
X8222D1*
X8589D2*
X10181D1*
X4496Y15970D2*
X5394D1*
X5605D2*
X5975D1*
X7091D2*
X8162D1*
X8528D2*
X10181D1*
X4480Y15910D2*
X5313D1*
X5687D2*
X5914D1*
X7031D2*
X8102D1*
X8469D2*
X10181D1*
X4446Y15850D2*
X5273D1*
X5726D2*
X5855D1*
X6971D2*
X8042D1*
X8408D2*
X10181D1*
X4377Y15790D2*
X5255D1*
X5744D2*
X5794D1*
X6910D2*
X7981D1*
X8348D2*
X10181D1*
X4161Y15730D2*
X4731D1*
X4893D2*
X5252D1*
X6851D2*
X7922D1*
X8288D2*
X10181D1*
X4161Y15670D2*
X4634D1*
X4990D2*
X5265D1*
X6790D2*
X7861D1*
X8228D2*
X10181D1*
X4161Y15610D2*
X4590D1*
X5034D2*
X5295D1*
X6730D2*
X7802D1*
X8167D2*
X10181D1*
X4161Y15550D2*
X4569D1*
X5055D2*
X5357D1*
X6670D2*
X7741D1*
X8108D2*
X10181D1*
X4161Y15489D2*
X4564D1*
X5060D2*
X5494D1*
X6610D2*
X7681D1*
X8047D2*
X10181D1*
X4161Y15429D2*
X4574D1*
X5050D2*
X5434D1*
X6550D2*
X7622D1*
X7988D2*
X10181D1*
X4161Y15369D2*
X4602D1*
X5023D2*
X5373D1*
X6490D2*
X7570D1*
X7927D2*
X10181D1*
X4161Y15309D2*
X4656D1*
X4968D2*
X5314D1*
X6429D2*
X7555D1*
X7867D2*
X10181D1*
X4161Y15249D2*
X5253D1*
X6370D2*
X7555D1*
X7818D2*
X10181D1*
X4161Y15189D2*
X5198D1*
X6310D2*
X7280D1*
X7818D2*
X7842D1*
X8157D2*
X10181D1*
X4161Y15129D2*
X5181D1*
X6249D2*
X7226D1*
X8211D2*
X10181D1*
X4161Y15069D2*
X5181D1*
X8237D2*
X10181D1*
X4161Y15009D2*
X5181D1*
X8248D2*
X10181D1*
X4161Y14948D2*
X5181D1*
X8242D2*
X10181D1*
X4161Y14888D2*
X5181D1*
X8221D2*
X10181D1*
X4161Y14828D2*
X5181D1*
X6137D2*
X7260D1*
X8177D2*
X10181D1*
X4161Y14768D2*
X5181D1*
X6076D2*
X7360D1*
X7763D2*
X7922D1*
X8077D2*
X10181D1*
X4161Y14708D2*
X5181D1*
X6016D2*
X7337D1*
X7704D2*
X10181D1*
X4161Y14648D2*
X5181D1*
X5956D2*
X7277D1*
X7643D2*
X10181D1*
X4161Y14588D2*
X5181D1*
X5896D2*
X7218D1*
X7584D2*
X10181D1*
X4161Y14528D2*
X5181D1*
X5835D2*
X7157D1*
X7523D2*
X10181D1*
X4161Y14468D2*
X5181D1*
X5818D2*
X7097D1*
X7463D2*
X10181D1*
X4161Y14408D2*
X5181D1*
X5818D2*
X7037D1*
X7404D2*
X10181D1*
X4161Y14347D2*
X5181D1*
X5818D2*
X6977D1*
X7343D2*
X10165D1*
X4161Y14287D2*
X5181D1*
X5818D2*
X6916D1*
X7283D2*
X10104D1*
X4161Y14227D2*
X5181D1*
X5818D2*
X6857D1*
X7223D2*
X10044D1*
X4161Y14167D2*
X5181D1*
X5818D2*
X6796D1*
X7163D2*
X10001D1*
X4323Y14107D2*
X5181D1*
X5818D2*
X6737D1*
X7102D2*
X9614D1*
X9760D2*
X9993D1*
X4426Y14047D2*
X5176D1*
X5818D2*
X6676D1*
X7043D2*
X9511D1*
X9863D2*
X9993D1*
X4470Y13987D2*
X5116D1*
X5818D2*
X5947D1*
X6055D2*
X6616D1*
X6982D2*
X9466D1*
X9907D2*
X9993D1*
X4492Y13927D2*
X5056D1*
X6172D2*
X6556D1*
X6923D2*
X9445D1*
X9929D2*
X9993D1*
X4498Y13867D2*
X4996D1*
X6219D2*
X6496D1*
X6862D2*
X9439D1*
X9935D2*
X9993D1*
X4488Y13806D2*
X4935D1*
X6243D2*
X6435D1*
X6802D2*
X8803D1*
X8979D2*
X9449D1*
X9925D2*
X9993D1*
X4461Y13746D2*
X4876D1*
X6250D2*
X6376D1*
X6742D2*
X8711D1*
X9071D2*
X9476D1*
X9899D2*
X9993D1*
X4409Y13686D2*
X4816D1*
X6241D2*
X6315D1*
X6682D2*
X8669D1*
X9114D2*
X9528D1*
X9846D2*
X9993D1*
X4462Y13626D2*
X4755D1*
X5685D2*
X5787D1*
X6215D2*
X6256D1*
X6621D2*
X8647D1*
X9135D2*
X9993D1*
X4488Y13566D2*
X4696D1*
X5624D2*
X5838D1*
X6166D2*
X6196D1*
X6562D2*
X8644D1*
X9139D2*
X9993D1*
X4498Y13506D2*
X4639D1*
X5564D2*
X6139D1*
X6501D2*
X8654D1*
X9128D2*
X9993D1*
X4492Y13446D2*
X4619D1*
X5504D2*
X6101D1*
X6442D2*
X8683D1*
X9100D2*
X9993D1*
X4547Y13386D2*
X4618D1*
X5444D2*
X6043D1*
X6455D2*
X8739D1*
X9044D2*
X9993D1*
X5383Y13326D2*
X6013D1*
X6485D2*
X9993D1*
X5324Y13266D2*
X6002D1*
X6498D2*
X9993D1*
X5264Y13205D2*
X6005D1*
X6494D2*
X9993D1*
X5256Y13145D2*
X6025D1*
X6475D2*
X9993D1*
X5256Y13085D2*
X6066D1*
X6433D2*
X9993D1*
X5256Y13025D2*
X6152D1*
X6347D2*
X9993D1*
X5256Y12965D2*
X9993D1*
X5256Y12905D2*
X9993D1*
X5256Y12845D2*
X9993D1*
X5256Y12785D2*
X9993D1*
X5256Y12725D2*
X9993D1*
X5256Y12665D2*
X9993D1*
X5256Y12604D2*
X9993D1*
X5256Y12544D2*
X9993D1*
X5256Y12484D2*
X9993D1*
X5256Y12424D2*
X9993D1*
X5256Y12364D2*
X9993D1*
X5256Y12304D2*
X9993D1*
X5256Y12244D2*
X9993D1*
X5256Y12184D2*
X9993D1*
X5256Y12124D2*
X10010D1*
X5256Y12063D2*
X10065D1*
X5256Y12003D2*
X10125D1*
X5256Y11943D2*
X5661D1*
X5963D2*
X10185D1*
X5256Y11883D2*
X5604D1*
X6020D2*
X10260D1*
X5256Y11823D2*
X5576D1*
X6048D2*
X10381D1*
X5256Y11763D2*
X5564D1*
X6060D2*
X10404D1*
X5256Y11703D2*
X5569D1*
X6056D2*
X10448D1*
X5256Y11643D2*
X5589D1*
X6289D2*
X10423D1*
X5248Y11583D2*
X5630D1*
X6349D2*
X10391D1*
X5206Y11523D2*
X5722D1*
X6379D2*
X10378D1*
X5145Y11462D2*
X5924D1*
X6381D2*
X10380D1*
X5085Y11402D2*
X6118D1*
X6381D2*
X10397D1*
X5026Y11342D2*
X6118D1*
X6381D2*
X10434D1*
X4965Y11282D2*
X6118D1*
X6381D2*
X10434D1*
X4906Y11222D2*
X6118D1*
X6381D2*
X10040D1*
X4845Y11162D2*
X6118D1*
X6381D2*
X9978D1*
X4818Y11102D2*
X6118D1*
X6381D2*
X9919D1*
X4818Y11042D2*
X6118D1*
X6381D2*
X9858D1*
X4818Y10982D2*
X6118D1*
X6381D2*
X9814D1*
X10164D2*
X10423D1*
X4818Y10921D2*
X6118D1*
X6381D2*
X9806D1*
X10105D2*
X10448D1*
X4485Y10861D2*
X4555D1*
X4818D2*
X6116D1*
X6381D2*
X9806D1*
X10068D2*
X10404D1*
X4456Y10801D2*
X4555D1*
X4818D2*
X5869D1*
X6381D2*
X9806D1*
X10068D2*
X10381D1*
X4418Y10741D2*
X4555D1*
X4818D2*
X5808D1*
X6358D2*
X9806D1*
X10068D2*
X10377D1*
X4466Y10681D2*
X4555D1*
X4818D2*
X5757D1*
X6302D2*
X9806D1*
X10068D2*
X10386D1*
X4490Y10621D2*
X4555D1*
X4818D2*
X5744D1*
X6241D2*
X9806D1*
X10068D2*
X10413D1*
X4498Y10561D2*
X4555D1*
X4818D2*
X5744D1*
X6006D2*
X9806D1*
X10068D2*
X10467D1*
X4490Y10501D2*
X4555D1*
X4818D2*
X5744D1*
X6006D2*
X9806D1*
X10068D2*
X10713D1*
X4465Y10441D2*
X4555D1*
X4818D2*
X5744D1*
X6006D2*
X9806D1*
X10068D2*
X10713D1*
X4416Y10381D2*
X4555D1*
X4818D2*
X5744D1*
X6006D2*
X9806D1*
X10068D2*
X10713D1*
X4457Y10320D2*
X4555D1*
X4818D2*
X5744D1*
X6006D2*
X9806D1*
X10068D2*
X10713D1*
X4486Y10260D2*
X4555D1*
X4818D2*
X5744D1*
X6006D2*
X9806D1*
X10068D2*
X10713D1*
X4498Y10200D2*
X4555D1*
X4818D2*
X5744D1*
X6006D2*
X9806D1*
X10068D2*
X10713D1*
X4493Y10140D2*
X4555D1*
X4818D2*
X5744D1*
X6006D2*
X9806D1*
X10068D2*
X10713D1*
X4473Y10080D2*
X4522D1*
X4818D2*
X5744D1*
X6006D2*
X9806D1*
X10068D2*
X10713D1*
X4431Y10020D2*
X4461D1*
X4811D2*
X4994D1*
X5255D2*
X5369D1*
X5630D2*
X5744D1*
X6006D2*
X9806D1*
X10068D2*
X10713D1*
X4768Y9960D2*
X4927D1*
X5697D2*
X5743D1*
X6006D2*
X9806D1*
X10068D2*
X10713D1*
X4708Y9900D2*
X4892D1*
X6006D2*
X9806D1*
X10068D2*
X10713D1*
X4647Y9840D2*
X4878D1*
X6006D2*
X9806D1*
X10068D2*
X10713D1*
X4621Y9779D2*
X4879D1*
X6006D2*
X9806D1*
X10068D2*
X10713D1*
X4621Y9719D2*
X4895D1*
X6006D2*
X9806D1*
X10068D2*
X10713D1*
X4605Y9659D2*
X4931D1*
X5693D2*
X5744D1*
X6006D2*
X9806D1*
X10068D2*
X10713D1*
X4571Y9599D2*
X5003D1*
X5246D2*
X5378D1*
X5620D2*
X5744D1*
X6006D2*
X9806D1*
X10068D2*
X10713D1*
X4161Y9539D2*
X4248D1*
X4501D2*
X5744D1*
X6006D2*
X9806D1*
X10068D2*
X10713D1*
X4161Y9479D2*
X5744D1*
X6006D2*
X9806D1*
X10068D2*
X10713D1*
X4161Y9419D2*
X5744D1*
X6006D2*
X9806D1*
X10068D2*
X10713D1*
X4161Y9359D2*
X5744D1*
X6006D2*
X9806D1*
X10068D2*
X10713D1*
X4161Y9299D2*
X5744D1*
X6006D2*
X6629D1*
X6744D2*
X9806D1*
X10068D2*
X10713D1*
X4161Y9239D2*
X5744D1*
X6006D2*
X6515D1*
X6858D2*
X9806D1*
X10068D2*
X10713D1*
X4161Y9178D2*
X5744D1*
X6006D2*
X6163D1*
X6211D2*
X6469D1*
X6905D2*
X9806D1*
X10068D2*
X10713D1*
X4161Y9118D2*
X5744D1*
X6354D2*
X6445D1*
X6928D2*
X7146D1*
X7483D2*
X9806D1*
X10068D2*
X10713D1*
X4161Y9058D2*
X5744D1*
X6403D2*
X6439D1*
X6935D2*
X7079D1*
X7549D2*
X9806D1*
X10068D2*
X10713D1*
X4161Y8998D2*
X5744D1*
X6428D2*
X6447D1*
X6927D2*
X7042D1*
X7587D2*
X9806D1*
X10068D2*
X10713D1*
X4161Y8938D2*
X5744D1*
X6435D2*
X6473D1*
X6901D2*
X7021D1*
X7607D2*
X9806D1*
X10068D2*
X10713D1*
X4161Y8878D2*
X5744D1*
X6428D2*
X6524D1*
X6851D2*
X7013D1*
X7615D2*
X9806D1*
X10068D2*
X10713D1*
X4161Y8818D2*
X5744D1*
X6404D2*
X7019D1*
X7610D2*
X9806D1*
X10068D2*
X10713D1*
X4161Y8758D2*
X5744D1*
X6356D2*
X7037D1*
X7592D2*
X9806D1*
X10068D2*
X10713D1*
X4161Y8698D2*
X5744D1*
X6006D2*
X6145D1*
X6229D2*
X7072D1*
X7557D2*
X9806D1*
X10068D2*
X10713D1*
X4161Y8637D2*
X5744D1*
X6006D2*
X6482D1*
X6766D2*
X7131D1*
X7498D2*
X9806D1*
X10068D2*
X10713D1*
X4161Y8577D2*
X5744D1*
X6006D2*
X6421D1*
X6828D2*
X9806D1*
X10068D2*
X10713D1*
X4161Y8517D2*
X5744D1*
X6006D2*
X6390D1*
X6859D2*
X8365D1*
X8634D2*
X9806D1*
X10068D2*
X10713D1*
X4161Y8457D2*
X5744D1*
X6006D2*
X6377D1*
X6872D2*
X8300D1*
X8699D2*
X9806D1*
X10068D2*
X10713D1*
X4161Y8397D2*
X5744D1*
X6006D2*
X6380D1*
X6869D2*
X8266D1*
X8733D2*
X9776D1*
X10068D2*
X10713D1*
X4161Y8337D2*
X5744D1*
X6006D2*
X6398D1*
X6851D2*
X8253D1*
X8746D2*
X8878D1*
X9121D2*
X9716D1*
X10063D2*
X10713D1*
X4161Y8277D2*
X5744D1*
X6006D2*
X6436D1*
X6812D2*
X8254D1*
X8745D2*
X8805D1*
X9194D2*
X9656D1*
X10022D2*
X10713D1*
X4161Y8217D2*
X5744D1*
X6006D2*
X6518D1*
X6731D2*
X8271D1*
X8728D2*
X8769D1*
X9230D2*
X9596D1*
X9962D2*
X10713D1*
X4161Y8157D2*
X5744D1*
X6006D2*
X8308D1*
X8691D2*
X8753D1*
X9246D2*
X9536D1*
X9902D2*
X10713D1*
X4161Y8097D2*
X5744D1*
X6006D2*
X8384D1*
X8616D2*
X8753D1*
X9246D2*
X9476D1*
X9842D2*
X10713D1*
X4161Y8036D2*
X5744D1*
X6006D2*
X6542D1*
X9231D2*
X9416D1*
X9782D2*
X10713D1*
X4161Y7976D2*
X5744D1*
X6006D2*
X6481D1*
X9197D2*
X9356D1*
X9722D2*
X10713D1*
X4161Y7916D2*
X4295D1*
X4453D2*
X5744D1*
X6006D2*
X6291D1*
X9129D2*
X9295D1*
X9662D2*
X10713D1*
X4161Y7856D2*
X4197D1*
X4552D2*
X5744D1*
X6006D2*
X6196D1*
X8976D2*
X9236D1*
X9602D2*
X10713D1*
X4596Y7796D2*
X5744D1*
X6006D2*
X6152D1*
X6667D2*
X8243D1*
X8380D2*
X9175D1*
X9542D2*
X10713D1*
X4617Y7736D2*
X5744D1*
X6006D2*
X6131D1*
X6618D2*
X8138D1*
X9481D2*
X10713D1*
X4622Y7676D2*
X5744D1*
X6006D2*
X6126D1*
X6622D2*
X6759D1*
X7116D2*
X7514D1*
X7860D2*
X8092D1*
X9422D2*
X10713D1*
X4612Y7616D2*
X5744D1*
X6006D2*
X6137D1*
X6612D2*
X6696D1*
X7177D2*
X7450D1*
X7925D2*
X8070D1*
X9361D2*
X10713D1*
X4585Y7556D2*
X5744D1*
X6006D2*
X6165D1*
X6584D2*
X6661D1*
X7213D2*
X7413D1*
X7961D2*
X8064D1*
X9302D2*
X10713D1*
X4161Y7495D2*
X4218D1*
X4530D2*
X5744D1*
X6006D2*
X6220D1*
X6528D2*
X6643D1*
X7232D2*
X7393D1*
X7981D2*
X8074D1*
X8551D2*
X10713D1*
X4161Y7435D2*
X5744D1*
X6006D2*
X6636D1*
X7237D2*
X7386D1*
X7988D2*
X8099D1*
X8524D2*
X10713D1*
X4161Y7375D2*
X5744D1*
X6006D2*
X6643D1*
X7231D2*
X7392D1*
X7982D2*
X8152D1*
X8473D2*
X10713D1*
X4161Y7315D2*
X5744D1*
X6006D2*
X6663D1*
X7212D2*
X7411D1*
X7963D2*
X10713D1*
X4161Y7255D2*
X5744D1*
X6006D2*
X6699D1*
X7175D2*
X7447D1*
X7927D2*
X10713D1*
X4161Y7195D2*
X5744D1*
X6006D2*
X6764D1*
X7111D2*
X7508D1*
X7866D2*
X10713D1*
X4161Y7135D2*
X5744D1*
X6006D2*
X10713D1*
X4161Y7075D2*
X5744D1*
X6006D2*
X10713D1*
X4161Y7015D2*
X5744D1*
X6006D2*
X10713D1*
X4161Y6955D2*
X5744D1*
X6006D2*
X10713D1*
X4161Y6894D2*
X5744D1*
X6038D2*
X10713D1*
X4161Y6834D2*
X5750D1*
X6097D2*
X10713D1*
X4161Y6774D2*
X5791D1*
X6158D2*
X10713D1*
X4161Y6714D2*
X5852D1*
X6218D2*
X10713D1*
X4161Y6654D2*
X4372D1*
X4626D2*
X5911D1*
X6426D2*
X10713D1*
X4161Y6594D2*
X4303D1*
X4695D2*
X5972D1*
X6502D2*
X10266D1*
X10483D2*
X10713D1*
X4161Y6534D2*
X4269D1*
X4730D2*
X6032D1*
X6540D2*
X10186D1*
X10563D2*
X10713D1*
X4161Y6474D2*
X4253D1*
X4745D2*
X6067D1*
X6571D2*
X10147D1*
X10601D2*
X10713D1*
X4161Y6414D2*
X4253D1*
X4745D2*
X6065D1*
X6631D2*
X10129D1*
X10619D2*
X10713D1*
X4161Y6353D2*
X4269D1*
X4730D2*
X6078D1*
X6691D2*
X10127D1*
X10622D2*
X10713D1*
X4161Y6293D2*
X4304D1*
X4694D2*
X6111D1*
X6751D2*
X9859D1*
X10015D2*
X10141D1*
X10609D2*
X10713D1*
X4161Y6233D2*
X4374D1*
X4624D2*
X6175D1*
X6811D2*
X9760D1*
X10115D2*
X10171D1*
X10577D2*
X10713D1*
X4161Y6173D2*
X6280D1*
X6872D2*
X9715D1*
X10159D2*
X10234D1*
X10515D2*
X10713D1*
X4161Y6113D2*
X6340D1*
X10180D2*
X10713D1*
X4161Y6053D2*
X6401D1*
X10186D2*
X10713D1*
X4161Y5993D2*
X6460D1*
X10175D2*
X10713D1*
X4161Y5933D2*
X6521D1*
X10148D2*
X10713D1*
X4161Y5873D2*
X6580D1*
X10094D2*
X10713D1*
X4161Y5813D2*
X6641D1*
X9983D2*
X10713D1*
X4161Y5752D2*
X6718D1*
X10030D2*
X10713D1*
X4161Y5692D2*
X8543D1*
X8975D2*
X9665D1*
X10085D2*
X10713D1*
X4161Y5632D2*
X8519D1*
X9000D2*
X9637D1*
X10113D2*
X10713D1*
X4161Y5572D2*
X8511D1*
X9008D2*
X9626D1*
X10122D2*
X10713D1*
X4161Y5512D2*
X8519D1*
X9000D2*
X9631D1*
X10117D2*
X10713D1*
X4161Y5452D2*
X8543D1*
X8975D2*
X9653D1*
X10096D2*
X10713D1*
X4161Y5392D2*
X8592D1*
X8927D2*
X9696D1*
X10053D2*
X10713D1*
X4161Y5332D2*
X8722D1*
X8796D2*
X9794D1*
X9955D2*
X10713D1*
X4161Y5272D2*
X10713D1*
X4161Y5211D2*
X7148D1*
X7475D2*
X10713D1*
X4161Y5151D2*
X7028D1*
X7595D2*
X10713D1*
X4161Y5091D2*
X6957D1*
X7666D2*
X8542D1*
X9413D2*
X9782D1*
X10173D2*
X10713D1*
X4161Y5031D2*
X6908D1*
X7717D2*
X8542D1*
X9413D2*
X9691D1*
X10263D2*
X10713D1*
X4161Y4971D2*
X4252D1*
X5122D2*
X5552D1*
X5823D2*
X6871D1*
X7753D2*
X8542D1*
X9413D2*
X9634D1*
X10321D2*
X10713D1*
X4161Y4911D2*
X4252D1*
X5122D2*
X5431D1*
X5943D2*
X6845D1*
X7779D2*
X8542D1*
X9413D2*
X9595D1*
X10360D2*
X10713D1*
X4161Y4851D2*
X4252D1*
X5122D2*
X5364D1*
X6010D2*
X6828D1*
X7796D2*
X8542D1*
X9413D2*
X9568D1*
X10387D2*
X10713D1*
X4161Y4791D2*
X4252D1*
X5122D2*
X5317D1*
X6056D2*
X6819D1*
X7805D2*
X8542D1*
X9413D2*
X9550D1*
X10404D2*
X10713D1*
X4161Y4731D2*
X4252D1*
X5122D2*
X5287D1*
X6088D2*
X6818D1*
X7806D2*
X8542D1*
X9413D2*
X9543D1*
X10412D2*
X10713D1*
X4161Y4671D2*
X4252D1*
X5122D2*
X5266D1*
X6108D2*
X6824D1*
X7800D2*
X8542D1*
X9413D2*
X9544D1*
X10411D2*
X10713D1*
X4161Y4610D2*
X4252D1*
X5122D2*
X5254D1*
X6120D2*
X6838D1*
X7786D2*
X8542D1*
X9413D2*
X9553D1*
X10401D2*
X10713D1*
X4161Y4550D2*
X4252D1*
X5122D2*
X5252D1*
X6122D2*
X6861D1*
X7763D2*
X8542D1*
X9413D2*
X9572D1*
X10383D2*
X10713D1*
X4161Y4490D2*
X4252D1*
X5122D2*
X5258D1*
X6117D2*
X6892D1*
X7732D2*
X8542D1*
X9413D2*
X9600D1*
X10354D2*
X10713D1*
X4161Y4430D2*
X4252D1*
X5122D2*
X5272D1*
X6101D2*
X6936D1*
X7688D2*
X8542D1*
X9413D2*
X9643D1*
X10312D2*
X10713D1*
X4161Y4370D2*
X4252D1*
X5122D2*
X5297D1*
X6077D2*
X6999D1*
X7625D2*
X8542D1*
X9413D2*
X9705D1*
X10250D2*
X10713D1*
X4161Y4310D2*
X4252D1*
X5122D2*
X5334D1*
X6041D2*
X7094D1*
X7530D2*
X8542D1*
X9413D2*
X9807D1*
X10148D2*
X10713D1*
X4161Y4250D2*
X4252D1*
X5122D2*
X5387D1*
X5987D2*
X10713D1*
X4161Y4190D2*
X4252D1*
X5122D2*
X5467D1*
X5906D2*
X10713D1*
X9014Y22179D2*
X9866D1*
Y21320D1*
X9008D1*
Y22179D1*
X9014D1*
X8865Y21719D2*
X8856Y21658D1*
X8839Y21599D1*
X8814Y21543D1*
X8780Y21492D1*
X8740Y21446D1*
X8694Y21405D1*
X8642Y21372D1*
X8586Y21347D1*
X8527Y21330D1*
X8466Y21321D1*
X8405D1*
X8344Y21330D1*
X8285Y21348D1*
X8230Y21374D1*
X8178Y21407D1*
X8132Y21447D1*
X8092Y21494D1*
X8059Y21546D1*
X8034Y21602D1*
X8017Y21661D1*
X8009Y21722D1*
Y21783D1*
X8018Y21844D1*
X8036Y21902D1*
X8062Y21958D1*
X8095Y22009D1*
X8136Y22055D1*
X8183Y22095D1*
X8235Y22128D1*
X8291Y22153D1*
X8350Y22170D1*
X8410Y22178D1*
X8472Y22177D1*
X8532Y22168D1*
X8591Y22150D1*
X8647Y22124D1*
X8698Y22090D1*
X8744Y22050D1*
X8784Y22003D1*
X8816Y21951D1*
X8841Y21895D1*
X8858Y21836D1*
X8865Y21775D1*
Y21719D1*
X7865D2*
X7856Y21658D1*
X7839Y21599D1*
X7814Y21543D1*
X7780Y21492D1*
X7740Y21446D1*
X7694Y21405D1*
X7642Y21372D1*
X7586Y21347D1*
X7527Y21330D1*
X7466Y21321D1*
X7405D1*
X7344Y21330D1*
X7285Y21348D1*
X7230Y21374D1*
X7178Y21407D1*
X7132Y21447D1*
X7092Y21494D1*
X7059Y21546D1*
X7034Y21602D1*
X7017Y21661D1*
X7009Y21722D1*
Y21783D1*
X7018Y21844D1*
X7036Y21902D1*
X7062Y21958D1*
X7095Y22009D1*
X7136Y22055D1*
X7183Y22095D1*
X7235Y22128D1*
X7291Y22153D1*
X7350Y22170D1*
X7410Y22178D1*
X7472Y22177D1*
X7532Y22168D1*
X7591Y22150D1*
X7647Y22124D1*
X7698Y22090D1*
X7744Y22050D1*
X7784Y22003D1*
X7816Y21951D1*
X7841Y21895D1*
X7858Y21836D1*
X7865Y21775D1*
Y21719D1*
X6865D2*
X6856Y21658D1*
X6839Y21599D1*
X6814Y21543D1*
X6780Y21492D1*
X6740Y21446D1*
X6694Y21405D1*
X6642Y21372D1*
X6586Y21347D1*
X6527Y21330D1*
X6466Y21321D1*
X6405D1*
X6344Y21330D1*
X6285Y21348D1*
X6230Y21374D1*
X6178Y21407D1*
X6132Y21447D1*
X6092Y21494D1*
X6059Y21546D1*
X6034Y21602D1*
X6017Y21661D1*
X6009Y21722D1*
Y21783D1*
X6018Y21844D1*
X6036Y21902D1*
X6062Y21958D1*
X6095Y22009D1*
X6136Y22055D1*
X6183Y22095D1*
X6235Y22128D1*
X6291Y22153D1*
X6350Y22170D1*
X6410Y22178D1*
X6472Y22177D1*
X6532Y22168D1*
X6591Y22150D1*
X6647Y22124D1*
X6698Y22090D1*
X6744Y22050D1*
X6784Y22003D1*
X6816Y21951D1*
X6841Y21895D1*
X6858Y21836D1*
X6865Y21775D1*
Y21719D1*
X5865D2*
X5856Y21658D1*
X5839Y21599D1*
X5814Y21543D1*
X5780Y21492D1*
X5740Y21446D1*
X5694Y21405D1*
X5642Y21372D1*
X5586Y21347D1*
X5527Y21330D1*
X5466Y21321D1*
X5405D1*
X5344Y21330D1*
X5285Y21348D1*
X5230Y21374D1*
X5178Y21407D1*
X5132Y21447D1*
X5092Y21494D1*
X5059Y21546D1*
X5034Y21602D1*
X5017Y21661D1*
X5009Y21722D1*
Y21783D1*
X5018Y21844D1*
X5036Y21902D1*
X5062Y21958D1*
X5095Y22009D1*
X5136Y22055D1*
X5183Y22095D1*
X5235Y22128D1*
X5291Y22153D1*
X5350Y22170D1*
X5410Y22178D1*
X5472Y22177D1*
X5532Y22168D1*
X5591Y22150D1*
X5647Y22124D1*
X5698Y22090D1*
X5744Y22050D1*
X5784Y22003D1*
X5816Y21951D1*
X5841Y21895D1*
X5858Y21836D1*
X5865Y21775D1*
Y21719D1*
X4288Y4991D2*
X5116D1*
Y4156D1*
X5550Y4155D1*
X5502Y4175D1*
X5459Y4199D1*
X5419Y4227D1*
X5382Y4260D1*
X5350Y4297D1*
X5321Y4337D1*
X5298Y4380D1*
X5280Y4426D1*
X5267Y4473D1*
X5260Y4522D1*
X5258Y4571D1*
X5262Y4620D1*
X5271Y4668D1*
X5286Y4715D1*
X5306Y4760D1*
X5331Y4802D1*
X5361Y4841D1*
X5395Y4876D1*
X5433Y4908D1*
X5474Y4935D1*
X5518Y4956D1*
X5564Y4973D1*
X5612Y4985D1*
X5660Y4990D1*
X5710Y4991D1*
X5758Y4985D1*
X5806Y4974D1*
X5853Y4958D1*
X5897Y4937D1*
X5938Y4910D1*
X5976Y4879D1*
X6011Y4844D1*
X6041Y4805D1*
X6066Y4763D1*
X6087Y4719D1*
X6102Y4672D1*
X6112Y4624D1*
X6116Y4575D1*
X6115Y4525D1*
X6108Y4477D1*
X6095Y4429D1*
X6077Y4383D1*
X6054Y4340D1*
X6027Y4299D1*
X5994Y4262D1*
X5958Y4229D1*
X5918Y4200D1*
X5876Y4176D1*
X5830Y4157D1*
X5824Y4155D1*
X10719D1*
Y10526D1*
X10667Y10511D1*
X10636Y10508D1*
X10606D1*
X10575Y10512D1*
X10546Y10520D1*
X10517Y10532D1*
X10491Y10548D1*
X10466Y10566D1*
X10444Y10587D1*
X10425Y10612D1*
X10410Y10638D1*
X10397Y10666D1*
X10388Y10695D1*
X10383Y10726D1*
X10382Y10756D1*
X10385Y10787D1*
X10392Y10817D1*
X10402Y10846D1*
X10416Y10873D1*
X10433Y10898D1*
X10454Y10921D1*
X10472Y10937D1*
X10444Y10962D1*
X10418Y10999D1*
X10176D1*
X10062Y10885D1*
Y10446D1*
Y8375D1*
X10059Y8344D1*
X10048Y8316D1*
X10026Y8286D1*
X9276Y7536D1*
X9251Y7517D1*
X9223Y7505D1*
X9187Y7499D1*
X8545D1*
X8537Y7472D1*
X8524Y7444D1*
X8507Y7419D1*
X8487Y7395D1*
X8465Y7374D1*
X8440Y7356D1*
X8413Y7342D1*
X8384Y7331D1*
X8354Y7324D1*
X8324Y7320D1*
X8293Y7321D1*
X8263Y7325D1*
X8233Y7333D1*
X8205Y7345D1*
X8178Y7360D1*
X8154Y7379D1*
X8132Y7400D1*
X8113Y7424D1*
X8097Y7450D1*
X8085Y7478D1*
X8076Y7508D1*
X8071Y7538D1*
X8070Y7569D1*
X8073Y7599D1*
X8079Y7629D1*
X8090Y7658D1*
X8104Y7686D1*
X8121Y7711D1*
X8141Y7734D1*
X8164Y7754D1*
X8190Y7771D1*
X8217Y7785D1*
X8246Y7795D1*
X8276Y7802D1*
X8307Y7804D1*
X8337Y7803D1*
X8368Y7798D1*
X8397Y7789D1*
X8425Y7776D1*
X8464Y7750D1*
X9135D1*
X9812Y8426D1*
Y10937D1*
X9815Y10967D1*
X9826Y10996D1*
X9848Y11026D1*
X10036Y11213D1*
X10060Y11232D1*
X10088Y11244D1*
X10125Y11250D1*
X10417D1*
X10433Y11273D1*
X10454Y11296D1*
X10472Y11312D1*
X10444Y11337D1*
X10425Y11362D1*
X10410Y11388D1*
X10397Y11416D1*
X10388Y11445D1*
X10383Y11476D1*
X10382Y11506D1*
X10385Y11537D1*
X10392Y11567D1*
X10402Y11596D1*
X10416Y11623D1*
X10433Y11648D1*
X10454Y11671D1*
X10472Y11687D1*
X10444Y11712D1*
X10425Y11737D1*
X10410Y11763D1*
X10397Y11791D1*
X10388Y11820D1*
X10383Y11851D1*
Y11875D1*
X10312Y11874D1*
X10282Y11878D1*
X10253Y11889D1*
X10223Y11911D1*
X10036Y12098D1*
X10017Y12123D1*
X10005Y12151D1*
X9999Y12187D1*
Y14125D1*
X10003Y14155D1*
X10014Y14183D1*
X10036Y14213D1*
X10187Y14364D1*
Y14865D1*
Y18261D1*
X10092Y18354D1*
X10104Y18327D1*
X10112Y18297D1*
X10117Y18250D1*
X10115Y18219D1*
X10109Y18189D1*
X10099Y18160D1*
X10086Y18132D1*
X10070Y18106D1*
X10050Y18083D1*
X10027Y18062D1*
X10002Y18044D1*
X9975Y18029D1*
X9947Y18018D1*
X9917Y18011D1*
X9886Y18008D1*
X9856D1*
X9825Y18012D1*
X9796Y18020D1*
X9767Y18032D1*
X9741Y18048D1*
X9716Y18066D1*
X9694Y18087D1*
X9675Y18112D1*
X9660Y18138D1*
X9647Y18166D1*
X9638Y18195D1*
X9633Y18226D1*
X9632Y18256D1*
X9635Y18287D1*
X9642Y18317D1*
X9652Y18346D1*
X9666Y18373D1*
X9683Y18398D1*
X9704Y18421D1*
X9727Y18442D1*
X9752Y18459D1*
X9780Y18472D1*
X9809Y18483D1*
X9839Y18489D1*
X9869Y18492D1*
X9900Y18490D1*
X9930Y18485D1*
X9960Y18476D1*
X9980Y18467D1*
X9822Y18624D1*
X4956D1*
X4945Y18606D1*
X4925Y18583D1*
X4902Y18562D1*
X4877Y18544D1*
X4850Y18529D1*
X4822Y18518D1*
X4792Y18511D1*
X4761Y18508D1*
X4731D1*
X4700Y18512D1*
X4671Y18520D1*
X4642Y18532D1*
X4616Y18548D1*
X4591Y18566D1*
X4569Y18587D1*
X4550Y18612D1*
X4535Y18638D1*
X4522Y18666D1*
X4513Y18695D1*
X4508Y18726D1*
X4507Y18756D1*
X4510Y18787D1*
X4517Y18817D1*
X4527Y18846D1*
X4541Y18873D1*
X4558Y18898D1*
X4579Y18921D1*
X4602Y18942D1*
X4627Y18959D1*
X4655Y18972D1*
X4684Y18983D1*
X4714Y18989D1*
X4744Y18992D1*
X4775Y18990D1*
X4805Y18985D1*
X4835Y18976D1*
X4863Y18964D1*
X4889Y18948D1*
X4913Y18929D1*
X4934Y18906D1*
X4957Y18874D1*
X5701Y18875D1*
X6230D1*
X6210Y18916D1*
X6201Y18945D1*
X6196Y18976D1*
X6195Y19006D1*
X6198Y19037D1*
X6204Y19067D1*
X6215Y19096D1*
X6229Y19123D1*
X6246Y19148D1*
X6266Y19171D1*
X6289Y19192D1*
X6315Y19209D1*
X6342Y19222D1*
X6371Y19233D1*
X6401Y19239D1*
X6432Y19242D1*
X6462Y19240D1*
X6493Y19235D1*
X6522Y19226D1*
X6550Y19214D1*
X6576Y19198D1*
X6600Y19179D1*
X6622Y19156D1*
X6640Y19132D1*
X6655Y19105D1*
X6667Y19077D1*
X6675Y19047D1*
X6679Y19000D1*
X8042D1*
X8022Y19041D1*
X8013Y19070D1*
X8008Y19101D1*
X8007Y19131D1*
X8010Y19162D1*
X8017Y19192D1*
X8027Y19221D1*
X8041Y19248D1*
X8058Y19273D1*
X8079Y19296D1*
X8102Y19317D1*
X8127Y19334D1*
X8155Y19347D1*
X8184Y19358D1*
X8214Y19364D1*
X8251Y19366D1*
X8348Y19463D1*
X8373Y19482D1*
X8401Y19494D1*
X8437Y19500D1*
X8659D1*
X8632Y19525D1*
X8613Y19549D1*
X8597Y19575D1*
X8585Y19603D1*
X8576Y19633D1*
X8571Y19663D1*
X8570Y19694D1*
X8573Y19724D1*
X8579Y19754D1*
X8590Y19783D1*
X8604Y19811D1*
X8621Y19836D1*
X8641Y19859D1*
X8664Y19879D1*
X8690Y19896D1*
X8717Y19910D1*
X8746Y19920D1*
X8776Y19927D1*
X8807Y19929D1*
X8837Y19928D1*
X8868Y19923D1*
X8897Y19914D1*
X8925Y19901D1*
X8951Y19885D1*
X8975Y19866D1*
X8997Y19844D1*
X9015Y19819D1*
X9030Y19793D1*
X9042Y19764D1*
X9050Y19735D1*
X9054Y19687D1*
X9052Y19656D1*
X9046Y19626D1*
X9037Y19597D1*
X9024Y19569D1*
X9007Y19544D1*
X8987Y19520D1*
X8966Y19500D1*
X9284D1*
X9257Y19525D1*
X9238Y19549D1*
X9222Y19575D1*
X9210Y19603D1*
X9201Y19633D1*
X9196Y19663D1*
X9195Y19694D1*
X9198Y19724D1*
X9204Y19754D1*
X9215Y19783D1*
X9229Y19811D1*
X9246Y19836D1*
X9266Y19859D1*
X9289Y19879D1*
X9315Y19896D1*
X9342Y19910D1*
X9371Y19920D1*
X9401Y19927D1*
X9432Y19929D1*
X9462Y19928D1*
X9493Y19923D1*
X9522Y19914D1*
X9550Y19901D1*
X9576Y19885D1*
X9600Y19866D1*
X9622Y19844D1*
X9640Y19819D1*
X9655Y19793D1*
X9667Y19764D1*
X9675Y19735D1*
X9679Y19687D1*
X9677Y19656D1*
X9671Y19626D1*
X9662Y19597D1*
X9649Y19569D1*
X9632Y19544D1*
X9612Y19520D1*
X9591Y19500D1*
X10625D1*
X10655Y19496D1*
X10683Y19485D1*
X10713Y19463D1*
X10719Y19457D1*
Y21045D1*
Y22281D1*
X4155D1*
Y16473D1*
X4184Y16483D1*
X4214Y16489D1*
X4244Y16492D1*
X4275Y16490D1*
X4305Y16485D1*
X4335Y16476D1*
X4363Y16464D1*
X4389Y16448D1*
X4413Y16429D1*
X4434Y16406D1*
X4452Y16382D1*
X4467Y16355D1*
X4479Y16327D1*
X4487Y16297D1*
X4492Y16250D1*
X4490Y16219D1*
X4484Y16189D1*
X4474Y16160D1*
X4457Y16125D1*
X4467Y16105D1*
X4479Y16077D1*
X4487Y16047D1*
X4492Y16000D1*
X4490Y15969D1*
X4484Y15939D1*
X4474Y15910D1*
X4461Y15882D1*
X4445Y15856D1*
X4425Y15833D1*
X4402Y15812D1*
X4377Y15794D1*
X4350Y15779D1*
X4322Y15768D1*
X4292Y15761D1*
X4261Y15758D1*
X4231D1*
X4200Y15762D1*
X4156Y15777D1*
X4155Y15433D1*
Y14098D1*
X4184Y14108D1*
X4214Y14114D1*
X4244Y14117D1*
X4275Y14115D1*
X4305Y14110D1*
X4335Y14101D1*
X4363Y14089D1*
X4389Y14073D1*
X4413Y14054D1*
X4434Y14031D1*
X4452Y14007D1*
X4467Y13980D1*
X4479Y13952D1*
X4487Y13922D1*
X4492Y13875D1*
X4490Y13844D1*
X4484Y13814D1*
X4474Y13785D1*
X4461Y13757D1*
X4445Y13731D1*
X4425Y13708D1*
X4403Y13687D1*
X4434Y13656D1*
X4452Y13632D1*
X4467Y13605D1*
X4479Y13577D1*
X4487Y13547D1*
X4492Y13500D1*
X4490Y13469D1*
X4485Y13442D1*
X4624Y13302D1*
Y13437D1*
X4628Y13467D1*
X4639Y13496D1*
X4661Y13526D1*
X5187Y14051D1*
Y15125D1*
X5190Y15155D1*
X5201Y15184D1*
X5223Y15213D1*
X5519Y15508D1*
X5481D1*
X5450Y15512D1*
X5421Y15520D1*
X5392Y15532D1*
X5366Y15548D1*
X5341Y15566D1*
X5319Y15587D1*
X5300Y15612D1*
X5285Y15638D1*
X5272Y15666D1*
X5263Y15695D1*
X5258Y15726D1*
X5257Y15756D1*
X5260Y15787D1*
X5267Y15817D1*
X5277Y15846D1*
X5291Y15873D1*
X5308Y15898D1*
X5329Y15921D1*
X5352Y15942D1*
X5377Y15959D1*
X5405Y15972D1*
X5434Y15983D1*
X5464Y15989D1*
X5494Y15992D1*
X5525Y15990D1*
X5555Y15985D1*
X5585Y15976D1*
X5613Y15964D1*
X5639Y15948D1*
X5663Y15929D1*
X5684Y15906D1*
X5702Y15882D1*
X5717Y15855D1*
X5729Y15827D1*
X5737Y15797D1*
X5742Y15750D1*
X5740Y15729D1*
X6049Y16038D1*
X6327Y16317D1*
X6321Y16351D1*
X6320Y16381D1*
X6323Y16412D1*
X6329Y16442D1*
X6340Y16471D1*
X6354Y16498D1*
X6371Y16523D1*
X6391Y16546D1*
X6414Y16567D1*
X6440Y16584D1*
X6467Y16597D1*
X6496Y16608D1*
X6526Y16614D1*
X6557Y16617D1*
X6587Y16615D1*
X6618Y16610D1*
X6647Y16601D1*
X6675Y16589D1*
X6701Y16573D1*
X6725Y16554D1*
X6749Y16528D1*
X6766Y16546D1*
X6789Y16567D1*
X6815Y16584D1*
X6842Y16597D1*
X6871Y16608D1*
X6901Y16614D1*
X6932Y16617D1*
X6962Y16615D1*
X6993Y16610D1*
X7022Y16601D1*
X7050Y16589D1*
X7076Y16573D1*
X7100Y16554D1*
X7124Y16528D1*
X7141Y16546D1*
X7164Y16567D1*
X7190Y16584D1*
X7217Y16597D1*
X7246Y16608D1*
X7276Y16614D1*
X7307Y16617D1*
X7337Y16615D1*
X7368Y16610D1*
X7397Y16601D1*
X7425Y16589D1*
X7451Y16573D1*
X7475Y16554D1*
X7497Y16531D1*
X7515Y16507D1*
X7530Y16480D1*
X7542Y16452D1*
X7550Y16422D1*
X7554Y16375D1*
X7552Y16344D1*
X7546Y16314D1*
X7537Y16285D1*
X7524Y16257D1*
X7507Y16231D1*
X7487Y16208D1*
X7465Y16187D1*
X7440Y16169D1*
X7413Y16154D1*
X7384Y16143D1*
X7354Y16136D1*
X7324Y16133D1*
X7293D1*
X7255Y16140D1*
X6240Y15125D1*
X7229D1*
X7246Y15148D1*
X7266Y15171D1*
X7289Y15192D1*
X7315Y15209D1*
X7342Y15222D1*
X7371Y15233D1*
X7401Y15239D1*
X7432Y15242D1*
X7462Y15240D1*
X7493Y15235D1*
X7522Y15226D1*
X7562Y15206D1*
Y15312D1*
X7565Y15342D1*
X7576Y15371D1*
X7598Y15401D1*
X8333Y16135D1*
X8296Y16145D1*
X8267Y16157D1*
X8241Y16173D1*
X8216Y16191D1*
X8187Y16222D1*
X8175Y16208D1*
X8152Y16187D1*
X8127Y16169D1*
X8100Y16154D1*
X8072Y16143D1*
X8042Y16136D1*
X8011Y16133D1*
X7981D1*
X7950Y16137D1*
X7921Y16145D1*
X7892Y16157D1*
X7866Y16173D1*
X7841Y16191D1*
X7819Y16212D1*
X7800Y16237D1*
X7785Y16263D1*
X7772Y16291D1*
X7763Y16320D1*
X7758Y16351D1*
X7757Y16381D1*
X7760Y16412D1*
X7767Y16442D1*
X7777Y16471D1*
X7791Y16498D1*
X7808Y16523D1*
X7829Y16546D1*
X7852Y16567D1*
X7877Y16584D1*
X7905Y16597D1*
X7934Y16608D1*
X7964Y16614D1*
X7994Y16617D1*
X8025Y16615D1*
X8055Y16610D1*
X8085Y16601D1*
X8113Y16589D1*
X8139Y16573D1*
X8163Y16554D1*
X8187Y16528D1*
X8204Y16546D1*
X8227Y16567D1*
X8252Y16584D1*
X8280Y16597D1*
X8309Y16608D1*
X8339Y16614D1*
X8369Y16617D1*
X8400Y16615D1*
X8430Y16610D1*
X8460Y16601D1*
X8488Y16589D1*
X8514Y16573D1*
X8538Y16554D1*
X8562Y16528D1*
X8579Y16546D1*
X8602Y16567D1*
X8627Y16584D1*
X8655Y16597D1*
X8684Y16608D1*
X8714Y16614D1*
X8744Y16617D1*
X8775Y16615D1*
X8805Y16610D1*
X8835Y16601D1*
X8863Y16589D1*
X8889Y16573D1*
X8913Y16554D1*
X8937Y16528D1*
X8954Y16546D1*
X8977Y16567D1*
X9002Y16584D1*
X9030Y16597D1*
X9059Y16608D1*
X9089Y16614D1*
X9119Y16617D1*
X9150Y16615D1*
X9180Y16610D1*
X9210Y16601D1*
X9238Y16589D1*
X9264Y16573D1*
X9288Y16554D1*
X9309Y16531D1*
X9327Y16507D1*
X9342Y16480D1*
X9354Y16452D1*
X9362Y16422D1*
X9367Y16375D1*
X9365Y16344D1*
X9359Y16314D1*
X9349Y16285D1*
X9336Y16257D1*
X9320Y16231D1*
X9300Y16208D1*
X9277Y16187D1*
X9252Y16169D1*
X9225Y16154D1*
X9197Y16143D1*
X9167Y16136D1*
X9136Y16133D1*
X9106D1*
X9075Y16137D1*
X9046Y16145D1*
X9017Y16157D1*
X8991Y16173D1*
X8966Y16191D1*
X8937Y16222D1*
X8925Y16208D1*
X8902Y16187D1*
X8877Y16169D1*
X8850Y16154D1*
X8822Y16143D1*
X8792Y16136D1*
X8761Y16133D1*
X8731D1*
X8692Y16140D1*
X7813Y15261D1*
X7812Y15154D1*
X7852Y15192D1*
X7877Y15209D1*
X7905Y15222D1*
X7934Y15233D1*
X7964Y15239D1*
X7994Y15242D1*
X8025Y15240D1*
X8055Y15235D1*
X8085Y15226D1*
X8113Y15214D1*
X8139Y15198D1*
X8163Y15179D1*
X8184Y15156D1*
X8202Y15132D1*
X8217Y15105D1*
X8229Y15077D1*
X8237Y15047D1*
X8242Y15000D1*
X8240Y14969D1*
X8234Y14939D1*
X8224Y14910D1*
X8211Y14882D1*
X8195Y14856D1*
X8175Y14833D1*
X8152Y14812D1*
X8127Y14794D1*
X8100Y14779D1*
X8072Y14768D1*
X8042Y14761D1*
X8011Y14758D1*
X7981D1*
X7950Y14762D1*
X7921Y14770D1*
X7892Y14782D1*
X7866Y14798D1*
X7841Y14816D1*
X7809Y14850D1*
X7798Y14816D1*
X7776Y14786D1*
X6415Y13425D1*
X6434Y13406D1*
X6452Y13382D1*
X6467Y13355D1*
X6479Y13327D1*
X6487Y13297D1*
X6492Y13250D1*
X6490Y13219D1*
X6484Y13189D1*
X6474Y13160D1*
X6461Y13132D1*
X6445Y13106D1*
X6425Y13083D1*
X6402Y13062D1*
X6377Y13044D1*
X6350Y13029D1*
X6322Y13018D1*
X6292Y13011D1*
X6261Y13008D1*
X6231D1*
X6200Y13012D1*
X6171Y13020D1*
X6142Y13032D1*
X6116Y13048D1*
X6091Y13066D1*
X6069Y13087D1*
X6050Y13112D1*
X6035Y13138D1*
X6022Y13166D1*
X6013Y13195D1*
X6008Y13226D1*
X6007Y13256D1*
X6010Y13287D1*
X6017Y13317D1*
X6027Y13346D1*
X6041Y13373D1*
X6058Y13398D1*
X6079Y13421D1*
X6102Y13442D1*
X6127Y13458D1*
X6128Y13467D1*
X6139Y13496D1*
X6161Y13526D1*
X7397Y14761D1*
X7358Y14770D1*
X7330Y14782D1*
X7303Y14798D1*
X7279Y14816D1*
X7257Y14837D1*
X7230Y14874D1*
X6177D1*
X5812Y14510D1*
Y13901D1*
X5831Y13921D1*
X5854Y13942D1*
X5879Y13959D1*
X5907Y13972D1*
X5936Y13983D1*
X5966Y13989D1*
X5996Y13992D1*
X6027Y13990D1*
X6057Y13985D1*
X6087Y13976D1*
X6115Y13964D1*
X6141Y13948D1*
X6165Y13929D1*
X6186Y13906D1*
X6204Y13882D1*
X6219Y13855D1*
X6231Y13827D1*
X6239Y13797D1*
X6244Y13750D1*
X6242Y13719D1*
X6236Y13689D1*
X6226Y13660D1*
X6213Y13632D1*
X6197Y13606D1*
X6177Y13583D1*
X6154Y13562D1*
X6129Y13544D1*
X6102Y13529D1*
X6074Y13518D1*
X6044Y13511D1*
X6013Y13508D1*
X5983D1*
X5952Y13512D1*
X5923Y13520D1*
X5894Y13532D1*
X5868Y13548D1*
X5843Y13566D1*
X5821Y13587D1*
X5802Y13612D1*
X5787Y13638D1*
X5774Y13666D1*
X5763Y13711D1*
X5493Y13441D1*
X5250Y13198D1*
Y11625D1*
X5246Y11594D1*
X5235Y11566D1*
X5213Y11536D1*
X4812Y11135D1*
Y10062D1*
X4809Y10032D1*
X4798Y10003D1*
X4776Y9973D1*
X4609Y9807D1*
X4616Y9767D1*
X4615Y9719D1*
X4609Y9689D1*
X4599Y9660D1*
X4586Y9632D1*
X4570Y9606D1*
X4550Y9583D1*
X4527Y9562D1*
X4502Y9544D1*
X4475Y9529D1*
X4447Y9518D1*
X4417Y9511D1*
X4386Y9508D1*
X4356D1*
X4325Y9512D1*
X4296Y9520D1*
X4267Y9532D1*
X4241Y9548D1*
X4216Y9566D1*
X4194Y9587D1*
X4175Y9612D1*
X4155Y9647D1*
Y7788D1*
X4166Y7809D1*
X4183Y7834D1*
X4204Y7857D1*
X4227Y7877D1*
X4252Y7894D1*
X4280Y7908D1*
X4308Y7918D1*
X4338Y7925D1*
X4369Y7927D1*
X4400Y7926D1*
X4430Y7921D1*
X4459Y7912D1*
X4487Y7900D1*
X4513Y7883D1*
X4537Y7864D1*
X4559Y7842D1*
X4577Y7818D1*
X4592Y7791D1*
X4604Y7763D1*
X4612Y7733D1*
X4616Y7685D1*
X4615Y7655D1*
X4609Y7625D1*
X4599Y7595D1*
X4586Y7568D1*
X4569Y7542D1*
X4550Y7518D1*
X4527Y7497D1*
X4502Y7480D1*
X4475Y7465D1*
X4447Y7454D1*
X4417Y7447D1*
X4386Y7443D1*
X4356Y7444D1*
X4325Y7448D1*
X4296Y7456D1*
X4267Y7468D1*
X4241Y7483D1*
X4216Y7502D1*
X4194Y7523D1*
X4175Y7547D1*
X4155Y7583D1*
Y4155D1*
X4258D1*
Y4991D1*
X4288D1*
X8554Y5135D2*
X9407D1*
Y4277D1*
X8548D1*
Y5135D1*
X8554D1*
X10405Y4676D2*
X10397Y4615D1*
X10379Y4556D1*
X10354Y4500D1*
X10321Y4449D1*
X10280Y4402D1*
X10234Y4362D1*
X10182Y4329D1*
X10126Y4304D1*
X10067Y4287D1*
X10007Y4278D1*
X9945D1*
X9885Y4287D1*
X9826Y4305D1*
X9770Y4330D1*
X9719Y4364D1*
X9672Y4404D1*
X9632Y4451D1*
X9600Y4503D1*
X9574Y4558D1*
X9557Y4617D1*
X9549Y4678D1*
Y4740D1*
X9559Y4800D1*
X9576Y4859D1*
X9602Y4915D1*
X9636Y4966D1*
X9676Y5012D1*
X9723Y5052D1*
X9775Y5085D1*
X9831Y5110D1*
X9890Y5126D1*
X9951Y5135D1*
X10012Y5134D1*
X10073Y5125D1*
X10131Y5107D1*
X10187Y5081D1*
X10238Y5047D1*
X10284Y5006D1*
X10324Y4960D1*
X10356Y4908D1*
X10381Y4851D1*
X10398Y4792D1*
X10406Y4731D1*
X10405Y4676D1*
X7799Y4719D2*
X7792Y4658D1*
X7776Y4598D1*
X7754Y4541D1*
X7724Y4488D1*
X7688Y4438D1*
X7646Y4393D1*
X7599Y4354D1*
X7547Y4321D1*
X7491Y4295D1*
X7433Y4276D1*
X7373Y4265D1*
X7311Y4261D1*
X7250Y4265D1*
X7190Y4277D1*
X7131Y4296D1*
X7076Y4322D1*
X7024Y4355D1*
X6977Y4394D1*
X6935Y4439D1*
X6899Y4489D1*
X6870Y4543D1*
X6847Y4600D1*
X6832Y4659D1*
X6825Y4720D1*
Y4782D1*
X6833Y4843D1*
X6848Y4902D1*
X6871Y4959D1*
X6901Y5013D1*
X6937Y5062D1*
X6979Y5107D1*
X7027Y5146D1*
X7078Y5178D1*
X7134Y5204D1*
X7193Y5223D1*
X7253Y5234D1*
X7314Y5238D1*
X7375Y5234D1*
X7436Y5222D1*
X7494Y5203D1*
X7549Y5176D1*
X7601Y5143D1*
X7648Y5104D1*
X7690Y5059D1*
X7726Y5009D1*
X7755Y4955D1*
X7777Y4898D1*
X7792Y4838D1*
X7800Y4777D1*
X7799Y4719D1*
X7230Y7406D2*
X7225Y7376D1*
X7217Y7346D1*
X7206Y7318D1*
X7192Y7290D1*
X7176Y7265D1*
X7157Y7241D1*
X7135Y7219D1*
X7111Y7199D1*
X7086Y7183D1*
X7058Y7169D1*
X7030Y7157D1*
X7000Y7149D1*
X6970Y7144D1*
X6939Y7142D1*
X6908Y7144D1*
X6878Y7148D1*
X6848Y7156D1*
X6820Y7167D1*
X6792Y7180D1*
X6766Y7197D1*
X6742Y7216D1*
X6720Y7238D1*
X6701Y7261D1*
X6684Y7287D1*
X6669Y7314D1*
X6658Y7342D1*
X6650Y7372D1*
X6644Y7402D1*
X6642Y7433D1*
X6644Y7463D1*
X6648Y7494D1*
X6655Y7524D1*
X6666Y7552D1*
X6679Y7580D1*
X6696Y7606D1*
X6715Y7630D1*
X6736Y7652D1*
X6759Y7672D1*
X6785Y7689D1*
X6812Y7704D1*
X6840Y7715D1*
X6870Y7724D1*
X6900Y7729D1*
X6931Y7732D1*
X6961Y7731D1*
X6992Y7726D1*
X7022Y7719D1*
X7051Y7709D1*
X7078Y7696D1*
X7104Y7679D1*
X7129Y7661D1*
X7151Y7640D1*
X7171Y7616D1*
X7188Y7591D1*
X7203Y7564D1*
X7215Y7536D1*
X7223Y7506D1*
X7229Y7476D1*
X7232Y7437D1*
X7230Y7406D1*
X7677Y16844D2*
X7671Y16814D1*
X7662Y16785D1*
X7649Y16757D1*
X7632Y16731D1*
X7612Y16708D1*
X7590Y16687D1*
X7565Y16669D1*
X7538Y16654D1*
X7509Y16643D1*
X7479Y16636D1*
X7449Y16633D1*
X7418D1*
X7388Y16637D1*
X7358Y16645D1*
X7330Y16657D1*
X7303Y16673D1*
X7279Y16691D1*
X7257Y16712D1*
X7238Y16737D1*
X7222Y16763D1*
X7210Y16791D1*
X7201Y16820D1*
X7196Y16851D1*
X7195Y16881D1*
X7198Y16912D1*
X7204Y16942D1*
X7215Y16971D1*
X7229Y16998D1*
X7252Y17030D1*
X7222Y17075D1*
X7210Y17103D1*
X7201Y17133D1*
X7196Y17163D1*
X7195Y17194D1*
X7198Y17224D1*
X7204Y17254D1*
X7215Y17283D1*
X7229Y17311D1*
X7246Y17336D1*
X7266Y17359D1*
X7289Y17379D1*
X7315Y17396D1*
X7342Y17410D1*
X7371Y17420D1*
X7401Y17427D1*
X7432Y17429D1*
X7462Y17428D1*
X7493Y17423D1*
X7522Y17414D1*
X7550Y17401D1*
X7576Y17385D1*
X7600Y17366D1*
X7622Y17344D1*
X7640Y17319D1*
X7655Y17293D1*
X7667Y17264D1*
X7675Y17235D1*
X7679Y17187D1*
X7677Y17156D1*
X7671Y17126D1*
X7662Y17097D1*
X7649Y17069D1*
X7622Y17031D1*
X7640Y17007D1*
X7655Y16980D1*
X7667Y16952D1*
X7675Y16922D1*
X7679Y16875D1*
X7677Y16844D1*
X5615Y19656D2*
X5609Y19626D1*
X5599Y19597D1*
X5586Y19569D1*
X5570Y19544D1*
X5550Y19520D1*
X5527Y19499D1*
X5502Y19481D1*
X5475Y19467D1*
X5447Y19456D1*
X5417Y19449D1*
X5386Y19445D1*
X5356Y19446D1*
X5325Y19450D1*
X5296Y19458D1*
X5267Y19470D1*
X5241Y19485D1*
X5216Y19504D1*
X5194Y19525D1*
X5175Y19549D1*
X5160Y19575D1*
X5147Y19603D1*
X5138Y19633D1*
X5133Y19663D1*
X5132Y19694D1*
X5135Y19724D1*
X5142Y19754D1*
X5152Y19783D1*
X5166Y19811D1*
X5183Y19836D1*
X5204Y19859D1*
X5227Y19879D1*
X5252Y19896D1*
X5280Y19910D1*
X5309Y19920D1*
X5339Y19927D1*
X5369Y19929D1*
X5400Y19928D1*
X5430Y19923D1*
X5460Y19914D1*
X5488Y19901D1*
X5514Y19885D1*
X5538Y19866D1*
X5559Y19844D1*
X5577Y19819D1*
X5592Y19793D1*
X5604Y19764D1*
X5612Y19735D1*
X5617Y19687D1*
X5615Y19656D1*
X6302D2*
X6296Y19626D1*
X6287Y19597D1*
X6274Y19569D1*
X6257Y19544D1*
X6237Y19520D1*
X6215Y19499D1*
X6190Y19481D1*
X6163Y19467D1*
X6134Y19456D1*
X6104Y19449D1*
X6074Y19445D1*
X6043Y19446D1*
X6013Y19450D1*
X5983Y19458D1*
X5955Y19470D1*
X5928Y19485D1*
X5904Y19504D1*
X5882Y19525D1*
X5863Y19549D1*
X5847Y19575D1*
X5835Y19603D1*
X5826Y19633D1*
X5821Y19663D1*
X5820Y19694D1*
X5823Y19724D1*
X5829Y19754D1*
X5840Y19783D1*
X5854Y19811D1*
X5871Y19836D1*
X5891Y19859D1*
X5914Y19879D1*
X5940Y19896D1*
X5967Y19910D1*
X5996Y19920D1*
X6026Y19927D1*
X6057Y19929D1*
X6087Y19928D1*
X6118Y19923D1*
X6147Y19914D1*
X6175Y19901D1*
X6201Y19885D1*
X6225Y19866D1*
X6247Y19844D1*
X6265Y19819D1*
X6280Y19793D1*
X6292Y19764D1*
X6300Y19735D1*
X6304Y19687D1*
X6302Y19656D1*
X7302D2*
X7296Y19626D1*
X7287Y19597D1*
X7274Y19569D1*
X7257Y19544D1*
X7237Y19520D1*
X7215Y19499D1*
X7190Y19481D1*
X7163Y19467D1*
X7134Y19456D1*
X7104Y19449D1*
X7074Y19445D1*
X7043Y19446D1*
X7013Y19450D1*
X6983Y19458D1*
X6955Y19470D1*
X6928Y19485D1*
X6904Y19504D1*
X6882Y19525D1*
X6863Y19549D1*
X6847Y19575D1*
X6835Y19603D1*
X6826Y19633D1*
X6821Y19663D1*
X6820Y19694D1*
X6823Y19724D1*
X6829Y19754D1*
X6840Y19783D1*
X6854Y19811D1*
X6871Y19836D1*
X6891Y19859D1*
X6914Y19879D1*
X6940Y19896D1*
X6967Y19910D1*
X6996Y19920D1*
X7026Y19927D1*
X7057Y19929D1*
X7087Y19928D1*
X7118Y19923D1*
X7147Y19914D1*
X7175Y19901D1*
X7201Y19885D1*
X7225Y19866D1*
X7247Y19844D1*
X7265Y19819D1*
X7280Y19793D1*
X7292Y19764D1*
X7300Y19735D1*
X7304Y19687D1*
X7302Y19656D1*
X7990D2*
X7984Y19626D1*
X7974Y19597D1*
X7961Y19569D1*
X7945Y19544D1*
X7925Y19520D1*
X7902Y19499D1*
X7877Y19481D1*
X7850Y19467D1*
X7822Y19456D1*
X7792Y19449D1*
X7761Y19445D1*
X7731Y19446D1*
X7700Y19450D1*
X7671Y19458D1*
X7642Y19470D1*
X7616Y19485D1*
X7591Y19504D1*
X7569Y19525D1*
X7550Y19549D1*
X7535Y19575D1*
X7522Y19603D1*
X7513Y19633D1*
X7508Y19663D1*
X7507Y19694D1*
X7510Y19724D1*
X7517Y19754D1*
X7527Y19783D1*
X7541Y19811D1*
X7558Y19836D1*
X7579Y19859D1*
X7602Y19879D1*
X7627Y19896D1*
X7655Y19910D1*
X7684Y19920D1*
X7714Y19927D1*
X7744Y19929D1*
X7775Y19928D1*
X7805Y19923D1*
X7835Y19914D1*
X7863Y19901D1*
X7889Y19885D1*
X7913Y19866D1*
X7934Y19844D1*
X7952Y19819D1*
X7967Y19793D1*
X7979Y19764D1*
X7987Y19735D1*
X7992Y19687D1*
X7990Y19656D1*
X8552Y18281D2*
X8546Y18251D1*
X8537Y18222D1*
X8524Y18194D1*
X8507Y18169D1*
X8487Y18145D1*
X8465Y18124D1*
X8440Y18106D1*
X8413Y18092D1*
X8384Y18081D1*
X8354Y18074D1*
X8324Y18070D1*
X8293Y18071D1*
X8263Y18075D1*
X8233Y18083D1*
X8205Y18095D1*
X8178Y18110D1*
X8154Y18129D1*
X8132Y18150D1*
X8113Y18174D1*
X8097Y18200D1*
X8085Y18228D1*
X8076Y18258D1*
X8071Y18288D1*
X8070Y18319D1*
X8073Y18349D1*
X8079Y18379D1*
X8090Y18408D1*
X8104Y18436D1*
X8121Y18461D1*
X8141Y18484D1*
X8164Y18504D1*
X8190Y18521D1*
X8217Y18535D1*
X8246Y18545D1*
X8276Y18552D1*
X8307Y18554D1*
X8337Y18553D1*
X8368Y18548D1*
X8397Y18539D1*
X8425Y18526D1*
X8451Y18510D1*
X8475Y18491D1*
X8497Y18469D1*
X8515Y18444D1*
X8530Y18418D1*
X8542Y18389D1*
X8550Y18360D1*
X8554Y18312D1*
X8552Y18281D1*
X9792Y19249D2*
X8489D1*
X8468Y19228D1*
X8479Y19202D1*
X8487Y19172D1*
X8492Y19125D1*
X8490Y19094D1*
X8484Y19064D1*
X8474Y19035D1*
X8457Y19000D1*
X9792D1*
X9772Y19041D1*
X9763Y19070D1*
X9758Y19101D1*
X9757Y19131D1*
X9760Y19162D1*
X9767Y19192D1*
X9777Y19221D1*
X9792Y19249D1*
X6415Y13426D2*
X6434Y13406D1*
X6452Y13382D1*
X6467Y13355D1*
X6479Y13327D1*
X6487Y13297D1*
X6492Y13250D1*
X6490Y13219D1*
X6484Y13189D1*
X6474Y13160D1*
X6461Y13132D1*
X6445Y13106D1*
X6425Y13083D1*
X6402Y13062D1*
X6377Y13044D1*
X6350Y13029D1*
X6322Y13018D1*
X6292Y13011D1*
X6261Y13008D1*
X6231D1*
X6200Y13012D1*
X6171Y13020D1*
X6142Y13032D1*
X6116Y13048D1*
X6091Y13066D1*
X6069Y13087D1*
X6050Y13112D1*
X6035Y13138D1*
X6022Y13166D1*
X6013Y13195D1*
X6008Y13226D1*
X6007Y13256D1*
X6010Y13287D1*
X6017Y13317D1*
X6027Y13346D1*
X6041Y13373D1*
X6058Y13398D1*
X6079Y13421D1*
X6102Y13442D1*
X6127Y13458D1*
X6131Y13479D1*
X6145Y13506D1*
X6161Y13526D1*
X6427Y8906D2*
X6421Y8876D1*
X6412Y8847D1*
X6399Y8819D1*
X6382Y8794D1*
X6362Y8770D1*
X6340Y8749D1*
X6315Y8731D1*
X6288Y8717D1*
X6259Y8706D1*
X6229Y8699D1*
X6199Y8695D1*
X6168Y8696D1*
X6138Y8700D1*
X6108Y8708D1*
X6080Y8720D1*
X6053Y8735D1*
X6029Y8754D1*
X5999Y8785D1*
X6000Y8506D1*
Y6927D1*
X6254Y6672D1*
X6276Y6677D1*
X6307Y6679D1*
X6337Y6678D1*
X6368Y6673D1*
X6397Y6664D1*
X6425Y6651D1*
X6451Y6635D1*
X6475Y6616D1*
X6497Y6594D1*
X6515Y6569D1*
X6530Y6543D1*
X6542Y6514D1*
X6548Y6491D1*
X6897Y6141D1*
X8163Y6142D1*
X9709D1*
X9715Y6158D1*
X9729Y6186D1*
X9746Y6211D1*
X9766Y6234D1*
X9789Y6254D1*
X9815Y6271D1*
X9842Y6285D1*
X9871Y6295D1*
X9901Y6302D1*
X9932Y6304D1*
X9962Y6303D1*
X9993Y6298D1*
X10022Y6289D1*
X10050Y6276D1*
X10076Y6260D1*
X10100Y6241D1*
X10122Y6219D1*
X10140Y6194D1*
X10155Y6168D1*
X10167Y6139D1*
X10175Y6110D1*
X10179Y6062D1*
X10177Y6031D1*
X10171Y6001D1*
X10162Y5972D1*
X10149Y5944D1*
X10132Y5919D1*
X10112Y5895D1*
X10090Y5874D1*
X10065Y5856D1*
X10038Y5842D1*
X9992Y5826D1*
X9956Y5792D1*
X9988Y5776D1*
X10014Y5760D1*
X10038Y5741D1*
X10059Y5719D1*
X10077Y5694D1*
X10092Y5668D1*
X10104Y5639D1*
X10112Y5610D1*
X10117Y5562D1*
X10115Y5531D1*
X10109Y5501D1*
X10099Y5472D1*
X10086Y5444D1*
X10070Y5419D1*
X10050Y5395D1*
X10027Y5374D1*
X10002Y5356D1*
X9975Y5342D1*
X9947Y5331D1*
X9917Y5324D1*
X9886Y5320D1*
X9856Y5321D1*
X9825Y5325D1*
X9796Y5333D1*
X9767Y5345D1*
X9741Y5360D1*
X9716Y5379D1*
X9694Y5400D1*
X9675Y5424D1*
X9660Y5450D1*
X9647Y5478D1*
X9638Y5508D1*
X9633Y5538D1*
X9632Y5569D1*
X9635Y5599D1*
X9642Y5629D1*
X9652Y5658D1*
X9666Y5686D1*
X9683Y5711D1*
X9702Y5732D1*
X9167D1*
X8942D1*
X8962Y5704D1*
X8977Y5677D1*
X8989Y5649D1*
X8997Y5619D1*
X9002Y5572D1*
X9000Y5541D1*
X8994Y5511D1*
X8984Y5482D1*
X8971Y5454D1*
X8955Y5428D1*
X8935Y5405D1*
X8912Y5384D1*
X8887Y5366D1*
X8860Y5352D1*
X8832Y5341D1*
X8802Y5333D1*
X8771Y5330D1*
X8741D1*
X8710Y5335D1*
X8681Y5343D1*
X8652Y5355D1*
X8626Y5370D1*
X8601Y5388D1*
X8579Y5410D1*
X8560Y5434D1*
X8544Y5460D1*
X8532Y5488D1*
X8523Y5518D1*
X8518Y5548D1*
X8517Y5579D1*
X8520Y5609D1*
X8527Y5639D1*
X8537Y5668D1*
X8551Y5695D1*
X8579Y5733D1*
X8246Y5732D1*
X6812D1*
X6781Y5734D1*
X6752Y5741D1*
X6723Y5753D1*
X6696Y5768D1*
X6667Y5792D1*
X6258Y6201D1*
X6233Y6208D1*
X6205Y6220D1*
X6178Y6235D1*
X6154Y6254D1*
X6132Y6275D1*
X6113Y6299D1*
X6097Y6325D1*
X6085Y6353D1*
X6076Y6383D1*
X6071Y6413D1*
X6070Y6444D1*
X6073Y6474D1*
X6077Y6494D1*
X5833Y6739D1*
X5786Y6786D1*
X5767Y6810D1*
X5755Y6838D1*
X5749Y6875D1*
Y10625D1*
X5753Y10655D1*
X5764Y10684D1*
X5786Y10713D1*
X5866Y10793D1*
X5890Y10812D1*
X5918Y10824D1*
X5954Y10830D1*
X6090D1*
X6124Y10864D1*
Y11448D1*
X5988D1*
X5958Y11452D1*
X5930Y11463D1*
X5900Y11485D1*
X5869Y11515D1*
X5824Y11508D1*
X5793D1*
X5763Y11512D1*
X5733Y11520D1*
X5705Y11532D1*
X5678Y11548D1*
X5654Y11566D1*
X5632Y11588D1*
X5613Y11612D1*
X5597Y11638D1*
X5585Y11666D1*
X5576Y11695D1*
X5571Y11726D1*
X5570Y11756D1*
X5573Y11787D1*
X5579Y11817D1*
X5590Y11846D1*
X5604Y11873D1*
X5621Y11898D1*
X5641Y11921D1*
X5664Y11942D1*
X5690Y11959D1*
X5717Y11972D1*
X5746Y11983D1*
X5776Y11989D1*
X5807Y11992D1*
X5838Y11990D1*
X5868Y11985D1*
X5897Y11976D1*
X5925Y11964D1*
X5951Y11948D1*
X5975Y11929D1*
X5997Y11907D1*
X6015Y11882D1*
X6030Y11855D1*
X6042Y11827D1*
X6050Y11797D1*
X6054Y11750D1*
X6052Y11719D1*
X6050Y11698D1*
X6176D1*
X6206Y11695D1*
X6235Y11684D1*
X6264Y11662D1*
X6338Y11588D1*
X6357Y11564D1*
X6369Y11536D1*
X6375Y11500D1*
Y10812D1*
X6371Y10782D1*
X6360Y10753D1*
X6338Y10723D1*
X6230Y10616D1*
X6206Y10597D1*
X6178Y10584D1*
X6142Y10579D1*
X6006D1*
X6000Y10563D1*
Y9090D1*
X6016Y9109D1*
X6039Y9129D1*
X6065Y9146D1*
X6092Y9160D1*
X6121Y9170D1*
X6151Y9177D1*
X6182Y9179D1*
X6212Y9178D1*
X6243Y9173D1*
X6272Y9164D1*
X6300Y9151D1*
X6326Y9135D1*
X6350Y9116D1*
X6372Y9094D1*
X6390Y9069D1*
X6405Y9043D1*
X6417Y9014D1*
X6425Y8985D1*
X6429Y8937D1*
X6427Y8906D1*
X4740Y6413D2*
X4734Y6383D1*
X4724Y6354D1*
X4711Y6326D1*
X4694Y6301D1*
X4675Y6277D1*
X4652Y6256D1*
X4627Y6238D1*
X4600Y6224D1*
X4572Y6213D1*
X4542Y6206D1*
X4511Y6202D1*
X4481Y6203D1*
X4450Y6207D1*
X4421Y6215D1*
X4392Y6227D1*
X4366Y6242D1*
X4341Y6261D1*
X4319Y6282D1*
X4300Y6306D1*
X4284Y6332D1*
X4272Y6360D1*
X4263Y6390D1*
X4258Y6420D1*
X4257Y6451D1*
X4260Y6481D1*
X4267Y6511D1*
X4277Y6540D1*
X4291Y6568D1*
X4308Y6593D1*
X4329Y6616D1*
X4352Y6636D1*
X4377Y6653D1*
X4405Y6667D1*
X4433Y6677D1*
X4463Y6684D1*
X4494Y6686D1*
X4525Y6685D1*
X4555Y6680D1*
X4584Y6671D1*
X4612Y6658D1*
X4638Y6642D1*
X4662Y6623D1*
X4684Y6601D1*
X4702Y6576D1*
X4717Y6550D1*
X4729Y6521D1*
X4737Y6492D1*
X4741Y6444D1*
X4740Y6413D1*
X6865Y18281D2*
X6859Y18251D1*
X6849Y18222D1*
X6836Y18194D1*
X6820Y18169D1*
X6800Y18145D1*
X6777Y18124D1*
X6752Y18106D1*
X6725Y18092D1*
X6697Y18081D1*
X6667Y18074D1*
X6636Y18070D1*
X6606Y18071D1*
X6575Y18075D1*
X6546Y18083D1*
X6517Y18095D1*
X6491Y18110D1*
X6466Y18129D1*
X6444Y18150D1*
X6425Y18174D1*
X6410Y18200D1*
X6397Y18228D1*
X6388Y18258D1*
X6383Y18288D1*
X6382Y18319D1*
X6385Y18349D1*
X6392Y18379D1*
X6402Y18408D1*
X6416Y18436D1*
X6433Y18461D1*
X6454Y18484D1*
X6477Y18504D1*
X6502Y18521D1*
X6530Y18535D1*
X6559Y18545D1*
X6589Y18552D1*
X6619Y18554D1*
X6650Y18553D1*
X6680Y18548D1*
X6710Y18539D1*
X6738Y18526D1*
X6764Y18510D1*
X6788Y18491D1*
X6809Y18469D1*
X6827Y18444D1*
X6842Y18418D1*
X6854Y18389D1*
X6862Y18360D1*
X6867Y18312D1*
X6865Y18281D1*
X4481Y10866D2*
X4474Y10847D1*
X4461Y10819D1*
X4445Y10794D1*
X4425Y10770D1*
X4403Y10750D1*
X4434Y10719D1*
X4452Y10694D1*
X4467Y10668D1*
X4479Y10639D1*
X4487Y10610D1*
X4492Y10562D1*
X4490Y10531D1*
X4484Y10501D1*
X4474Y10472D1*
X4461Y10444D1*
X4445Y10419D1*
X4425Y10395D1*
X4403Y10375D1*
X4434Y10344D1*
X4452Y10319D1*
X4467Y10293D1*
X4479Y10264D1*
X4487Y10235D1*
X4492Y10187D1*
X4490Y10156D1*
X4484Y10126D1*
X4474Y10097D1*
X4461Y10069D1*
X4445Y10044D1*
X4425Y10020D1*
X4391Y9991D1*
X4433Y9984D1*
X4562Y10114D1*
Y10948D1*
X4482Y10867D1*
X4461Y10819D1*
X4445Y10794D1*
X4425Y10770D1*
X4403Y10750D1*
X10615Y6344D2*
X10609Y6314D1*
X10599Y6285D1*
X10586Y6257D1*
X10570Y6231D1*
X10550Y6208D1*
X10527Y6187D1*
X10502Y6169D1*
X10475Y6154D1*
X10447Y6143D1*
X10417Y6136D1*
X10386Y6133D1*
X10356D1*
X10325Y6137D1*
X10296Y6145D1*
X10267Y6157D1*
X10241Y6173D1*
X10216Y6191D1*
X10194Y6212D1*
X10175Y6237D1*
X10160Y6263D1*
X10147Y6291D1*
X10138Y6320D1*
X10133Y6351D1*
X10132Y6381D1*
X10135Y6412D1*
X10142Y6442D1*
X10152Y6471D1*
X10166Y6498D1*
X10183Y6523D1*
X10204Y6546D1*
X10227Y6567D1*
X10252Y6584D1*
X10280Y6597D1*
X10309Y6608D1*
X10339Y6614D1*
X10369Y6617D1*
X10400Y6615D1*
X10430Y6610D1*
X10460Y6601D1*
X10488Y6589D1*
X10514Y6573D1*
X10538Y6554D1*
X10559Y6531D1*
X10577Y6507D1*
X10592Y6480D1*
X10604Y6452D1*
X10612Y6422D1*
X10617Y6375D1*
X10615Y6344D1*
X5052Y15469D2*
X5046Y15439D1*
X5037Y15410D1*
X5024Y15382D1*
X5007Y15356D1*
X4987Y15333D1*
X4965Y15312D1*
X4940Y15294D1*
X4913Y15279D1*
X4884Y15268D1*
X4854Y15261D1*
X4824Y15258D1*
X4793D1*
X4763Y15262D1*
X4733Y15270D1*
X4705Y15282D1*
X4678Y15298D1*
X4654Y15316D1*
X4632Y15337D1*
X4613Y15362D1*
X4597Y15388D1*
X4585Y15416D1*
X4576Y15445D1*
X4571Y15476D1*
X4570Y15506D1*
X4573Y15537D1*
X4579Y15567D1*
X4590Y15596D1*
X4604Y15623D1*
X4621Y15648D1*
X4641Y15671D1*
X4664Y15692D1*
X4690Y15709D1*
X4717Y15722D1*
X4746Y15733D1*
X4776Y15739D1*
X4807Y15742D1*
X4837Y15740D1*
X4868Y15735D1*
X4897Y15726D1*
X4925Y15714D1*
X4951Y15698D1*
X4975Y15679D1*
X4997Y15656D1*
X5015Y15632D1*
X5030Y15605D1*
X5042Y15577D1*
X5050Y15547D1*
X5054Y15500D1*
X5052Y15469D1*
X5490Y18219D2*
X5484Y18189D1*
X5474Y18160D1*
X5461Y18132D1*
X5445Y18106D1*
X5425Y18083D1*
X5402Y18062D1*
X5377Y18044D1*
X5350Y18029D1*
X5322Y18018D1*
X5292Y18011D1*
X5261Y18008D1*
X5231D1*
X5200Y18012D1*
X5171Y18020D1*
X5142Y18032D1*
X5116Y18048D1*
X5091Y18066D1*
X5069Y18087D1*
X5050Y18112D1*
X5035Y18138D1*
X5022Y18166D1*
X5013Y18195D1*
X5008Y18226D1*
X5007Y18256D1*
X5010Y18287D1*
X5017Y18317D1*
X5027Y18346D1*
X5041Y18373D1*
X5058Y18398D1*
X5079Y18421D1*
X5102Y18442D1*
X5127Y18459D1*
X5155Y18472D1*
X5184Y18483D1*
X5214Y18489D1*
X5244Y18492D1*
X5275Y18490D1*
X5305Y18485D1*
X5335Y18476D1*
X5363Y18464D1*
X5389Y18448D1*
X5413Y18429D1*
X5434Y18406D1*
X5452Y18382D1*
X5467Y18355D1*
X5479Y18327D1*
X5487Y18297D1*
X5492Y18250D1*
X5490Y18219D1*
X8740Y8281D2*
X8734Y8251D1*
X8724Y8222D1*
X8711Y8194D1*
X8695Y8169D1*
X8675Y8145D1*
X8652Y8124D1*
X8627Y8106D1*
X8600Y8092D1*
X8572Y8081D1*
X8542Y8074D1*
X8511Y8070D1*
X8481Y8071D1*
X8450Y8075D1*
X8421Y8083D1*
X8392Y8095D1*
X8366Y8110D1*
X8341Y8129D1*
X8319Y8150D1*
X8300Y8174D1*
X8285Y8200D1*
X8272Y8228D1*
X8263Y8258D1*
X8258Y8288D1*
X8257Y8319D1*
X8260Y8349D1*
X8267Y8379D1*
X8277Y8408D1*
X8291Y8436D1*
X8308Y8461D1*
X8329Y8484D1*
X8352Y8504D1*
X8377Y8521D1*
X8405Y8535D1*
X8434Y8545D1*
X8464Y8552D1*
X8494Y8554D1*
X8525Y8553D1*
X8555Y8548D1*
X8585Y8539D1*
X8613Y8526D1*
X8639Y8510D1*
X8663Y8491D1*
X8684Y8469D1*
X8702Y8444D1*
X8717Y8418D1*
X8729Y8389D1*
X8737Y8360D1*
X8742Y8312D1*
X8740Y8281D1*
X8766Y8062D2*
X8758Y8101D1*
X8757Y8131D1*
X8760Y8162D1*
X8767Y8192D1*
X8777Y8221D1*
X8791Y8248D1*
X8808Y8273D1*
X8829Y8296D1*
X8852Y8317D1*
X8877Y8334D1*
X8905Y8347D1*
X8934Y8358D1*
X8964Y8364D1*
X8994Y8367D1*
X9025Y8365D1*
X9055Y8360D1*
X9085Y8351D1*
X9113Y8339D1*
X9139Y8323D1*
X9163Y8304D1*
X9184Y8281D1*
X9202Y8257D1*
X9217Y8230D1*
X9229Y8202D1*
X9237Y8172D1*
X9242Y8125D1*
X9240Y8094D1*
X9234Y8064D1*
X9224Y8035D1*
X9211Y8007D1*
X9195Y7981D1*
X9175Y7958D1*
X9152Y7937D1*
X9127Y7919D1*
X9100Y7904D1*
X9072Y7893D1*
X9042Y7886D1*
X8997Y7883D1*
X8963Y7848D1*
X8939Y7830D1*
X8911Y7817D1*
X8875Y7812D1*
X6676D1*
X6609Y7745D1*
X6616Y7704D1*
X6615Y7656D1*
X6609Y7626D1*
X6599Y7597D1*
X6586Y7569D1*
X6570Y7544D1*
X6550Y7520D1*
X6527Y7499D1*
X6502Y7481D1*
X6475Y7467D1*
X6447Y7456D1*
X6417Y7449D1*
X6386Y7445D1*
X6356Y7446D1*
X6325Y7450D1*
X6296Y7458D1*
X6267Y7470D1*
X6241Y7485D1*
X6216Y7504D1*
X6194Y7525D1*
X6175Y7549D1*
X6160Y7575D1*
X6147Y7603D1*
X6138Y7633D1*
X6133Y7663D1*
X6132Y7694D1*
X6135Y7724D1*
X6142Y7754D1*
X6152Y7783D1*
X6166Y7811D1*
X6183Y7836D1*
X6204Y7859D1*
X6227Y7879D1*
X6252Y7896D1*
X6280Y7910D1*
X6309Y7920D1*
X6339Y7927D1*
X6369Y7929D1*
X6400Y7928D1*
X6433Y7922D1*
X6536Y8026D1*
X6560Y8044D1*
X6588Y8057D1*
X6625Y8062D1*
X8765D1*
X8758Y8101D1*
X8757Y8131D1*
X8760Y8162D1*
X8767Y8192D1*
X8777Y8221D1*
X8791Y8248D1*
X8808Y8273D1*
X8829Y8296D1*
X8852Y8317D1*
X8877Y8334D1*
X8905Y8347D1*
X8934Y8358D1*
X8964Y8364D1*
X8994Y8367D1*
X9025Y8365D1*
X9055Y8360D1*
X9085Y8351D1*
X9113Y8339D1*
X9139Y8323D1*
X9163Y8304D1*
X9184Y8281D1*
X9202Y8257D1*
X9217Y8230D1*
X9229Y8202D1*
X9237Y8172D1*
X9242Y8125D1*
X9240Y8094D1*
X9234Y8064D1*
X9224Y8035D1*
X9211Y8007D1*
X9195Y7981D1*
X9175Y7958D1*
X9152Y7937D1*
X9127Y7919D1*
X9100Y7904D1*
X9072Y7893D1*
X9042Y7886D1*
X8997Y7883D1*
X8766Y8062D2*
X8758Y8101D1*
X8757Y8131D1*
X8760Y8162D1*
X8767Y8192D1*
X8777Y8221D1*
X8791Y8248D1*
X8808Y8273D1*
X8829Y8296D1*
X8852Y8317D1*
X8877Y8334D1*
X8905Y8347D1*
X8934Y8358D1*
X8964Y8364D1*
X8994Y8367D1*
X9025Y8365D1*
X9055Y8360D1*
X9085Y8351D1*
X9113Y8339D1*
X9139Y8323D1*
X9163Y8304D1*
X9184Y8281D1*
X9202Y8257D1*
X9217Y8230D1*
X9229Y8202D1*
X9237Y8172D1*
X9242Y8125D1*
X9240Y8094D1*
X9234Y8064D1*
X9224Y8035D1*
X9211Y8007D1*
X9195Y7981D1*
X9175Y7958D1*
X9152Y7937D1*
X9127Y7919D1*
X9100Y7904D1*
X9072Y7893D1*
X9042Y7886D1*
X8997Y7883D1*
X4403Y10374D2*
X4434Y10344D1*
X4452Y10319D1*
X4467Y10293D1*
X4479Y10264D1*
X4487Y10235D1*
X4492Y10187D1*
X4490Y10156D1*
X4484Y10126D1*
X4474Y10097D1*
X4461Y10069D1*
X4445Y10044D1*
X4425Y10020D1*
X4391Y9991D1*
X5312Y9659D2*
X5277Y9624D1*
X5252Y9606D1*
X5225Y9592D1*
X5197Y9581D1*
X5167Y9574D1*
X5136Y9570D1*
X5106Y9571D1*
X5075Y9575D1*
X5046Y9583D1*
X5017Y9595D1*
X4991Y9610D1*
X4966Y9629D1*
X4944Y9650D1*
X4925Y9674D1*
X4910Y9700D1*
X4897Y9728D1*
X4888Y9758D1*
X4883Y9788D1*
X4882Y9819D1*
X4885Y9849D1*
X4892Y9879D1*
X4902Y9908D1*
X4916Y9936D1*
X4933Y9961D1*
X4954Y9984D1*
X4977Y10004D1*
X5002Y10021D1*
X5030Y10035D1*
X5059Y10045D1*
X5089Y10052D1*
X5119Y10054D1*
X5150Y10053D1*
X5180Y10048D1*
X5210Y10039D1*
X5238Y10026D1*
X5264Y10010D1*
X5288Y9991D1*
X5312Y9965D1*
X5329Y9984D1*
X5352Y10004D1*
X5377Y10021D1*
X5405Y10035D1*
X5434Y10045D1*
X5464Y10052D1*
X5494Y10054D1*
X5525Y10053D1*
X5555Y10048D1*
X5585Y10039D1*
X5613Y10026D1*
X5639Y10010D1*
X5663Y9991D1*
X5684Y9969D1*
X5702Y9944D1*
X5717Y9918D1*
X5729Y9889D1*
X5737Y9860D1*
X5742Y9812D1*
X5740Y9781D1*
X5734Y9751D1*
X5724Y9722D1*
X5711Y9694D1*
X5695Y9669D1*
X5675Y9645D1*
X5652Y9624D1*
X5627Y9606D1*
X5600Y9592D1*
X5572Y9581D1*
X5542Y9574D1*
X5511Y9570D1*
X5481Y9571D1*
X5450Y9575D1*
X5421Y9583D1*
X5392Y9595D1*
X5366Y9610D1*
X5341Y9629D1*
X5312Y9660D1*
X7980Y7403D2*
X7975Y7372D1*
X7967Y7343D1*
X7956Y7314D1*
X7942Y7287D1*
X7926Y7261D1*
X7907Y7237D1*
X7885Y7215D1*
X7861Y7196D1*
X7836Y7179D1*
X7808Y7165D1*
X7780Y7154D1*
X7750Y7146D1*
X7720Y7141D1*
X7689Y7139D1*
X7658Y7140D1*
X7628Y7145D1*
X7598Y7152D1*
X7570Y7163D1*
X7542Y7177D1*
X7516Y7193D1*
X7492Y7212D1*
X7470Y7234D1*
X7451Y7257D1*
X7434Y7283D1*
X7419Y7310D1*
X7408Y7339D1*
X7400Y7368D1*
X7394Y7398D1*
X7392Y7429D1*
X7394Y7460D1*
X7398Y7490D1*
X7405Y7520D1*
X7416Y7549D1*
X7429Y7576D1*
X7446Y7602D1*
X7465Y7627D1*
X7486Y7649D1*
X7509Y7668D1*
X7535Y7686D1*
X7562Y7700D1*
X7590Y7712D1*
X7620Y7720D1*
X7650Y7726D1*
X7681Y7728D1*
X7711Y7727D1*
X7742Y7723D1*
X7772Y7715D1*
X7801Y7705D1*
X7828Y7692D1*
X7854Y7676D1*
X7879Y7657D1*
X7901Y7636D1*
X7921Y7613D1*
X7938Y7587D1*
X7953Y7560D1*
X7965Y7532D1*
X7973Y7502D1*
X7979Y7472D1*
X7982Y7433D1*
X7980Y7403D1*
X6258Y6201D2*
X6233Y6208D1*
X6205Y6220D1*
X6178Y6235D1*
X6154Y6254D1*
X6132Y6275D1*
X6113Y6299D1*
X6097Y6325D1*
X6085Y6353D1*
X6076Y6383D1*
X6071Y6413D1*
X6070Y6444D1*
X6073Y6474D1*
X6077Y6494D1*
X6255Y6672D2*
X6276Y6677D1*
X6307Y6679D1*
X6337Y6678D1*
X6368Y6673D1*
X6397Y6664D1*
X6425Y6651D1*
X6451Y6635D1*
X6475Y6616D1*
X6497Y6594D1*
X6515Y6569D1*
X6530Y6543D1*
X6542Y6514D1*
X6548Y6491D1*
X5870Y11515D2*
X5824Y11508D1*
X5793D1*
X5763Y11512D1*
X5733Y11520D1*
X5705Y11532D1*
X5678Y11548D1*
X5654Y11566D1*
X5632Y11588D1*
X5613Y11612D1*
X5597Y11638D1*
X5585Y11666D1*
X5576Y11695D1*
X5571Y11726D1*
X5570Y11756D1*
X5573Y11787D1*
X5579Y11817D1*
X5590Y11846D1*
X5604Y11873D1*
X5621Y11898D1*
X5641Y11921D1*
X5664Y11942D1*
X5690Y11959D1*
X5717Y11972D1*
X5746Y11983D1*
X5776Y11989D1*
X5807Y11992D1*
X5838Y11990D1*
X5868Y11985D1*
X5897Y11976D1*
X5925Y11964D1*
X5951Y11948D1*
X5975Y11929D1*
X5997Y11907D1*
X6015Y11882D1*
X6030Y11855D1*
X6042Y11827D1*
X6050Y11797D1*
X6054Y11750D1*
X6052Y11719D1*
X6049Y11699D1*
X10719Y10527D2*
X10697Y10518D1*
X10667Y10511D1*
X10636Y10508D1*
X10606D1*
X10575Y10512D1*
X10546Y10520D1*
X10517Y10532D1*
X10491Y10548D1*
X10466Y10566D1*
X10444Y10587D1*
X10425Y10612D1*
X10410Y10638D1*
X10397Y10666D1*
X10388Y10695D1*
X10383Y10726D1*
X10382Y10756D1*
X10385Y10787D1*
X10392Y10817D1*
X10402Y10846D1*
X10416Y10873D1*
X10433Y10898D1*
X10454Y10921D1*
X10472Y10937D1*
X6927Y9031D2*
X6921Y9001D1*
X6912Y8972D1*
X6899Y8944D1*
X6882Y8919D1*
X6862Y8895D1*
X6840Y8874D1*
X6815Y8856D1*
X6788Y8842D1*
X6759Y8831D1*
X6729Y8824D1*
X6699Y8820D1*
X6668Y8821D1*
X6638Y8825D1*
X6608Y8833D1*
X6580Y8845D1*
X6553Y8860D1*
X6529Y8879D1*
X6507Y8900D1*
X6488Y8924D1*
X6472Y8950D1*
X6460Y8978D1*
X6451Y9008D1*
X6446Y9038D1*
X6445Y9069D1*
X6448Y9099D1*
X6454Y9129D1*
X6465Y9158D1*
X6479Y9186D1*
X6496Y9211D1*
X6516Y9234D1*
X6539Y9254D1*
X6565Y9271D1*
X6592Y9285D1*
X6621Y9295D1*
X6651Y9302D1*
X6682Y9304D1*
X6712Y9303D1*
X6743Y9298D1*
X6772Y9289D1*
X6800Y9276D1*
X6826Y9260D1*
X6850Y9241D1*
X6872Y9219D1*
X6890Y9194D1*
X6905Y9168D1*
X6917Y9139D1*
X6925Y9110D1*
X6929Y9062D1*
X6927Y9031D1*
X9131Y13548D2*
X9126Y13518D1*
X9116Y13489D1*
X9103Y13461D1*
X9086Y13435D1*
X9067Y13412D1*
X9044Y13391D1*
X9019Y13373D1*
X8992Y13358D1*
X8963Y13347D1*
X8934Y13340D1*
X8903Y13337D1*
X8872D1*
X8842Y13341D1*
X8812Y13350D1*
X8784Y13361D1*
X8757Y13377D1*
X8733Y13395D1*
X8711Y13417D1*
X8692Y13441D1*
X8676Y13467D1*
X8664Y13495D1*
X8655Y13524D1*
X8650Y13555D1*
X8649Y13585D1*
X8652Y13616D1*
X8658Y13646D1*
X8669Y13675D1*
X8683Y13702D1*
X8700Y13727D1*
X8720Y13750D1*
X8743Y13771D1*
X8769Y13788D1*
X8796Y13802D1*
X8825Y13812D1*
X8855Y13818D1*
X8886Y13821D1*
X8917Y13819D1*
X8947Y13814D1*
X8976Y13805D1*
X9004Y13793D1*
X9030Y13777D1*
X9054Y13758D1*
X9076Y13736D1*
X9094Y13711D1*
X9109Y13684D1*
X9121Y13656D1*
X9129Y13626D1*
X9133Y13579D1*
X9131Y13548D1*
X5490Y16344D2*
X5484Y16314D1*
X5474Y16285D1*
X5461Y16257D1*
X5445Y16231D1*
X5425Y16208D1*
X5402Y16187D1*
X5377Y16169D1*
X5350Y16154D1*
X5322Y16143D1*
X5292Y16136D1*
X5261Y16133D1*
X5231D1*
X5200Y16137D1*
X5171Y16145D1*
X5142Y16157D1*
X5125Y16167D1*
X5100Y16154D1*
X5072Y16143D1*
X5042Y16136D1*
X5011Y16133D1*
X4981D1*
X4950Y16137D1*
X4921Y16145D1*
X4892Y16157D1*
X4866Y16173D1*
X4841Y16191D1*
X4819Y16212D1*
X4800Y16237D1*
X4785Y16263D1*
X4772Y16291D1*
X4763Y16320D1*
X4758Y16351D1*
X4757Y16381D1*
X4760Y16412D1*
X4767Y16442D1*
X4777Y16471D1*
X4791Y16498D1*
X4808Y16523D1*
X4829Y16546D1*
X4852Y16567D1*
X4877Y16584D1*
X4905Y16597D1*
X4934Y16608D1*
X4964Y16614D1*
X4994Y16617D1*
X5025Y16615D1*
X5055Y16610D1*
X5085Y16601D1*
X5125Y16581D1*
X5155Y16597D1*
X5184Y16608D1*
X5214Y16614D1*
X5244Y16617D1*
X5275Y16615D1*
X5305Y16610D1*
X5335Y16601D1*
X5363Y16589D1*
X5389Y16573D1*
X5413Y16554D1*
X5434Y16531D1*
X5452Y16507D1*
X5467Y16480D1*
X5479Y16452D1*
X5487Y16422D1*
X5492Y16375D1*
X5490Y16344D1*
X7607Y8842D2*
X7602Y8812D1*
X7594Y8782D1*
X7583Y8754D1*
X7570Y8726D1*
X7553Y8700D1*
X7534Y8677D1*
X7512Y8655D1*
X7488Y8635D1*
X7463Y8618D1*
X7435Y8604D1*
X7407Y8593D1*
X7377Y8585D1*
X7347Y8580D1*
X7316Y8578D1*
X7286Y8580D1*
X7255Y8584D1*
X7225Y8592D1*
X7197Y8603D1*
X7169Y8616D1*
X7143Y8633D1*
X7119Y8652D1*
X7097Y8673D1*
X7078Y8697D1*
X7061Y8723D1*
X7046Y8750D1*
X7035Y8778D1*
X7027Y8808D1*
X7022Y8838D1*
X7020Y8869D1*
X7021Y8899D1*
X7025Y8930D1*
X7033Y8960D1*
X7043Y8988D1*
X7057Y9016D1*
X7073Y9042D1*
X7092Y9066D1*
X7113Y9088D1*
X7137Y9108D1*
X7162Y9125D1*
X7189Y9140D1*
X7218Y9151D1*
X7247Y9160D1*
X7277Y9165D1*
X7308Y9167D1*
X7338Y9166D1*
X7369Y9162D1*
X7399Y9155D1*
X7428Y9145D1*
X7455Y9131D1*
X7481Y9115D1*
X7506Y9097D1*
X7528Y9075D1*
X7548Y9052D1*
X7565Y9027D1*
X7580Y9000D1*
X7592Y8971D1*
X7600Y8942D1*
X7606Y8912D1*
X7609Y8873D1*
X7607Y8842D1*
X9927Y13844D2*
X9921Y13814D1*
X9912Y13785D1*
X9899Y13757D1*
X9882Y13731D1*
X9862Y13708D1*
X9840Y13687D1*
X9815Y13669D1*
X9788Y13654D1*
X9759Y13643D1*
X9729Y13636D1*
X9699Y13633D1*
X9668D1*
X9638Y13637D1*
X9608Y13645D1*
X9580Y13657D1*
X9553Y13673D1*
X9529Y13691D1*
X9507Y13712D1*
X9488Y13737D1*
X9472Y13763D1*
X9460Y13791D1*
X9451Y13820D1*
X9446Y13851D1*
X9445Y13881D1*
X9448Y13912D1*
X9454Y13942D1*
X9465Y13971D1*
X9479Y13998D1*
X9496Y14023D1*
X9516Y14046D1*
X9539Y14067D1*
X9565Y14084D1*
X9592Y14097D1*
X9621Y14108D1*
X9651Y14114D1*
X9682Y14117D1*
X9712Y14115D1*
X9743Y14110D1*
X9772Y14101D1*
X9800Y14089D1*
X9826Y14073D1*
X9850Y14054D1*
X9872Y14031D1*
X9890Y14007D1*
X9905Y13980D1*
X9917Y13952D1*
X9925Y13922D1*
X9929Y13875D1*
X9927Y13844D1*
X6865Y8406D2*
X6859Y8376D1*
X6849Y8347D1*
X6836Y8319D1*
X6820Y8294D1*
X6800Y8270D1*
X6777Y8249D1*
X6752Y8231D1*
X6725Y8217D1*
X6697Y8206D1*
X6667Y8199D1*
X6636Y8195D1*
X6606Y8196D1*
X6575Y8200D1*
X6546Y8208D1*
X6517Y8220D1*
X6491Y8235D1*
X6466Y8254D1*
X6444Y8275D1*
X6425Y8299D1*
X6410Y8325D1*
X6397Y8353D1*
X6388Y8383D1*
X6383Y8413D1*
X6382Y8444D1*
X6385Y8474D1*
X6392Y8504D1*
X6402Y8533D1*
X6416Y8561D1*
X6433Y8586D1*
X6454Y8609D1*
X6477Y8629D1*
X6502Y8646D1*
X6530Y8660D1*
X6559Y8670D1*
X6589Y8677D1*
X6619Y8679D1*
X6650Y8678D1*
X6680Y8673D1*
X6710Y8664D1*
X6738Y8651D1*
X6764Y8635D1*
X6788Y8616D1*
X6809Y8594D1*
X6827Y8569D1*
X6842Y8543D1*
X6854Y8514D1*
X6862Y8485D1*
X6867Y8437D1*
X6865Y8406D1*
X9437Y22179D2*
D16*
Y21320D1*
X9008Y21750D2*
X9866D1*
X5687Y4991D2*
Y4562D1*
X5258D2*
X6116D1*
X8977Y5135D2*
Y4277D1*
X8548Y4706D2*
X9406D1*
D27*
X9437Y21750D3*
D28*
X8437D3*
X7437D3*
X6437D3*
X5437D3*
D27*
X4687Y4562D3*
D28*
X5687D3*
D27*
X8977Y4706D3*
D28*
X9977D3*
D30*
X9812Y14687D3*
X4687D3*
X7312Y4750D3*
M02*
