M48
INCH
T01C0.0138
T02C0.0191
T03C0.0433
T04C0.0591
%
T01
X+004250Y+011812
X+005375Y+011312
X+005875Y+011125
X+006624Y+011186
X+007000Y+010373
X+006312Y+009875
X+005954Y+009875
X+005375Y+009875
X+004812Y+009937
X+004687Y+009435
X+004750Y+008250
X+004750Y+007187
X+005562Y+005750
X+006818Y+005780
X+008187Y+005625
X+008812Y+006250
X+009250Y+006250
X+008125Y+006750
X+007954Y+007399
X+007375Y+007562
X+007062Y+007312
X+006063Y+008563
X+007375Y+009500
X+007750Y+009562
X+008125Y+009375
X+008937Y+009250
X+009750Y+009125
X+009812Y+009500
X+010125Y+008937
X+010625Y+007875
X+009750Y+010750
X+009062Y+011125
X+008437Y+011248
X+008625Y+011937
X+007954Y+011848
X+008625Y+012998
X+008562Y+013500
X+008000Y+013875
X+006937Y+012937
X+006562Y+012437
X+006062Y+013812
X+006125Y+014312
X+005625Y+014375
X+005937Y+014937
X+005562Y+015625
X+007125Y+016750
X+007125Y+017000
X+007125Y+017250
X+006812Y+017750
X+005437Y+017750
X+004750Y+018375
X+005250Y+019187
X+006062Y+019812
X+006750Y+019187
X+008437Y+019312
X+009187Y+019812
X+009812Y+019187
X+009187Y+018500
X+009562Y+017187
X+009062Y+017125
X+009187Y+016750
X+008623Y+016927
X+008721Y+016061
X+009625Y+015436
X+009750Y+014000
X+009750Y+012375
X+007750Y+015500
X+005312Y+013687
X+004750Y+013125
X+004250Y+020562
X+004250Y+020812
X+004250Y+021062
X+010375Y+020812
X+010375Y+020562
X+010375Y+020312
T02
X+006187Y+007500
X+005750Y+007500
X+005750Y+007062
X+006187Y+007062
X+009000Y+007312
X+009625Y+007312
X+009625Y+007937
X+009000Y+007937
T03
X+009437Y+022812
X+008437Y+022812
X+007437Y+022812
X+006437Y+022812
X+005437Y+022812
X+010312Y+016937
X+010312Y+015937
X+004437Y+006437
X+004437Y+005437
X+004437Y+004437
T04
X+009937Y+018250
X+004875Y+016812
X+006187Y+004625
T00
M30
