G04 DipTrace 2.4.0.2*
%INIoDriverRevF2.gts*%
%MOIN*%
%ADD58R,0.0512X0.0472*%
%ADD66R,0.1043X0.1043*%
%ADD70R,0.2244X0.2244*%
%ADD72O,0.0197X0.0413*%
%ADD74O,0.0413X0.0197*%
%ADD76R,0.0276X0.0787*%
%ADD78R,0.0787X0.0276*%
%ADD84R,0.0276X0.0413*%
%ADD86R,0.0335X0.0492*%
%ADD88C,0.0866*%
%ADD92C,0.0748*%
%ADD94R,0.0748X0.0748*%
%ADD100R,0.0669X0.0591*%
%ADD102R,0.0591X0.0669*%
%FSLAX44Y44*%
G04*
G70*
G90*
G75*
G01*
%LNTopMask*%
%LPD*%
D102*
X10437Y9812D3*
X9689D3*
D100*
X9562Y8875D3*
Y8126D3*
X10375Y8875D3*
Y8126D3*
D102*
X7687Y5937D3*
X6939D3*
D94*
X9437Y21750D3*
D92*
X8437D3*
X7437D3*
X6437D3*
X5437D3*
D94*
X4687Y4562D3*
D92*
X5687D3*
D94*
X8977Y4706D3*
D92*
X9977D3*
D88*
X9812Y14687D3*
X4687D3*
X7312Y4750D3*
D84*
X4187Y9750D3*
X4699D3*
X4443Y10576D3*
D86*
X7875Y18750D3*
X8623D3*
X8249Y19655D3*
X6187Y18750D3*
X6935D3*
X6561Y19655D3*
X4500Y18750D3*
X5248D3*
X4874Y19655D3*
X9562Y18750D3*
X10310D3*
X9936Y19655D3*
D100*
X4812Y17000D3*
Y17748D3*
X6250Y17000D3*
Y17748D3*
X8000Y17000D3*
Y17748D3*
X5499Y9123D3*
Y8375D3*
X4687Y9123D3*
Y8375D3*
X9750Y17000D3*
Y17748D3*
D102*
X7687Y7437D3*
X6939D3*
X6937Y6687D3*
X7685D3*
D78*
X5375Y13625D3*
Y13310D3*
Y12995D3*
Y12680D3*
Y12365D3*
Y12050D3*
Y11735D3*
Y11420D3*
Y11105D3*
Y10790D3*
Y10475D3*
D76*
X6044Y9806D3*
X6359D3*
X6674D3*
X6989D3*
X7304D3*
X7619D3*
X7934D3*
X8249D3*
X8563D3*
X8878D3*
X9193D3*
D78*
X9863Y10475D3*
Y10790D3*
Y11105D3*
Y11420D3*
Y11735D3*
Y12050D3*
Y12365D3*
Y12680D3*
Y12995D3*
Y13310D3*
Y13625D3*
D76*
X9193Y14294D3*
X8878D3*
X8563D3*
X8249D3*
X7934D3*
X7619D3*
X7304D3*
X6989D3*
X6674D3*
X6359D3*
X6044D3*
D74*
X6241Y13034D3*
Y12837D3*
Y12640D3*
Y12443D3*
Y12247D3*
Y12050D3*
Y11853D3*
Y11656D3*
Y11459D3*
Y11262D3*
Y11065D3*
D72*
X6634Y10672D3*
X6831D3*
X7028D3*
X7225D3*
X7422D3*
X7619D3*
X7815D3*
X8012D3*
X8209D3*
X8406D3*
X8603D3*
D74*
X8997Y11065D3*
Y11262D3*
Y11459D3*
Y11656D3*
Y11853D3*
Y12050D3*
Y12247D3*
Y12443D3*
Y12640D3*
Y12837D3*
Y13034D3*
D72*
X8603Y13428D3*
X8406D3*
X8209D3*
X8012D3*
X7815D3*
X7619D3*
X7422D3*
X7225D3*
X7028D3*
X6831D3*
X6634D3*
D70*
X7619Y12050D3*
G36*
X5057Y7511D2*
X5091Y7490D1*
X5135Y7485D1*
X5177Y7499D1*
X5208Y7531D1*
X5222Y7572D1*
X5218Y7616D1*
X5196Y7650D1*
X5037Y7809D1*
X5003Y7830D1*
X4959Y7835D1*
X4918Y7821D1*
X4886Y7790D1*
X4872Y7748D1*
X4877Y7704D1*
X4898Y7670D1*
X5057Y7511D1*
G37*
G36*
X4918Y7372D2*
X4952Y7350D1*
X4996Y7345D1*
X5037Y7360D1*
X5069Y7391D1*
X5083Y7433D1*
X5078Y7477D1*
X5057Y7511D1*
X4898Y7670D1*
X4864Y7691D1*
X4820Y7696D1*
X4778Y7682D1*
X4747Y7650D1*
X4733Y7609D1*
X4738Y7565D1*
X4759Y7531D1*
X4918Y7372D1*
G37*
G36*
X4779Y7232D2*
X4812Y7211D1*
X4856Y7206D1*
X4898Y7221D1*
X4929Y7252D1*
X4944Y7294D1*
X4939Y7338D1*
X4918Y7372D1*
X4759Y7531D1*
X4725Y7552D1*
X4681Y7557D1*
X4639Y7542D1*
X4608Y7511D1*
X4593Y7469D1*
X4598Y7425D1*
X4619Y7392D1*
X4779Y7232D1*
G37*
G36*
X4640Y7093D2*
X4673Y7072D1*
X4717Y7067D1*
X4759Y7082D1*
X4790Y7113D1*
X4805Y7155D1*
X4800Y7199D1*
X4779Y7232D1*
X4619Y7392D1*
X4586Y7413D1*
X4542Y7418D1*
X4500Y7403D1*
X4469Y7372D1*
X4454Y7330D1*
X4459Y7286D1*
X4480Y7253D1*
X4640Y7093D1*
G37*
G36*
X4779Y6863D2*
X4800Y6896D1*
X4805Y6940D1*
X4790Y6982D1*
X4759Y7013D1*
X4717Y7028D1*
X4673Y7023D1*
X4640Y7002D1*
X4480Y6843D1*
X4459Y6809D1*
X4454Y6765D1*
X4469Y6723D1*
X4500Y6692D1*
X4542Y6677D1*
X4586Y6682D1*
X4619Y6703D1*
X4779Y6863D1*
G37*
G36*
X4918Y6724D2*
X4939Y6757D1*
X4944Y6801D1*
X4929Y6843D1*
X4898Y6874D1*
X4856Y6889D1*
X4812Y6884D1*
X4779Y6863D1*
X4619Y6703D1*
X4598Y6670D1*
X4593Y6626D1*
X4608Y6584D1*
X4639Y6553D1*
X4681Y6538D1*
X4725Y6543D1*
X4759Y6564D1*
X4918Y6724D1*
G37*
G36*
X5057Y6584D2*
X5078Y6618D1*
X5083Y6662D1*
X5069Y6704D1*
X5037Y6735D1*
X4996Y6750D1*
X4952Y6745D1*
X4918Y6724D1*
X4759Y6564D1*
X4738Y6531D1*
X4733Y6487D1*
X4747Y6445D1*
X4778Y6414D1*
X4820Y6399D1*
X4864Y6404D1*
X4898Y6425D1*
X5057Y6584D1*
G37*
G36*
X5196Y6445D2*
X5218Y6479D1*
X5222Y6523D1*
X5208Y6565D1*
X5177Y6596D1*
X5135Y6611D1*
X5091Y6606D1*
X5057Y6584D1*
X4898Y6425D1*
X4877Y6391D1*
X4872Y6347D1*
X4886Y6306D1*
X4918Y6274D1*
X4959Y6260D1*
X5003Y6265D1*
X5037Y6286D1*
X5196Y6445D1*
G37*
G36*
X5447Y6286D2*
X5481Y6265D1*
X5525Y6260D1*
X5566Y6274D1*
X5598Y6306D1*
X5612Y6347D1*
X5607Y6391D1*
X5586Y6425D1*
X5427Y6584D1*
X5393Y6606D1*
X5349Y6611D1*
X5307Y6596D1*
X5276Y6565D1*
X5262Y6523D1*
X5266Y6479D1*
X5288Y6445D1*
X5447Y6286D1*
G37*
G36*
X5586Y6425D2*
X5620Y6404D1*
X5664Y6399D1*
X5706Y6414D1*
X5737Y6445D1*
X5751Y6487D1*
X5746Y6531D1*
X5725Y6564D1*
X5566Y6724D1*
X5532Y6745D1*
X5488Y6750D1*
X5447Y6735D1*
X5415Y6704D1*
X5401Y6662D1*
X5406Y6618D1*
X5427Y6584D1*
X5586Y6425D1*
G37*
G36*
X5725Y6564D2*
X5759Y6543D1*
X5803Y6538D1*
X5845Y6553D1*
X5876Y6584D1*
X5891Y6626D1*
X5886Y6670D1*
X5865Y6703D1*
X5705Y6863D1*
X5672Y6884D1*
X5628Y6889D1*
X5586Y6874D1*
X5554Y6843D1*
X5540Y6801D1*
X5545Y6757D1*
X5566Y6724D1*
X5725Y6564D1*
G37*
G36*
X5865Y6703D2*
X5898Y6682D1*
X5942Y6677D1*
X5984Y6692D1*
X6015Y6723D1*
X6030Y6765D1*
X6025Y6809D1*
X6004Y6843D1*
X5844Y7002D1*
X5811Y7023D1*
X5767Y7028D1*
X5725Y7013D1*
X5694Y6982D1*
X5679Y6940D1*
X5684Y6896D1*
X5705Y6863D1*
X5865Y6703D1*
G37*
G36*
X6004Y7253D2*
X6025Y7286D1*
X6030Y7330D1*
X6015Y7372D1*
X5984Y7403D1*
X5942Y7418D1*
X5898Y7413D1*
X5865Y7392D1*
X5705Y7232D1*
X5684Y7199D1*
X5679Y7155D1*
X5694Y7113D1*
X5725Y7082D1*
X5767Y7067D1*
X5811Y7072D1*
X5844Y7093D1*
X6004Y7253D1*
G37*
G36*
X5865Y7392D2*
X5886Y7425D1*
X5891Y7469D1*
X5876Y7511D1*
X5845Y7542D1*
X5803Y7557D1*
X5759Y7552D1*
X5725Y7531D1*
X5566Y7372D1*
X5545Y7338D1*
X5540Y7294D1*
X5554Y7252D1*
X5586Y7221D1*
X5628Y7206D1*
X5672Y7211D1*
X5705Y7232D1*
X5865Y7392D1*
G37*
G36*
X5725Y7531D2*
X5746Y7565D1*
X5751Y7609D1*
X5737Y7650D1*
X5706Y7682D1*
X5664Y7696D1*
X5620Y7691D1*
X5586Y7670D1*
X5427Y7511D1*
X5406Y7477D1*
X5401Y7433D1*
X5415Y7391D1*
X5447Y7360D1*
X5488Y7345D1*
X5532Y7350D1*
X5566Y7372D1*
X5725Y7531D1*
G37*
G36*
X5586Y7670D2*
X5607Y7704D1*
X5612Y7748D1*
X5598Y7790D1*
X5566Y7821D1*
X5525Y7835D1*
X5481Y7830D1*
X5447Y7809D1*
X5288Y7650D1*
X5266Y7616D1*
X5262Y7572D1*
X5276Y7531D1*
X5307Y7499D1*
X5349Y7485D1*
X5393Y7490D1*
X5427Y7511D1*
X5586Y7670D1*
G37*
G36*
X5242Y6574D2*
X4769Y7048D1*
X5242Y7521D1*
X5715Y7048D1*
X5242Y6574D1*
G37*
D72*
X9625Y7500D3*
X9428D3*
X9231D3*
X9034D3*
X8837D3*
X8640D3*
D74*
X8384Y7244D3*
Y7047D3*
Y6850D3*
Y6653D3*
Y6456D3*
Y6259D3*
D72*
X8640Y6003D3*
X8837D3*
X9034D3*
X9231D3*
X9428D3*
X9625D3*
D74*
X9880Y6259D3*
Y6456D3*
Y6653D3*
Y6850D3*
Y7047D3*
Y7244D3*
D66*
X9132Y6751D3*
D58*
X8062Y8873D3*
X7314D3*
G36*
X7553Y8375D2*
Y8061D1*
X7231D1*
X7074D1*
Y8358D1*
X7075Y8504D1*
X7412D1*
X7553Y8375D1*
G37*
D58*
X8062Y8282D3*
G36*
X10437Y16250D2*
X10750D1*
Y15125D1*
X10437D1*
Y16250D1*
G37*
M02*
