G04 DipTrace 2.4.0.2*
%INIoDriver15.gtl*%
%MOIN*%
%ADD10C,0.0098*%
%ADD13C,0.0061*%
%ADD14C,0.0101*%
%ADD15C,0.022*%
%ADD16C,0.0118*%
%ADD17C,0.0157*%
%ADD18C,0.0315*%
%ADD19C,0.0276*%
%ADD20C,0.013*%
%ADD21R,0.0591X0.0512*%
%ADD22R,0.0512X0.0591*%
%ADD24R,0.0299X0.0807*%
%ADD25R,0.0669X0.0669*%
%ADD26C,0.0669*%
%ADD27R,0.0472X0.063*%
%ADD30R,0.0256X0.0413*%
%ADD32R,0.063X0.0118*%
%ADD33R,0.0118X0.063*%
%ADD34O,0.0118X0.0335*%
%ADD35O,0.0335X0.0118*%
%ADD36R,0.128X0.128*%
%ADD37R,0.0787X0.0236*%
%ADD38R,0.0433X0.063*%
%ADD40R,0.0965X0.0965*%
%ADD41R,0.0157X0.0531*%
%ADD42R,0.063X0.0551*%
%ADD43R,0.0906X0.0512*%
%ADD45R,0.0591X0.1772*%
%ADD46C,0.0787*%
%ADD47C,0.0295*%
%ADD49C,0.04*%
%FSLAX44Y44*%
G04*
G70*
G90*
G75*
G01*
%LNTop*%
%LPD*%
X8346Y7955D2*
D13*
X8364Y7937D1*
X8062D1*
X7812Y8187D1*
Y9437D1*
X7687Y9562D1*
Y9625D1*
X7750Y9562D1*
X5375Y11312D2*
X5321Y11259D1*
X4792D1*
X8346Y7758D2*
X8337Y7750D1*
X8062D1*
X7625Y8187D1*
Y9250D1*
X7375Y9500D1*
X4812Y9937D2*
X5363Y10488D1*
Y10491D1*
X7062Y7312D2*
D14*
X6913Y7163D1*
X6674D1*
X8685Y19812D2*
D15*
X8437Y19564D1*
Y19312D1*
X6741Y13011D2*
D13*
X6815Y12937D1*
X6937D1*
X9187Y18500D2*
X8625Y19062D1*
X8250D1*
X8000Y19312D1*
Y19687D1*
X7937Y19750D1*
Y19812D1*
X6151Y13011D2*
X6143Y13003D1*
Y13455D1*
X6312Y13625D1*
X8250D1*
X8750Y14125D1*
Y15367D1*
X8758D1*
X8187Y15525D2*
X7812Y15150D1*
Y14312D1*
X7625Y14125D1*
X7125D1*
X5631Y6513D2*
D16*
X5520D1*
X5434D1*
X5520D2*
D15*
X5568Y6465D1*
Y5812D1*
X5562Y5750D2*
Y5812D1*
X5568D1*
X6347Y13011D2*
D13*
X6340Y13003D1*
Y13402D1*
X6437Y13500D1*
X8562D1*
X8623Y16927D2*
X8561Y16865D1*
Y16469D1*
X4687Y9435D2*
D14*
X4812D1*
Y9185D1*
X4749D1*
X7123Y19812D2*
D15*
X6750Y19439D1*
Y19187D1*
X5954Y13011D2*
D13*
X5937Y13028D1*
Y13453D1*
X6062Y13578D1*
Y13812D1*
Y19812D2*
X6375D1*
X4750Y7187D2*
D14*
X4774Y7163D1*
X5178D1*
X6674Y7753D2*
X6812Y7891D1*
Y8564D1*
X5363Y13011D2*
D13*
X5375D1*
Y13312D1*
X5312Y13375D1*
Y13687D1*
X6125Y14312D2*
X6266Y14453D1*
X6437Y14625D1*
X7125D1*
Y18437D2*
Y17937D1*
X7375Y17687D1*
Y16564D1*
X7265Y16454D1*
X7079D1*
X6266Y15641D1*
Y14453D1*
X5560Y13011D2*
X5562Y13013D1*
X4999Y15625D2*
X5745D1*
X6625Y16504D1*
Y17039D1*
X5560Y13011D2*
Y13864D1*
X5625Y13928D1*
Y14375D1*
X5562Y15625D2*
X4999D1*
X8187Y16115D2*
X8183Y16120D1*
X7942D1*
X7875Y16187D1*
Y16375D1*
X8000Y16500D1*
X8312D1*
X8375Y16562D1*
Y17562D1*
X8187Y17750D1*
X7812D1*
X7625Y17937D1*
Y18437D1*
X7312Y12243D2*
X7318Y12250D1*
X8875D1*
X9625Y11500D1*
Y10903D1*
X9750Y10750D2*
D14*
X9625D1*
Y10903D1*
X7312Y12440D2*
D13*
X7315Y12437D1*
X8875D1*
X9625Y13187D1*
Y14250D1*
X9750Y14000D2*
D14*
X9625D1*
Y14250D1*
X8840Y5687D2*
D13*
X8812Y5659D1*
Y6250D1*
X7954Y7399D2*
X8092D1*
X8126Y7365D1*
X8346D1*
X8584Y5687D2*
X8625Y5727D1*
Y6020D1*
X8525Y6120D1*
Y6375D1*
X8446Y6454D1*
X8045D1*
X7796Y6703D1*
Y6986D1*
X7954Y7143D1*
X8346D1*
Y7168D1*
X9803Y8625D2*
X9812Y8634D1*
Y9062D1*
X9750Y9125D1*
X8937Y9250D2*
X8687D1*
X8062Y9875D1*
X6812D1*
X6562Y10125D1*
Y10491D1*
X6544D1*
X10275Y7955D2*
X10280Y7950D1*
X10549D1*
X10625Y7875D1*
X6312Y9875D2*
X6347Y9910D1*
Y10491D1*
X10275Y8152D2*
X10280Y8147D1*
X10513D1*
X10687Y8321D1*
Y9562D1*
X10500Y9750D1*
X8687D1*
X8250Y10187D1*
Y10437D1*
X8187Y15918D2*
X8191Y15923D1*
X7889D1*
X7750Y16062D1*
Y16437D1*
X8125Y16812D1*
Y17039D1*
X8187Y15721D2*
X8034D1*
X8038Y15726D1*
X7898D1*
X7625Y16000D1*
Y17039D1*
X9132Y16312D2*
X9437Y16617D1*
Y16937D1*
X9312Y17062D1*
Y17500D1*
X8375Y18437D1*
X8125D1*
X8346Y6971D2*
D14*
X8125Y6750D1*
X7375Y7562D2*
Y7125D1*
X7216Y6966D1*
X6674D1*
X9132Y16115D2*
D13*
X9141Y16125D1*
X9375D1*
X9562Y16312D1*
Y17187D1*
X5560Y19812D2*
D15*
X5250Y19501D1*
Y19187D1*
X6544Y13011D2*
D13*
X6562Y12993D1*
Y12437D1*
X4750Y18375D2*
Y19812D1*
X4812D1*
X5434Y8009D2*
X5437Y8012D1*
Y9812D1*
X5375Y9875D1*
X5954D2*
Y10491D1*
Y9875D2*
X5937Y9891D1*
Y9625D1*
X6063Y9499D1*
Y9311D1*
X4999Y15125D2*
X4500D1*
Y12625D1*
X4684Y12440D1*
X4792D1*
X6625Y18437D2*
Y17937D1*
X6500Y17812D1*
X5812D1*
X5710Y17710D1*
Y16397D1*
X5375Y16062D1*
X4687D1*
X4500Y15875D1*
Y15125D1*
X5631Y8009D2*
X5625Y8003D1*
Y9937D1*
X5757Y10069D1*
Y10491D1*
X5875Y11125D2*
Y10937D1*
X5757Y10819D1*
Y10491D1*
X6221Y6513D2*
D16*
X6348D1*
X6418D1*
X6348D2*
D15*
X6750Y6112D1*
Y5812D1*
X6818Y5780D2*
Y5812D1*
X6750D1*
X7000Y10373D2*
D13*
X6881Y10491D1*
X6741D1*
X5178Y7360D2*
D14*
X4952D1*
X4687Y7625D1*
Y8437D1*
X4749D1*
X4750Y8250D2*
X4749D1*
Y8437D1*
X8328Y5687D2*
D17*
X8288Y5726D1*
D15*
Y5836D1*
X7437Y6687D1*
X6687D1*
X6674Y6700D1*
D16*
Y6769D1*
X9212Y8625D2*
D14*
Y9087D1*
X9562Y9437D1*
X9750D1*
X9812Y9500D1*
X8187Y5625D2*
X8249Y5687D1*
X8328D1*
X5178Y6966D2*
D16*
Y6880D1*
Y6769D1*
Y6880D2*
D15*
X5005D1*
X4568Y6443D1*
Y6437D1*
X4437D1*
X4792Y12243D2*
D14*
X4786Y12250D1*
X4312D1*
X4187Y12125D1*
Y12062D1*
Y11937D1*
X4275Y11849D1*
X4792D1*
X4250Y11812D2*
X4187Y12062D1*
X4250Y21062D2*
D15*
D3*
Y20812D2*
D3*
Y20562D2*
Y20625D1*
Y21062D2*
Y20812D1*
Y20562D1*
X10375Y20812D2*
X9874D1*
Y20718D1*
X10375Y20812D2*
Y20562D1*
Y20312D1*
X4437Y6437D2*
X4250Y6625D1*
Y21062D1*
X8311Y20718D2*
X9874D1*
X8311D2*
X6749D1*
X5186D1*
X5092Y20812D1*
X4250D1*
X8758Y16469D2*
D14*
X9038Y16750D1*
X9187D1*
X6063Y8563D2*
D13*
D3*
X9015Y6695D2*
D14*
Y6484D1*
X9250Y6250D1*
X10125Y8937D2*
Y8875D1*
X10000Y8750D1*
Y8625D1*
X4792Y11849D2*
X4250D1*
Y11812D1*
X4437Y4437D2*
D18*
X4689D1*
X5062Y4810D1*
Y5998D1*
X4622Y6437D1*
D19*
X4437D1*
X7312Y12046D2*
D14*
X7311Y12045D1*
X7757D1*
X7954Y11848D1*
X7875D1*
X7312Y11653D2*
X7758D1*
X7954Y11848D1*
X4999Y14625D2*
D13*
Y14125D1*
D14*
Y14625D1*
X4938Y14564D1*
X5314D1*
X5562Y14812D1*
Y15187D1*
X7125Y16750D1*
Y17000D1*
Y17039D1*
Y16750D2*
D15*
Y17039D1*
Y17000D2*
D14*
D3*
X10248Y19812D2*
D15*
X9812Y19376D1*
Y19187D1*
X5757Y13011D2*
D13*
X5750Y13018D1*
Y14000D1*
X5875Y14125D1*
Y14625D1*
X5937Y14687D1*
Y14937D1*
X9187Y19812D2*
X9500D1*
X7312Y11062D2*
X7313Y11061D1*
X8000D1*
X8187Y11248D1*
X8437D1*
X9625Y15436D2*
X9536Y15525D1*
X9132D1*
X5178Y7557D2*
X5174Y7560D1*
X4999D1*
X4874Y7685D1*
Y7935D1*
X4999Y8060D1*
X5124D1*
X5187Y8123D1*
Y9560D1*
X5062Y9685D1*
X4687D1*
X4562Y9810D1*
Y10248D1*
X5312Y10998D1*
X5562D1*
X5624Y11061D1*
Y11373D1*
X5749Y11498D1*
X6750D1*
X6989Y11259D1*
X7312D1*
X6125Y18437D2*
Y18562D1*
X5437Y17875D1*
Y17750D1*
X6624Y11186D2*
X6687D1*
Y10937D1*
X6250D1*
X6143Y10830D1*
Y10499D1*
X6151Y10491D1*
X7501Y10437D2*
X7126Y10812D1*
X7000D1*
X6875Y10937D1*
X6687D1*
D47*
X7750Y9562D3*
X5375Y11312D3*
X7375Y9500D3*
X4812Y9937D3*
X7062Y7312D3*
X8437Y19312D3*
X6937Y12937D3*
X9187Y18500D3*
X5562Y5750D3*
X8562Y13500D3*
X8623Y16927D3*
X4687Y9435D3*
X6750Y19187D3*
X6062Y13812D3*
Y19812D3*
X4750Y7187D3*
X5312Y13687D3*
X6125Y14312D3*
X5625Y14375D3*
X5562Y15625D3*
X9750Y10750D3*
Y14000D3*
X8812Y6250D3*
X7954Y7399D3*
X9750Y9125D3*
X8937Y9250D3*
X10625Y7875D3*
X6312Y9875D3*
X8125Y6750D3*
X7375Y7562D3*
X9562Y17187D3*
X5250Y19187D3*
X6562Y12437D3*
X4750Y18375D3*
X6562Y12437D3*
X5375Y9875D3*
X5954D3*
D3*
X5875Y11125D3*
X6818Y5780D3*
X7000Y10373D3*
X4750Y8250D3*
X9812Y9500D3*
X8187Y5625D3*
X10375Y20812D3*
D3*
X9187Y16750D3*
X6063Y8563D3*
X9250Y6250D3*
X10125Y8937D3*
X9250Y6250D3*
X7954Y11848D3*
D3*
X7125Y16750D3*
X9812Y19187D3*
X5937Y14937D3*
X9187Y19812D3*
X8437Y11248D3*
X9625Y15436D3*
X5437Y17750D3*
X6624Y11186D3*
X4250Y11812D3*
Y21062D3*
Y20812D3*
Y20562D3*
X7125Y17000D3*
Y17250D3*
X10375Y20562D3*
Y20312D3*
D49*
X6187Y7500D3*
X5750D3*
Y7062D3*
X6187D3*
D47*
X8721Y16061D3*
X6812Y17750D3*
X8625Y12998D3*
Y11937D3*
D49*
X9000Y7937D3*
X9625D3*
Y7312D3*
X9000D3*
D47*
X8125Y9375D3*
X9750Y12375D3*
X7750Y15500D3*
X8000Y13875D3*
X4750Y13125D3*
X9062Y11125D3*
Y17125D3*
X4161Y23221D2*
D13*
X5302D1*
X5573D2*
X6302D1*
X6572D2*
X7302D1*
X7572D2*
X8302D1*
X8572D2*
X9002D1*
X9873D2*
X10713D1*
X4161Y23161D2*
X5181D1*
X5692D2*
X6181D1*
X6692D2*
X7181D1*
X7692D2*
X8181D1*
X8692D2*
X9002D1*
X9873D2*
X10713D1*
X4161Y23101D2*
X5114D1*
X5761D2*
X6114D1*
X6761D2*
X7114D1*
X7761D2*
X8114D1*
X8760D2*
X9002D1*
X9873D2*
X10713D1*
X4161Y23041D2*
X5068D1*
X5806D2*
X6068D1*
X6806D2*
X7068D1*
X7807D2*
X8068D1*
X8807D2*
X9002D1*
X9873D2*
X10713D1*
X4161Y22981D2*
X5036D1*
X5837D2*
X6036D1*
X6837D2*
X7036D1*
X7837D2*
X8036D1*
X8837D2*
X9002D1*
X9873D2*
X10713D1*
X4161Y22921D2*
X5016D1*
X5858D2*
X6016D1*
X6858D2*
X7016D1*
X7858D2*
X8016D1*
X8858D2*
X9002D1*
X9873D2*
X10713D1*
X4161Y22861D2*
X5005D1*
X5869D2*
X6005D1*
X6870D2*
X7004D1*
X7870D2*
X8004D1*
X8870D2*
X9002D1*
X9873D2*
X10713D1*
X4161Y22800D2*
X5002D1*
X5872D2*
X6002D1*
X6872D2*
X7002D1*
X7872D2*
X8002D1*
X8872D2*
X9002D1*
X9873D2*
X10713D1*
X4161Y22740D2*
X5007D1*
X5866D2*
X6007D1*
X6866D2*
X7007D1*
X7866D2*
X8007D1*
X8866D2*
X9002D1*
X9873D2*
X10713D1*
X4161Y22680D2*
X5023D1*
X5852D2*
X6023D1*
X6852D2*
X7023D1*
X7852D2*
X8023D1*
X8852D2*
X9002D1*
X9873D2*
X10713D1*
X4161Y22620D2*
X5047D1*
X5827D2*
X6047D1*
X6827D2*
X7047D1*
X7827D2*
X8047D1*
X8827D2*
X9002D1*
X9873D2*
X10713D1*
X4161Y22560D2*
X5083D1*
X5790D2*
X6083D1*
X6790D2*
X7083D1*
X7790D2*
X8083D1*
X8790D2*
X9002D1*
X9873D2*
X10713D1*
X4161Y22500D2*
X5136D1*
X5738D2*
X6136D1*
X6738D2*
X7136D1*
X7737D2*
X8136D1*
X8737D2*
X9002D1*
X9873D2*
X10713D1*
X4161Y22440D2*
X5218D1*
X5657D2*
X6218D1*
X6657D2*
X7218D1*
X7657D2*
X8217D1*
X8657D2*
X9002D1*
X9873D2*
X10713D1*
X4161Y22380D2*
X10713D1*
X4161Y22320D2*
X10713D1*
X4161Y22260D2*
X4183D1*
X10629D2*
X10713D1*
X10662Y22199D2*
X10713D1*
X10662Y22139D2*
X10713D1*
X10662Y22079D2*
X10713D1*
X10662Y22019D2*
X10713D1*
X10662Y21959D2*
X10713D1*
X10662Y21899D2*
X10713D1*
X10662Y21839D2*
X10713D1*
X10662Y21779D2*
X10713D1*
X10662Y21719D2*
X10713D1*
X10662Y21658D2*
X10713D1*
X10662Y21598D2*
X10713D1*
X10662Y21538D2*
X10713D1*
X10662Y21478D2*
X10713D1*
X10662Y21418D2*
X10713D1*
X10662Y21358D2*
X10713D1*
X10662Y21298D2*
X10713D1*
X10662Y21238D2*
X10713D1*
X10662Y21178D2*
X10713D1*
X10662Y21118D2*
X10713D1*
X10662Y21057D2*
X10713D1*
X10662Y20997D2*
X10713D1*
X10662Y20937D2*
X10713D1*
X10662Y20877D2*
X10713D1*
X10662Y20817D2*
X10713D1*
X10662Y20757D2*
X10713D1*
X10662Y20697D2*
X10713D1*
X10662Y20637D2*
X10713D1*
X10662Y20577D2*
X10713D1*
X10662Y20516D2*
X10713D1*
X10662Y20456D2*
X10713D1*
X10662Y20396D2*
X10713D1*
X10662Y20336D2*
X10713D1*
X10662Y20276D2*
X10713D1*
X10662Y20216D2*
X10713D1*
X10658Y20156D2*
X10713D1*
X10592Y20096D2*
X10713D1*
X4460Y20036D2*
X4583D1*
X5041D2*
X5332D1*
X5788D2*
X5963D1*
X6603D2*
X6894D1*
X7351D2*
X7709D1*
X8165D2*
X8456D1*
X8914D2*
X9088D1*
X9728D2*
X10019D1*
X10476D2*
X10713D1*
X4460Y19976D2*
X4583D1*
X5041D2*
X5332D1*
X5788D2*
X5877D1*
X6603D2*
X6894D1*
X7351D2*
X7709D1*
X8165D2*
X8456D1*
X8914D2*
X9002D1*
X9728D2*
X10019D1*
X10476D2*
X10713D1*
X4460Y19915D2*
X4583D1*
X5041D2*
X5332D1*
X5788D2*
X5837D1*
X6603D2*
X6894D1*
X7351D2*
X7709D1*
X8165D2*
X8456D1*
X8914D2*
X8962D1*
X9728D2*
X10019D1*
X10476D2*
X10713D1*
X4460Y19855D2*
X4583D1*
X5041D2*
X5308D1*
X5788D2*
X5817D1*
X6603D2*
X6870D1*
X7351D2*
X7709D1*
X8165D2*
X8432D1*
X8914D2*
X8943D1*
X9728D2*
X9995D1*
X10476D2*
X10713D1*
X4460Y19795D2*
X4583D1*
X5041D2*
X5247D1*
X5788D2*
X5815D1*
X6603D2*
X6810D1*
X7351D2*
X7709D1*
X8165D2*
X8373D1*
X8914D2*
X8939D1*
X9728D2*
X9935D1*
X10476D2*
X10713D1*
X4460Y19735D2*
X4583D1*
X5041D2*
X5188D1*
X5788D2*
X5826D1*
X6603D2*
X6750D1*
X7351D2*
X7709D1*
X8165D2*
X8312D1*
X8914D2*
X8952D1*
X9728D2*
X9875D1*
X10476D2*
X10713D1*
X4460Y19675D2*
X4583D1*
X5041D2*
X5127D1*
X5788D2*
X5856D1*
X6603D2*
X6690D1*
X7351D2*
X7709D1*
X8165D2*
X8259D1*
X8914D2*
X8981D1*
X9728D2*
X9815D1*
X10476D2*
X10713D1*
X4460Y19615D2*
X4583D1*
X5041D2*
X5073D1*
X5788D2*
X5915D1*
X6603D2*
X6630D1*
X7351D2*
X7709D1*
X8165D2*
X8233D1*
X8914D2*
X9040D1*
X9728D2*
X9755D1*
X10476D2*
X10713D1*
X4460Y19555D2*
X4583D1*
X5788D2*
X6146D1*
X7351D2*
X7709D1*
X8165D2*
X8226D1*
X8914D2*
X9271D1*
X10476D2*
X10713D1*
X4460Y19495D2*
X4618D1*
X4881D2*
X5039D1*
X5538D2*
X6547D1*
X7101D2*
X7868D1*
X8131D2*
X8226D1*
X8664D2*
X9639D1*
X10226D2*
X10713D1*
X4460Y19435D2*
X4618D1*
X4881D2*
X5039D1*
X5478D2*
X6539D1*
X7041D2*
X7868D1*
X8131D2*
X8222D1*
X8652D2*
X9610D1*
X10165D2*
X10713D1*
X4460Y19374D2*
X4618D1*
X4881D2*
X5039D1*
X5460D2*
X6539D1*
X6980D2*
X7868D1*
X8131D2*
X8197D1*
X8677D2*
X9601D1*
X10106D2*
X10713D1*
X4460Y19314D2*
X4618D1*
X4881D2*
X5037D1*
X5461D2*
X6537D1*
X6961D2*
X7868D1*
X8686D2*
X9600D1*
X10045D2*
X10713D1*
X4460Y19254D2*
X4618D1*
X4881D2*
X5010D1*
X5488D2*
X6511D1*
X6988D2*
X7883D1*
X8678D2*
X9573D1*
X10051D2*
X10713D1*
X4460Y19194D2*
X4618D1*
X4881D2*
X5002D1*
X5498D2*
X6502D1*
X6998D2*
X7934D1*
X8655D2*
X9564D1*
X10060D2*
X10713D1*
X4460Y19134D2*
X4618D1*
X4881D2*
X5007D1*
X5492D2*
X6507D1*
X6992D2*
X7994D1*
X8736D2*
X9570D1*
X10054D2*
X10713D1*
X4460Y19074D2*
X4618D1*
X4881D2*
X5030D1*
X5470D2*
X6529D1*
X6970D2*
X8054D1*
X8796D2*
X9592D1*
X10032D2*
X10713D1*
X4460Y19014D2*
X4618D1*
X4881D2*
X5075D1*
X5425D2*
X6575D1*
X6925D2*
X8115D1*
X8855D2*
X9637D1*
X9987D2*
X10713D1*
X4460Y18954D2*
X4618D1*
X4881D2*
X5178D1*
X5320D2*
X6678D1*
X6820D2*
X8181D1*
X8916D2*
X9741D1*
X9883D2*
X10713D1*
X4460Y18894D2*
X4618D1*
X4881D2*
X5874D1*
X8375D2*
X8610D1*
X8976D2*
X10713D1*
X4460Y18834D2*
X4618D1*
X4881D2*
X5874D1*
X8375D2*
X8669D1*
X9036D2*
X10713D1*
X4460Y18773D2*
X4618D1*
X4881D2*
X5874D1*
X8375D2*
X8730D1*
X9096D2*
X10713D1*
X4460Y18713D2*
X4618D1*
X4881D2*
X5874D1*
X8375D2*
X8790D1*
X9306D2*
X10713D1*
X4460Y18653D2*
X4618D1*
X4881D2*
X5874D1*
X8375D2*
X8850D1*
X9380D2*
X10713D1*
X4460Y18593D2*
X4618D1*
X4881D2*
X5874D1*
X8375D2*
X8910D1*
X9417D2*
X10713D1*
X4460Y18533D2*
X4560D1*
X4938D2*
X5874D1*
X8461D2*
X8941D1*
X9433D2*
X10713D1*
X4460Y18473D2*
X4522D1*
X4977D2*
X5852D1*
X8522D2*
X8940D1*
X9434D2*
X10713D1*
X4460Y18413D2*
X4505D1*
X4995D2*
X5792D1*
X8582D2*
X8954D1*
X9419D2*
X10713D1*
X4460Y18353D2*
X4503D1*
X4997D2*
X5732D1*
X8642D2*
X8988D1*
X9385D2*
X10713D1*
X4460Y18293D2*
X4515D1*
X4983D2*
X5672D1*
X8702D2*
X9055D1*
X9319D2*
X10713D1*
X4460Y18232D2*
X4547D1*
X4952D2*
X5612D1*
X8375D2*
X8396D1*
X8762D2*
X10713D1*
X4460Y18172D2*
X4610D1*
X4889D2*
X5552D1*
X8375D2*
X8456D1*
X8822D2*
X10713D1*
X4460Y18112D2*
X5492D1*
X8375D2*
X8516D1*
X8882D2*
X10713D1*
X4460Y18052D2*
X5432D1*
X5798D2*
X5874D1*
X8375D2*
X8576D1*
X8943D2*
X10713D1*
X4460Y17992D2*
X5371D1*
X5738D2*
X5874D1*
X8375D2*
X8636D1*
X9002D2*
X10713D1*
X4460Y17932D2*
X5271D1*
X5678D2*
X5770D1*
X6756D2*
X6993D1*
X7312D2*
X7493D1*
X7812D2*
X8696D1*
X9063D2*
X10713D1*
X4460Y17872D2*
X5222D1*
X5652D2*
X5689D1*
X6738D2*
X7011D1*
X7373D2*
X7511D1*
X8219D2*
X8757D1*
X9123D2*
X10713D1*
X4460Y17812D2*
X5197D1*
X6683D2*
X7067D1*
X7433D2*
X7567D1*
X8308D2*
X8816D1*
X9183D2*
X10713D1*
X4460Y17752D2*
X5189D1*
X6622D2*
X7126D1*
X7488D2*
X7626D1*
X8368D2*
X8877D1*
X9243D2*
X10713D1*
X4460Y17692D2*
X5196D1*
X6540D2*
X7187D1*
X7506D2*
X7687D1*
X8428D2*
X8937D1*
X9303D2*
X10713D1*
X4460Y17631D2*
X5220D1*
X5841D2*
X7243D1*
X7506D2*
X7765D1*
X8485D2*
X8997D1*
X9363D2*
X10713D1*
X4460Y17571D2*
X5267D1*
X5841D2*
X7243D1*
X7506D2*
X8182D1*
X8505D2*
X9057D1*
X9421D2*
X10713D1*
X4460Y17511D2*
X5388D1*
X5486D2*
X5578D1*
X5841D2*
X5874D1*
X8506D2*
X9118D1*
X9443D2*
X10713D1*
X4460Y17451D2*
X5578D1*
X5841D2*
X5874D1*
X8506D2*
X9177D1*
X9444D2*
X10713D1*
X4460Y17391D2*
X5578D1*
X5841D2*
X5874D1*
X8506D2*
X9181D1*
X9698D2*
X10713D1*
X4460Y17331D2*
X5578D1*
X5841D2*
X5874D1*
X8506D2*
X9181D1*
X9763D2*
X10136D1*
X10489D2*
X10713D1*
X4460Y17271D2*
X5578D1*
X5841D2*
X5874D1*
X8506D2*
X9181D1*
X9795D2*
X10036D1*
X10588D2*
X10713D1*
X4460Y17211D2*
X5578D1*
X5841D2*
X5874D1*
X8506D2*
X9181D1*
X9809D2*
X9976D1*
X10649D2*
X10713D1*
X4460Y17151D2*
X5578D1*
X5841D2*
X5874D1*
X8506D2*
X8525D1*
X8721D2*
X9181D1*
X9807D2*
X9933D1*
X10690D2*
X10712D1*
X4460Y17090D2*
X5578D1*
X5841D2*
X5874D1*
X8807D2*
X9181D1*
X9790D2*
X9906D1*
X4460Y17030D2*
X5578D1*
X5841D2*
X5874D1*
X8848D2*
X9185D1*
X9753D2*
X9887D1*
X4460Y16970D2*
X5578D1*
X5841D2*
X5874D1*
X8867D2*
X9081D1*
X9693D2*
X9878D1*
X4460Y16910D2*
X5578D1*
X5841D2*
X5874D1*
X8871D2*
X9000D1*
X9693D2*
X9878D1*
X4460Y16850D2*
X5578D1*
X5841D2*
X5874D1*
X8859D2*
X8928D1*
X9693D2*
X9885D1*
X4460Y16790D2*
X5578D1*
X5841D2*
X5874D1*
X8829D2*
X8867D1*
X9693D2*
X9903D1*
X4460Y16730D2*
X5578D1*
X5841D2*
X5874D1*
X8784D2*
X8808D1*
X9693D2*
X9930D1*
X10694D2*
X10713D1*
X4460Y16670D2*
X5578D1*
X5841D2*
X5874D1*
X9693D2*
X9970D1*
X10654D2*
X10713D1*
X4460Y16610D2*
X5578D1*
X5841D2*
X5874D1*
X9693D2*
X10028D1*
X10595D2*
X10713D1*
X4460Y16550D2*
X5578D1*
X5841D2*
X5874D1*
X9693D2*
X10121D1*
X10502D2*
X10713D1*
X4460Y16489D2*
X5578D1*
X5841D2*
X6427D1*
X9693D2*
X10713D1*
X4460Y16429D2*
X5558D1*
X5841D2*
X6366D1*
X7423D2*
X7493D1*
X9693D2*
X10713D1*
X4460Y16369D2*
X5499D1*
X5837D2*
X6307D1*
X7363D2*
X7493D1*
X9693D2*
X10713D1*
X4460Y16309D2*
X5438D1*
X5805D2*
X6246D1*
X7118D2*
X7493D1*
X9693D2*
X9877D1*
X4460Y16249D2*
X5379D1*
X5744D2*
X6186D1*
X7057D2*
X7493D1*
X9676D2*
X9877D1*
X4460Y16189D2*
X5318D1*
X5685D2*
X6126D1*
X6997D2*
X7493D1*
X8436D2*
X8883D1*
X9622D2*
X9877D1*
X4460Y16129D2*
X4571D1*
X5624D2*
X6066D1*
X6937D2*
X7493D1*
X8454D2*
X8864D1*
X9562D2*
X9877D1*
X4460Y16069D2*
X4510D1*
X5564D2*
X6006D1*
X6877D2*
X7493D1*
X8448D2*
X8871D1*
X9502D2*
X9877D1*
X5504Y16009D2*
X5946D1*
X6817D2*
X7493D1*
X8426D2*
X8893D1*
X9427D2*
X9877D1*
X5433Y15948D2*
X5886D1*
X6757D2*
X7504D1*
X8451D2*
X8867D1*
X9397D2*
X9877D1*
X4696Y15888D2*
X5825D1*
X6696D2*
X7552D1*
X8452D2*
X8867D1*
X9397D2*
X9877D1*
X5699Y15828D2*
X5766D1*
X8426D2*
X8893D1*
X9371D2*
X9877D1*
X6576Y15768D2*
X6630D1*
X7618D2*
X7672D1*
X8448D2*
X8871D1*
X9393D2*
X9877D1*
X6516Y15708D2*
X6630D1*
X7618D2*
X7733D1*
X8454D2*
X8864D1*
X9400D2*
X9877D1*
X6456Y15648D2*
X6630D1*
X7618D2*
X7793D1*
X8436D2*
X8883D1*
X9748D2*
X9877D1*
X6397Y15588D2*
X6630D1*
X7618D2*
X7932D1*
X9820D2*
X9877D1*
X6397Y15528D2*
X6630D1*
X7618D2*
X7919D1*
X9855D2*
X9877D1*
X6397Y15468D2*
X6630D1*
X7618D2*
X7930D1*
X9871D2*
X10713D1*
X6397Y15408D2*
X7886D1*
X9872D2*
X10713D1*
X6397Y15347D2*
X7827D1*
X8193D2*
X8402D1*
X8918D2*
X9393D1*
X9856D2*
X10713D1*
X6397Y15287D2*
X6630D1*
X7618D2*
X7766D1*
X8133D2*
X8402D1*
X8918D2*
X9428D1*
X9822D2*
X10713D1*
X6397Y15227D2*
X6630D1*
X7618D2*
X7708D1*
X8072D2*
X8405D1*
X8914D2*
X9229D1*
X10020D2*
X10713D1*
X6397Y15167D2*
X6630D1*
X7618D2*
X7682D1*
X8013D2*
X8431D1*
X8887D2*
X9229D1*
X10020D2*
X10713D1*
X6397Y15107D2*
X6630D1*
X7618D2*
X7681D1*
X7952D2*
X8532D1*
X8590D2*
X8618D1*
X8880D2*
X9229D1*
X10020D2*
X10713D1*
X6397Y15047D2*
X6630D1*
X7618D2*
X7681D1*
X7943D2*
X8619D1*
X8880D2*
X9229D1*
X10020D2*
X10713D1*
X6397Y14987D2*
X6630D1*
X7618D2*
X7681D1*
X7943D2*
X8619D1*
X8880D2*
X9229D1*
X10020D2*
X10713D1*
X6397Y14927D2*
X6630D1*
X7618D2*
X7681D1*
X7943D2*
X8619D1*
X8880D2*
X9229D1*
X10020D2*
X10713D1*
X6397Y14867D2*
X7681D1*
X7943D2*
X8619D1*
X8880D2*
X9229D1*
X10020D2*
X10713D1*
X6397Y14806D2*
X6630D1*
X7618D2*
X7681D1*
X7943D2*
X8619D1*
X8880D2*
X9229D1*
X10020D2*
X10713D1*
X7618Y14746D2*
X7681D1*
X7943D2*
X8619D1*
X8880D2*
X9229D1*
X10020D2*
X10713D1*
X7618Y14686D2*
X7681D1*
X7943D2*
X8619D1*
X8880D2*
X9229D1*
X10020D2*
X10713D1*
X7618Y14626D2*
X7681D1*
X7943D2*
X8619D1*
X8880D2*
X9229D1*
X10020D2*
X10713D1*
X7618Y14566D2*
X7681D1*
X7943D2*
X8619D1*
X8880D2*
X9229D1*
X10020D2*
X10713D1*
X7618Y14506D2*
X7681D1*
X7943D2*
X8619D1*
X8880D2*
X9229D1*
X10020D2*
X10713D1*
X6442Y14446D2*
X6630D1*
X7618D2*
X7681D1*
X7943D2*
X8619D1*
X8880D2*
X9229D1*
X10020D2*
X10713D1*
X6381Y14386D2*
X7681D1*
X7943D2*
X8619D1*
X8880D2*
X9229D1*
X10020D2*
X10713D1*
X6372Y14326D2*
X6630D1*
X7618D2*
X7642D1*
X7943D2*
X8619D1*
X8880D2*
X9229D1*
X10020D2*
X10713D1*
X6368Y14266D2*
X6630D1*
X7934D2*
X8619D1*
X8880D2*
X9229D1*
X10020D2*
X10713D1*
X6348Y14205D2*
X6630D1*
X7888D2*
X8619D1*
X8880D2*
X9229D1*
X10020D2*
X10713D1*
X6307Y14145D2*
X6630D1*
X7829D2*
X8587D1*
X8880D2*
X9229D1*
X10020D2*
X10713D1*
X6000Y14085D2*
X6033D1*
X6215D2*
X6630D1*
X7768D2*
X8527D1*
X8875D2*
X9229D1*
X10020D2*
X10713D1*
X6183Y14025D2*
X6630D1*
X7707D2*
X8467D1*
X8833D2*
X9229D1*
X10020D2*
X10713D1*
X6256Y13965D2*
X6630D1*
X7618D2*
X8407D1*
X8773D2*
X9229D1*
X10020D2*
X10713D1*
X4631Y13905D2*
X5200D1*
X6291D2*
X8347D1*
X8713D2*
X9229D1*
X10020D2*
X10713D1*
X4631Y13845D2*
X5123D1*
X6308D2*
X8287D1*
X8653D2*
X9229D1*
X10020D2*
X10713D1*
X4631Y13785D2*
X5084D1*
X6309D2*
X8226D1*
X8593D2*
X9229D1*
X10020D2*
X10713D1*
X4631Y13725D2*
X5067D1*
X8657D2*
X9229D1*
X10020D2*
X10713D1*
X4631Y13665D2*
X5065D1*
X8745D2*
X9229D1*
X10020D2*
X10713D1*
X4631Y13604D2*
X5078D1*
X8786D2*
X9229D1*
X10020D2*
X10713D1*
X4631Y13544D2*
X5110D1*
X8807D2*
X9229D1*
X10020D2*
X10713D1*
X4631Y13484D2*
X5173D1*
X8809D2*
X9229D1*
X10020D2*
X10713D1*
X4631Y13424D2*
X5181D1*
X8798D2*
X9229D1*
X10020D2*
X10713D1*
X4631Y13364D2*
X5181D1*
X6901D2*
X8356D1*
X8769D2*
X9229D1*
X10020D2*
X10713D1*
X4631Y13304D2*
X5202D1*
X6901D2*
X8413D1*
X8711D2*
X9229D1*
X10020D2*
X10713D1*
X4631Y13244D2*
X5203D1*
X6901D2*
X9493D1*
X9756D2*
X10713D1*
X4631Y13184D2*
X5203D1*
X6901D2*
X9438D1*
X9756D2*
X10713D1*
X4631Y13124D2*
X5203D1*
X7097D2*
X9378D1*
X9738D2*
X10713D1*
X4631Y13063D2*
X5203D1*
X7149D2*
X9318D1*
X9684D2*
X10713D1*
X4631Y13003D2*
X5203D1*
X7176D2*
X9258D1*
X9624D2*
X10713D1*
X4631Y12943D2*
X5203D1*
X7185D2*
X9197D1*
X9564D2*
X10713D1*
X4631Y12883D2*
X5203D1*
X7179D2*
X9138D1*
X9504D2*
X10713D1*
X4631Y12823D2*
X5203D1*
X7157D2*
X9077D1*
X9444D2*
X10713D1*
X4631Y12763D2*
X5203D1*
X7112D2*
X9017D1*
X9383D2*
X10713D1*
X4631Y12703D2*
X5203D1*
X7004D2*
X8957D1*
X9324D2*
X10713D1*
X4665Y12643D2*
X5203D1*
X6901D2*
X8897D1*
X9263D2*
X10713D1*
X5208Y12583D2*
X6362D1*
X6762D2*
X6896D1*
X7728D2*
X8837D1*
X9203D2*
X10713D1*
X5208Y12523D2*
X6329D1*
X6795D2*
X6896D1*
X9143D2*
X10713D1*
X5208Y12462D2*
X6315D1*
X6809D2*
X6896D1*
X9083D2*
X10713D1*
X5208Y12402D2*
X6316D1*
X6808D2*
X6896D1*
X9023D2*
X10713D1*
X5208Y12342D2*
X6333D1*
X6791D2*
X6896D1*
X8965D2*
X10713D1*
X5208Y12282D2*
X6370D1*
X6754D2*
X6896D1*
X9025D2*
X10713D1*
X5208Y12222D2*
X6445D1*
X6679D2*
X6896D1*
X9085D2*
X10713D1*
X5208Y12162D2*
X6896D1*
X9145D2*
X10713D1*
X5208Y12102D2*
X6896D1*
X7911D2*
X8839D1*
X9206D2*
X10713D1*
X5208Y12042D2*
X6896D1*
X8105D2*
X8899D1*
X9265D2*
X10713D1*
X5208Y11982D2*
X6896D1*
X8162D2*
X8959D1*
X9326D2*
X10713D1*
X5208Y11921D2*
X6896D1*
X8190D2*
X9020D1*
X9386D2*
X10713D1*
X5208Y11861D2*
X6896D1*
X8202D2*
X9079D1*
X10020D2*
X10713D1*
X5208Y11801D2*
X6896D1*
X8197D2*
X9140D1*
X10020D2*
X10713D1*
X5208Y11741D2*
X6896D1*
X8177D2*
X9200D1*
X10020D2*
X10713D1*
X5208Y11681D2*
X6896D1*
X8135D2*
X9229D1*
X10020D2*
X10713D1*
X5208Y11621D2*
X5719D1*
X6780D2*
X6896D1*
X8044D2*
X9229D1*
X10020D2*
X10713D1*
X5208Y11561D2*
X5629D1*
X6870D2*
X6896D1*
X7878D2*
X9229D1*
X10020D2*
X10713D1*
X5532Y11501D2*
X5569D1*
X7728D2*
X9229D1*
X10020D2*
X10713D1*
X7728Y11441D2*
X8285D1*
X8591D2*
X9229D1*
X10020D2*
X10713D1*
X7728Y11381D2*
X8228D1*
X8646D2*
X9229D1*
X10020D2*
X10713D1*
X6023Y11320D2*
X6417D1*
X7728D2*
X8076D1*
X8674D2*
X9229D1*
X10020D2*
X10713D1*
X6081Y11260D2*
X6388D1*
X7728D2*
X8016D1*
X8685D2*
X9229D1*
X10020D2*
X10713D1*
X6111Y11200D2*
X6377D1*
X7728D2*
X7956D1*
X8681D2*
X9229D1*
X10020D2*
X10713D1*
X6122Y11140D2*
X6381D1*
X8660D2*
X9229D1*
X10020D2*
X10713D1*
X6119Y11080D2*
X6401D1*
X8202D2*
X8257D1*
X8617D2*
X9229D1*
X10020D2*
X10713D1*
X6099Y11020D2*
X6149D1*
X8142D2*
X8351D1*
X8524D2*
X9229D1*
X10020D2*
X10713D1*
X6058Y10960D2*
X6089D1*
X8080D2*
X9229D1*
X10020D2*
X10713D1*
X4460Y10900D2*
X5031D1*
X7222D2*
X9229D1*
X10020D2*
X10713D1*
X4460Y10840D2*
X4970D1*
X7282D2*
X9229D1*
X10020D2*
X10713D1*
X4460Y10779D2*
X4910D1*
X7858D2*
X7893D1*
X8606D2*
X9229D1*
X10020D2*
X10713D1*
X4460Y10719D2*
X4850D1*
X7858D2*
X7893D1*
X8606D2*
X9229D1*
X10020D2*
X10713D1*
X4460Y10659D2*
X4790D1*
X7858D2*
X7893D1*
X8606D2*
X9229D1*
X10020D2*
X10713D1*
X4460Y10599D2*
X4730D1*
X7858D2*
X7893D1*
X8606D2*
X9229D1*
X10020D2*
X10713D1*
X4460Y10539D2*
X4670D1*
X7858D2*
X7893D1*
X8606D2*
X9229D1*
X10020D2*
X10713D1*
X4460Y10479D2*
X4609D1*
X7858D2*
X7893D1*
X8606D2*
X9229D1*
X10020D2*
X10713D1*
X4460Y10419D2*
X4550D1*
X7858D2*
X7893D1*
X8606D2*
X9229D1*
X10020D2*
X10713D1*
X4460Y10359D2*
X4489D1*
X7858D2*
X7893D1*
X8606D2*
X9229D1*
X10020D2*
X10713D1*
X7858Y10299D2*
X7893D1*
X8606D2*
X9229D1*
X10020D2*
X10713D1*
X7858Y10239D2*
X7893D1*
X8606D2*
X9229D1*
X10020D2*
X10713D1*
X7858Y10178D2*
X7893D1*
X8606D2*
X9229D1*
X10020D2*
X10713D1*
X6901Y10118D2*
X7145D1*
X7858D2*
X7893D1*
X8606D2*
X9229D1*
X10020D2*
X10713D1*
X6811Y10058D2*
X7145D1*
X7858D2*
X7893D1*
X8606D2*
X9229D1*
X10020D2*
X10713D1*
X8088Y9998D2*
X8255D1*
X8621D2*
X9229D1*
X10020D2*
X10713D1*
X8182Y9938D2*
X8315D1*
X8682D2*
X9229D1*
X10020D2*
X10713D1*
X6560Y9878D2*
X6625D1*
X8242D2*
X8376D1*
X8742D2*
X10713D1*
X6553Y9818D2*
X6686D1*
X8302D2*
X8435D1*
X10614D2*
X10713D1*
X6530Y9758D2*
X6761D1*
X8362D2*
X8496D1*
X10675D2*
X10713D1*
X6483Y9698D2*
X7229D1*
X7520D2*
X7543D1*
X7956D2*
X8056D1*
X8422D2*
X8556D1*
X7986Y9637D2*
X8116D1*
X8482D2*
X8625D1*
X7998Y9577D2*
X8176D1*
X8543D2*
X9520D1*
X10047D2*
X10489D1*
X7994Y9517D2*
X8236D1*
X8602D2*
X9431D1*
X10060D2*
X10548D1*
X7974Y9457D2*
X8296D1*
X8663D2*
X8807D1*
X9068D2*
X9371D1*
X10057D2*
X10556D1*
X7943Y9397D2*
X8357D1*
X9135D2*
X9311D1*
X10038D2*
X10556D1*
X7943Y9337D2*
X8416D1*
X9169D2*
X9251D1*
X9997D2*
X10556D1*
X7208Y9277D2*
X7273D1*
X7943D2*
X8477D1*
X9944D2*
X10556D1*
X7208Y9217D2*
X7474D1*
X7943D2*
X8537D1*
X9979D2*
X10556D1*
X7208Y9157D2*
X7493D1*
X7943D2*
X8597D1*
X9996D2*
X10017D1*
X10233D2*
X10556D1*
X7208Y9097D2*
X7493D1*
X7943D2*
X8743D1*
X10313D2*
X10556D1*
X7208Y9036D2*
X7493D1*
X7943D2*
X8816D1*
X10352D2*
X10556D1*
X7208Y8976D2*
X7493D1*
X7943D2*
X9061D1*
X10370D2*
X10556D1*
X5756Y8916D2*
X7493D1*
X7943D2*
X9061D1*
X10372D2*
X10556D1*
X7208Y8856D2*
X7493D1*
X7943D2*
X8524D1*
X10359D2*
X10556D1*
X7208Y8796D2*
X7493D1*
X7943D2*
X8476D1*
X10328D2*
X10556D1*
X7208Y8736D2*
X7493D1*
X7943D2*
X8462D1*
X10265D2*
X10556D1*
X7208Y8676D2*
X7493D1*
X7943D2*
X8462D1*
X10160D2*
X10556D1*
X7208Y8616D2*
X7493D1*
X7943D2*
X8462D1*
X10160D2*
X10556D1*
X7208Y8556D2*
X7493D1*
X7943D2*
X8462D1*
X10160D2*
X10556D1*
X7208Y8495D2*
X7493D1*
X7943D2*
X8186D1*
X10435D2*
X10556D1*
X7208Y8435D2*
X7493D1*
X7943D2*
X8104D1*
X10517D2*
X10556D1*
X7208Y8375D2*
X7493D1*
X7943D2*
X8080D1*
X8688D2*
X8752D1*
X8885D2*
X8949D1*
X9082D2*
X9145D1*
X9279D2*
X9342D1*
X9475D2*
X9539D1*
X9673D2*
X9736D1*
X9870D2*
X9932D1*
X7208Y8315D2*
X7493D1*
X7943D2*
X8082D1*
X8610D2*
X10011D1*
X7208Y8255D2*
X7493D1*
X7943D2*
X8110D1*
X8582D2*
X10039D1*
X6963Y8195D2*
X7493D1*
X7987D2*
X8084D1*
X8608D2*
X10013D1*
X6963Y8135D2*
X7504D1*
X8047D2*
X8079D1*
X8613D2*
X10008D1*
X4460Y8075D2*
X4535D1*
X6963D2*
X7553D1*
X8593D2*
X10028D1*
X4460Y8015D2*
X4535D1*
X6963D2*
X7614D1*
X8602D2*
X10019D1*
X4460Y7955D2*
X4535D1*
X6963D2*
X7673D1*
X8614D2*
X10007D1*
X4460Y7894D2*
X4535D1*
X6963D2*
X7734D1*
X8601D2*
X10020D1*
X4460Y7834D2*
X4535D1*
X6952D2*
X7794D1*
X8593D2*
X10027D1*
X4460Y7774D2*
X4535D1*
X6941D2*
X7252D1*
X7498D2*
X7854D1*
X8613D2*
X10008D1*
X4460Y7714D2*
X4535D1*
X5441D2*
X6411D1*
X6937D2*
X7180D1*
X7569D2*
X7914D1*
X8607D2*
X10014D1*
X4460Y7654D2*
X4535D1*
X5411D2*
X6441D1*
X6907D2*
X7145D1*
X7605D2*
X7975D1*
X8583D2*
X10038D1*
X4460Y7594D2*
X4539D1*
X5441D2*
X6410D1*
X6937D2*
X7128D1*
X7620D2*
X7804D1*
X8611D2*
X10011D1*
X10540D2*
X10713D1*
X4460Y7534D2*
X4568D1*
X5444D2*
X6408D1*
X6940D2*
X6959D1*
X7621D2*
X7746D1*
X8612D2*
X10010D1*
X10541D2*
X10713D1*
X4460Y7474D2*
X4626D1*
X5422D2*
X6431D1*
X7606D2*
X7718D1*
X8586D2*
X10035D1*
X10516D2*
X10713D1*
X4460Y7414D2*
X4658D1*
X5436D2*
X6416D1*
X7571D2*
X7706D1*
X8606D2*
X10015D1*
X10535D2*
X10713D1*
X4460Y7353D2*
X4568D1*
X5446D2*
X6407D1*
X7525D2*
X7710D1*
X8614D2*
X10007D1*
X10543D2*
X10713D1*
X4460Y7293D2*
X4526D1*
X5431D2*
X6421D1*
X7525D2*
X7730D1*
X8596D2*
X10024D1*
X10525D2*
X10713D1*
X4460Y7233D2*
X4506D1*
X5429D2*
X6423D1*
X7525D2*
X7771D1*
X8599D2*
X10022D1*
X10528D2*
X10713D1*
X4460Y7173D2*
X4502D1*
X5446D2*
X6407D1*
X7525D2*
X7801D1*
X8614D2*
X10007D1*
X10543D2*
X10713D1*
X4460Y7113D2*
X4513D1*
X5438D2*
X6414D1*
X7525D2*
X7741D1*
X8604D2*
X10017D1*
X10533D2*
X10713D1*
X4460Y7053D2*
X4542D1*
X5419D2*
X6434D1*
X7506D2*
X7685D1*
X8591D2*
X10031D1*
X10519D2*
X10713D1*
X4460Y6993D2*
X4599D1*
X5444D2*
X6409D1*
X7453D2*
X7665D1*
X8613D2*
X10009D1*
X10542D2*
X10713D1*
X4460Y6933D2*
X4762D1*
X5442D2*
X6410D1*
X7394D2*
X7665D1*
X8609D2*
X8729D1*
X8907D2*
X8926D1*
X9104D2*
X9123D1*
X9892D2*
X10012D1*
X10538D2*
X10713D1*
X4460Y6873D2*
X4702D1*
X5414D2*
X6438D1*
X7529D2*
X7665D1*
X8578D2*
X8675D1*
X9946D2*
X10043D1*
X10507D2*
X10713D1*
X5440Y6813D2*
X6412D1*
X7607D2*
X7665D1*
X8399D2*
X8659D1*
X9962D2*
X10713D1*
X5521Y6752D2*
X5544D1*
X5717D2*
X5741D1*
X5914D2*
X5938D1*
X6111D2*
X6136D1*
X6308D2*
X6332D1*
X8373D2*
X8659D1*
X9962D2*
X10713D1*
X8366Y6692D2*
X8659D1*
X9962D2*
X10713D1*
X8342Y6632D2*
X8659D1*
X9962D2*
X10713D1*
X8494Y6572D2*
X8660D1*
X9962D2*
X10713D1*
X8571Y6512D2*
X8678D1*
X9943D2*
X10713D1*
X6705Y6452D2*
X7377D1*
X8630D2*
X8673D1*
X9488D2*
X9527D1*
X9685D2*
X9724D1*
X9881D2*
X10713D1*
X6765Y6392D2*
X7436D1*
X9451D2*
X10713D1*
X6825Y6332D2*
X7497D1*
X9483D2*
X10713D1*
X5909Y6272D2*
X5942D1*
X6107D2*
X6140D1*
X6885D2*
X7557D1*
X9497D2*
X10713D1*
X5906Y6211D2*
X6354D1*
X7086D2*
X7617D1*
X9495D2*
X10713D1*
X5906Y6151D2*
X6412D1*
X7086D2*
X7677D1*
X9477D2*
X10713D1*
X5906Y6091D2*
X6412D1*
X7086D2*
X7737D1*
X9439D2*
X10713D1*
X4161Y6031D2*
X4292D1*
X4582D2*
X4666D1*
X5906D2*
X6412D1*
X7086D2*
X7797D1*
X9531D2*
X10713D1*
X4161Y5971D2*
X4726D1*
X5906D2*
X6412D1*
X7086D2*
X7858D1*
X9531D2*
X10713D1*
X4161Y5911D2*
X4786D1*
X5906D2*
X6412D1*
X7086D2*
X7164D1*
X9531D2*
X9684D1*
X10515D2*
X10713D1*
X4161Y5851D2*
X4317D1*
X4556D2*
X4804D1*
X5906D2*
X6412D1*
X7086D2*
X7164D1*
X9531D2*
X9684D1*
X10515D2*
X10713D1*
X4161Y5791D2*
X4188D1*
X4686D2*
X4804D1*
X5906D2*
X6412D1*
X7086D2*
X7164D1*
X9531D2*
X9684D1*
X10515D2*
X10713D1*
X4756Y5731D2*
X4804D1*
X5906D2*
X6412D1*
X7086D2*
X7164D1*
X9531D2*
X9684D1*
X10515D2*
X10713D1*
X5906Y5671D2*
X6412D1*
X7086D2*
X7164D1*
X9531D2*
X9684D1*
X10515D2*
X10713D1*
X5906Y5610D2*
X6412D1*
X7086D2*
X7164D1*
X9531D2*
X9684D1*
X10515D2*
X10713D1*
X5906Y5550D2*
X6412D1*
X7086D2*
X7164D1*
X9531D2*
X9684D1*
X10515D2*
X10713D1*
X5906Y5490D2*
X6412D1*
X7086D2*
X7164D1*
X9531D2*
X9684D1*
X10515D2*
X10713D1*
X5906Y5430D2*
X6412D1*
X7086D2*
X7164D1*
X7996D2*
X8036D1*
X9531D2*
X9684D1*
X10515D2*
X10713D1*
X5320Y5370D2*
X7164D1*
X7996D2*
X8148D1*
X9531D2*
X9684D1*
X10515D2*
X10713D1*
X5320Y5310D2*
X7164D1*
X7996D2*
X9684D1*
X10515D2*
X10713D1*
X5320Y5250D2*
X7164D1*
X7996D2*
X9684D1*
X10515D2*
X10713D1*
X5320Y5190D2*
X10713D1*
X4742Y5130D2*
X4804D1*
X5320D2*
X10713D1*
X4161Y5069D2*
X4209D1*
X4665D2*
X4804D1*
X5320D2*
X10713D1*
X4161Y5009D2*
X4395D1*
X4479D2*
X4804D1*
X5320D2*
X10713D1*
X4161Y4949D2*
X4804D1*
X5320D2*
X6810D1*
X7917D2*
X9763D1*
X4161Y4889D2*
X4779D1*
X5320D2*
X6810D1*
X7917D2*
X9763D1*
X5320Y4829D2*
X6810D1*
X7917D2*
X9763D1*
X5316Y4769D2*
X6810D1*
X7917D2*
X9763D1*
X5299Y4709D2*
X6810D1*
X7917D2*
X9763D1*
X5262Y4649D2*
X6810D1*
X7917D2*
X9763D1*
X5203Y4589D2*
X6810D1*
X7917D2*
X9763D1*
X5143Y4529D2*
X6810D1*
X7917D2*
X9763D1*
X5083Y4468D2*
X6810D1*
X7917D2*
X9763D1*
X5023Y4408D2*
X6810D1*
X7917D2*
X9763D1*
X4962Y4348D2*
X6810D1*
X7917D2*
X9763D1*
X4903Y4288D2*
X6810D1*
X7917D2*
X9763D1*
X4872Y4228D2*
X10713D1*
X4872Y4168D2*
X10713D1*
X7930Y10827D2*
X8600D1*
Y10047D1*
X8566D1*
X8739Y9875D1*
X10500D1*
X10530Y9871D1*
X10558Y9860D1*
X10588Y9838D1*
X10719Y9707D1*
Y15509D1*
X10649Y15508D1*
X9883D1*
Y16366D1*
X10718D1*
X10719Y16800D1*
X10702Y16758D1*
X10679Y16715D1*
X10652Y16674D1*
X10619Y16637D1*
X10583Y16604D1*
X10543Y16575D1*
X10501Y16551D1*
X10455Y16532D1*
X10408Y16519D1*
X10360Y16510D1*
X10311Y16508D1*
X10262Y16511D1*
X10213Y16519D1*
X10166Y16533D1*
X10121Y16553D1*
X10078Y16577D1*
X10039Y16606D1*
X10003Y16639D1*
X9971Y16677D1*
X9943Y16717D1*
X9921Y16761D1*
X9903Y16807D1*
X9891Y16854D1*
X9884Y16903D1*
X9883Y16952D1*
X9888Y17001D1*
X9898Y17049D1*
X9913Y17096D1*
X9934Y17140D1*
X9960Y17182D1*
X9990Y17221D1*
X10024Y17256D1*
X10063Y17286D1*
X10104Y17313D1*
X10148Y17334D1*
X10195Y17350D1*
X10243Y17361D1*
X10292Y17366D1*
X10341Y17365D1*
X10389Y17359D1*
X10437Y17348D1*
X10483Y17331D1*
X10527Y17309D1*
X10568Y17282D1*
X10606Y17250D1*
X10640Y17214D1*
X10669Y17175D1*
X10694Y17133D1*
X10714Y17088D1*
X10719Y17074D1*
Y23281D1*
X4155D1*
Y22192D1*
X4160Y22217D1*
X4174Y22244D1*
X4196Y22265D1*
X4224Y22278D1*
X4250Y22282D1*
X10562D1*
X10592Y22277D1*
X10619Y22262D1*
X10640Y22240D1*
X10653Y22212D1*
X10657Y22187D1*
Y20187D1*
X10652Y20157D1*
X10637Y20130D1*
X10615Y20109D1*
X10587Y20096D1*
X10562Y20092D1*
X10475D1*
X10469Y20089D1*
X10470Y19990D1*
Y19511D1*
X10235D1*
X10025Y19300D1*
X10042Y19264D1*
X10050Y19235D1*
X10054Y19187D1*
X10052Y19156D1*
X10046Y19126D1*
X10037Y19097D1*
X10024Y19069D1*
X10007Y19044D1*
X9987Y19020D1*
X9965Y18999D1*
X9940Y18981D1*
X9913Y18967D1*
X9884Y18956D1*
X9854Y18949D1*
X9824Y18945D1*
X9793Y18946D1*
X9763Y18950D1*
X9733Y18958D1*
X9705Y18970D1*
X9678Y18985D1*
X9654Y19004D1*
X9632Y19025D1*
X9613Y19049D1*
X9597Y19075D1*
X9585Y19103D1*
X9576Y19133D1*
X9571Y19163D1*
X9570Y19194D1*
X9573Y19224D1*
X9579Y19254D1*
X9590Y19283D1*
X9607Y19316D1*
Y19376D1*
X9609Y19407D1*
X9616Y19437D1*
X9628Y19466D1*
X9650Y19501D1*
X9630Y19511D1*
X9277D1*
Y19587D1*
X9229Y19574D1*
X9199Y19570D1*
X9168Y19571D1*
X9138Y19575D1*
X9108Y19583D1*
X9080Y19595D1*
X9053Y19610D1*
X9029Y19629D1*
X9007Y19650D1*
X8988Y19674D1*
X8972Y19700D1*
X8960Y19728D1*
X8951Y19758D1*
X8946Y19788D1*
X8945Y19819D1*
X8948Y19849D1*
X8954Y19879D1*
X8965Y19908D1*
X8979Y19936D1*
X8996Y19961D1*
X9016Y19984D1*
X9039Y20004D1*
X9065Y20021D1*
X9092Y20035D1*
X9121Y20045D1*
X9151Y20052D1*
X9182Y20054D1*
X9212Y20053D1*
X9243Y20048D1*
X9276Y20037D1*
X9277Y20093D1*
X9149Y20092D1*
X8907D1*
X8908Y19990D1*
Y19511D1*
X8672D1*
X8642Y19479D1*
Y19440D1*
X8655Y19418D1*
X8667Y19389D1*
X8675Y19360D1*
X8679Y19312D1*
X8677Y19281D1*
X8671Y19251D1*
X8662Y19222D1*
X8643Y19185D1*
X8655Y19184D1*
X8684Y19173D1*
X8713Y19151D1*
X9129Y18735D1*
X9182Y18742D1*
X9212Y18740D1*
X9243Y18735D1*
X9272Y18726D1*
X9300Y18714D1*
X9326Y18698D1*
X9350Y18679D1*
X9372Y18656D1*
X9390Y18632D1*
X9405Y18605D1*
X9417Y18577D1*
X9425Y18547D1*
X9429Y18500D1*
X9427Y18469D1*
X9421Y18439D1*
X9412Y18410D1*
X9399Y18382D1*
X9382Y18356D1*
X9362Y18333D1*
X9340Y18312D1*
X9315Y18294D1*
X9288Y18279D1*
X9259Y18268D1*
X9229Y18261D1*
X9199Y18258D1*
X9168D1*
X9138Y18262D1*
X9108Y18270D1*
X9080Y18282D1*
X9053Y18298D1*
X9029Y18316D1*
X9007Y18337D1*
X8988Y18362D1*
X8972Y18388D1*
X8960Y18416D1*
X8951Y18445D1*
X8946Y18476D1*
X8945Y18506D1*
X8948Y18537D1*
X8952Y18556D1*
X8708Y18802D1*
X8573Y18937D1*
X8250D1*
X8219Y18940D1*
X8191Y18951D1*
X8161Y18973D1*
X7911Y19223D1*
X7892Y19248D1*
X7880Y19276D1*
X7874Y19312D1*
Y19511D1*
X7714D1*
Y20093D1*
X7583Y20092D1*
X7344D1*
X7345Y19929D1*
Y19511D1*
X7110D1*
X6955Y19354D1*
X6954Y19315D1*
X6967Y19293D1*
X6979Y19264D1*
X6987Y19235D1*
X6992Y19187D1*
X6990Y19156D1*
X6984Y19126D1*
X6974Y19097D1*
X6961Y19069D1*
X6945Y19044D1*
X6925Y19020D1*
X6902Y18999D1*
X6877Y18981D1*
X6850Y18967D1*
X6822Y18956D1*
X6792Y18949D1*
X6761Y18945D1*
X6731Y18946D1*
X6700Y18950D1*
X6671Y18958D1*
X6642Y18970D1*
X6616Y18985D1*
X6591Y19004D1*
X6569Y19025D1*
X6550Y19049D1*
X6535Y19075D1*
X6522Y19103D1*
X6513Y19133D1*
X6508Y19163D1*
X6507Y19194D1*
X6510Y19224D1*
X6517Y19254D1*
X6527Y19283D1*
X6545Y19316D1*
Y19439D1*
X6547Y19470D1*
X6557Y19509D1*
X6505Y19511D1*
X6152D1*
Y19587D1*
X6104Y19574D1*
X6074Y19570D1*
X6043Y19571D1*
X6013Y19575D1*
X5983Y19583D1*
X5955Y19595D1*
X5928Y19610D1*
X5904Y19629D1*
X5882Y19650D1*
X5863Y19674D1*
X5847Y19700D1*
X5835Y19728D1*
X5826Y19758D1*
X5821Y19788D1*
X5820Y19819D1*
X5823Y19849D1*
X5829Y19879D1*
X5840Y19908D1*
X5854Y19936D1*
X5871Y19961D1*
X5891Y19984D1*
X5914Y20004D1*
X5940Y20021D1*
X5967Y20035D1*
X5996Y20045D1*
X6026Y20052D1*
X6057Y20054D1*
X6087Y20053D1*
X6118Y20048D1*
X6151Y20037D1*
X6152Y20093D1*
X5986Y20092D1*
X5782D1*
X5783Y19714D1*
Y19511D1*
X5547D1*
X5454Y19417D1*
Y19316D1*
X5467Y19293D1*
X5479Y19264D1*
X5487Y19235D1*
X5492Y19187D1*
X5490Y19156D1*
X5484Y19126D1*
X5474Y19097D1*
X5461Y19069D1*
X5445Y19044D1*
X5425Y19020D1*
X5402Y18999D1*
X5377Y18981D1*
X5350Y18967D1*
X5322Y18956D1*
X5292Y18949D1*
X5261Y18945D1*
X5231Y18946D1*
X5200Y18950D1*
X5171Y18958D1*
X5142Y18970D1*
X5116Y18985D1*
X5091Y19004D1*
X5069Y19025D1*
X5050Y19049D1*
X5035Y19075D1*
X5022Y19103D1*
X5013Y19133D1*
X5008Y19163D1*
X5007Y19194D1*
X5010Y19224D1*
X5017Y19254D1*
X5027Y19283D1*
X5045Y19316D1*
Y19501D1*
X5047Y19532D1*
X5054Y19562D1*
X5065Y19591D1*
X5080Y19617D1*
X5105Y19646D1*
X5338Y19879D1*
Y20093D1*
X5096Y20092D1*
X5033D1*
X5035Y20021D1*
Y19511D1*
X4874D1*
X4875Y19075D1*
Y18581D1*
X4889Y18573D1*
X4913Y18554D1*
X4934Y18531D1*
X4952Y18507D1*
X4967Y18480D1*
X4979Y18452D1*
X4987Y18422D1*
X4992Y18375D1*
X4990Y18344D1*
X4984Y18314D1*
X4974Y18285D1*
X4961Y18257D1*
X4945Y18231D1*
X4925Y18208D1*
X4902Y18187D1*
X4877Y18169D1*
X4850Y18154D1*
X4822Y18143D1*
X4792Y18136D1*
X4761Y18133D1*
X4731D1*
X4700Y18137D1*
X4671Y18145D1*
X4642Y18157D1*
X4616Y18173D1*
X4591Y18191D1*
X4569Y18212D1*
X4550Y18237D1*
X4535Y18263D1*
X4522Y18291D1*
X4513Y18320D1*
X4508Y18351D1*
X4507Y18381D1*
X4510Y18412D1*
X4517Y18442D1*
X4527Y18471D1*
X4541Y18498D1*
X4558Y18523D1*
X4579Y18546D1*
X4602Y18567D1*
X4625Y18582D1*
X4624Y18743D1*
Y19512D1*
X4589Y19511D1*
Y20093D1*
X4454Y20092D1*
Y19281D1*
Y16007D1*
X4598Y16151D1*
X4623Y16169D1*
X4651Y16182D1*
X4687Y16187D1*
X5323D1*
X5584Y16448D1*
Y16888D1*
Y17557D1*
X5538Y17529D1*
X5509Y17518D1*
X5479Y17511D1*
X5449Y17508D1*
X5418D1*
X5388Y17512D1*
X5358Y17520D1*
X5330Y17532D1*
X5303Y17548D1*
X5279Y17566D1*
X5257Y17587D1*
X5238Y17612D1*
X5222Y17638D1*
X5210Y17666D1*
X5201Y17695D1*
X5196Y17726D1*
X5195Y17756D1*
X5198Y17787D1*
X5204Y17817D1*
X5215Y17846D1*
X5229Y17873D1*
X5246Y17898D1*
X5266Y17921D1*
X5289Y17942D1*
X5315Y17959D1*
X5342Y17972D1*
X5367Y17981D1*
X5881Y18496D1*
X5880Y18768D1*
Y18935D1*
X6369D1*
Y17939D1*
X5880D1*
Y18141D1*
X5633Y17893D1*
X5655Y17855D1*
X5662Y17838D1*
X5723Y17901D1*
X5748Y17919D1*
X5776Y17932D1*
X5812Y17937D1*
X6448D1*
X6408Y17939D1*
X6380D1*
Y18935D1*
X6869D1*
Y17939D1*
X6749D1*
X6746Y17907D1*
X6735Y17878D1*
X6713Y17848D1*
X6588Y17723D1*
X6564Y17705D1*
X6536Y17692D1*
X6500Y17687D1*
X5863D1*
X5835Y17658D1*
Y16397D1*
X5831Y16367D1*
X5820Y16338D1*
X5798Y16309D1*
X5463Y15973D1*
X5439Y15955D1*
X5411Y15942D1*
X5375Y15937D1*
X4738D1*
X4639Y15837D1*
X5446D1*
X5496Y15858D1*
X5526Y15864D1*
X5557Y15867D1*
X5587Y15865D1*
X5618Y15860D1*
X5647Y15851D1*
X5675Y15839D1*
X5701Y15823D1*
X5735Y15793D1*
X5852Y15909D1*
X6485Y16542D1*
X6380Y16541D1*
Y17537D1*
X6869D1*
Y16698D1*
X6881Y16711D1*
X6880Y16910D1*
Y17537D1*
X7250D1*
X7249Y17636D1*
X7036Y17848D1*
X7017Y17873D1*
X7005Y17901D1*
X6999Y17940D1*
X6880Y17939D1*
Y18935D1*
X7369D1*
Y17939D1*
X7300D1*
X7463Y17776D1*
X7482Y17751D1*
X7494Y17723D1*
X7500Y17687D1*
Y17538D1*
X7626Y17537D1*
X7869D1*
Y16732D1*
X7880Y16745D1*
Y17537D1*
X8221Y17539D1*
X8135Y17625D1*
X7812Y17624D1*
X7782Y17628D1*
X7753Y17639D1*
X7723Y17661D1*
X7536Y17848D1*
X7517Y17873D1*
X7505Y17901D1*
X7499Y17940D1*
X7380Y17939D1*
Y18935D1*
X7869D1*
Y17939D1*
X7800D1*
X7864Y17874D1*
X8187Y17875D1*
X8217Y17871D1*
X8246Y17860D1*
X8276Y17838D1*
X8463Y17651D1*
X8482Y17626D1*
X8494Y17598D1*
X8500Y17562D1*
X8501Y17136D1*
X8528Y17150D1*
X8557Y17160D1*
X8587Y17166D1*
X8618Y17169D1*
X8648Y17168D1*
X8679Y17162D1*
X8708Y17153D1*
X8736Y17141D1*
X8762Y17125D1*
X8786Y17106D1*
X8808Y17084D1*
X8826Y17059D1*
X8841Y17032D1*
X8853Y17004D1*
X8861Y16974D1*
X8865Y16927D1*
X8863Y16896D1*
X8858Y16866D1*
X8848Y16837D1*
X8835Y16809D1*
X8818Y16783D1*
X8798Y16760D1*
X8766Y16732D1*
X8807Y16723D1*
X8873Y16789D1*
X8935Y16852D1*
X8956Y16869D1*
X8984Y16884D1*
X9016Y16921D1*
X9039Y16942D1*
X9065Y16959D1*
X9092Y16972D1*
X9121Y16983D1*
X9151Y16989D1*
X9182Y16992D1*
X9210Y16991D1*
X9192Y17026D1*
X9187Y17062D1*
Y17449D1*
X9093Y17541D1*
X8369Y18265D1*
Y17939D1*
X7880D1*
Y18935D1*
X8369D1*
X8370Y18562D1*
X8405Y18559D1*
X8434Y18548D1*
X8463Y18526D1*
X9401Y17588D1*
X9419Y17564D1*
X9432Y17536D1*
X9437Y17500D1*
Y17395D1*
X9467Y17410D1*
X9496Y17420D1*
X9526Y17427D1*
X9557Y17429D1*
X9587Y17428D1*
X9618Y17423D1*
X9647Y17414D1*
X9675Y17401D1*
X9701Y17385D1*
X9725Y17366D1*
X9747Y17344D1*
X9765Y17319D1*
X9780Y17293D1*
X9792Y17264D1*
X9800Y17235D1*
X9804Y17187D1*
X9802Y17156D1*
X9796Y17126D1*
X9787Y17097D1*
X9774Y17069D1*
X9757Y17044D1*
X9737Y17020D1*
X9715Y16999D1*
X9687Y16980D1*
Y16312D1*
X9684Y16282D1*
X9673Y16253D1*
X9651Y16223D1*
X9463Y16036D1*
X9439Y16017D1*
X9411Y16005D1*
X9370Y15999D1*
X9376Y15990D1*
X9388Y15962D1*
X9394Y15918D1*
X9391Y15888D1*
X9382Y15859D1*
X9367Y15832D1*
X9358Y15821D1*
X9376Y15793D1*
X9388Y15765D1*
X9394Y15721D1*
X9391Y15691D1*
X9382Y15662D1*
X9375Y15649D1*
X9470Y15650D1*
X9511D1*
X9559Y15669D1*
X9589Y15676D1*
X9620Y15678D1*
X9650Y15677D1*
X9681Y15672D1*
X9710Y15663D1*
X9738Y15650D1*
X9764Y15634D1*
X9788Y15615D1*
X9809Y15593D1*
X9828Y15568D1*
X9843Y15542D1*
X9854Y15513D1*
X9862Y15484D1*
X9867Y15436D1*
X9865Y15405D1*
X9859Y15375D1*
X9850Y15346D1*
X9837Y15318D1*
X9820Y15293D1*
X9800Y15269D1*
X9778Y15248D1*
X9752Y15230D1*
X10014D1*
Y13269D1*
X9750D1*
Y13187D1*
X9746Y13157D1*
X9735Y13128D1*
X9713Y13098D1*
X8959Y12342D1*
X9419Y11883D1*
X10014D1*
Y9923D1*
X9235D1*
Y11712D1*
X8823Y12124D1*
X7883D1*
X7920Y12087D1*
X7949Y12090D1*
X7979Y12089D1*
X8009Y12084D1*
X8039Y12075D1*
X8067Y12062D1*
X8093Y12046D1*
X8117Y12027D1*
X8138Y12005D1*
X8157Y11980D1*
X8172Y11954D1*
X8183Y11925D1*
X8191Y11896D1*
X8196Y11848D1*
X8194Y11817D1*
X8188Y11787D1*
X8179Y11758D1*
X8165Y11730D1*
X8149Y11704D1*
X8129Y11681D1*
X8107Y11660D1*
X8082Y11642D1*
X8055Y11628D1*
X8026Y11617D1*
X7996Y11609D1*
X7966Y11606D1*
X7919Y11609D1*
X7861Y11550D1*
X7837Y11531D1*
X7810Y11517D1*
X7784Y11510D1*
X7721Y11508D1*
X7722Y11444D1*
Y11185D1*
X7928Y11186D1*
X7948D1*
X8099Y11337D1*
X8123Y11356D1*
X8151Y11368D1*
X8187Y11373D1*
X8230D1*
X8246Y11397D1*
X8266Y11420D1*
X8290Y11440D1*
X8315Y11457D1*
X8342Y11471D1*
X8371Y11481D1*
X8401Y11488D1*
X8432Y11490D1*
X8463Y11489D1*
X8493Y11484D1*
X8522Y11475D1*
X8550Y11462D1*
X8576Y11446D1*
X8600Y11427D1*
X8622Y11405D1*
X8640Y11381D1*
X8655Y11354D1*
X8667Y11325D1*
X8675Y11296D1*
X8679Y11248D1*
X8677Y11218D1*
X8672Y11187D1*
X8662Y11158D1*
X8649Y11131D1*
X8632Y11105D1*
X8613Y11081D1*
X8590Y11060D1*
X8565Y11042D1*
X8538Y11028D1*
X8509Y11017D1*
X8480Y11010D1*
X8449Y11006D1*
X8418Y11007D1*
X8388Y11011D1*
X8358Y11019D1*
X8330Y11031D1*
X8304Y11046D1*
X8279Y11065D1*
X8257Y11086D1*
X8234Y11118D1*
X8088Y10972D1*
X8064Y10953D1*
X8036Y10941D1*
X8000Y10935D1*
X7722D1*
Y10908D1*
X7206D1*
X7289Y10827D1*
X7852D1*
Y10047D1*
X7151D1*
Y10184D1*
X7127Y10167D1*
X7100Y10153D1*
X7072Y10142D1*
X7042Y10135D1*
X7011Y10131D1*
X6981Y10132D1*
X6950Y10136D1*
X6921Y10144D1*
X6895Y10155D1*
Y10082D1*
X6783D1*
X6864Y9999D1*
X7641Y10000D1*
X8062D1*
X8092Y9996D1*
X8121Y9985D1*
X8151Y9963D1*
X8733Y9380D1*
X8746Y9398D1*
X8766Y9421D1*
X8789Y9442D1*
X8815Y9459D1*
X8842Y9472D1*
X8871Y9483D1*
X8901Y9489D1*
X8932Y9492D1*
X8962Y9490D1*
X8993Y9485D1*
X9022Y9476D1*
X9050Y9464D1*
X9076Y9448D1*
X9100Y9429D1*
X9122Y9406D1*
X9140Y9382D1*
X9155Y9355D1*
X9167Y9327D1*
X9175Y9297D1*
X9179Y9259D1*
X9459Y9540D1*
X9483Y9559D1*
X9511Y9573D1*
X9537Y9580D1*
X9584Y9582D1*
X9604Y9624D1*
X8687D1*
X8657Y9628D1*
X8628Y9639D1*
X8598Y9661D1*
X8212Y10047D1*
X7899D1*
Y10827D1*
X7930D1*
X6429Y9662D2*
X7195D1*
X7227Y9692D1*
X7252Y9709D1*
X7280Y9722D1*
X7309Y9733D1*
X7339Y9739D1*
X7369Y9742D1*
X7400Y9740D1*
X7430Y9735D1*
X7460Y9726D1*
X7488Y9714D1*
X7514Y9698D1*
X7537Y9679D1*
X7558Y9711D1*
X7579Y9734D1*
X7597Y9750D1*
X6812Y9749D1*
X6782Y9753D1*
X6753Y9764D1*
X6723Y9786D1*
X6530Y9979D1*
X6542Y9952D1*
X6550Y9922D1*
X6554Y9875D1*
X6552Y9844D1*
X6546Y9814D1*
X6537Y9785D1*
X6524Y9757D1*
X6507Y9731D1*
X6487Y9708D1*
X6465Y9687D1*
X6427Y9662D1*
X5886Y17537D2*
X6369D1*
Y16541D1*
X5880D1*
Y17537D1*
X5886D1*
X9014Y23241D2*
X9866D1*
Y22383D1*
X9008D1*
Y23241D1*
X9014D1*
X8865Y22781D2*
X8856Y22721D1*
X8839Y22662D1*
X8814Y22606D1*
X8780Y22554D1*
X8740Y22508D1*
X8694Y22468D1*
X8642Y22435D1*
X8586Y22409D1*
X8527Y22392D1*
X8466Y22384D1*
X8405D1*
X8344Y22393D1*
X8285Y22410D1*
X8230Y22436D1*
X8178Y22470D1*
X8132Y22510D1*
X8092Y22557D1*
X8059Y22608D1*
X8034Y22664D1*
X8017Y22723D1*
X8009Y22784D1*
Y22845D1*
X8018Y22906D1*
X8036Y22965D1*
X8062Y23020D1*
X8095Y23072D1*
X8136Y23118D1*
X8183Y23158D1*
X8235Y23190D1*
X8291Y23215D1*
X8350Y23232D1*
X8410Y23240D1*
X8472D1*
X8532Y23230D1*
X8591Y23213D1*
X8647Y23187D1*
X8698Y23153D1*
X8744Y23112D1*
X8784Y23065D1*
X8816Y23013D1*
X8841Y22957D1*
X8858Y22898D1*
X8865Y22837D1*
Y22781D1*
X7865D2*
X7856Y22721D1*
X7839Y22662D1*
X7814Y22606D1*
X7780Y22554D1*
X7740Y22508D1*
X7694Y22468D1*
X7642Y22435D1*
X7586Y22409D1*
X7527Y22392D1*
X7466Y22384D1*
X7405D1*
X7344Y22393D1*
X7285Y22410D1*
X7230Y22436D1*
X7178Y22470D1*
X7132Y22510D1*
X7092Y22557D1*
X7059Y22608D1*
X7034Y22664D1*
X7017Y22723D1*
X7009Y22784D1*
Y22845D1*
X7018Y22906D1*
X7036Y22965D1*
X7062Y23020D1*
X7095Y23072D1*
X7136Y23118D1*
X7183Y23158D1*
X7235Y23190D1*
X7291Y23215D1*
X7350Y23232D1*
X7410Y23240D1*
X7472D1*
X7532Y23230D1*
X7591Y23213D1*
X7647Y23187D1*
X7698Y23153D1*
X7744Y23112D1*
X7784Y23065D1*
X7816Y23013D1*
X7841Y22957D1*
X7858Y22898D1*
X7865Y22837D1*
Y22781D1*
X6865D2*
X6856Y22721D1*
X6839Y22662D1*
X6814Y22606D1*
X6780Y22554D1*
X6740Y22508D1*
X6694Y22468D1*
X6642Y22435D1*
X6586Y22409D1*
X6527Y22392D1*
X6466Y22384D1*
X6405D1*
X6344Y22393D1*
X6285Y22410D1*
X6230Y22436D1*
X6178Y22470D1*
X6132Y22510D1*
X6092Y22557D1*
X6059Y22608D1*
X6034Y22664D1*
X6017Y22723D1*
X6009Y22784D1*
Y22845D1*
X6018Y22906D1*
X6036Y22965D1*
X6062Y23020D1*
X6095Y23072D1*
X6136Y23118D1*
X6183Y23158D1*
X6235Y23190D1*
X6291Y23215D1*
X6350Y23232D1*
X6410Y23240D1*
X6472D1*
X6532Y23230D1*
X6591Y23213D1*
X6647Y23187D1*
X6698Y23153D1*
X6744Y23112D1*
X6784Y23065D1*
X6816Y23013D1*
X6841Y22957D1*
X6858Y22898D1*
X6865Y22837D1*
Y22781D1*
X5865D2*
X5856Y22721D1*
X5839Y22662D1*
X5814Y22606D1*
X5780Y22554D1*
X5740Y22508D1*
X5694Y22468D1*
X5642Y22435D1*
X5586Y22409D1*
X5527Y22392D1*
X5466Y22384D1*
X5405D1*
X5344Y22393D1*
X5285Y22410D1*
X5230Y22436D1*
X5178Y22470D1*
X5132Y22510D1*
X5092Y22557D1*
X5059Y22608D1*
X5034Y22664D1*
X5017Y22723D1*
X5009Y22784D1*
Y22845D1*
X5018Y22906D1*
X5036Y22965D1*
X5062Y23020D1*
X5095Y23072D1*
X5136Y23118D1*
X5183Y23158D1*
X5235Y23190D1*
X5291Y23215D1*
X5350Y23232D1*
X5410Y23240D1*
X5472D1*
X5532Y23230D1*
X5591Y23213D1*
X5647Y23187D1*
X5698Y23153D1*
X5744Y23112D1*
X5784Y23065D1*
X5816Y23013D1*
X5841Y22957D1*
X5858Y22898D1*
X5865Y22837D1*
Y22781D1*
X4155Y4866D2*
X4761D1*
X4810Y4914D1*
Y5224D1*
X4780Y5179D1*
X4749Y5142D1*
X4713Y5108D1*
X4673Y5079D1*
X4631Y5054D1*
X4586Y5034D1*
X4539Y5020D1*
X4491Y5011D1*
X4442Y5008D1*
X4393Y5010D1*
X4344Y5018D1*
X4297Y5031D1*
X4252Y5050D1*
X4209Y5074D1*
X4169Y5102D1*
X4155Y5113D1*
Y4867D1*
X4866Y4259D2*
Y4155D1*
X10719D1*
Y4283D1*
X9769D1*
Y4984D1*
X10719D1*
Y7651D1*
X10667Y7636D1*
X10636Y7633D1*
X10606D1*
X10575Y7637D1*
X10546Y7645D1*
X10505Y7664D1*
X10502Y7659D1*
X10519Y7633D1*
X10531Y7605D1*
X10537Y7562D1*
X10534Y7531D1*
X10525Y7502D1*
X10510Y7475D1*
X10501Y7464D1*
X10519Y7437D1*
X10531Y7408D1*
X10537Y7365D1*
X10534Y7334D1*
X10525Y7305D1*
X10510Y7278D1*
X10501Y7267D1*
X10519Y7240D1*
X10531Y7211D1*
X10537Y7168D1*
X10534Y7137D1*
X10525Y7108D1*
X10510Y7081D1*
X10501Y7070D1*
X10519Y7043D1*
X10531Y7014D1*
X10537Y6971D1*
X10534Y6940D1*
X10525Y6911D1*
X10510Y6884D1*
X10490Y6861D1*
X10466Y6842D1*
X10439Y6828D1*
X10410Y6820D1*
X10383Y6817D1*
X10167Y6818D1*
X10132Y6821D1*
X10103Y6831D1*
X10077Y6847D1*
X10054Y6867D1*
X10035Y6892D1*
X10022Y6919D1*
X10015Y6949D1*
X10013Y6980D1*
X10018Y7010D1*
X10029Y7039D1*
X10050Y7070D1*
X10035Y7088D1*
X10022Y7116D1*
X10015Y7146D1*
X10013Y7176D1*
X10018Y7207D1*
X10029Y7236D1*
X10050Y7266D1*
X10035Y7285D1*
X10022Y7313D1*
X10015Y7343D1*
X10013Y7373D1*
X10018Y7404D1*
X10029Y7432D1*
X10050Y7463D1*
X10035Y7482D1*
X10022Y7510D1*
X10015Y7540D1*
X10013Y7570D1*
X10018Y7600D1*
X10029Y7629D1*
X10050Y7660D1*
X10035Y7679D1*
X10022Y7707D1*
X10015Y7736D1*
X10013Y7767D1*
X10018Y7797D1*
X10029Y7826D1*
X10050Y7857D1*
X10035Y7876D1*
X10022Y7904D1*
X10015Y7933D1*
X10013Y7964D1*
X10018Y7994D1*
X10029Y8023D1*
X10050Y8054D1*
X10035Y8073D1*
X10022Y8100D1*
X10015Y8130D1*
X10013Y8161D1*
X10018Y8191D1*
X10029Y8220D1*
X10050Y8251D1*
X10035Y8270D1*
X10022Y8297D1*
X10015Y8327D1*
X10014Y8364D1*
X9995Y8363D1*
X9965Y8367D1*
X9936Y8376D1*
X9909Y8392D1*
X9901Y8399D1*
X9886Y8387D1*
X9858Y8373D1*
X9829Y8365D1*
X9798Y8363D1*
X9768Y8367D1*
X9739Y8376D1*
X9712Y8392D1*
X9705Y8399D1*
X9689Y8387D1*
X9662Y8373D1*
X9632Y8365D1*
X9601Y8363D1*
X9571Y8367D1*
X9542Y8376D1*
X9516Y8392D1*
X9507Y8398D1*
X9481Y8381D1*
X9453Y8369D1*
X9423Y8363D1*
X9392Y8364D1*
X9362Y8370D1*
X9334Y8382D1*
X9310Y8398D1*
X9295Y8387D1*
X9268Y8373D1*
X9238Y8365D1*
X9208Y8363D1*
X9177Y8367D1*
X9148Y8376D1*
X9122Y8392D1*
X9114Y8399D1*
X9098Y8387D1*
X9071Y8373D1*
X9041Y8365D1*
X9011Y8363D1*
X8981Y8367D1*
X8951Y8376D1*
X8925Y8392D1*
X8917Y8399D1*
X8901Y8387D1*
X8874Y8373D1*
X8845Y8365D1*
X8814Y8363D1*
X8784Y8367D1*
X8755Y8376D1*
X8728Y8392D1*
X8720Y8399D1*
X8705Y8387D1*
X8677Y8373D1*
X8648Y8365D1*
X8617Y8363D1*
X8607Y8364D1*
X8608Y8349D1*
X8605Y8318D1*
X8596Y8289D1*
X8581Y8262D1*
X8572Y8251D1*
X8590Y8224D1*
X8602Y8196D1*
X8608Y8152D1*
X8605Y8122D1*
X8596Y8092D1*
X8581Y8065D1*
X8572Y8054D1*
X8590Y8027D1*
X8602Y7999D1*
X8608Y7955D1*
X8605Y7925D1*
X8596Y7895D1*
X8581Y7869D1*
X8572Y7858D1*
X8590Y7830D1*
X8602Y7802D1*
X8608Y7758D1*
X8605Y7728D1*
X8596Y7699D1*
X8581Y7672D1*
X8572Y7661D1*
X8590Y7633D1*
X8602Y7605D1*
X8608Y7562D1*
X8605Y7531D1*
X8596Y7502D1*
X8581Y7475D1*
X8572Y7464D1*
X8590Y7437D1*
X8602Y7408D1*
X8608Y7365D1*
X8605Y7334D1*
X8596Y7305D1*
X8581Y7278D1*
X8572Y7267D1*
X8590Y7240D1*
X8602Y7211D1*
X8608Y7168D1*
X8605Y7137D1*
X8596Y7108D1*
X8581Y7081D1*
X8572Y7070D1*
X8590Y7043D1*
X8602Y7014D1*
X8608Y6971D1*
X8605Y6940D1*
X8596Y6911D1*
X8581Y6884D1*
X8561Y6861D1*
X8537Y6842D1*
X8510Y6828D1*
X8480Y6820D1*
X8454Y6817D1*
X8398D1*
X8364Y6784D1*
X8367Y6750D1*
X8365Y6719D1*
X8359Y6689D1*
X8349Y6660D1*
X8336Y6632D1*
X8320Y6606D1*
X8296Y6579D1*
X8446Y6580D1*
X8476Y6576D1*
X8505Y6565D1*
X8534Y6543D1*
X8613Y6464D1*
X8638Y6429D1*
X8641Y6421D1*
X8664Y6442D1*
X8690Y6459D1*
X8716Y6472D1*
X8687Y6508D1*
X8674Y6535D1*
X8666Y6565D1*
X8665Y6587D1*
X8666Y6804D1*
X8665Y6812D1*
X8670Y6843D1*
X8680Y6871D1*
X8697Y6897D1*
X8718Y6920D1*
X8743Y6937D1*
X8771Y6950D1*
X8801Y6956D1*
X8831Y6957D1*
X8862Y6951D1*
X8890Y6940D1*
X8916Y6922D1*
X8940Y6937D1*
X8968Y6950D1*
X8998Y6956D1*
X9028Y6957D1*
X9058Y6951D1*
X9087Y6940D1*
X9113Y6922D1*
X9142Y6940D1*
X9170Y6952D1*
X9201Y6957D1*
X9231Y6956D1*
X9261Y6949D1*
X9289Y6937D1*
X9311Y6922D1*
X9333Y6937D1*
X9361Y6950D1*
X9391Y6956D1*
X9422Y6957D1*
X9452Y6951D1*
X9480Y6940D1*
X9507Y6922D1*
X9530Y6937D1*
X9558Y6950D1*
X9588Y6956D1*
X9619Y6957D1*
X9649Y6951D1*
X9677Y6940D1*
X9704Y6922D1*
X9727Y6937D1*
X9755Y6950D1*
X9785Y6956D1*
X9816Y6957D1*
X9846Y6951D1*
X9874Y6940D1*
X9900Y6923D1*
X9921Y6901D1*
X9938Y6876D1*
X9950Y6847D1*
X9956Y6804D1*
X9955Y6587D1*
X9953Y6557D1*
X9944Y6527D1*
X9929Y6500D1*
X9910Y6477D1*
X9886Y6458D1*
X9858Y6444D1*
X9829Y6436D1*
X9798Y6434D1*
X9768Y6437D1*
X9739Y6447D1*
X9712Y6463D1*
X9705Y6470D1*
X9689Y6458D1*
X9662Y6444D1*
X9632Y6436D1*
X9601Y6434D1*
X9571Y6437D1*
X9542Y6447D1*
X9516Y6463D1*
X9508Y6470D1*
X9492Y6458D1*
X9465Y6444D1*
X9435Y6436D1*
X9407Y6434D1*
X9434Y6406D1*
X9452Y6382D1*
X9467Y6355D1*
X9479Y6327D1*
X9487Y6297D1*
X9492Y6250D1*
X9490Y6219D1*
X9484Y6189D1*
X9474Y6160D1*
X9461Y6132D1*
X9445Y6106D1*
X9425Y6083D1*
X9402Y6062D1*
X9381Y6047D1*
X9525D1*
Y5326D1*
X8922Y5327D1*
X8859Y5326D1*
X8666Y5327D1*
X8603Y5326D1*
X8410Y5327D1*
X8348Y5326D1*
X8154D1*
Y5385D1*
X8108Y5395D1*
X8080Y5407D1*
X8053Y5423D1*
X8029Y5441D1*
X8007Y5462D1*
X7989Y5483D1*
Y5228D1*
X7170D1*
Y5968D1*
X7866D1*
X7352Y6483D1*
X6884Y6482D1*
X6667Y6483D1*
X6894Y6257D1*
X6920Y6225D1*
X6941Y6222D1*
X7080D1*
Y5402D1*
X6419D1*
Y6154D1*
X6299Y6273D1*
X6277Y6262D1*
X6248Y6254D1*
X6217Y6251D1*
X6187Y6255D1*
X6158Y6265D1*
X6131Y6281D1*
X6123Y6287D1*
X6097Y6270D1*
X6069Y6258D1*
X6039Y6252D1*
X6008D1*
X5978Y6259D1*
X5950Y6271D1*
X5926Y6287D1*
X5906Y6273D1*
X5878Y6260D1*
X5848Y6253D1*
X5817Y6252D1*
X5787Y6257D1*
X5773Y6261D1*
Y6222D1*
X5899D1*
Y5402D1*
X5313D1*
X5314Y5261D1*
Y4810D1*
X5312Y4779D1*
X5306Y4749D1*
X5297Y4720D1*
X5285Y4692D1*
X5269Y4666D1*
X5240Y4632D1*
X4866Y4258D1*
X4155Y5761D2*
X4198Y5793D1*
X4240Y5818D1*
X4285Y5838D1*
X4332Y5853D1*
X4380Y5862D1*
X4429Y5866D1*
X4478Y5864D1*
X4526Y5857D1*
X4574Y5844D1*
X4619Y5826D1*
X4663Y5802D1*
X4703Y5774D1*
X4740Y5741D1*
X4772Y5705D1*
X4801Y5665D1*
X4810Y5650D1*
Y5893D1*
X4642Y6060D1*
X4586Y6034D1*
X4527Y6017D1*
X4466Y6009D1*
X4405D1*
X4344Y6018D1*
X4285Y6035D1*
X4230Y6061D1*
X4178Y6095D1*
X4155Y6113D1*
Y5761D1*
X4454Y6866D2*
X4502Y6861D1*
X4562Y6848D1*
X4619Y6826D1*
X4647Y6811D1*
X4782Y6947D1*
X4731Y6946D1*
X4700Y6950D1*
X4671Y6958D1*
X4642Y6970D1*
X4616Y6985D1*
X4591Y7004D1*
X4569Y7025D1*
X4550Y7049D1*
X4535Y7075D1*
X4522Y7103D1*
X4513Y7133D1*
X4508Y7163D1*
X4507Y7194D1*
X4510Y7224D1*
X4517Y7254D1*
X4527Y7283D1*
X4541Y7311D1*
X4558Y7336D1*
X4579Y7359D1*
X4602Y7379D1*
X4627Y7396D1*
X4655Y7410D1*
X4687Y7421D1*
X4584Y7522D1*
X4565Y7546D1*
X4551Y7573D1*
X4544Y7599D1*
X4542Y7655D1*
Y8086D1*
X4455Y8087D1*
X4454Y7704D1*
Y6866D1*
X8160Y20093D2*
Y19511D1*
X8124D1*
X8125Y19364D1*
X8196Y19293D1*
X8195Y19319D1*
X8198Y19349D1*
X8204Y19379D1*
X8215Y19408D1*
X8232Y19441D1*
Y19564D1*
X8234Y19595D1*
X8241Y19624D1*
X8253Y19653D1*
X8268Y19680D1*
X8292Y19709D1*
X8463Y19879D1*
Y20093D1*
X8259Y20092D1*
X8160D1*
X6597Y20093D2*
Y19575D1*
X6648Y19627D1*
X6900Y19879D1*
Y20093D1*
X6662Y20092D1*
X6598D1*
X9722Y20093D2*
Y19577D1*
X10025Y19879D1*
Y20093D1*
X9856Y20092D1*
X9722D1*
X6902Y11522D2*
X6903Y11806D1*
X6902Y11819D1*
X6903Y12200D1*
X6902Y12304D1*
X6903Y12397D1*
X6902Y12501D1*
Y12594D1*
X7722D1*
Y12562D1*
X8823D1*
X9499Y13239D1*
Y13269D1*
X9235D1*
Y15230D1*
X9499D1*
X9467Y15253D1*
X9445Y15274D1*
X9426Y15298D1*
X9410Y15324D1*
X9397Y15352D1*
X9386Y15400D1*
X9328Y15399D1*
X9296Y15381D1*
X9266Y15373D1*
X9240Y15371D1*
X9024Y15372D1*
X8989Y15375D1*
X8960Y15385D1*
X8933Y15400D1*
X8911Y15420D1*
X8912Y15259D1*
X8908Y15228D1*
X8899Y15199D1*
X8885Y15172D1*
X8874Y15160D1*
X8875Y14845D1*
Y14125D1*
X8871Y14094D1*
X8860Y14066D1*
X8838Y14036D1*
X8543Y13741D1*
X8587Y13740D1*
X8618Y13735D1*
X8647Y13726D1*
X8675Y13714D1*
X8701Y13698D1*
X8725Y13679D1*
X8747Y13656D1*
X8765Y13632D1*
X8780Y13605D1*
X8792Y13577D1*
X8800Y13547D1*
X8804Y13500D1*
X8802Y13469D1*
X8796Y13439D1*
X8787Y13410D1*
X8774Y13382D1*
X8757Y13356D1*
X8737Y13333D1*
X8715Y13312D1*
X8690Y13294D1*
X8663Y13279D1*
X8634Y13268D1*
X8604Y13261D1*
X8574Y13258D1*
X8543D1*
X8513Y13262D1*
X8483Y13270D1*
X8455Y13282D1*
X8428Y13298D1*
X8404Y13316D1*
X8382Y13337D1*
X8355Y13374D1*
X6895D1*
Y13176D1*
X6932Y13179D1*
X6962Y13178D1*
X6993Y13173D1*
X7022Y13164D1*
X7050Y13151D1*
X7076Y13135D1*
X7100Y13116D1*
X7121Y13094D1*
X7140Y13069D1*
X7155Y13043D1*
X7167Y13014D1*
X7174Y12985D1*
X7179Y12937D1*
X7177Y12906D1*
X7171Y12876D1*
X7162Y12847D1*
X7149Y12819D1*
X7132Y12794D1*
X7112Y12770D1*
X7090Y12749D1*
X7065Y12731D1*
X7038Y12717D1*
X7009Y12706D1*
X6979Y12699D1*
X6949Y12695D1*
X6918Y12696D1*
X6895Y12699D1*
Y12601D1*
X6740D1*
X6765Y12569D1*
X6780Y12543D1*
X6792Y12514D1*
X6800Y12485D1*
X6804Y12437D1*
X6802Y12406D1*
X6796Y12376D1*
X6787Y12347D1*
X6774Y12319D1*
X6757Y12294D1*
X6737Y12270D1*
X6715Y12249D1*
X6690Y12231D1*
X6663Y12217D1*
X6634Y12206D1*
X6604Y12199D1*
X6574Y12195D1*
X6543Y12196D1*
X6513Y12200D1*
X6483Y12208D1*
X6455Y12220D1*
X6428Y12235D1*
X6404Y12254D1*
X6382Y12275D1*
X6363Y12299D1*
X6347Y12325D1*
X6335Y12353D1*
X6326Y12383D1*
X6321Y12413D1*
X6320Y12444D1*
X6323Y12474D1*
X6329Y12504D1*
X6340Y12533D1*
X6354Y12561D1*
X6371Y12586D1*
X6384Y12601D1*
X6194D1*
X5997D1*
X5800D1*
X5603D1*
X5406D1*
X5210D1*
Y13303D1*
X5192Y13338D1*
X5187Y13375D1*
Y13479D1*
X5154Y13504D1*
X5132Y13525D1*
X5113Y13549D1*
X5097Y13575D1*
X5085Y13603D1*
X5076Y13633D1*
X5071Y13663D1*
X5070Y13694D1*
X5073Y13724D1*
X5079Y13754D1*
X5090Y13783D1*
X5104Y13811D1*
X5121Y13836D1*
X5141Y13859D1*
X5164Y13879D1*
X5190Y13896D1*
X5224Y13912D1*
X4624D1*
X4625Y13650D1*
Y12676D1*
X4708Y12593D1*
X5058Y12594D1*
X5202D1*
X5201Y12286D1*
X5202Y12182D1*
X5201Y12089D1*
X5202Y11985D1*
X5201Y11893D1*
X5202Y11788D1*
X5201Y11696D1*
X5202Y11683D1*
Y11482D1*
X5227Y11504D1*
X5252Y11521D1*
X5280Y11535D1*
X5309Y11545D1*
X5339Y11552D1*
X5369Y11554D1*
X5400Y11553D1*
X5430Y11548D1*
X5460Y11539D1*
X5488Y11526D1*
X5514Y11510D1*
X5538Y11491D1*
X5552Y11477D1*
X5661Y11587D1*
X5685Y11606D1*
X5713Y11618D1*
X5749Y11623D1*
X6750D1*
X6780Y11620D1*
X6808Y11609D1*
X6838Y11587D1*
X6903Y11522D1*
X6902Y11622D1*
X5045Y10908D2*
X4454D1*
Y10313D1*
X4473Y10337D1*
X5045Y10909D1*
X5995Y10901D2*
X6040D1*
X6054Y10919D1*
X6161Y11026D1*
X6185Y11044D1*
X6213Y11057D1*
X6250Y11062D1*
X6416D1*
X6397Y11102D1*
X6388Y11131D1*
X6383Y11162D1*
X6382Y11192D1*
X6385Y11223D1*
X6392Y11253D1*
X6402Y11282D1*
X6416Y11309D1*
X6433Y11334D1*
X6454Y11357D1*
X6472Y11373D1*
X5800D1*
X5772Y11344D1*
X5809Y11358D1*
X5839Y11364D1*
X5869Y11367D1*
X5900Y11365D1*
X5930Y11360D1*
X5960Y11351D1*
X5988Y11339D1*
X6014Y11323D1*
X6038Y11304D1*
X6059Y11281D1*
X6077Y11257D1*
X6092Y11230D1*
X6104Y11202D1*
X6112Y11172D1*
X6117Y11125D1*
X6115Y11094D1*
X6109Y11064D1*
X6099Y11035D1*
X6086Y11007D1*
X6070Y10981D1*
X6050Y10958D1*
X6027Y10937D1*
X5998Y10917D1*
X5996Y10906D1*
X5997Y10901D1*
X6028D1*
X10153Y8519D2*
X10152Y8502D1*
Y8516D1*
X10167Y8503D1*
X10396Y8502D1*
X10426Y8496D1*
X10455Y8485D1*
X10480Y8468D1*
X10502Y8446D1*
X10519Y8421D1*
X10531Y8392D1*
X10537Y8349D1*
X10562Y8373D1*
Y9510D1*
X10447Y9625D1*
X10019Y9624D1*
X10030Y9605D1*
X10042Y9577D1*
X10050Y9547D1*
X10054Y9500D1*
X10052Y9469D1*
X10046Y9439D1*
X10037Y9410D1*
X10024Y9382D1*
X10007Y9356D1*
X9987Y9333D1*
X9965Y9312D1*
X9929Y9288D1*
X9952Y9257D1*
X9967Y9230D1*
X9979Y9202D1*
X9987Y9172D1*
X9991Y9139D1*
X10030Y9160D1*
X10059Y9170D1*
X10089Y9177D1*
X10119Y9179D1*
X10150Y9178D1*
X10180Y9173D1*
X10210Y9164D1*
X10238Y9151D1*
X10264Y9135D1*
X10288Y9116D1*
X10309Y9094D1*
X10327Y9069D1*
X10342Y9043D1*
X10354Y9014D1*
X10362Y8985D1*
X10367Y8937D1*
X10365Y8906D1*
X10359Y8876D1*
X10349Y8847D1*
X10336Y8819D1*
X10320Y8794D1*
X10300Y8770D1*
X10277Y8749D1*
X10252Y8731D1*
X10225Y8717D1*
X10197Y8706D1*
X10153Y8697D1*
Y8516D1*
X8917Y8850D2*
X8940Y8866D1*
X8968Y8879D1*
X8998Y8885D1*
X9028Y8886D1*
X9066Y8877D1*
X9067Y9046D1*
X9038Y9029D1*
X9009Y9018D1*
X8979Y9011D1*
X8949Y9008D1*
X8918D1*
X8888Y9012D1*
X8858Y9020D1*
X8830Y9032D1*
X8803Y9048D1*
X8779Y9066D1*
X8757Y9087D1*
X8730Y9124D1*
X8687D1*
X8657Y9128D1*
X8628Y9139D1*
X8598Y9161D1*
X8010Y9749D1*
X7904D1*
X7934Y9719D1*
X7952Y9694D1*
X7967Y9668D1*
X7979Y9639D1*
X7987Y9610D1*
X7992Y9562D1*
X7990Y9531D1*
X7984Y9501D1*
X7974Y9472D1*
X7961Y9444D1*
X7937Y9409D1*
Y9222D1*
Y8238D1*
X8112Y8065D1*
X8093Y8100D1*
X8086Y8130D1*
X8084Y8161D1*
X8089Y8191D1*
X8100Y8220D1*
X8121Y8251D1*
X8106Y8270D1*
X8093Y8297D1*
X8086Y8327D1*
X8084Y8358D1*
X8089Y8388D1*
X8100Y8417D1*
X8116Y8443D1*
X8137Y8465D1*
X8162Y8483D1*
X8190Y8495D1*
X8220Y8502D1*
X8268Y8503D1*
X8467Y8502D1*
X8468Y8547D1*
X8469Y8733D1*
X8468Y8741D1*
X8473Y8772D1*
X8484Y8800D1*
X8500Y8827D1*
X8521Y8849D1*
X8546Y8866D1*
X8574Y8879D1*
X8604Y8885D1*
X8635Y8886D1*
X8665Y8880D1*
X8693Y8869D1*
X8719Y8851D1*
X8743Y8866D1*
X8771Y8879D1*
X8801Y8885D1*
X8831Y8886D1*
X8862Y8880D1*
X8890Y8869D1*
X8916Y8851D1*
X6667Y14337D2*
X7613D1*
Y14290D1*
X7687Y14364D1*
Y14865D1*
Y15150D1*
X7690Y15180D1*
X7701Y15209D1*
X7723Y15238D1*
X7941Y15456D1*
X7934Y15473D1*
X7927Y15503D1*
X7925Y15533D1*
X7930Y15564D1*
X7941Y15592D1*
X7946Y15601D1*
X7898D1*
X7868Y15604D1*
X7839Y15615D1*
X7810Y15637D1*
X7536Y15911D1*
X7517Y15935D1*
X7505Y15963D1*
X7499Y16000D1*
Y16542D1*
X7485Y16505D1*
X7463Y16475D1*
X7353Y16366D1*
X7329Y16347D1*
X7301Y16334D1*
X7265Y16329D1*
X7131D1*
X6391Y15589D1*
Y14741D1*
X6432Y14750D1*
X6636D1*
Y14837D1*
X7613D1*
Y14412D1*
X6636D1*
Y14499D1*
X6488D1*
X6360Y14370D1*
X6366Y14329D1*
X6365Y14281D1*
X6359Y14251D1*
X6349Y14222D1*
X6336Y14194D1*
X6320Y14169D1*
X6300Y14145D1*
X6277Y14124D1*
X6252Y14106D1*
X6225Y14092D1*
X6197Y14081D1*
X6167Y14074D1*
X6136Y14070D1*
X6106Y14071D1*
X6075Y14075D1*
X6046Y14083D1*
X6017Y14095D1*
X5998Y14106D1*
X5985Y14066D1*
X5967Y14040D1*
Y14035D1*
X5996Y14045D1*
X6026Y14052D1*
X6057Y14054D1*
X6087Y14053D1*
X6118Y14048D1*
X6147Y14039D1*
X6175Y14026D1*
X6201Y14010D1*
X6225Y13991D1*
X6247Y13969D1*
X6265Y13944D1*
X6280Y13918D1*
X6292Y13889D1*
X6300Y13860D1*
X6304Y13812D1*
X6302Y13781D1*
X6296Y13749D1*
X6343Y13750D1*
X8198D1*
X8624Y14177D1*
Y15120D1*
X8611Y15114D1*
X8581Y15107D1*
X8551Y15106D1*
X8520Y15111D1*
X8492Y15122D1*
X8466Y15138D1*
X8444Y15160D1*
X8426Y15185D1*
X8414Y15213D1*
X8408Y15243D1*
X8407Y15308D1*
Y15420D1*
X8378Y15395D1*
X8351Y15381D1*
X8322Y15373D1*
X8295Y15371D1*
X8210D1*
X7937Y15097D1*
Y14312D1*
X7934Y14282D1*
X7923Y14253D1*
X7901Y14223D1*
X7713Y14036D1*
X7689Y14017D1*
X7661Y14005D1*
X7625Y13999D1*
X7612D1*
X7613Y13912D1*
X6636D1*
Y14337D1*
X6667D1*
Y15337D2*
X7613D1*
Y14912D1*
X6636D1*
Y15337D1*
X6667D1*
X6639Y15837D2*
X7610D1*
X7613Y15831D1*
Y15412D1*
X6636D1*
Y15834D1*
X8441Y16266D2*
X8437Y16252D1*
X8422Y16225D1*
X8413Y16214D1*
X8431Y16187D1*
X8443Y16159D1*
X8449Y16115D1*
X8446Y16085D1*
X8437Y16055D1*
X8422Y16028D1*
X8413Y16017D1*
X8431Y15990D1*
X8443Y15962D1*
X8449Y15918D1*
X8446Y15888D1*
X8437Y15859D1*
X8422Y15832D1*
X8413Y15821D1*
X8431Y15793D1*
X8443Y15765D1*
X8449Y15721D1*
X8446Y15691D1*
X8437Y15662D1*
X8422Y15635D1*
X8413Y15624D1*
X8431Y15596D1*
X8442Y15571D1*
X8451Y15583D1*
X8475Y15603D1*
X8502Y15617D1*
X8531Y15626D1*
X8562Y15629D1*
X8592Y15626D1*
X8621Y15617D1*
X8648Y15602D1*
X8659Y15593D1*
X8682Y15609D1*
X8710Y15621D1*
X8740Y15628D1*
X8771D1*
X8801Y15623D1*
X8829Y15611D1*
X8855Y15594D1*
X8877Y15572D1*
X8886Y15592D1*
X8906Y15623D1*
X8892Y15642D1*
X8879Y15670D1*
X8872Y15699D1*
X8870Y15730D1*
X8875Y15760D1*
X8886Y15789D1*
X8906Y15820D1*
X8892Y15839D1*
X8879Y15867D1*
X8872Y15896D1*
X8870Y15927D1*
X8875Y15957D1*
X8886Y15986D1*
X8906Y16017D1*
X8892Y16036D1*
X8879Y16063D1*
X8872Y16093D1*
X8870Y16124D1*
X8875Y16154D1*
X8886Y16183D1*
X8906Y16214D1*
X8892Y16233D1*
X8878Y16265D1*
X8865Y16251D1*
X8841Y16232D1*
X8814Y16218D1*
X8784Y16210D1*
X8754Y16208D1*
X8723Y16212D1*
X8694Y16221D1*
X8668Y16237D1*
X8660Y16244D1*
X8644Y16232D1*
X8617Y16218D1*
X8587Y16210D1*
X8557Y16208D1*
X8526Y16212D1*
X8497Y16221D1*
X8471Y16237D1*
X8448Y16257D1*
X8442Y16266D1*
X6413Y7748D2*
X6384Y7751D1*
X6355Y7761D1*
X6328Y7777D1*
X6320Y7784D1*
X6305Y7772D1*
X6277Y7758D1*
X6248Y7750D1*
X6217Y7748D1*
X6187Y7751D1*
X6158Y7761D1*
X6131Y7777D1*
X6123Y7784D1*
X6108Y7772D1*
X6080Y7758D1*
X6051Y7750D1*
X6020Y7748D1*
X5990Y7751D1*
X5961Y7761D1*
X5934Y7777D1*
X5926Y7783D1*
X5900Y7766D1*
X5872Y7754D1*
X5842Y7748D1*
X5811D1*
X5781Y7755D1*
X5753Y7767D1*
X5729Y7783D1*
X5714Y7772D1*
X5687Y7758D1*
X5657Y7750D1*
X5627Y7748D1*
X5596Y7751D1*
X5567Y7761D1*
X5541Y7777D1*
X5533Y7784D1*
X5517Y7772D1*
X5490Y7758D1*
X5460Y7750D1*
X5440Y7748D1*
X5437Y7723D1*
X5428Y7694D1*
X5413Y7667D1*
X5404Y7656D1*
X5422Y7628D1*
X5434Y7600D1*
X5440Y7557D1*
X5437Y7526D1*
X5428Y7497D1*
X5413Y7470D1*
X5404Y7459D1*
X5422Y7432D1*
X5434Y7403D1*
X5440Y7360D1*
X5437Y7329D1*
X5428Y7300D1*
X5413Y7273D1*
X5404Y7262D1*
X5422Y7235D1*
X5434Y7206D1*
X5440Y7163D1*
X5437Y7132D1*
X5428Y7103D1*
X5413Y7076D1*
X5404Y7065D1*
X5422Y7038D1*
X5434Y7010D1*
X5440Y6966D1*
X5437Y6936D1*
X5428Y6906D1*
X5413Y6879D1*
X5404Y6868D1*
X5422Y6841D1*
X5434Y6813D1*
X5440Y6775D1*
X5477Y6769D1*
X5506Y6758D1*
X5532Y6740D1*
X5555Y6755D1*
X5583Y6768D1*
X5613Y6774D1*
X5644Y6775D1*
X5674Y6769D1*
X5702Y6758D1*
X5729Y6740D1*
X5757Y6758D1*
X5786Y6769D1*
X5816Y6775D1*
X5847Y6774D1*
X5877Y6767D1*
X5905Y6755D1*
X5926Y6739D1*
X5949Y6755D1*
X5977Y6768D1*
X6007Y6774D1*
X6038Y6775D1*
X6068Y6769D1*
X6096Y6758D1*
X6123Y6739D1*
X6146Y6755D1*
X6174Y6768D1*
X6204Y6774D1*
X6234Y6775D1*
X6265Y6769D1*
X6293Y6758D1*
X6319Y6740D1*
X6343Y6755D1*
X6371Y6768D1*
X6401Y6774D1*
X6413D1*
X6417Y6808D1*
X6428Y6837D1*
X6449Y6868D1*
X6434Y6887D1*
X6421Y6914D1*
X6414Y6944D1*
X6413Y6975D1*
X6417Y7005D1*
X6428Y7034D1*
X6449Y7065D1*
X6434Y7083D1*
X6421Y7111D1*
X6414Y7141D1*
X6413Y7172D1*
X6417Y7202D1*
X6428Y7231D1*
X6449Y7261D1*
X6438Y7275D1*
X6423Y7302D1*
X6415Y7332D1*
X6412Y7362D1*
X6416Y7393D1*
X6425Y7422D1*
X6441Y7449D1*
X6448Y7458D1*
X6434Y7477D1*
X6421Y7505D1*
X6414Y7535D1*
X6413Y7565D1*
X6417Y7596D1*
X6428Y7624D1*
X6444Y7650D1*
X6448Y7655D1*
X6434Y7674D1*
X6421Y7702D1*
X6414Y7731D1*
X6413Y7748D1*
X9696Y5968D2*
X10509D1*
Y5228D1*
X9690D1*
Y5968D1*
X9696D1*
X6822Y4984D2*
X7911D1*
Y4283D1*
X6816D1*
Y4984D1*
X6822D1*
X7952Y7683D2*
X7536Y8098D1*
X7517Y8123D1*
X7505Y8151D1*
X7499Y8187D1*
Y9198D1*
X7432Y9265D1*
X7386Y9258D1*
X7356D1*
X7325Y9262D1*
X7296Y9270D1*
X7267Y9282D1*
X7241Y9298D1*
X7216Y9316D1*
X7202Y9330D1*
Y8962D1*
X5900Y8961D1*
X5749D1*
X5750Y8913D1*
X6423D1*
X6484Y8914D1*
X7202D1*
Y8213D1*
X6957D1*
Y7891D1*
X6954Y7861D1*
X6944Y7832D1*
X6930Y7808D1*
Y7797D1*
X6936Y7753D1*
X6933Y7723D1*
X6924Y7694D1*
X6909Y7667D1*
X6900Y7656D1*
X6918Y7628D1*
X6930Y7600D1*
X6936Y7570D1*
X6935Y7538D1*
X6930Y7515D1*
X6967Y7535D1*
X6996Y7545D1*
X7026Y7552D1*
X7057Y7554D1*
X7087Y7553D1*
X7133Y7543D1*
X7132Y7569D1*
X7135Y7599D1*
X7142Y7629D1*
X7152Y7658D1*
X7166Y7686D1*
X7183Y7711D1*
X7204Y7734D1*
X7227Y7754D1*
X7252Y7771D1*
X7280Y7785D1*
X7309Y7795D1*
X7339Y7802D1*
X7369Y7804D1*
X7400Y7803D1*
X7430Y7798D1*
X7460Y7789D1*
X7488Y7776D1*
X7514Y7760D1*
X7538Y7741D1*
X7559Y7719D1*
X7577Y7694D1*
X7592Y7668D1*
X7604Y7639D1*
X7612Y7610D1*
X7617Y7562D1*
X7615Y7531D1*
X7609Y7501D1*
X7599Y7472D1*
X7586Y7444D1*
X7570Y7419D1*
X7550Y7395D1*
X7519Y7368D1*
Y7125D1*
X7516Y7094D1*
X7507Y7065D1*
X7493Y7042D1*
X7455Y7000D1*
X7346Y6891D1*
X7437Y6892D1*
X7468Y6890D1*
X7498Y6883D1*
X7526Y6871D1*
X7553Y6856D1*
X7582Y6832D1*
X7671Y6743D1*
Y6986D1*
X7675Y7016D1*
X7686Y7045D1*
X7708Y7074D1*
X7826Y7193D1*
X7796Y7216D1*
X7774Y7237D1*
X7755Y7261D1*
X7739Y7287D1*
X7726Y7316D1*
X7718Y7345D1*
X7713Y7375D1*
X7712Y7406D1*
X7714Y7436D1*
X7721Y7466D1*
X7731Y7495D1*
X7745Y7523D1*
X7763Y7548D1*
X7783Y7571D1*
X7806Y7591D1*
X7832Y7608D1*
X7859Y7622D1*
X7888Y7632D1*
X7918Y7639D1*
X7949Y7641D1*
X7979Y7640D1*
X8009Y7635D1*
X8039Y7626D1*
X8067Y7613D1*
X8089Y7600D1*
X8098Y7625D1*
X8049D1*
X6739Y12602D2*
X6765Y12569D1*
X6780Y12543D1*
X6792Y12514D1*
X6800Y12485D1*
X6804Y12437D1*
X6802Y12406D1*
X6796Y12376D1*
X6787Y12347D1*
X6774Y12319D1*
X6757Y12294D1*
X6737Y12270D1*
X6715Y12249D1*
X6690Y12231D1*
X6663Y12217D1*
X6634Y12206D1*
X6604Y12199D1*
X6574Y12195D1*
X6543Y12196D1*
X6513Y12200D1*
X6483Y12208D1*
X6455Y12220D1*
X6428Y12235D1*
X6404Y12254D1*
X6382Y12275D1*
X6363Y12299D1*
X6347Y12325D1*
X6335Y12353D1*
X6326Y12383D1*
X6321Y12413D1*
X6320Y12444D1*
X6323Y12474D1*
X6329Y12504D1*
X6340Y12533D1*
X6354Y12561D1*
X6371Y12586D1*
X6384Y12601D1*
X9406Y6434D2*
X9434Y6406D1*
X9452Y6382D1*
X9467Y6355D1*
X9479Y6327D1*
X9487Y6297D1*
X9492Y6250D1*
X9490Y6219D1*
X9484Y6189D1*
X9474Y6160D1*
X9461Y6132D1*
X9445Y6106D1*
X9425Y6083D1*
X9402Y6062D1*
X9381Y6047D1*
X7919Y12088D2*
X7949Y12090D1*
X7979Y12089D1*
X8009Y12084D1*
X8039Y12075D1*
X8067Y12062D1*
X8093Y12046D1*
X8117Y12027D1*
X8138Y12005D1*
X8157Y11980D1*
X8172Y11954D1*
X8183Y11925D1*
X8191Y11896D1*
X8196Y11848D1*
X8194Y11817D1*
X8188Y11787D1*
X8179Y11758D1*
X8165Y11730D1*
X8149Y11704D1*
X8129Y11681D1*
X8107Y11660D1*
X8082Y11642D1*
X8055Y11628D1*
X8026Y11617D1*
X7996Y11609D1*
X7966Y11606D1*
X7919Y11609D1*
X6812Y9662D2*
D20*
Y8962D1*
X5880Y17537D2*
D10*
X6369Y16542D1*
Y17537D2*
X5880Y16542D1*
X9437Y23241D2*
D20*
Y22383D1*
X9008Y22812D2*
X9866D1*
X10312Y17366D2*
Y16508D1*
X9883Y16937D2*
X10312D1*
X4437Y5866D2*
Y5008D1*
X7312Y11456D2*
X7721D1*
X6903Y11849D2*
X7312D1*
X4792Y11653D2*
X5202D1*
X9409Y8625D2*
Y8363D1*
X9212Y6957D2*
Y6695D1*
X7125Y15837D2*
Y15412D1*
X6636Y15625D2*
X7613D1*
X8561Y15629D2*
Y15105D1*
X8408Y15367D2*
X8561D1*
X5828Y8009D2*
Y7748D1*
Y6775D2*
Y6252D1*
X6025Y6775D2*
Y6252D1*
X6412Y7360D2*
X6674D1*
X6412Y7557D2*
X6936D1*
X9351Y5687D2*
Y5326D1*
Y5687D2*
X9525D1*
X7580Y5968D2*
Y5228D1*
X7170Y5598D2*
X7580D1*
X10099Y5968D2*
Y5228D1*
X9690Y5598D2*
X10509D1*
X7363Y4984D2*
Y4283D1*
X6816Y4633D2*
X7910D1*
X10316Y4984D2*
Y4283D1*
X9769Y4633D2*
X10316D1*
X4286Y22096D2*
D13*
X10525D1*
X4286Y22036D2*
X10525D1*
X4286Y21976D2*
X10525D1*
X4286Y21916D2*
X10525D1*
X4286Y21856D2*
X10525D1*
X4286Y21796D2*
X10525D1*
X4286Y21736D2*
X10525D1*
X4286Y21675D2*
X10525D1*
X4286Y21615D2*
X10525D1*
X4286Y21555D2*
X10525D1*
X4286Y21495D2*
X10525D1*
X4286Y21435D2*
X10525D1*
X4286Y21375D2*
X10525D1*
X4286Y21315D2*
X10525D1*
X4286Y21255D2*
X10525D1*
X4286Y21195D2*
X10525D1*
X4286Y21135D2*
X10525D1*
X4286Y21074D2*
X10525D1*
X4286Y21014D2*
X10525D1*
X4286Y20954D2*
X10525D1*
X4286Y20894D2*
X10525D1*
X4286Y20834D2*
X10525D1*
X4286Y20774D2*
X10525D1*
X4286Y20714D2*
X10525D1*
X4286Y20654D2*
X10525D1*
X4286Y20594D2*
X10525D1*
X4286Y20533D2*
X10525D1*
X4286Y20473D2*
X10525D1*
X4286Y20413D2*
X10525D1*
X4286Y20353D2*
X10525D1*
X4286Y20293D2*
X10525D1*
X4286Y20233D2*
X10525D1*
X10501Y22156D2*
X4280D1*
Y20218D1*
X10531D1*
Y22156D1*
X10501D1*
D22*
X8250Y10437D3*
X7501D3*
D21*
X6812Y9312D3*
Y8564D3*
D24*
X8125Y18437D3*
X7625D3*
X7125D3*
X6625D3*
X6125D3*
Y17039D3*
X6625D3*
X7125D3*
X7625D3*
X8125D3*
D25*
X9437Y22812D3*
D26*
X8437D3*
X7437D3*
X6437D3*
X5437D3*
D25*
X10312Y15937D3*
D26*
Y16937D3*
D25*
X4437Y4437D3*
D26*
Y5437D3*
Y6437D3*
D27*
X6750Y5812D3*
X5568D3*
D30*
X7937Y19812D3*
X8685D3*
X8311Y20718D3*
X6375Y19812D3*
X7123D3*
X6749Y20718D3*
X4812Y19812D3*
X5560D3*
X5186Y20718D3*
X9500Y19812D3*
X10248D3*
X9874Y20718D3*
D21*
X6063Y9311D3*
Y8563D3*
X4749Y9185D3*
Y8437D3*
D32*
X7312Y11062D3*
Y11259D3*
Y11456D3*
Y11653D3*
Y11849D3*
Y12046D3*
Y12243D3*
Y12440D3*
D33*
X6741Y13011D3*
X6544D3*
X6347D3*
X6151D3*
X5954D3*
X5757D3*
X5560D3*
X5363D3*
D32*
X4792Y12440D3*
Y12243D3*
Y12046D3*
Y11849D3*
Y11653D3*
Y11456D3*
Y11259D3*
Y11062D3*
D33*
X5363Y10491D3*
X5560D3*
X5757D3*
X5954D3*
X6151D3*
X6347D3*
X6544D3*
X6741D3*
D34*
X10000Y8625D3*
X9803D3*
X9606D3*
X9409D3*
X9212D3*
X9015D3*
X8818D3*
X8622D3*
D35*
X8346Y8349D3*
Y8152D3*
Y7955D3*
Y7758D3*
Y7562D3*
Y7365D3*
Y7168D3*
Y6971D3*
D34*
X8622Y6695D3*
X8818D3*
X9015D3*
X9212D3*
X9409D3*
X9606D3*
X9803D3*
X10000D3*
D35*
X10275Y6971D3*
Y7168D3*
Y7365D3*
Y7562D3*
Y7758D3*
Y7955D3*
Y8152D3*
Y8349D3*
D36*
X9311Y7660D3*
D37*
X7125Y14125D3*
Y14625D3*
Y15125D3*
Y15625D3*
X4999D3*
Y15125D3*
Y14625D3*
Y14125D3*
D35*
X8187Y16312D3*
Y16115D3*
Y15918D3*
Y15721D3*
Y15525D3*
D34*
X8561Y15367D3*
X8758D3*
D35*
X9132Y15525D3*
Y15721D3*
Y15918D3*
Y16115D3*
Y16312D3*
D34*
X8758Y16469D3*
X8561D3*
D38*
X8659Y15918D3*
D34*
X6418Y8009D3*
X6221D3*
X6025D3*
X5828D3*
X5631D3*
X5434D3*
D35*
X5178Y7753D3*
Y7557D3*
Y7360D3*
Y7163D3*
Y6966D3*
Y6769D3*
D34*
X5434Y6513D3*
X5631D3*
X5828D3*
X6025D3*
X6221D3*
X6418D3*
D35*
X6674Y6769D3*
Y6966D3*
Y7163D3*
Y7360D3*
Y7557D3*
Y7753D3*
D40*
X5926Y7261D3*
D41*
X8328Y5687D3*
X8584D3*
X8840D3*
X9095D3*
X9351D3*
D42*
X7580Y5598D3*
X10099D3*
D43*
X7363Y4633D3*
X10316D3*
D45*
X9625Y14250D3*
Y10903D3*
D46*
X9937Y18250D3*
X4875Y16812D3*
X6187Y4625D3*
M02*
