M48
INCH
T01C0.0138
T02C0.0191
T03C0.0433
%
T01
X+010213Y+006489
T02
X+009440Y+007003
X+009440Y+006565
X+008940Y+006565
X+008940Y+007003
X+008378Y+007563
X+007940Y+007251
X+007878Y+007815
X+007000Y+007816
X+006503Y+007938
X+006977Y+006997
X+006347Y+006095
X+005190Y+005626
X+004753Y+006440
X+004690Y+007001
X+004753Y+007503
X+005190Y+007940
X+005190Y+009628
X+005628Y+009940
X+004544Y+009682
X+004315Y+010626
X+004315Y+011128
X+004690Y+011690
X+004752Y+012376
X+006065Y+011940
X+006190Y+012565
X+006565Y+012878
X+007292Y+012867
X+008065Y+013190
X+008690Y+013565
X+009190Y+013315
X+009253Y+012503
X+009284Y+011619
X+009190Y+011128
X+008440Y+010440
X+007937Y+010437
X+007440Y+010440
X+007440Y+011190
X+007378Y+011878
X+006752Y+009221
X+009008Y+008103
X+009884Y+005688
X+008807Y+005190
X+010567Y+010516
X+008878Y+015315
X+008128Y+015253
X+007378Y+016814
X+007190Y+018753
X+008878Y+018753
X+008801Y+019579
X+008690Y+021002
X+007628Y+021002
X+006628Y+021002
X+004815Y+021065
X+004940Y+018378
X+006378Y+015127
X+005628Y+014127
X+004503Y+014315
X+010065Y+018440
T03
X+010003Y+004503
X+009003Y+004503
X+005690Y+004565
X+004690Y+004565
X+005457Y+021961
X+006457Y+021961
X+007457Y+021961
X+008457Y+021961
X+009457Y+021961
T00
M30
