G04 DipTrace 2.4.0.2*
%INIoDriver15.gts*%
%MOIN*%
%ADD58C,0.0866*%
%ADD60R,0.0669X0.185*%
%ADD62R,0.0984X0.0591*%
%ADD64R,0.0709X0.063*%
%ADD66R,0.0236X0.061*%
%ADD68R,0.1043X0.1043*%
%ADD70R,0.0512X0.0709*%
%ADD72R,0.0866X0.0315*%
%ADD74R,0.1358X0.1358*%
%ADD76O,0.0413X0.0197*%
%ADD78O,0.0197X0.0413*%
%ADD80R,0.0197X0.0709*%
%ADD82R,0.0709X0.0197*%
%ADD86R,0.0335X0.0492*%
%ADD90R,0.0551X0.0709*%
%ADD92C,0.0748*%
%ADD94R,0.0748X0.0748*%
%ADD96R,0.0378X0.0886*%
%ADD98R,0.0591X0.0669*%
%ADD100R,0.0669X0.0591*%
%FSLAX44Y44*%
G04*
G70*
G90*
G75*
G01*
%LNTopMask*%
%LPD*%
D98*
X8250Y10437D3*
X7501D3*
D100*
X6812Y9312D3*
Y8564D3*
D96*
X8125Y18437D3*
X7625D3*
X7125D3*
X6625D3*
X6125D3*
Y17039D3*
X6625D3*
X7125D3*
X7625D3*
X8125D3*
D94*
X9437Y22812D3*
D92*
X8437D3*
X7437D3*
X6437D3*
X5437D3*
D94*
X10312Y15937D3*
D92*
Y16937D3*
D94*
X4437Y4437D3*
D92*
Y5437D3*
Y6437D3*
D90*
X6750Y5812D3*
X5568D3*
D86*
X7937Y19812D3*
X8685D3*
X8311Y20718D3*
X6375Y19812D3*
X7123D3*
X6749Y20718D3*
X4812Y19812D3*
X5560D3*
X5186Y20718D3*
X9500Y19812D3*
X10248D3*
X9874Y20718D3*
D100*
X6063Y9311D3*
Y8563D3*
X4749Y9185D3*
Y8437D3*
D82*
X7312Y11062D3*
Y11259D3*
Y11456D3*
Y11653D3*
Y11849D3*
Y12046D3*
Y12243D3*
Y12440D3*
D80*
X6741Y13011D3*
X6544D3*
X6347D3*
X6151D3*
X5954D3*
X5757D3*
X5560D3*
X5363D3*
D82*
X4792Y12440D3*
Y12243D3*
Y12046D3*
Y11849D3*
Y11653D3*
Y11456D3*
Y11259D3*
Y11062D3*
D80*
X5363Y10491D3*
X5560D3*
X5757D3*
X5954D3*
X6151D3*
X6347D3*
X6544D3*
X6741D3*
D78*
X10000Y8625D3*
X9803D3*
X9606D3*
X9409D3*
X9212D3*
X9015D3*
X8818D3*
X8622D3*
D76*
X8346Y8349D3*
Y8152D3*
Y7955D3*
Y7758D3*
Y7562D3*
Y7365D3*
Y7168D3*
Y6971D3*
D78*
X8622Y6695D3*
X8818D3*
X9015D3*
X9212D3*
X9409D3*
X9606D3*
X9803D3*
X10000D3*
D76*
X10275Y6971D3*
Y7168D3*
Y7365D3*
Y7562D3*
Y7758D3*
Y7955D3*
Y8152D3*
Y8349D3*
D74*
X9311Y7660D3*
D72*
X7125Y14125D3*
Y14625D3*
Y15125D3*
Y15625D3*
X4999D3*
Y15125D3*
Y14625D3*
Y14125D3*
D76*
X8187Y16312D3*
Y16115D3*
Y15918D3*
Y15721D3*
Y15525D3*
D78*
X8561Y15367D3*
X8758D3*
D76*
X9132Y15525D3*
Y15721D3*
Y15918D3*
Y16115D3*
Y16312D3*
D78*
X8758Y16469D3*
X8561D3*
D70*
X8659Y15918D3*
D78*
X6418Y8009D3*
X6221D3*
X6025D3*
X5828D3*
X5631D3*
X5434D3*
D76*
X5178Y7753D3*
Y7557D3*
Y7360D3*
Y7163D3*
Y6966D3*
Y6769D3*
D78*
X5434Y6513D3*
X5631D3*
X5828D3*
X6025D3*
X6221D3*
X6418D3*
D76*
X6674Y6769D3*
Y6966D3*
Y7163D3*
Y7360D3*
Y7557D3*
Y7753D3*
D68*
X5926Y7261D3*
D66*
X8328Y5687D3*
X8584D3*
X8840D3*
X9095D3*
X9351D3*
D64*
X7580Y5598D3*
X10099D3*
D62*
X7363Y4633D3*
X10316D3*
D60*
X9625Y14250D3*
Y10903D3*
D58*
X9937Y18250D3*
X4875Y16812D3*
X6187Y4625D3*
M02*
