G04 DipTrace Beta 2.3.5.2*
%INIoDriverRevC.gts*%
%MOIN*%
%ADD55R,0.0513X0.0474*%
%ADD63R,0.1045X0.1045*%
%ADD65O,0.0415X0.0198*%
%ADD67O,0.0198X0.0415*%
%ADD69R,0.0277X0.0789*%
%ADD71R,0.0789X0.0277*%
%ADD77R,0.0277X0.0415*%
%ADD79R,0.0553X0.071*%
%ADD81C,0.075*%
%ADD83R,0.075X0.075*%
%ADD87R,0.071X0.0789*%
%ADD89R,0.0592X0.0671*%
%ADD91R,0.0671X0.0592*%
%FSLAX44Y44*%
G04*
G70*
G90*
G75*
G01*
%LNTopMask*%
%LPD*%
D89*
X7190Y4503D3*
X7938D3*
D91*
X9753Y8940D3*
Y8192D3*
X10473Y6009D3*
Y5261D3*
D89*
X10503Y9878D3*
X9755D3*
D87*
X6166Y8934D3*
X5063D3*
D83*
X10003Y4503D3*
D81*
X9003D3*
D83*
X9457Y21961D3*
D81*
X8457D3*
X7457D3*
X6457D3*
X5457D3*
D83*
X4690Y4565D3*
D81*
X5690D3*
D79*
X9378Y5438D3*
X8197D3*
D77*
X8003Y18753D3*
X8515D3*
X8259Y19579D3*
X6253Y18753D3*
X6765D3*
X6509Y19579D3*
X4628Y18753D3*
X5140D3*
X4884Y19579D3*
X9690Y18752D3*
X10202D3*
X9946Y19579D3*
D91*
X4815Y17003D3*
Y17751D3*
X6253Y17003D3*
Y17751D3*
X8003Y17003D3*
Y17751D3*
X9753Y17003D3*
Y17751D3*
X7565Y5876D3*
Y6624D3*
D71*
X5378Y13628D3*
Y13313D3*
Y12998D3*
Y12683D3*
Y12368D3*
Y12053D3*
Y11738D3*
Y11423D3*
Y11108D3*
Y10793D3*
Y10478D3*
D69*
X6047Y9809D3*
X6362D3*
X6677D3*
X6992D3*
X7307D3*
X7622D3*
X7937D3*
X8252D3*
X8567D3*
X8882D3*
X9197D3*
D71*
X9866Y10478D3*
Y10793D3*
Y11108D3*
Y11423D3*
Y11738D3*
Y12053D3*
Y12368D3*
Y12683D3*
Y12998D3*
Y13313D3*
Y13628D3*
D69*
X9197Y14297D3*
X8882D3*
X8567D3*
X8252D3*
X7937D3*
X7622D3*
X7307D3*
X6992D3*
X6677D3*
X6362D3*
X6047D3*
G36*
X5575Y7415D2*
X5609Y7394D1*
X5653Y7389D1*
X5695Y7404D1*
X5727Y7435D1*
X5741Y7477D1*
X5736Y7522D1*
X5715Y7556D1*
X5556Y7715D1*
X5522Y7736D1*
X5477Y7741D1*
X5435Y7727D1*
X5404Y7695D1*
X5389Y7653D1*
X5394Y7609D1*
X5415Y7575D1*
X5575Y7415D1*
G37*
G36*
X5436Y7276D2*
X5469Y7255D1*
X5514Y7250D1*
X5556Y7265D1*
X5587Y7296D1*
X5602Y7338D1*
X5597Y7383D1*
X5576Y7416D1*
X5416Y7576D1*
X5383Y7597D1*
X5338Y7602D1*
X5296Y7587D1*
X5265Y7556D1*
X5250Y7514D1*
X5255Y7469D1*
X5276Y7436D1*
X5436Y7276D1*
G37*
G36*
X5296Y7137D2*
X5330Y7116D1*
X5375Y7111D1*
X5417Y7125D1*
X5448Y7157D1*
X5463Y7199D1*
X5458Y7243D1*
X5437Y7277D1*
X5277Y7437D1*
X5243Y7458D1*
X5199Y7463D1*
X5157Y7448D1*
X5125Y7417D1*
X5111Y7375D1*
X5116Y7330D1*
X5137Y7296D1*
X5296Y7137D1*
G37*
G36*
X5157Y6998D2*
X5191Y6976D1*
X5235Y6971D1*
X5277Y6986D1*
X5309Y7018D1*
X5324Y7060D1*
X5319Y7104D1*
X5297Y7138D1*
X5138Y7297D1*
X5104Y7319D1*
X5060Y7324D1*
X5018Y7309D1*
X4986Y7277D1*
X4971Y7235D1*
X4976Y7191D1*
X4998Y7157D1*
X5157Y6998D1*
G37*
G36*
X4998Y6748D2*
X4976Y6714D1*
X4971Y6670D1*
X4986Y6628D1*
X5018Y6596D1*
X5060Y6582D1*
X5104Y6587D1*
X5138Y6608D1*
X5297Y6767D1*
X5319Y6801D1*
X5324Y6846D1*
X5309Y6888D1*
X5277Y6919D1*
X5235Y6934D1*
X5191Y6929D1*
X5157Y6908D1*
X4998Y6748D1*
G37*
G36*
X5137Y6609D2*
X5116Y6575D1*
X5111Y6531D1*
X5125Y6489D1*
X5157Y6457D1*
X5199Y6442D1*
X5243Y6447D1*
X5277Y6469D1*
X5437Y6628D1*
X5458Y6662D1*
X5463Y6706D1*
X5448Y6749D1*
X5417Y6780D1*
X5375Y6795D1*
X5330Y6790D1*
X5296Y6769D1*
X5137Y6609D1*
G37*
G36*
X5276Y6470D2*
X5255Y6436D1*
X5250Y6392D1*
X5265Y6350D1*
X5296Y6318D1*
X5338Y6303D1*
X5383Y6308D1*
X5416Y6330D1*
X5576Y6489D1*
X5597Y6523D1*
X5602Y6567D1*
X5587Y6609D1*
X5556Y6641D1*
X5514Y6656D1*
X5469Y6651D1*
X5436Y6629D1*
X5276Y6470D1*
G37*
G36*
X5415Y6331D2*
X5394Y6297D1*
X5389Y6252D1*
X5404Y6210D1*
X5435Y6179D1*
X5477Y6164D1*
X5522Y6169D1*
X5556Y6190D1*
X5715Y6350D1*
X5736Y6384D1*
X5741Y6428D1*
X5727Y6470D1*
X5695Y6502D1*
X5653Y6516D1*
X5609Y6511D1*
X5575Y6490D1*
X5415Y6331D1*
G37*
G36*
X5965Y6190D2*
X5998Y6169D1*
X6043Y6164D1*
X6085Y6179D1*
X6116Y6210D1*
X6131Y6252D1*
X6126Y6297D1*
X6105Y6331D1*
X5945Y6490D1*
X5911Y6511D1*
X5867Y6516D1*
X5825Y6502D1*
X5793Y6470D1*
X5779Y6428D1*
X5784Y6384D1*
X5805Y6350D1*
X5965Y6190D1*
G37*
G36*
X6104Y6330D2*
X6138Y6308D1*
X6182Y6303D1*
X6224Y6318D1*
X6256Y6350D1*
X6270Y6392D1*
X6265Y6436D1*
X6244Y6470D1*
X6084Y6629D1*
X6051Y6651D1*
X6006Y6656D1*
X5964Y6641D1*
X5933Y6609D1*
X5918Y6567D1*
X5923Y6523D1*
X5944Y6489D1*
X6104Y6330D1*
G37*
G36*
X6243Y6469D2*
X6277Y6447D1*
X6321Y6442D1*
X6363Y6457D1*
X6395Y6489D1*
X6409Y6531D1*
X6404Y6575D1*
X6383Y6609D1*
X6224Y6769D1*
X6190Y6790D1*
X6146Y6795D1*
X6103Y6780D1*
X6072Y6749D1*
X6057Y6706D1*
X6062Y6662D1*
X6083Y6628D1*
X6243Y6469D1*
G37*
G36*
X6382Y6608D2*
X6416Y6587D1*
X6460Y6582D1*
X6502Y6596D1*
X6534Y6628D1*
X6549Y6670D1*
X6544Y6714D1*
X6522Y6748D1*
X6363Y6908D1*
X6329Y6929D1*
X6285Y6934D1*
X6243Y6919D1*
X6211Y6888D1*
X6196Y6846D1*
X6201Y6801D1*
X6223Y6767D1*
X6382Y6608D1*
G37*
G36*
X6223Y7138D2*
X6201Y7104D1*
X6196Y7060D1*
X6211Y7018D1*
X6243Y6986D1*
X6285Y6971D1*
X6329Y6976D1*
X6363Y6998D1*
X6522Y7157D1*
X6544Y7191D1*
X6549Y7235D1*
X6534Y7277D1*
X6502Y7309D1*
X6460Y7324D1*
X6416Y7319D1*
X6382Y7297D1*
X6223Y7138D1*
G37*
G36*
X6083Y7277D2*
X6062Y7243D1*
X6057Y7199D1*
X6072Y7157D1*
X6103Y7125D1*
X6146Y7111D1*
X6190Y7116D1*
X6224Y7137D1*
X6383Y7296D1*
X6404Y7330D1*
X6409Y7375D1*
X6395Y7417D1*
X6363Y7448D1*
X6321Y7463D1*
X6277Y7458D1*
X6243Y7437D1*
X6083Y7277D1*
G37*
G36*
X5944Y7416D2*
X5923Y7383D1*
X5918Y7338D1*
X5933Y7296D1*
X5964Y7265D1*
X6006Y7250D1*
X6051Y7255D1*
X6084Y7276D1*
X6244Y7436D1*
X6265Y7469D1*
X6270Y7514D1*
X6256Y7556D1*
X6224Y7587D1*
X6182Y7602D1*
X6138Y7597D1*
X6104Y7576D1*
X5944Y7416D1*
G37*
G36*
X5805Y7556D2*
X5784Y7522D1*
X5779Y7477D1*
X5793Y7435D1*
X5825Y7404D1*
X5867Y7389D1*
X5911Y7394D1*
X5945Y7415D1*
X6105Y7575D1*
X6126Y7609D1*
X6131Y7653D1*
X6116Y7695D1*
X6085Y7727D1*
X6043Y7741D1*
X5998Y7736D1*
X5965Y7715D1*
X5805Y7556D1*
G37*
G36*
X5760Y7427D2*
X6234Y6953D1*
X5760Y6478D1*
X5286Y6953D1*
X5760Y7427D1*
G37*
D67*
X9628Y7503D3*
X9431D3*
X9234D3*
X9037D3*
X8840D3*
X8643D3*
D65*
X8387Y7247D3*
Y7050D3*
Y6853D3*
Y6656D3*
Y6459D3*
Y6263D3*
D67*
X8643Y6007D3*
X8840D3*
X9037D3*
X9234D3*
X9431D3*
X9628D3*
D65*
X9884Y6263D3*
Y6459D3*
Y6656D3*
Y6853D3*
Y7050D3*
Y7247D3*
D63*
X9136Y6755D3*
D55*
X7201Y8312D3*
X7949D3*
G36*
X7709Y8809D2*
Y9125D1*
X8032Y9124D1*
X8189Y9125D1*
Y8827D1*
Y8680D1*
X7851D1*
X7709Y8809D1*
G37*
D55*
X7201Y8902D3*
M02*
