G04 DipTrace Beta 2.3.5.2*
%INIoDriverRevC.gbs*%
%MOIN*%
%ADD57R,0.0592X0.0986*%
%ADD59R,0.0631X0.071*%
%ADD61R,0.0612X0.0238*%
%ADD73R,0.134X0.0789*%
%ADD75R,0.0828X0.3072*%
%ADD77R,0.0277X0.0415*%
%ADD81C,0.075*%
%ADD83R,0.075X0.075*%
%ADD85R,0.0631X0.0789*%
%ADD87R,0.071X0.0789*%
%ADD89R,0.0592X0.0671*%
%ADD91R,0.0671X0.0592*%
%FSLAX44Y44*%
G04*
G70*
G90*
G75*
G01*
%LNBotMask*%
%LPD*%
D91*
X7565Y14316D3*
Y15064D3*
X8815Y14005D3*
Y14753D3*
D89*
X7177Y9591D3*
X7925D3*
D87*
X6366Y13564D3*
X7469D3*
D91*
X10065Y8565D3*
Y7817D3*
D87*
X6588Y4503D3*
X7690D3*
D85*
X6628Y8565D3*
X7966D3*
D83*
X5628Y16940D3*
D81*
X4628D3*
X5628Y15940D3*
X4628D3*
X5628Y14940D3*
X4628D3*
D83*
X10003Y4503D3*
D81*
X9003D3*
D83*
X9457Y21961D3*
D81*
X8457D3*
X7457D3*
X6457D3*
X5457D3*
D83*
X4690Y4565D3*
D81*
X5690D3*
D77*
X8940Y9126D3*
X8429D3*
X8684Y9953D3*
D75*
X4565Y19236D3*
X5785D3*
D73*
X6878Y18128D3*
Y20333D3*
X8253Y18128D3*
Y20333D3*
X9628Y18128D3*
Y20333D3*
D91*
X6815Y11190D3*
Y10442D3*
X6065Y11253D3*
Y10505D3*
X6815Y15814D3*
Y15066D3*
X9690Y14003D3*
Y14751D3*
X8753Y11751D3*
Y12499D3*
X8065Y11751D3*
Y12499D3*
X9878Y12439D3*
Y11691D3*
D61*
X5815Y6503D3*
Y6759D3*
Y7014D3*
Y7270D3*
Y7526D3*
D59*
X5727Y5755D3*
Y8274D3*
D57*
X4762Y5538D3*
Y8491D3*
G36*
X8628Y7313D2*
X9815D1*
Y6188D1*
X8628D1*
Y7313D1*
G37*
M02*
