G04 DipTrace 2.4.0.2*
%INIoDriver15.gbo*%
%MOIN*%
%ADD10C,0.0098*%
%ADD12C,0.003*%
%ADD13C,0.0061*%
%ADD28C,0.0154*%
%ADD102C,0.0077*%
%ADD103C,0.0046*%
%FSLAX44Y44*%
G04*
G70*
G90*
G75*
G01*
%LNBotSilk*%
%LPD*%
D28*
X8352Y17004D3*
X8854Y17096D2*
D10*
Y18277D1*
X9051D1*
Y17096D1*
X8854D1*
X5778Y19660D2*
Y20919D1*
X4596Y19660D2*
Y20919D1*
X7278Y19660D2*
Y20919D1*
X6096Y19660D2*
Y20919D1*
X8715Y19660D2*
Y20919D1*
X7534Y19660D2*
Y20919D1*
X10215Y19660D2*
Y20919D1*
X9034Y19660D2*
Y20919D1*
G36*
X8187Y11000D2*
X9187D1*
Y9437D1*
X8187D1*
Y11000D1*
G37*
X8066Y6632D2*
D12*
X8096D1*
X8037Y6603D2*
X8110D1*
X8011Y6573D2*
X8118D1*
X8246D2*
X8305D1*
X7989Y6543D2*
X8037D1*
X8100D2*
X8124D1*
X8225D2*
X8320D1*
X7967Y6513D2*
X8011D1*
X8107D2*
X8131D1*
X8199D2*
X8250D1*
X8310D2*
X8333D1*
X7948Y6483D2*
X7990D1*
X8111D2*
X8142D1*
X8165D2*
X8229D1*
X8317D2*
X8344D1*
X7932Y6453D2*
X7972D1*
X8109D2*
X8211D1*
X8324D2*
X8353D1*
X7919Y6423D2*
X7959D1*
X8104D2*
X8194D1*
X8325D2*
X8357D1*
X7907Y6393D2*
X7948D1*
X8100D2*
X8179D1*
X8321D2*
X8351D1*
X7897Y6363D2*
X7937D1*
X8098D2*
X8164D1*
X8313D2*
X8345D1*
X7887Y6333D2*
X7927D1*
X8097D2*
X8150D1*
X8305D2*
X8339D1*
X7877Y6303D2*
X7921D1*
X8096D2*
X8138D1*
X8295D2*
X8332D1*
X7868Y6273D2*
X7914D1*
X8095D2*
X8132D1*
X8286D2*
X8324D1*
X7862Y6244D2*
X7905D1*
X8091D2*
X8128D1*
X8280D2*
X8316D1*
X7858Y6214D2*
X7896D1*
X8084D2*
X8126D1*
X8273D2*
X8309D1*
X7851Y6184D2*
X7887D1*
X8075D2*
X8121D1*
X8264D2*
X8303D1*
X7841Y6154D2*
X7876D1*
X8066D2*
X8113D1*
X8256D2*
X8294D1*
X7813Y6124D2*
X7866D1*
X8056D2*
X8100D1*
X8249D2*
X8285D1*
X7776Y6094D2*
X7854D1*
X8045D2*
X8084D1*
X8243D2*
X8276D1*
X7733Y6064D2*
X7838D1*
X8036D2*
X8066D1*
X8234D2*
X8265D1*
X7690Y6034D2*
X7802D1*
X8225D2*
X8255D1*
X7649Y6004D2*
X7757D1*
X8216D2*
X8246D1*
X7608Y5974D2*
X7708D1*
X8206D2*
X8236D1*
X7569Y5944D2*
X7659D1*
X8197D2*
X8227D1*
X7533Y5914D2*
X7613D1*
X8191D2*
X8222D1*
X7500Y5884D2*
X7571D1*
X7707D2*
X7767D1*
X8189D2*
X8223D1*
X7470Y5855D2*
X7534D1*
X7693D2*
X7780D1*
X8192D2*
X8230D1*
X7443Y5825D2*
X7500D1*
X7686D2*
X7790D1*
X8199D2*
X8243D1*
X7421Y5795D2*
X7469D1*
X7683D2*
X7787D1*
X8212D2*
X8265D1*
X7404Y5765D2*
X7438D1*
X7694D2*
X7765D1*
X8229D2*
X8300D1*
X7391Y5735D2*
X7460D1*
X7707D2*
X7737D1*
X8254D2*
X8346D1*
X7384Y5705D2*
X7478D1*
X8288D2*
X8400D1*
X7380Y5675D2*
X7476D1*
X8331D2*
X8457D1*
X7379Y5645D2*
X7457D1*
X8378D2*
X8934D1*
X7380Y5615D2*
X7434D1*
X8425D2*
X8994D1*
X7384Y5585D2*
X7408D1*
X8905D2*
X9053D1*
X7394Y5555D2*
X7453D1*
X8967D2*
X9112D1*
X7421Y5525D2*
X7500D1*
X9031D2*
X9168D1*
X7458Y5495D2*
X7547D1*
X9091D2*
X9220D1*
X7501Y5466D2*
X7592D1*
X9147D2*
X9267D1*
X7543Y5436D2*
X7634D1*
X9200D2*
X9309D1*
X7582Y5406D2*
X7671D1*
X9246D2*
X9345D1*
X7619Y5376D2*
X7703D1*
X9285D2*
X9375D1*
X7657Y5346D2*
X7731D1*
X9320D2*
X9399D1*
X7691Y5316D2*
X7753D1*
X9351D2*
X9422D1*
X7719Y5286D2*
X7772D1*
X9381D2*
X9446D1*
X7740Y5256D2*
X7788D1*
X9407D2*
X9469D1*
X7757Y5226D2*
X7803D1*
X9430D2*
X9490D1*
X7773Y5196D2*
X7814D1*
X9451D2*
X9508D1*
X7785Y5166D2*
X7821D1*
X9472D2*
X9524D1*
X7796Y5136D2*
X7824D1*
X9491D2*
X9539D1*
X7806Y5107D2*
X7826D1*
X9508D2*
X9555D1*
X7816Y5077D2*
X7827D1*
X9524D2*
X9570D1*
X7821Y5047D2*
X7832D1*
X9539D2*
X9584D1*
X7825Y5017D2*
X7840D1*
X9554D2*
X9598D1*
X7827Y4987D2*
X7853D1*
X9568D2*
X9609D1*
X7831Y4957D2*
X7869D1*
X9580D2*
X9617D1*
X7840Y4927D2*
X7887D1*
X9587D2*
X9624D1*
X7852Y4897D2*
X7902D1*
X9595D2*
X9633D1*
X7865Y4867D2*
X7915D1*
X9603D2*
X9641D1*
X7879Y4837D2*
X7931D1*
X9611D2*
X9647D1*
X7894Y4807D2*
X7948D1*
X9617D2*
X9650D1*
X7910Y4777D2*
X7966D1*
X9620D2*
X9654D1*
X7928Y4747D2*
X7982D1*
X9621D2*
X9660D1*
X7947Y4718D2*
X7998D1*
X9622D2*
X9686D1*
X7965Y4688D2*
X8012D1*
X9622D2*
X9720D1*
X7981Y4658D2*
X8023D1*
X9622D2*
X9754D1*
X7993Y4628D2*
X8030D1*
X8305D2*
X8335D1*
X9622D2*
X9781D1*
X8000Y4598D2*
X8034D1*
X8281D2*
X8402D1*
X9622D2*
X9682D1*
X9736D2*
X9792D1*
X8002Y4568D2*
X8035D1*
X8263D2*
X8486D1*
X9622D2*
X9652D1*
X9753D2*
X9797D1*
X8001Y4538D2*
X8036D1*
X8248D2*
X8271D1*
X8378D2*
X8590D1*
X9765D2*
X9800D1*
X7988Y4508D2*
X8034D1*
X8232D2*
X8262D1*
X8479D2*
X8693D1*
X9765D2*
X9800D1*
X7968Y4478D2*
X8028D1*
X8214D2*
X8251D1*
X8619D2*
X8780D1*
X9753D2*
X9796D1*
X7943Y4448D2*
X8005D1*
X8196D2*
X8238D1*
X8784D2*
X8818D1*
X9732D2*
X9787D1*
X7916Y4418D2*
X7975D1*
X8178D2*
X8227D1*
X8667D2*
X8832D1*
X9702D2*
X9770D1*
X7892Y4388D2*
X7943D1*
X8156D2*
X8215D1*
X8575D2*
X8839D1*
X9662D2*
X9745D1*
X7873Y4358D2*
X7917D1*
X8125D2*
X8199D1*
X8538D2*
X8545D1*
X9613D2*
X9711D1*
X7867Y4329D2*
X7897D1*
X8083D2*
X8176D1*
X8524D2*
X8545D1*
X9559D2*
X9671D1*
X7878Y4299D2*
X7964D1*
X8036D2*
X8141D1*
X8522D2*
X8545D1*
X9501D2*
X9627D1*
X7910Y4269D2*
X8093D1*
X8532D2*
X9581D1*
X7946Y4239D2*
X8036D1*
X8545D2*
X9532D1*
X5150Y15407D2*
X5389D1*
X5145Y15377D2*
X5389D1*
X5138Y15347D2*
X5390D1*
X5130Y15317D2*
X5180D1*
X5323D2*
X5394D1*
X5125Y15287D2*
X5179D1*
X5341D2*
X5401D1*
X5121Y15257D2*
X5175D1*
X5351D2*
X5410D1*
X4761Y15228D2*
X4791D1*
X5116D2*
X5168D1*
X5357D2*
X5422D1*
X5718D2*
X5778D1*
X4731Y15198D2*
X4838D1*
X5099D2*
X5160D1*
X5363D2*
X5438D1*
X5680D2*
X5808D1*
X4701Y15168D2*
X4891D1*
X5048D2*
X5151D1*
X5373D2*
X5485D1*
X5629D2*
X5837D1*
X4672Y15138D2*
X4956D1*
X4972D2*
X5140D1*
X5391D2*
X5551D1*
X5559D2*
X5863D1*
X4648Y15108D2*
X4731D1*
X4815D2*
X5103D1*
X5421D2*
X5688D1*
X5777D2*
X5885D1*
X4627Y15078D2*
X4701D1*
X4865D2*
X5054D1*
X5462D2*
X5658D1*
X5801D2*
X5906D1*
X4622Y15048D2*
X4671D1*
X4910D2*
X5000D1*
X5509D2*
X5629D1*
X5818D2*
X5928D1*
X4631Y15018D2*
X4696D1*
X5817D2*
X5908D1*
X4646Y14988D2*
X4718D1*
X5802D2*
X5888D1*
X4663Y14958D2*
X4736D1*
X5787D2*
X5868D1*
X4681Y14928D2*
X4752D1*
X5773D2*
X5849D1*
X4699Y14898D2*
X4766D1*
X5761D2*
X5833D1*
X4713Y14869D2*
X4776D1*
X5755D2*
X5822D1*
X4712Y14839D2*
X4773D1*
X5756D2*
X5816D1*
X4707Y14809D2*
X4767D1*
X5180D2*
X5359D1*
X5763D2*
X5823D1*
X4700Y14779D2*
X4760D1*
X5136D2*
X5402D1*
X5773D2*
X5836D1*
X4681Y14749D2*
X4749D1*
X5099D2*
X5436D1*
X5786D2*
X5855D1*
X4634Y14719D2*
X4736D1*
X5068D2*
X5151D1*
X5349D2*
X5462D1*
X5798D2*
X5900D1*
X4576Y14689D2*
X4718D1*
X5045D2*
X5125D1*
X5389D2*
X5483D1*
X5812D2*
X5955D1*
X4524Y14659D2*
X4693D1*
X5027D2*
X5103D1*
X5420D2*
X5500D1*
X5833D2*
X6007D1*
X4485Y14629D2*
X4638D1*
X5014D2*
X5086D1*
X5444D2*
X5515D1*
X5884D2*
X6049D1*
X4473Y14599D2*
X4580D1*
X5006D2*
X5072D1*
X5461D2*
X5526D1*
X5937D2*
X6064D1*
X4466Y14569D2*
X4531D1*
X5003D2*
X5060D1*
X5471D2*
X5533D1*
X5982D2*
X6072D1*
X4463Y14539D2*
X4511D1*
X5001D2*
X5046D1*
X5476D2*
X5536D1*
X6016D2*
X6075D1*
X4462Y14509D2*
X4497D1*
X5001D2*
X5030D1*
X5476D2*
X5537D1*
X6047D2*
X6077D1*
X4462Y14480D2*
X4522D1*
X5001D2*
X5045D1*
X5473D2*
X5533D1*
X6008D2*
X6077D1*
X4463Y14450D2*
X4575D1*
X5005D2*
X5059D1*
X5465D2*
X5526D1*
X5955D2*
X6076D1*
X4474Y14420D2*
X4629D1*
X5014D2*
X5075D1*
X5453D2*
X5518D1*
X5897D2*
X6065D1*
X4516Y14390D2*
X4669D1*
X5025D2*
X5097D1*
X5436D2*
X5507D1*
X5847D2*
X6022D1*
X4570Y14360D2*
X4698D1*
X5039D2*
X5122D1*
X5414D2*
X5493D1*
X5826D2*
X5965D1*
X4621Y14330D2*
X4719D1*
X5054D2*
X5145D1*
X5393D2*
X5473D1*
X5811D2*
X5911D1*
X4657Y14300D2*
X4736D1*
X5073D2*
X5164D1*
X5377D2*
X5452D1*
X5798D2*
X5867D1*
X4681Y14270D2*
X4749D1*
X5095D2*
X5170D1*
X5366D2*
X5434D1*
X5784D2*
X5847D1*
X4698Y14240D2*
X4760D1*
X5120D2*
X5165D1*
X5367D2*
X5429D1*
X5771D2*
X5832D1*
X4714Y14210D2*
X4769D1*
X5101D2*
X5158D1*
X5373D2*
X5435D1*
X5762D2*
X5822D1*
X4731Y14180D2*
X4777D1*
X5085D2*
X5149D1*
X5381D2*
X5445D1*
X5756D2*
X5817D1*
X4711Y14150D2*
X4769D1*
X5072D2*
X5138D1*
X5390D2*
X5457D1*
X5763D2*
X5827D1*
X4691Y14120D2*
X4756D1*
X5061D2*
X5126D1*
X5400D2*
X5468D1*
X5774D2*
X5842D1*
X4671Y14091D2*
X4740D1*
X5049D2*
X5113D1*
X5413D2*
X5479D1*
X5787D2*
X5858D1*
X4653Y14061D2*
X4726D1*
X5034D2*
X5101D1*
X5426D2*
X5491D1*
X5801D2*
X5874D1*
X4638Y14031D2*
X4715D1*
X5011D2*
X5091D1*
X5438D2*
X5523D1*
X5813D2*
X5891D1*
X4627Y14001D2*
X4710D1*
X4940D2*
D3*
X4979D2*
X5079D1*
X5448D2*
X5571D1*
X5823D2*
X5909D1*
X4634Y13971D2*
X4719D1*
X4895D2*
X5066D1*
X5460D2*
X5625D1*
X5817D2*
X5928D1*
X4647Y13941D2*
X4745D1*
X4852D2*
X5053D1*
X5474D2*
X5677D1*
X5793D2*
X5898D1*
X4663Y13911D2*
X4780D1*
X4807D2*
X5041D1*
X5490D2*
X5728D1*
X5758D2*
X5868D1*
X4683Y13881D2*
X4881D1*
X5000D2*
X5030D1*
X5509D2*
D3*
X5623D2*
X5838D1*
X4706Y13851D2*
X4851D1*
X5672D2*
X5808D1*
X4731Y13821D2*
X4821D1*
X5718D2*
X5778D1*
X8066Y6632D2*
X8037Y6603D1*
X8011Y6573D1*
X7989Y6543D1*
X7967Y6513D1*
X7948Y6483D1*
X7932Y6453D1*
X7919Y6423D1*
X7907Y6393D1*
X7897Y6363D1*
X7887Y6333D1*
X7877Y6303D1*
X7868Y6273D1*
X7862Y6244D1*
X7858Y6214D1*
X7851Y6184D1*
X7841Y6154D1*
X7813Y6124D1*
X7776Y6094D1*
X7733Y6064D1*
X7690Y6034D1*
X7649Y6004D1*
X7608Y5974D1*
X7569Y5944D1*
X7533Y5914D1*
X7500Y5884D1*
X7470Y5855D1*
X7443Y5825D1*
X7421Y5795D1*
X7404Y5765D1*
X7391Y5735D1*
X7384Y5705D1*
X7380Y5675D1*
X7379Y5645D1*
X7380Y5615D1*
X7384Y5585D1*
X7394Y5555D1*
X7421Y5525D1*
X7458Y5495D1*
X7501Y5466D1*
X7543Y5436D1*
X7582Y5406D1*
X7619Y5376D1*
X7657Y5346D1*
X7691Y5316D1*
X7719Y5286D1*
X7740Y5256D1*
X7757Y5226D1*
X7773Y5196D1*
X7785Y5166D1*
X7796Y5136D1*
X7806Y5107D1*
X7816Y5077D1*
X7821Y5047D1*
X7825Y5017D1*
X7827Y4987D1*
X7831Y4957D1*
X7840Y4927D1*
X7852Y4897D1*
X7865Y4867D1*
X7879Y4837D1*
X7894Y4807D1*
X7910Y4777D1*
X7928Y4747D1*
X7947Y4718D1*
X7965Y4688D1*
X7981Y4658D1*
X7993Y4628D1*
X8000Y4598D1*
X8002Y4568D1*
X8001Y4538D1*
X7988Y4508D1*
X7968Y4478D1*
X7943Y4448D1*
X7916Y4418D1*
X7892Y4388D1*
X7873Y4358D1*
X7867Y4329D1*
X7878Y4299D1*
X7910Y4269D1*
X7946Y4239D1*
X8096Y6632D2*
X8110Y6603D1*
X8118Y6573D1*
X8124Y6543D1*
X8131Y6513D1*
X8142Y6483D1*
X8156Y6453D1*
X8246Y6573D2*
X8225Y6543D1*
X8199Y6513D1*
X8165Y6483D1*
X8126Y6453D1*
X8305Y6573D2*
X8320Y6543D1*
X8333Y6513D1*
X8344Y6483D1*
X8353Y6453D1*
X8357Y6423D1*
X8351Y6393D1*
X8345Y6363D1*
X8339Y6333D1*
X8332Y6303D1*
X8324Y6273D1*
X8316Y6244D1*
X8309Y6214D1*
X8303Y6184D1*
X8294Y6154D1*
X8285Y6124D1*
X8276Y6094D1*
X8265Y6064D1*
X8255Y6034D1*
X8246Y6004D1*
X8236Y5974D1*
X8227Y5944D1*
X8222Y5914D1*
X8223Y5884D1*
X8230Y5855D1*
X8243Y5825D1*
X8265Y5795D1*
X8300Y5765D1*
X8346Y5735D1*
X8400Y5705D1*
X8457Y5675D1*
X8515Y5645D1*
X8066Y6573D2*
X8037Y6543D1*
X8011Y6513D1*
X7990Y6483D1*
X7972Y6453D1*
X7959Y6423D1*
X7948Y6393D1*
X7937Y6363D1*
X7927Y6333D1*
X7921Y6303D1*
X7914Y6273D1*
X7905Y6244D1*
X7896Y6214D1*
X7887Y6184D1*
X7876Y6154D1*
X7866Y6124D1*
X7854Y6094D1*
X7838Y6064D1*
X7802Y6034D1*
X7757Y6004D1*
X7708Y5974D1*
X7659Y5944D1*
X7613Y5914D1*
X7571Y5884D1*
X7534Y5855D1*
X7500Y5825D1*
X7469Y5795D1*
X7438Y5765D1*
X7460Y5735D1*
X7478Y5705D1*
X7476Y5675D1*
X7457Y5645D1*
X7434Y5615D1*
X7408Y5585D1*
X7453Y5555D1*
X7500Y5525D1*
X7547Y5495D1*
X7592Y5466D1*
X7634Y5436D1*
X7671Y5406D1*
X7703Y5376D1*
X7731Y5346D1*
X7753Y5316D1*
X7772Y5286D1*
X7788Y5256D1*
X7803Y5226D1*
X7814Y5196D1*
X7821Y5166D1*
X7824Y5136D1*
X7826Y5107D1*
X7827Y5077D1*
X7832Y5047D1*
X7840Y5017D1*
X7853Y4987D1*
X7869Y4957D1*
X7887Y4927D1*
X7902Y4897D1*
X7915Y4867D1*
X7931Y4837D1*
X7948Y4807D1*
X7966Y4777D1*
X7982Y4747D1*
X7998Y4718D1*
X8012Y4688D1*
X8023Y4658D1*
X8030Y4628D1*
X8034Y4598D1*
X8035Y4568D1*
X8036Y4538D1*
X8034Y4508D1*
X8028Y4478D1*
X8005Y4448D1*
X7975Y4418D1*
X7943Y4388D1*
X7917Y4358D1*
X7897Y4329D1*
X7964Y4299D1*
X8036Y4269D1*
X8096Y6573D2*
X8100Y6543D1*
X8107Y6513D1*
X8111Y6483D1*
X8109Y6453D1*
X8104Y6423D1*
X8100Y6393D1*
X8098Y6363D1*
X8097Y6333D1*
X8096Y6303D1*
X8095Y6273D1*
X8091Y6244D1*
X8084Y6214D1*
X8075Y6184D1*
X8066Y6154D1*
X8056Y6124D1*
X8045Y6094D1*
X8036Y6064D1*
X8275Y6543D2*
X8250Y6513D1*
X8229Y6483D1*
X8211Y6453D1*
X8194Y6423D1*
X8179Y6393D1*
X8164Y6363D1*
X8150Y6333D1*
X8138Y6303D1*
X8132Y6273D1*
X8128Y6244D1*
X8126Y6214D1*
X8121Y6184D1*
X8113Y6154D1*
X8100Y6124D1*
X8084Y6094D1*
X8066Y6064D1*
X8305Y6543D2*
X8310Y6513D1*
X8317Y6483D1*
X8324Y6453D1*
X8325Y6423D1*
X8321Y6393D1*
X8313Y6363D1*
X8305Y6333D1*
X8295Y6303D1*
X8286Y6273D1*
X8280Y6244D1*
X8273Y6214D1*
X8264Y6184D1*
X8256Y6154D1*
X8249Y6124D1*
X8243Y6094D1*
X8234Y6064D1*
X8225Y6034D1*
X8216Y6004D1*
X8206Y5974D1*
X8197Y5944D1*
X8191Y5914D1*
X8189Y5884D1*
X8192Y5855D1*
X8199Y5825D1*
X8212Y5795D1*
X8229Y5765D1*
X8254Y5735D1*
X8288Y5705D1*
X8331Y5675D1*
X8378Y5645D1*
X8425Y5615D1*
X7707Y5884D2*
X7693Y5855D1*
X7686Y5825D1*
X7683Y5795D1*
X7694Y5765D1*
X7707Y5735D1*
X7767Y5884D2*
X7780Y5855D1*
X7790Y5825D1*
X7787Y5795D1*
X7765Y5765D1*
X7737Y5735D1*
X8934Y5645D2*
X8994Y5615D1*
X9053Y5585D1*
X9112Y5555D1*
X9168Y5525D1*
X9220Y5495D1*
X9267Y5466D1*
X9309Y5436D1*
X9345Y5406D1*
X9375Y5376D1*
X9399Y5346D1*
X9422Y5316D1*
X9446Y5286D1*
X9469Y5256D1*
X9490Y5226D1*
X9508Y5196D1*
X9524Y5166D1*
X9539Y5136D1*
X9555Y5107D1*
X9570Y5077D1*
X9584Y5047D1*
X9598Y5017D1*
X9609Y4987D1*
X9617Y4957D1*
X9624Y4927D1*
X9633Y4897D1*
X9641Y4867D1*
X9647Y4837D1*
X9650Y4807D1*
X9654Y4777D1*
X9660Y4747D1*
X9686Y4718D1*
X9720Y4688D1*
X9754Y4658D1*
X9781Y4628D1*
X9792Y4598D1*
X9797Y4568D1*
X9800Y4538D1*
Y4508D1*
X9796Y4478D1*
X9787Y4448D1*
X9770Y4418D1*
X9745Y4388D1*
X9711Y4358D1*
X9671Y4329D1*
X9627Y4299D1*
X9581Y4269D1*
X9532Y4239D1*
X8844Y5615D2*
X8905Y5585D1*
X8967Y5555D1*
X9031Y5525D1*
X9091Y5495D1*
X9147Y5466D1*
X9200Y5436D1*
X9246Y5406D1*
X9285Y5376D1*
X9320Y5346D1*
X9351Y5316D1*
X9381Y5286D1*
X9407Y5256D1*
X9430Y5226D1*
X9451Y5196D1*
X9472Y5166D1*
X9491Y5136D1*
X9508Y5107D1*
X9524Y5077D1*
X9539Y5047D1*
X9554Y5017D1*
X9568Y4987D1*
X9580Y4957D1*
X9587Y4927D1*
X9595Y4897D1*
X9603Y4867D1*
X9611Y4837D1*
X9617Y4807D1*
X9620Y4777D1*
X9621Y4747D1*
X9622Y4718D1*
Y4688D1*
Y4658D1*
Y4628D1*
Y4598D1*
Y4568D1*
X8305Y4628D2*
X8281Y4598D1*
X8263Y4568D1*
X8248Y4538D1*
X8232Y4508D1*
X8214Y4478D1*
X8196Y4448D1*
X8178Y4418D1*
X8156Y4388D1*
X8125Y4358D1*
X8083Y4329D1*
X8036Y4299D1*
X8335Y4628D2*
X8402Y4598D1*
X8486Y4568D1*
X8590Y4538D1*
X8693Y4508D1*
X8780Y4478D1*
X8818Y4448D1*
X8832Y4418D1*
X8839Y4388D1*
X8844Y4358D1*
X8545D1*
Y4329D1*
Y4299D1*
Y4269D1*
X9712Y4628D2*
X9682Y4598D1*
X9652Y4568D1*
X9712Y4628D2*
X9736Y4598D1*
X9753Y4568D1*
X9765Y4538D1*
Y4508D1*
X9753Y4478D1*
X9732Y4448D1*
X9702Y4418D1*
X9662Y4388D1*
X9613Y4358D1*
X9559Y4329D1*
X9501Y4299D1*
X9442Y4269D1*
X8275Y4568D2*
X8271Y4538D1*
X8262Y4508D1*
X8251Y4478D1*
X8238Y4448D1*
X8227Y4418D1*
X8215Y4388D1*
X8199Y4358D1*
X8176Y4329D1*
X8141Y4299D1*
X8093Y4269D1*
X8036Y4239D1*
X8305Y4568D2*
X8378Y4538D1*
X8479Y4508D1*
X8619Y4478D1*
X8784Y4448D1*
X8667Y4418D1*
X8575Y4388D1*
X8538Y4358D1*
X8524Y4329D1*
X8522Y4299D1*
X8532Y4269D1*
X8545Y4239D1*
X5150Y15407D2*
X5145Y15377D1*
X5138Y15347D1*
X5130Y15317D1*
X5125Y15287D1*
X5121Y15257D1*
X5116Y15228D1*
X5099Y15198D1*
X5048Y15168D1*
X4972Y15138D1*
X4881Y15108D1*
X5389Y15407D2*
Y15377D1*
X5390Y15347D1*
X5394Y15317D1*
X5401Y15287D1*
X5410Y15257D1*
X5422Y15228D1*
X5438Y15198D1*
X5485Y15168D1*
X5551Y15138D1*
X5629Y15108D1*
X5180Y15347D2*
Y15317D1*
X5179Y15287D1*
X5175Y15257D1*
X5168Y15228D1*
X5160Y15198D1*
X5151Y15168D1*
X5140Y15138D1*
X5103Y15108D1*
X5054Y15078D1*
X5000Y15048D1*
X5299Y15347D2*
X5323Y15317D1*
X5341Y15287D1*
X5351Y15257D1*
X5357Y15228D1*
X5363Y15198D1*
X5373Y15168D1*
X5391Y15138D1*
X5421Y15108D1*
X5462Y15078D1*
X5509Y15048D1*
X4761Y15228D2*
X4731Y15198D1*
X4701Y15168D1*
X4672Y15138D1*
X4648Y15108D1*
X4627Y15078D1*
X4622Y15048D1*
X4631Y15018D1*
X4646Y14988D1*
X4663Y14958D1*
X4681Y14928D1*
X4699Y14898D1*
X4713Y14869D1*
X4712Y14839D1*
X4707Y14809D1*
X4700Y14779D1*
X4681Y14749D1*
X4634Y14719D1*
X4576Y14689D1*
X4524Y14659D1*
X4485Y14629D1*
X4473Y14599D1*
X4466Y14569D1*
X4463Y14539D1*
X4462Y14509D1*
Y14480D1*
X4463Y14450D1*
X4474Y14420D1*
X4516Y14390D1*
X4570Y14360D1*
X4621Y14330D1*
X4657Y14300D1*
X4681Y14270D1*
X4698Y14240D1*
X4714Y14210D1*
X4731Y14180D1*
X4711Y14150D1*
X4691Y14120D1*
X4671Y14091D1*
X4653Y14061D1*
X4638Y14031D1*
X4627Y14001D1*
X4634Y13971D1*
X4647Y13941D1*
X4663Y13911D1*
X4683Y13881D1*
X4706Y13851D1*
X4731Y13821D1*
X4791Y15228D2*
X4838Y15198D1*
X4891Y15168D1*
X4956Y15138D1*
X5030Y15108D1*
X5718Y15228D2*
X5680Y15198D1*
X5629Y15168D1*
X5559Y15138D1*
X5479Y15108D1*
X5778Y15228D2*
X5808Y15198D1*
X5837Y15168D1*
X5863Y15138D1*
X5885Y15108D1*
X5906Y15078D1*
X5928Y15048D1*
X5908Y15018D1*
X5888Y14988D1*
X5868Y14958D1*
X5849Y14928D1*
X5833Y14898D1*
X5822Y14869D1*
X5816Y14839D1*
X5823Y14809D1*
X5836Y14779D1*
X5855Y14749D1*
X5900Y14719D1*
X5955Y14689D1*
X6007Y14659D1*
X6049Y14629D1*
X6064Y14599D1*
X6072Y14569D1*
X6075Y14539D1*
X6077Y14509D1*
Y14480D1*
X6076Y14450D1*
X6065Y14420D1*
X6022Y14390D1*
X5965Y14360D1*
X5911Y14330D1*
X5867Y14300D1*
X5847Y14270D1*
X5832Y14240D1*
X5822Y14210D1*
X5817Y14180D1*
X5827Y14150D1*
X5842Y14120D1*
X5858Y14091D1*
X5874Y14061D1*
X5891Y14031D1*
X5909Y14001D1*
X5928Y13971D1*
X5898Y13941D1*
X5868Y13911D1*
X5838Y13881D1*
X5808Y13851D1*
X5778Y13821D1*
X4761Y15138D2*
X4731Y15108D1*
X4701Y15078D1*
X4671Y15048D1*
X4696Y15018D1*
X4718Y14988D1*
X4736Y14958D1*
X4752Y14928D1*
X4766Y14898D1*
X4776Y14869D1*
X4773Y14839D1*
X4767Y14809D1*
X4760Y14779D1*
X4749Y14749D1*
X4736Y14719D1*
X4718Y14689D1*
X4693Y14659D1*
X4638Y14629D1*
X4580Y14599D1*
X4531Y14569D1*
X4511Y14539D1*
X4497Y14509D1*
X4522Y14480D1*
X4575Y14450D1*
X4629Y14420D1*
X4669Y14390D1*
X4698Y14360D1*
X4719Y14330D1*
X4736Y14300D1*
X4749Y14270D1*
X4760Y14240D1*
X4769Y14210D1*
X4777Y14180D1*
X4769Y14150D1*
X4756Y14120D1*
X4740Y14091D1*
X4726Y14061D1*
X4715Y14031D1*
X4710Y14001D1*
X4719Y13971D1*
X4745Y13941D1*
X4780Y13911D1*
X4821Y13881D1*
X4761Y15138D2*
X4815Y15108D1*
X4865Y15078D1*
X4910Y15048D1*
X5718Y15138D2*
X5688Y15108D1*
X5658Y15078D1*
X5629Y15048D1*
X5748Y15138D2*
X5777Y15108D1*
X5801Y15078D1*
X5818Y15048D1*
X5817Y15018D1*
X5802Y14988D1*
X5787Y14958D1*
X5773Y14928D1*
X5761Y14898D1*
X5755Y14869D1*
X5756Y14839D1*
X5763Y14809D1*
X5773Y14779D1*
X5786Y14749D1*
X5798Y14719D1*
X5812Y14689D1*
X5833Y14659D1*
X5884Y14629D1*
X5937Y14599D1*
X5982Y14569D1*
X6016Y14539D1*
X6047Y14509D1*
X6008Y14480D1*
X5955Y14450D1*
X5897Y14420D1*
X5847Y14390D1*
X5826Y14360D1*
X5811Y14330D1*
X5798Y14300D1*
X5784Y14270D1*
X5771Y14240D1*
X5762Y14210D1*
X5756Y14180D1*
X5763Y14150D1*
X5774Y14120D1*
X5787Y14091D1*
X5801Y14061D1*
X5813Y14031D1*
X5823Y14001D1*
X5817Y13971D1*
X5793Y13941D1*
X5758Y13911D1*
X5718Y13881D1*
X5180Y14809D2*
X5136Y14779D1*
X5099Y14749D1*
X5068Y14719D1*
X5045Y14689D1*
X5027Y14659D1*
X5014Y14629D1*
X5006Y14599D1*
X5003Y14569D1*
X5001Y14539D1*
Y14509D1*
Y14480D1*
X5005Y14450D1*
X5014Y14420D1*
X5025Y14390D1*
X5039Y14360D1*
X5054Y14330D1*
X5073Y14300D1*
X5095Y14270D1*
X5120Y14240D1*
X5101Y14210D1*
X5085Y14180D1*
X5072Y14150D1*
X5061Y14120D1*
X5049Y14091D1*
X5034Y14061D1*
X5011Y14031D1*
X4979Y14001D1*
X4940Y13971D1*
X5359Y14809D2*
X5402Y14779D1*
X5436Y14749D1*
X5462Y14719D1*
X5483Y14689D1*
X5500Y14659D1*
X5515Y14629D1*
X5526Y14599D1*
X5533Y14569D1*
X5536Y14539D1*
X5537Y14509D1*
X5533Y14480D1*
X5526Y14450D1*
X5518Y14420D1*
X5507Y14390D1*
X5493Y14360D1*
X5473Y14330D1*
X5452Y14300D1*
X5434Y14270D1*
X5429Y14240D1*
X5435Y14210D1*
X5445Y14180D1*
X5457Y14150D1*
X5468Y14120D1*
X5479Y14091D1*
X5491Y14061D1*
X5523Y14031D1*
X5571Y14001D1*
X5625Y13971D1*
X5677Y13941D1*
X5728Y13911D1*
X5778Y13881D1*
X5180Y14749D2*
X5151Y14719D1*
X5125Y14689D1*
X5103Y14659D1*
X5086Y14629D1*
X5072Y14599D1*
X5060Y14569D1*
X5046Y14539D1*
X5030Y14509D1*
X5045Y14480D1*
X5059Y14450D1*
X5075Y14420D1*
X5097Y14390D1*
X5122Y14360D1*
X5145Y14330D1*
X5164Y14300D1*
X5170Y14270D1*
X5165Y14240D1*
X5158Y14210D1*
X5149Y14180D1*
X5138Y14150D1*
X5126Y14120D1*
X5113Y14091D1*
X5101Y14061D1*
X5091Y14031D1*
X5079Y14001D1*
X5066Y13971D1*
X5053Y13941D1*
X5041Y13911D1*
X5030Y13881D1*
X5299Y14749D2*
X5349Y14719D1*
X5389Y14689D1*
X5420Y14659D1*
X5444Y14629D1*
X5461Y14599D1*
X5471Y14569D1*
X5476Y14539D1*
Y14509D1*
X5473Y14480D1*
X5465Y14450D1*
X5453Y14420D1*
X5436Y14390D1*
X5414Y14360D1*
X5393Y14330D1*
X5377Y14300D1*
X5366Y14270D1*
X5367Y14240D1*
X5373Y14210D1*
X5381Y14180D1*
X5390Y14150D1*
X5400Y14120D1*
X5413Y14091D1*
X5426Y14061D1*
X5438Y14031D1*
X5448Y14001D1*
X5460Y13971D1*
X5474Y13941D1*
X5490Y13911D1*
X5509Y13881D1*
X4940Y14001D2*
X4895Y13971D1*
X4852Y13941D1*
X4807Y13911D1*
X4761Y13881D1*
X4910Y13911D2*
X4881Y13881D1*
X4851Y13851D1*
X4821Y13821D1*
X4970Y13911D2*
X5000Y13881D1*
X5569Y13911D2*
X5623Y13881D1*
X5672Y13851D1*
X5718Y13821D1*
X10050Y22273D2*
D102*
X10074Y22320D1*
X10122Y22369D1*
X10170Y22392D1*
X10265D1*
X10313Y22369D1*
X10361Y22320D1*
X10385Y22273D1*
X10409Y22201D1*
Y22081D1*
X10385Y22010D1*
X10361Y21962D1*
X10313Y21914D1*
X10265Y21890D1*
X10170D1*
X10122Y21914D1*
X10074Y21962D1*
X10050Y22010D1*
Y22081D1*
X10170D1*
X9896Y22225D2*
Y21890D1*
Y22129D2*
X9824Y22201D1*
X9776Y22225D1*
X9705D1*
X9656Y22201D1*
X9633Y22129D1*
Y21890D1*
X9191Y22392D2*
Y21890D1*
Y22153D2*
X9239Y22201D1*
X9287Y22225D1*
X9359D1*
X9406Y22201D1*
X9455Y22153D1*
X9478Y22081D1*
Y22034D1*
X9455Y21962D1*
X9406Y21914D1*
X9359Y21890D1*
X9287D1*
X9239Y21914D1*
X9191Y21962D1*
X8551Y22153D2*
X8336D1*
X8264Y22177D1*
X8240Y22201D1*
X8216Y22249D1*
Y22297D1*
X8240Y22344D1*
X8264Y22369D1*
X8336Y22392D1*
X8551D1*
Y21890D1*
X8384Y22153D2*
X8216Y21890D1*
X7217Y22273D2*
X7241Y22320D1*
X7289Y22369D1*
X7336Y22392D1*
X7432D1*
X7480Y22369D1*
X7528Y22320D1*
X7552Y22273D1*
X7576Y22201D1*
Y22081D1*
X7552Y22010D1*
X7528Y21962D1*
X7480Y21914D1*
X7432Y21890D1*
X7336D1*
X7289Y21914D1*
X7241Y21962D1*
X7217Y22010D1*
Y22081D1*
X7336D1*
X6577Y22392D2*
Y21890D1*
X6361D1*
X6289Y21914D1*
X6265Y21938D1*
X6242Y21986D1*
Y22057D1*
X6265Y22105D1*
X6289Y22129D1*
X6361Y22153D1*
X6289Y22177D1*
X6265Y22201D1*
X6242Y22249D1*
Y22297D1*
X6265Y22344D1*
X6289Y22369D1*
X6361Y22392D1*
X6577D1*
Y22153D2*
X6361D1*
X5601Y22392D2*
X5481Y21890D1*
X5362Y22392D1*
X5243Y21890D1*
X5123Y22392D1*
X10403Y13537D2*
D103*
X10633D1*
X10676Y13551D1*
X10691Y13566D1*
X10705Y13595D1*
Y13638D1*
X10691Y13666D1*
X10447Y13537D2*
X10418Y13566D1*
X10403Y13595D1*
Y13638D1*
X10418Y13666D1*
X10447Y13695D1*
X10490Y13709D1*
X10519D1*
X10561Y13695D1*
X10590Y13666D1*
X10604Y13638D1*
Y13595D1*
X10590Y13566D1*
X10561Y13537D1*
X10289Y13445D2*
X10303Y13430D1*
X10289Y13416D1*
X10274Y13430D1*
X10289Y13445D1*
X10389Y13430D2*
X10590D1*
X10289Y13280D2*
X10533D1*
X10576Y13266D1*
X10590Y13237D1*
Y13208D1*
X10389Y13323D2*
Y13223D1*
X10289Y13116D2*
X10590D1*
X10447D2*
X10403Y13073D1*
X10389Y13044D1*
Y13001D1*
X10403Y12972D1*
X10447Y12958D1*
X10590D1*
X10389Y12865D2*
X10533D1*
X10576Y12851D1*
X10590Y12822D1*
Y12779D1*
X10576Y12750D1*
X10533Y12707D1*
X10389D2*
X10590D1*
X10289Y12615D2*
X10590D1*
X10432D2*
X10403Y12586D1*
X10389Y12557D1*
Y12514D1*
X10403Y12486D1*
X10432Y12457D1*
X10475Y12443D1*
X10504D1*
X10547Y12457D1*
X10576Y12486D1*
X10590Y12514D1*
Y12557D1*
X10576Y12586D1*
X10547Y12615D1*
X10561Y12336D2*
X10576Y12350D1*
X10590Y12336D1*
X10576Y12321D1*
X10561Y12336D1*
X10432Y12056D2*
X10403Y12085D1*
X10389Y12114D1*
Y12157D1*
X10403Y12185D1*
X10432Y12214D1*
X10475Y12228D1*
X10504D1*
X10547Y12214D1*
X10576Y12185D1*
X10590Y12157D1*
Y12114D1*
X10576Y12085D1*
X10547Y12056D1*
X10389Y11892D2*
X10403Y11920D1*
X10432Y11949D1*
X10475Y11963D1*
X10504D1*
X10547Y11949D1*
X10576Y11920D1*
X10590Y11892D1*
Y11849D1*
X10576Y11820D1*
X10547Y11791D1*
X10504Y11777D1*
X10475D1*
X10432Y11791D1*
X10403Y11820D1*
X10389Y11849D1*
Y11892D1*
Y11684D2*
X10590D1*
X10447D2*
X10403Y11641D1*
X10389Y11612D1*
Y11569D1*
X10403Y11540D1*
X10447Y11526D1*
X10590D1*
X10447D2*
X10403Y11483D1*
X10389Y11454D1*
Y11411D1*
X10403Y11383D1*
X10447Y11368D1*
X10590D1*
Y11275D2*
X10289Y11074D1*
X10389Y10982D2*
X10590D1*
X10475D2*
X10432Y10967D1*
X10403Y10939D1*
X10389Y10910D1*
Y10867D1*
X10475Y10774D2*
Y10602D1*
X10447D1*
X10418Y10616D1*
X10403Y10631D1*
X10389Y10659D1*
Y10702D1*
X10403Y10731D1*
X10432Y10760D1*
X10475Y10774D1*
X10504D1*
X10547Y10760D1*
X10576Y10731D1*
X10590Y10702D1*
Y10659D1*
X10576Y10631D1*
X10547Y10602D1*
X10389Y10509D2*
X10590Y10352D1*
X10389D2*
X10590Y10509D1*
X10389Y10259D2*
X10590Y10101D1*
X10389D2*
X10590Y10259D1*
X10389Y9836D2*
X10590D1*
X10432D2*
X10403Y9865D1*
X10389Y9894D1*
Y9936D1*
X10403Y9965D1*
X10432Y9994D1*
X10475Y10008D1*
X10504D1*
X10547Y9994D1*
X10576Y9965D1*
X10590Y9936D1*
Y9894D1*
X10576Y9865D1*
X10547Y9836D1*
X10389Y9744D2*
X10590D1*
X10475D2*
X10432Y9729D1*
X10404Y9701D1*
X10389Y9672D1*
Y9629D1*
X10440Y9536D2*
Y9370D1*
X10289Y9234D2*
X10533D1*
X10576Y9220D1*
X10590Y9191D1*
Y9163D1*
X10389Y9277D2*
Y9177D1*
X10432Y8898D2*
X10403Y8927D1*
X10389Y8955D1*
Y8998D1*
X10404Y9027D1*
X10432Y9056D1*
X10475Y9070D1*
X10504D1*
X10547Y9056D1*
X10576Y9027D1*
X10590Y8998D1*
Y8955D1*
X10576Y8927D1*
X10547Y8898D1*
X9450Y16717D2*
D13*
Y16545D1*
X9430Y16487D1*
X9411Y16468D1*
X9373Y16449D1*
X9335D1*
X9297Y16468D1*
X9277Y16487D1*
X9258Y16545D1*
Y16717D1*
X9660D1*
X9450Y16583D2*
X9660Y16449D1*
X9258Y16077D2*
Y16325D1*
X9660D1*
Y16077D1*
X9450Y16325D2*
Y16172D1*
X9258Y15953D2*
X9660Y15800D1*
X9258Y15647D1*
X9622Y15505D2*
X9641Y15524D1*
X9660Y15505D1*
X9641Y15485D1*
X9622Y15505D1*
X9354Y14686D2*
X9316Y14705D1*
X9277Y14743D1*
X9258Y14781D1*
Y14858D1*
X9277Y14896D1*
X9316Y14934D1*
X9354Y14954D1*
X9411Y14973D1*
X9507D1*
X9564Y14954D1*
X9603Y14934D1*
X9641Y14896D1*
X9660Y14858D1*
Y14781D1*
X9641Y14743D1*
X9603Y14705D1*
X9564Y14686D1*
X9507D1*
Y14781D1*
M02*
