G04 DipTrace 2.4.0.2*
%INIoDriverRevF2.gto*%
%MOIN*%
%ADD10C,0.0098*%
%ADD12C,0.003*%
%ADD15C,0.0118*%
%ADD17C,0.0157*%
%ADD23C,0.0236*%
%ADD31C,0.0154*%
%ADD42O,0.0154X0.0162*%
%ADD104C,0.0077*%
%ADD105C,0.0046*%
%FSLAX44Y44*%
G04*
G70*
G90*
G75*
G01*
%LNTopSilk*%
%LPD*%
X9937Y21249D2*
D10*
X4937D1*
Y22250D1*
X9937D1*
Y21249D1*
X4187Y5062D2*
X6187D1*
Y4062D1*
X4187D1*
Y5062D1*
X8477Y5206D2*
X10477D1*
Y4206D1*
X8477D1*
Y5206D1*
D31*
X3918Y9721D3*
X4049Y10065D2*
D10*
X4837D1*
Y10261D1*
X4049D1*
Y10065D1*
D31*
X7566Y18602D3*
X7658Y19104D2*
D10*
X8839D1*
Y19301D1*
X7658D1*
Y19104D1*
D31*
X5879Y18602D3*
X5971Y19104D2*
D10*
X7152D1*
Y19301D1*
X5971D1*
Y19104D1*
D31*
X4191Y18602D3*
X4283Y19104D2*
D10*
X5464D1*
Y19301D1*
X4283D1*
Y19104D1*
D31*
X9254Y18602D3*
X9346Y19104D2*
D10*
X10527D1*
Y19301D1*
X9346D1*
Y19104D1*
X5906Y13762D2*
X9331D1*
Y10337D1*
X5906D1*
Y13762D1*
D23*
X5256Y13940D3*
G36*
X5914Y13746D2*
X6288Y13739D1*
X5914Y13746D1*
G37*
G36*
X5965Y13782D2*
X6437D1*
X5886Y13231D1*
X5965Y13782D1*
G37*
X8839Y13428D2*
D10*
X8997D1*
Y13270D1*
X8839Y10672D2*
X8997D1*
Y10829D2*
Y10672D1*
X6239D2*
X6397D1*
X6239Y10829D2*
Y10672D1*
X6397Y13428D2*
X6239Y13270D1*
X5994Y7131D2*
X6077Y7048D1*
X5994Y6964D1*
X5158Y6296D2*
X5242Y6212D1*
X5325Y6296D2*
X5242Y6212D1*
X4407Y7048D2*
X4490Y6964D1*
Y7131D2*
X4407Y7048D1*
D15*
X4852Y7855D3*
X5325Y7800D2*
D10*
X5158Y7799D1*
X9802Y7540D2*
X9920Y7422D1*
X8345Y7540D2*
Y7422D1*
Y7540D2*
X8463D1*
X8345Y5964D2*
X8463D1*
X8345D2*
Y6082D1*
X9920Y5964D2*
X9802D1*
X9920D2*
Y6082D1*
D42*
X9623Y7813D3*
X7781Y7987D2*
D10*
X7584D1*
X6868Y8066D2*
Y9090D1*
X7781Y9168D2*
X7584D1*
X8522Y9090D2*
Y8066D1*
X8444Y7987D2*
G02X8522Y8066I79J0D01*
G01*
X6868D2*
G02X6947Y7987I0J-79D01*
G01*
X8522Y9090D2*
G02X8444Y9168I0J79D01*
G01*
X6947D2*
G02X6868Y9090I-79J0D01*
G01*
D17*
X7035Y7737D3*
X5030Y16137D2*
D12*
X5240D1*
X4387Y16122D2*
X4641D1*
X4974D2*
X5293D1*
X5644D2*
X6212D1*
X6571D2*
X7140D1*
X7424D2*
X7992D1*
X8381D2*
X9384D1*
X9473D2*
X10042D1*
X4387Y16107D2*
X4641D1*
X4927D2*
X5019D1*
X5233D2*
X5340D1*
X5644D2*
X6261D1*
X6571D2*
X7181D1*
X7424D2*
X7678D1*
X7709D2*
X7999D1*
X8374D2*
X9384D1*
X9473D2*
X10083D1*
X4387Y16092D2*
X4417D1*
X4626D2*
X4641D1*
X4888D2*
X4968D1*
X5293D2*
X5378D1*
X6221D2*
X6303D1*
X6571D2*
X6586D1*
X7152D2*
X7215D1*
X7424D2*
X7454D1*
X7663D2*
X7678D1*
X7711D2*
X7740D1*
X7975D2*
X8004D1*
X8368D2*
X8381D1*
X8668D2*
X8725D1*
X9369D2*
X9384D1*
X9473D2*
X9488D1*
X10054D2*
X10118D1*
X4387Y16077D2*
X4417D1*
X4626D2*
X4641D1*
X4857D2*
X4924D1*
X5341D2*
X5409D1*
X6268D2*
X6338D1*
X6571D2*
X6586D1*
X7190D2*
X7243D1*
X7424D2*
X7454D1*
X7663D2*
X7678D1*
X7715D2*
X7744D1*
X7984D2*
X8008D1*
X8362D2*
X8381D1*
X8657D2*
X8666D1*
X8695D2*
X8725D1*
X9369D2*
X9384D1*
X9473D2*
X9488D1*
X10092D2*
X10145D1*
X4387Y16062D2*
X4417D1*
X4626D2*
X4641D1*
X4831D2*
X4887D1*
X5379D2*
X5435D1*
X6308D2*
X6365D1*
X6571D2*
X6586D1*
X7222D2*
X7266D1*
X7424D2*
X7454D1*
X7663D2*
X7678D1*
X7720D2*
X7748D1*
X7991D2*
X8013D1*
X8357D2*
X8379D1*
X8649D2*
X8663D1*
X8695D2*
X8725D1*
X9369D2*
X9384D1*
X9473D2*
X9488D1*
X10124D2*
X10169D1*
X4387Y16047D2*
X4417D1*
X4626D2*
X4641D1*
X4810D2*
X4856D1*
X5407D2*
X5457D1*
X6340D2*
X6387D1*
X6571D2*
X6586D1*
X7248D2*
X7286D1*
X7424D2*
X7454D1*
X7663D2*
X7678D1*
X7727D2*
X7753D1*
X7997D2*
X8018D1*
X8353D2*
X8375D1*
X8642D2*
X8659D1*
X8695D2*
X8725D1*
X9369D2*
X9384D1*
X9473D2*
X9488D1*
X10151D2*
X10188D1*
X4387Y16032D2*
X4417D1*
X4626D2*
X4641D1*
X4793D2*
X4831D1*
X5431D2*
X5476D1*
X6366D2*
X6404D1*
X6571D2*
X6586D1*
X7269D2*
X7302D1*
X7424D2*
X7454D1*
X7663D2*
X7678D1*
X7732D2*
X7758D1*
X8002D2*
X8022D1*
X8350D2*
X8371D1*
X8636D2*
X8655D1*
X8695D2*
X8725D1*
X9369D2*
X9384D1*
X9473D2*
X9488D1*
X10172D2*
X10204D1*
X4387Y16017D2*
X4417D1*
X4626D2*
X4641D1*
X4777D2*
X4810D1*
X5450D2*
X5492D1*
X6387D2*
X6421D1*
X6571D2*
X6586D1*
X7287D2*
X7315D1*
X7424D2*
X7454D1*
X7663D2*
X7678D1*
X7738D2*
X7763D1*
X8005D2*
X8027D1*
X8346D2*
X8366D1*
X8631D2*
X8651D1*
X8695D2*
X8725D1*
X9369D2*
X9384D1*
X9473D2*
X9488D1*
X10189D2*
X10218D1*
X4387Y16002D2*
X4417D1*
X4626D2*
X4641D1*
X4761D2*
X4793D1*
X5467D2*
X5506D1*
X6405D2*
X6436D1*
X6571D2*
X6586D1*
X7300D2*
X7325D1*
X7424D2*
X7454D1*
X7663D2*
X7678D1*
X7743D2*
X7768D1*
X8009D2*
X8032D1*
X8341D2*
X8361D1*
X8626D2*
X8646D1*
X8695D2*
X8725D1*
X9369D2*
X9384D1*
X9473D2*
X9488D1*
X10203D2*
X10228D1*
X4387Y15987D2*
X4417D1*
X4626D2*
X4641D1*
X4747D2*
X4777D1*
X5481D2*
X5518D1*
X6420D2*
X6449D1*
X6571D2*
X6586D1*
X7310D2*
X7332D1*
X7424D2*
X7454D1*
X7663D2*
X7678D1*
X7748D2*
X7773D1*
X8013D2*
X8037D1*
X8336D2*
X8356D1*
X8621D2*
X8641D1*
X8695D2*
X8725D1*
X9369D2*
X9384D1*
X9473D2*
X9488D1*
X10213D2*
X10235D1*
X4387Y15972D2*
X4417D1*
X4626D2*
X4641D1*
X4734D2*
X4764D1*
X5495D2*
X5528D1*
X6434D2*
X6460D1*
X6571D2*
X6586D1*
X7317D2*
X7338D1*
X7424D2*
X7454D1*
X7663D2*
X7678D1*
X7753D2*
X7778D1*
X8018D2*
X8042D1*
X8331D2*
X8352D1*
X8616D2*
X8636D1*
X8695D2*
X8725D1*
X9369D2*
X9384D1*
X9473D2*
X9488D1*
X10220D2*
X10241D1*
X4387Y15957D2*
X4417D1*
X4626D2*
X4641D1*
X4723D2*
X4753D1*
X5507D2*
X5539D1*
X6445D2*
X6469D1*
X6571D2*
X6586D1*
X7323D2*
X7343D1*
X7424D2*
X7454D1*
X7663D2*
X7678D1*
X7758D2*
X7783D1*
X8022D2*
X8047D1*
X8326D2*
X8346D1*
X8611D2*
X8631D1*
X8695D2*
X8725D1*
X9369D2*
X9384D1*
X9473D2*
X9488D1*
X10226D2*
X10246D1*
X4387Y15942D2*
X4417D1*
X4626D2*
X4641D1*
X4714D2*
X4743D1*
X5517D2*
X5548D1*
X5898D2*
X6107D1*
X6454D2*
X6477D1*
X6571D2*
X6586D1*
X6840D2*
X7095D1*
X7328D2*
X7347D1*
X7424D2*
X7454D1*
X7663D2*
X7678D1*
X7763D2*
X7788D1*
X8027D2*
X8050D1*
X8322D2*
X8342D1*
X8606D2*
X8626D1*
X8695D2*
X8725D1*
X9369D2*
X9384D1*
X9473D2*
X9488D1*
X9743D2*
X9997D1*
X10231D2*
X10249D1*
X4387Y15927D2*
X4417D1*
X4626D2*
X4641D1*
X4707D2*
X4735D1*
X5060D2*
X5195D1*
X5526D2*
X5556D1*
X5898D2*
X6136D1*
X6462D2*
X6485D1*
X6571D2*
X6586D1*
X6840D2*
X7104D1*
X7331D2*
X7350D1*
X7424D2*
X7454D1*
X7663D2*
X7678D1*
X7768D2*
X7793D1*
X8032D2*
X8054D1*
X8317D2*
X8338D1*
X8601D2*
X8621D1*
X8695D2*
X8725D1*
X9369D2*
X9384D1*
X9473D2*
X9488D1*
X9743D2*
X10006D1*
X10234D2*
X10253D1*
X4387Y15912D2*
X4417D1*
X4626D2*
X4641D1*
X4702D2*
X4728D1*
X5033D2*
X5223D1*
X5535D2*
X5563D1*
X5644D2*
X5658D1*
X5898D2*
X5913D1*
X6119D2*
X6160D1*
X6470D2*
X6492D1*
X6571D2*
X6586D1*
X6840D2*
X6870D1*
X7079D2*
X7112D1*
X7333D2*
X7355D1*
X7424D2*
X7454D1*
X7663D2*
X7678D1*
X7773D2*
X7798D1*
X8037D2*
X8058D1*
X8312D2*
X8335D1*
X8596D2*
X8615D1*
X8695D2*
X8725D1*
X8935D2*
X9384D1*
X9473D2*
X9488D1*
X9743D2*
X9773D1*
X9981D2*
X10014D1*
X10235D2*
X10257D1*
X4387Y15897D2*
X4417D1*
X4626D2*
X4641D1*
X4696D2*
X4722D1*
X5010D2*
X5246D1*
X5542D2*
X5568D1*
X5644D2*
X5658D1*
X5898D2*
X5913D1*
X6142D2*
X6178D1*
X6477D2*
X6499D1*
X6571D2*
X6586D1*
X6840D2*
X6870D1*
X7092D2*
X7118D1*
X7334D2*
X7358D1*
X7424D2*
X7454D1*
X7663D2*
X7678D1*
X7778D2*
X7803D1*
X8042D2*
X8063D1*
X8309D2*
X8331D1*
X8591D2*
X8609D1*
X8695D2*
X8725D1*
X8935D2*
X9384D1*
X9473D2*
X9488D1*
X9743D2*
X9773D1*
X9994D2*
X10020D1*
X10236D2*
X10261D1*
X4387Y15882D2*
X4417D1*
X4626D2*
X4641D1*
X4691D2*
X4716D1*
X4992D2*
X5061D1*
X5189D2*
X5264D1*
X5548D2*
X5574D1*
X5644D2*
X5658D1*
X5898D2*
X5913D1*
X6160D2*
X6193D1*
X6484D2*
X6505D1*
X6571D2*
X6586D1*
X6840D2*
X6870D1*
X7100D2*
X7122D1*
X7334D2*
X7359D1*
X7424D2*
X7454D1*
X7663D2*
X7678D1*
X7783D2*
X7808D1*
X8047D2*
X8067D1*
X8305D2*
X8326D1*
X8585D2*
X8602D1*
X8695D2*
X8725D1*
X8935D2*
X8950D1*
X9473D2*
X9488D1*
X9743D2*
X9773D1*
X10003D2*
X10024D1*
X10236D2*
X10261D1*
X4387Y15867D2*
X4417D1*
X4626D2*
X4641D1*
X4686D2*
X4711D1*
X4979D2*
X5036D1*
X5221D2*
X5277D1*
X5553D2*
X5578D1*
X5644D2*
X5658D1*
X5898D2*
X5913D1*
X6174D2*
X6205D1*
X6490D2*
X6509D1*
X6571D2*
X6586D1*
X6840D2*
X6870D1*
X7106D2*
X7123D1*
X7334D2*
X7357D1*
X7424D2*
X7454D1*
X7663D2*
X7678D1*
X7788D2*
X7813D1*
X8050D2*
X8072D1*
X8301D2*
X8321D1*
X8579D2*
X8596D1*
X8695D2*
X8725D1*
X8935D2*
X8950D1*
X9473D2*
X9488D1*
X9743D2*
X9773D1*
X10009D2*
X10026D1*
X10236D2*
X10259D1*
X4387Y15852D2*
X4417D1*
X4626D2*
X4641D1*
X4681D2*
X4706D1*
X4968D2*
X5016D1*
X5244D2*
X5287D1*
X5559D2*
X5582D1*
X5644D2*
X5658D1*
X5898D2*
X5913D1*
X6184D2*
X6214D1*
X6493D2*
X6513D1*
X6571D2*
X6586D1*
X6840D2*
X6870D1*
X7106D2*
X7124D1*
X7333D2*
X7354D1*
X7424D2*
X7454D1*
X7663D2*
X7678D1*
X7793D2*
X7818D1*
X8054D2*
X8077D1*
X8296D2*
X8316D1*
X8572D2*
X8591D1*
X8695D2*
X8725D1*
X8935D2*
X8950D1*
X9473D2*
X9488D1*
X9743D2*
X9773D1*
X10009D2*
X10026D1*
X10236D2*
X10256D1*
X4387Y15837D2*
X4417D1*
X4626D2*
X4641D1*
X4677D2*
X4703D1*
X4960D2*
X5000D1*
X5259D2*
X5295D1*
X5563D2*
X5585D1*
X5644D2*
X5658D1*
X5898D2*
X5913D1*
X6193D2*
X6220D1*
X6495D2*
X6517D1*
X6571D2*
X6586D1*
X6840D2*
X6870D1*
X7100D2*
X7124D1*
X7332D2*
X7351D1*
X7424D2*
X7454D1*
X7663D2*
X7678D1*
X7798D2*
X7823D1*
X8058D2*
X8080D1*
X8292D2*
X8311D1*
X8566D2*
X8586D1*
X8695D2*
X8725D1*
X8935D2*
X8950D1*
X9473D2*
X9488D1*
X9743D2*
X9773D1*
X10003D2*
X10026D1*
X10234D2*
X10253D1*
X4387Y15823D2*
X4417D1*
X4626D2*
X4641D1*
X4674D2*
X4700D1*
X4952D2*
X4988D1*
X5271D2*
X5302D1*
X5566D2*
X5589D1*
X5644D2*
X5658D1*
X5898D2*
X5913D1*
X6200D2*
X6224D1*
X6496D2*
X6521D1*
X6571D2*
X6586D1*
X6840D2*
X6870D1*
X7090D2*
X7121D1*
X7327D2*
X7347D1*
X7424D2*
X7454D1*
X7663D2*
X7678D1*
X7803D2*
X7828D1*
X8063D2*
X8083D1*
X8287D2*
X8307D1*
X8561D2*
X8581D1*
X8695D2*
X8725D1*
X8935D2*
X8950D1*
X9473D2*
X9488D1*
X9743D2*
X9773D1*
X9993D2*
X10024D1*
X10230D2*
X10250D1*
X4387Y15808D2*
X4417D1*
X4626D2*
X4641D1*
X4672D2*
X4695D1*
X4947D2*
X4979D1*
X5280D2*
X5308D1*
X5568D2*
X5593D1*
X5644D2*
X5658D1*
X5898D2*
X5913D1*
X6206D2*
X6226D1*
X6497D2*
X6524D1*
X6571D2*
X6586D1*
X6840D2*
X6870D1*
X7078D2*
X7115D1*
X7322D2*
X7343D1*
X7424D2*
X7454D1*
X7663D2*
X7678D1*
X7810D2*
X7833D1*
X8067D2*
X8088D1*
X8281D2*
X8302D1*
X8556D2*
X8576D1*
X8695D2*
X8725D1*
X8935D2*
X8950D1*
X9473D2*
X9488D1*
X9743D2*
X9773D1*
X9980D2*
X10018D1*
X10224D2*
X10245D1*
X4387Y15793D2*
X4417D1*
X4626D2*
X4641D1*
X4671D2*
X4691D1*
X4943D2*
X4974D1*
X5287D2*
X5312D1*
X5569D2*
X5596D1*
X5644D2*
X5658D1*
X5898D2*
X5913D1*
X6209D2*
X6227D1*
X6499D2*
X6525D1*
X6571D2*
X6586D1*
X6840D2*
X7106D1*
X7315D2*
X7337D1*
X7424D2*
X7454D1*
X7663D2*
X7678D1*
X7816D2*
X7838D1*
X8072D2*
X8092D1*
X8277D2*
X8297D1*
X8551D2*
X8571D1*
X8695D2*
X8725D1*
X8935D2*
X9234D1*
X9473D2*
X9488D1*
X9743D2*
X10008D1*
X10217D2*
X10239D1*
X4387Y15778D2*
X4417D1*
X4626D2*
X4642D1*
X4671D2*
X4689D1*
X4942D2*
X4969D1*
X5293D2*
X5314D1*
X5571D2*
X5598D1*
X5644D2*
X5658D1*
X5898D2*
X5913D1*
X6211D2*
X6229D1*
X6502D2*
X6526D1*
X6571D2*
X6586D1*
X6840D2*
X7095D1*
X7307D2*
X7330D1*
X7424D2*
X7454D1*
X7663D2*
X7678D1*
X7822D2*
X7843D1*
X8077D2*
X8097D1*
X8272D2*
X8294D1*
X8546D2*
X8566D1*
X8695D2*
X8725D1*
X8935D2*
X9234D1*
X9473D2*
X9488D1*
X9743D2*
X9997D1*
X10209D2*
X10232D1*
X4387Y15763D2*
X4417D1*
X4626D2*
X4644D1*
X4668D2*
X4687D1*
X4941D2*
X4965D1*
X5296D2*
X5316D1*
X5575D2*
X5598D1*
X5644D2*
X5658D1*
X5898D2*
X5913D1*
X6212D2*
X6232D1*
X6506D2*
X6526D1*
X6571D2*
X6586D1*
X7297D2*
X7322D1*
X7424D2*
X7454D1*
X7663D2*
X7678D1*
X7827D2*
X7848D1*
X8082D2*
X8102D1*
X8267D2*
X8290D1*
X8541D2*
X8561D1*
X8695D2*
X8725D1*
X9204D2*
X9234D1*
X9473D2*
X9488D1*
X10200D2*
X10224D1*
X4387Y15748D2*
X4417D1*
X4626D2*
X4649D1*
X4663D2*
X4686D1*
X4941D2*
X4961D1*
X5298D2*
X5320D1*
X5579D2*
X5598D1*
X5644D2*
X5658D1*
X5898D2*
X5913D1*
X6212D2*
X6234D1*
X6509D2*
X6526D1*
X6571D2*
X6586D1*
X7283D2*
X7313D1*
X7424D2*
X7454D1*
X7663D2*
X7678D1*
X7833D2*
X7853D1*
X8087D2*
X8107D1*
X8264D2*
X8286D1*
X8536D2*
X8555D1*
X8695D2*
X8725D1*
X9204D2*
X9234D1*
X9473D2*
X9488D1*
X10185D2*
X10215D1*
X4387Y15733D2*
X4417D1*
X4626D2*
X4686D1*
X4940D2*
X4958D1*
X5299D2*
X5322D1*
X5581D2*
X5599D1*
X5644D2*
X5658D1*
X5898D2*
X5913D1*
X6212D2*
X6233D1*
X6510D2*
X6526D1*
X6571D2*
X6586D1*
X7264D2*
X7301D1*
X7424D2*
X7454D1*
X7663D2*
X7678D1*
X7838D2*
X7858D1*
X8092D2*
X8112D1*
X8260D2*
X8281D1*
X8531D2*
X8549D1*
X8695D2*
X8725D1*
X9204D2*
X9234D1*
X9473D2*
X9488D1*
X10166D2*
X10204D1*
X4387Y15718D2*
X4417D1*
X4626D2*
X4686D1*
X4940D2*
X4959D1*
X5299D2*
X5321D1*
X5582D2*
X5599D1*
X5644D2*
X5658D1*
X5898D2*
X5913D1*
X6212D2*
X6231D1*
X6508D2*
X6526D1*
X6571D2*
X6586D1*
X7239D2*
X7287D1*
X7424D2*
X7454D1*
X7663D2*
X7678D1*
X7843D2*
X7863D1*
X8095D2*
X8117D1*
X8256D2*
X8277D1*
X8526D2*
X8542D1*
X8695D2*
X8725D1*
X9204D2*
X9234D1*
X9473D2*
X9488D1*
X10141D2*
X10190D1*
X4387Y15703D2*
X4417D1*
X4626D2*
X4686D1*
X4940D2*
X4962D1*
X5299D2*
X5318D1*
X5581D2*
X5599D1*
X5644D2*
X5658D1*
X5898D2*
X5913D1*
X6212D2*
X6229D1*
X6505D2*
X6526D1*
X6571D2*
X6586D1*
X7208D2*
X7271D1*
X7424D2*
X7454D1*
X7663D2*
X7678D1*
X7848D2*
X7870D1*
X8098D2*
X8122D1*
X8251D2*
X8272D1*
X8521D2*
X8537D1*
X8695D2*
X8725D1*
X9204D2*
X9234D1*
X9473D2*
X9488D1*
X10111D2*
X10173D1*
X4387Y15688D2*
X4417D1*
X4626D2*
X4641D1*
X4671D2*
X4687D1*
X4941D2*
X4965D1*
X5299D2*
X5316D1*
X5577D2*
X5599D1*
X5644D2*
X5658D1*
X5898D2*
X5913D1*
X6211D2*
X6228D1*
X6501D2*
X6526D1*
X6571D2*
X6586D1*
X7175D2*
X7249D1*
X7424D2*
X7454D1*
X7663D2*
X7678D1*
X7853D2*
X7876D1*
X8103D2*
X8125D1*
X8247D2*
X8267D1*
X8516D2*
X8531D1*
X8695D2*
X8725D1*
X9204D2*
X9234D1*
X9473D2*
X9488D1*
X10078D2*
X10151D1*
X4387Y15673D2*
X4417D1*
X4626D2*
X4641D1*
X4671D2*
X4689D1*
X4943D2*
X4968D1*
X5297D2*
X5315D1*
X5574D2*
X5598D1*
X5644D2*
X5658D1*
X5898D2*
X5913D1*
X6210D2*
X6227D1*
X6499D2*
X6524D1*
X6571D2*
X6586D1*
X7147D2*
X7221D1*
X7424D2*
X7454D1*
X7663D2*
X7678D1*
X7858D2*
X7882D1*
X8107D2*
X8128D1*
X8242D2*
X8264D1*
X8510D2*
X8526D1*
X8695D2*
X8725D1*
X8935D2*
X9234D1*
X9473D2*
X9488D1*
X10049D2*
X10124D1*
X4387Y15658D2*
X4417D1*
X4626D2*
X4641D1*
X4671D2*
X4692D1*
X4947D2*
X4970D1*
X5293D2*
X5314D1*
X5571D2*
X5596D1*
X5644D2*
X5658D1*
X5898D2*
X5913D1*
X6206D2*
X6225D1*
X6497D2*
X6520D1*
X6571D2*
X6586D1*
X7125D2*
X7192D1*
X7424D2*
X7454D1*
X7663D2*
X7678D1*
X7863D2*
X7887D1*
X8112D2*
X8133D1*
X8237D2*
X8260D1*
X8504D2*
X8521D1*
X8695D2*
X8725D1*
X8935D2*
X9234D1*
X9473D2*
X9488D1*
X10027D2*
X10094D1*
X4387Y15643D2*
X4417D1*
X4626D2*
X4641D1*
X4672D2*
X4696D1*
X4951D2*
X4973D1*
X5289D2*
X5312D1*
X5569D2*
X5593D1*
X5644D2*
X5658D1*
X5898D2*
X5913D1*
X6201D2*
X6221D1*
X6497D2*
X6516D1*
X6571D2*
X6586D1*
X7116D2*
X7167D1*
X7424D2*
X7454D1*
X7663D2*
X7678D1*
X7868D2*
X7893D1*
X8117D2*
X8137D1*
X8232D2*
X8256D1*
X8497D2*
X8516D1*
X8695D2*
X8725D1*
X8935D2*
X8950D1*
X9473D2*
X9488D1*
X10018D2*
X10069D1*
X4387Y15628D2*
X4417D1*
X4626D2*
X4641D1*
X4674D2*
X4699D1*
X4955D2*
X4979D1*
X5284D2*
X5308D1*
X5567D2*
X5589D1*
X5644D2*
X5658D1*
X5898D2*
X5913D1*
X6196D2*
X6216D1*
X6496D2*
X6514D1*
X6571D2*
X6586D1*
X7114D2*
X7147D1*
X7424D2*
X7454D1*
X7663D2*
X7678D1*
X7873D2*
X7898D1*
X8122D2*
X8142D1*
X8227D2*
X8251D1*
X8492D2*
X8511D1*
X8695D2*
X8725D1*
X8935D2*
X8950D1*
X9473D2*
X9488D1*
X10016D2*
X10050D1*
X4387Y15613D2*
X4417D1*
X4626D2*
X4641D1*
X4677D2*
X4702D1*
X4961D2*
X4987D1*
X5276D2*
X5301D1*
X5563D2*
X5586D1*
X5644D2*
X5658D1*
X5898D2*
X5913D1*
X6189D2*
X6211D1*
X6494D2*
X6512D1*
X6571D2*
X6586D1*
X6825D2*
X6870D1*
X7120D2*
X7150D1*
X7424D2*
X7454D1*
X7663D2*
X7678D1*
X7878D2*
X7902D1*
X8127D2*
X8147D1*
X8222D2*
X8247D1*
X8486D2*
X8506D1*
X8695D2*
X8725D1*
X8935D2*
X8950D1*
X9473D2*
X9488D1*
X9728D2*
X9773D1*
X10022D2*
X10052D1*
X4387Y15598D2*
X4417D1*
X4626D2*
X4641D1*
X4682D2*
X4707D1*
X4968D2*
X4997D1*
X5264D2*
X5293D1*
X5558D2*
X5582D1*
X5644D2*
X5658D1*
X5898D2*
X5913D1*
X6178D2*
X6204D1*
X6490D2*
X6509D1*
X6571D2*
X6586D1*
X6825D2*
X6885D1*
X7129D2*
X7160D1*
X7424D2*
X7454D1*
X7663D2*
X7678D1*
X7885D2*
X7908D1*
X8132D2*
X8152D1*
X8219D2*
X8242D1*
X8481D2*
X8501D1*
X8695D2*
X8725D1*
X8935D2*
X8950D1*
X9473D2*
X9488D1*
X9728D2*
X9788D1*
X10031D2*
X10062D1*
X4387Y15583D2*
X4417D1*
X4626D2*
X4641D1*
X4686D2*
X4711D1*
X4977D2*
X5011D1*
X5248D2*
X5281D1*
X5554D2*
X5578D1*
X5644D2*
X5658D1*
X5898D2*
X5913D1*
X6162D2*
X6193D1*
X6486D2*
X6505D1*
X6571D2*
X6586D1*
X6825D2*
X6900D1*
X7141D2*
X7172D1*
X7424D2*
X7454D1*
X7663D2*
X7678D1*
X7891D2*
X7913D1*
X8137D2*
X8157D1*
X8215D2*
X8237D1*
X8476D2*
X8496D1*
X8695D2*
X8725D1*
X8935D2*
X8950D1*
X9473D2*
X9488D1*
X9728D2*
X9803D1*
X10043D2*
X10074D1*
X4387Y15568D2*
X4417D1*
X4626D2*
X4641D1*
X4691D2*
X4716D1*
X4990D2*
X5053D1*
X5204D2*
X5267D1*
X5548D2*
X5573D1*
X5644D2*
X5658D1*
X5898D2*
X5913D1*
X6142D2*
X6179D1*
X6481D2*
X6501D1*
X6571D2*
X6586D1*
X6825D2*
X6855D1*
X6885D2*
X6915D1*
X7152D2*
X7185D1*
X7424D2*
X7454D1*
X7663D2*
X7678D1*
X7897D2*
X7917D1*
X8140D2*
X8162D1*
X8211D2*
X8232D1*
X8471D2*
X8491D1*
X8695D2*
X8725D1*
X8935D2*
X8950D1*
X9473D2*
X9488D1*
X9728D2*
X9758D1*
X9788D2*
X9818D1*
X10055D2*
X10088D1*
X4387Y15553D2*
X4417D1*
X4626D2*
X4641D1*
X4696D2*
X4722D1*
X5007D2*
X5117D1*
X5139D2*
X5248D1*
X5542D2*
X5569D1*
X5644D2*
X5658D1*
X5898D2*
X5913D1*
X6118D2*
X6161D1*
X6476D2*
X6496D1*
X6571D2*
X6586D1*
X6825D2*
X6855D1*
X6900D2*
X6930D1*
X7162D2*
X7394D1*
X7424D2*
X7454D1*
X7663D2*
X7678D1*
X7902D2*
X7923D1*
X8143D2*
X8167D1*
X8206D2*
X8227D1*
X8466D2*
X8486D1*
X8695D2*
X8725D1*
X8935D2*
X9414D1*
X9473D2*
X9488D1*
X9728D2*
X9758D1*
X9803D2*
X9833D1*
X10064D2*
X10296D1*
X4387Y15538D2*
X4417D1*
X4626D2*
X4641D1*
X4701D2*
X4728D1*
X5032D2*
X5223D1*
X5535D2*
X5563D1*
X5644D2*
X5658D1*
X5898D2*
X6136D1*
X6469D2*
X6491D1*
X6571D2*
X6586D1*
X6825D2*
X6855D1*
X6915D2*
X6945D1*
X7170D2*
X7394D1*
X7424D2*
X7454D1*
X7663D2*
X7678D1*
X7907D2*
X7928D1*
X8148D2*
X8172D1*
X8201D2*
X8222D1*
X8461D2*
X8481D1*
X8695D2*
X8725D1*
X8935D2*
X9414D1*
X9473D2*
X9488D1*
X9728D2*
X9758D1*
X9818D2*
X9847D1*
X10072D2*
X10296D1*
X4387Y15523D2*
X4417D1*
X4626D2*
X4641D1*
X4707D2*
X4735D1*
X5060D2*
X5195D1*
X5527D2*
X5557D1*
X5898D2*
X6107D1*
X6460D2*
X6484D1*
X6571D2*
X6586D1*
X6825D2*
X6855D1*
X6930D2*
X6960D1*
X7379D2*
X7394D1*
X7424D2*
X7454D1*
X7663D2*
X7678D1*
X7913D2*
X7932D1*
X8152D2*
X8179D1*
X8195D2*
X8219D1*
X8456D2*
X8474D1*
X8695D2*
X8725D1*
X9399D2*
X9414D1*
X9473D2*
X9488D1*
X9728D2*
X9758D1*
X9833D2*
X9862D1*
X10281D2*
X10296D1*
X4387Y15508D2*
X4417D1*
X4626D2*
X4641D1*
X4714D2*
X4743D1*
X5518D2*
X5550D1*
X6451D2*
X6477D1*
X6571D2*
X6586D1*
X6825D2*
X6855D1*
X6945D2*
X6975D1*
X7379D2*
X7394D1*
X7424D2*
X7454D1*
X7663D2*
X7678D1*
X7917D2*
X7938D1*
X8157D2*
X8215D1*
X8451D2*
X8468D1*
X8695D2*
X8725D1*
X9399D2*
X9414D1*
X9473D2*
X9488D1*
X9728D2*
X9758D1*
X9847D2*
X9877D1*
X10281D2*
X10296D1*
X4387Y15493D2*
X4417D1*
X4626D2*
X4641D1*
X4723D2*
X4752D1*
X5508D2*
X5542D1*
X6441D2*
X6469D1*
X6571D2*
X6586D1*
X6825D2*
X6855D1*
X6960D2*
X6990D1*
X7379D2*
X7394D1*
X7424D2*
X7454D1*
X7663D2*
X7678D1*
X7923D2*
X7943D1*
X8164D2*
X8209D1*
X8446D2*
X8462D1*
X8695D2*
X8725D1*
X9399D2*
X9414D1*
X9473D2*
X9488D1*
X9728D2*
X9758D1*
X9862D2*
X9892D1*
X10281D2*
X10296D1*
X4387Y15478D2*
X4417D1*
X4626D2*
X4641D1*
X4733D2*
X4764D1*
X5499D2*
X5532D1*
X6431D2*
X6460D1*
X6571D2*
X6586D1*
X6825D2*
X6855D1*
X6975D2*
X7005D1*
X7379D2*
X7394D1*
X7424D2*
X7454D1*
X7663D2*
X7678D1*
X7928D2*
X7947D1*
X8172D2*
X8202D1*
X8441D2*
X8457D1*
X8695D2*
X8725D1*
X9399D2*
X9414D1*
X9473D2*
X9488D1*
X9728D2*
X9758D1*
X9877D2*
X9907D1*
X10281D2*
X10296D1*
X4387Y15463D2*
X4417D1*
X4626D2*
X4641D1*
X4745D2*
X4777D1*
X5488D2*
X5521D1*
X6419D2*
X6448D1*
X6571D2*
X6586D1*
X6825D2*
X6855D1*
X6989D2*
X7020D1*
X7379D2*
X7394D1*
X7424D2*
X7454D1*
X7663D2*
X7678D1*
X7932D2*
X7952D1*
X8436D2*
X8451D1*
X8695D2*
X8725D1*
X9399D2*
X9414D1*
X9473D2*
X9488D1*
X9728D2*
X9758D1*
X9892D2*
X9922D1*
X10281D2*
X10296D1*
X4387Y15449D2*
X4417D1*
X4626D2*
X4641D1*
X4756D2*
X4792D1*
X5474D2*
X5508D1*
X6405D2*
X6435D1*
X6571D2*
X6586D1*
X6825D2*
X6855D1*
X7002D2*
X7035D1*
X7379D2*
X7394D1*
X7424D2*
X7454D1*
X7663D2*
X7678D1*
X7938D2*
X7958D1*
X8429D2*
X8446D1*
X8695D2*
X8725D1*
X9399D2*
X9414D1*
X9473D2*
X9488D1*
X9728D2*
X9758D1*
X9905D2*
X9937D1*
X10281D2*
X10296D1*
X4387Y15434D2*
X4417D1*
X4626D2*
X4641D1*
X4769D2*
X4809D1*
X5456D2*
X5493D1*
X6389D2*
X6421D1*
X6571D2*
X6586D1*
X6825D2*
X6855D1*
X7014D2*
X7050D1*
X7379D2*
X7394D1*
X7424D2*
X7454D1*
X7663D2*
X7678D1*
X7943D2*
X7962D1*
X8423D2*
X8441D1*
X8695D2*
X8725D1*
X9399D2*
X9414D1*
X9473D2*
X9488D1*
X9728D2*
X9758D1*
X9916D2*
X9952D1*
X10281D2*
X10296D1*
X4387Y15419D2*
X4417D1*
X4626D2*
X4641D1*
X4785D2*
X4828D1*
X5435D2*
X5478D1*
X6369D2*
X6406D1*
X6571D2*
X6586D1*
X6825D2*
X6855D1*
X7025D2*
X7065D1*
X7379D2*
X7394D1*
X7424D2*
X7454D1*
X7663D2*
X7678D1*
X7947D2*
X7967D1*
X8417D2*
X8436D1*
X8695D2*
X8725D1*
X9399D2*
X9414D1*
X9473D2*
X9488D1*
X9728D2*
X9758D1*
X9927D2*
X9967D1*
X10281D2*
X10296D1*
X4387Y15404D2*
X4417D1*
X4626D2*
X4641D1*
X4804D2*
X4852D1*
X5411D2*
X5461D1*
X6344D2*
X6388D1*
X6571D2*
X6586D1*
X6825D2*
X6855D1*
X7037D2*
X7080D1*
X7379D2*
X7394D1*
X7424D2*
X7454D1*
X7663D2*
X7678D1*
X7952D2*
X7973D1*
X8412D2*
X8431D1*
X8695D2*
X8725D1*
X9399D2*
X9414D1*
X9473D2*
X9488D1*
X9728D2*
X9758D1*
X9940D2*
X9982D1*
X10281D2*
X10296D1*
X4387Y15389D2*
X4417D1*
X4626D2*
X4641D1*
X4826D2*
X4882D1*
X5382D2*
X5440D1*
X6309D2*
X6367D1*
X6571D2*
X6586D1*
X6825D2*
X6855D1*
X7051D2*
X7095D1*
X7379D2*
X7394D1*
X7424D2*
X7454D1*
X7663D2*
X7678D1*
X7958D2*
X7978D1*
X8406D2*
X8426D1*
X8695D2*
X8725D1*
X9399D2*
X9414D1*
X9473D2*
X9488D1*
X9728D2*
X9758D1*
X9953D2*
X9997D1*
X10281D2*
X10296D1*
X4387Y15374D2*
X4417D1*
X4626D2*
X4641D1*
X4851D2*
X4921D1*
X5342D2*
X5414D1*
X6261D2*
X6341D1*
X6571D2*
X6586D1*
X6825D2*
X6855D1*
X7065D2*
X7110D1*
X7379D2*
X7394D1*
X7424D2*
X7454D1*
X7663D2*
X7678D1*
X7962D2*
X7985D1*
X8402D2*
X8421D1*
X8695D2*
X8725D1*
X9399D2*
X9414D1*
X9473D2*
X9488D1*
X9728D2*
X9758D1*
X9968D2*
X10012D1*
X10281D2*
X10296D1*
X4387Y15359D2*
X4417D1*
X4626D2*
X4641D1*
X4882D2*
X4967D1*
X5291D2*
X5383D1*
X6202D2*
X6306D1*
X6571D2*
X6586D1*
X6825D2*
X6855D1*
X7080D2*
X7125D1*
X7379D2*
X7394D1*
X7424D2*
X7454D1*
X7663D2*
X7678D1*
X7968D2*
X7996D1*
X8399D2*
X8417D1*
X8695D2*
X8725D1*
X9399D2*
X9414D1*
X9473D2*
X9488D1*
X9728D2*
X9758D1*
X9982D2*
X10027D1*
X10281D2*
X10296D1*
X4387Y15344D2*
X4641D1*
X4923D2*
X5020D1*
X5230D2*
X5344D1*
X5644D2*
X6262D1*
X6571D2*
X6855D1*
X7095D2*
X7394D1*
X7424D2*
X7678D1*
X7973D2*
X8414D1*
X8695D2*
X9414D1*
X9473D2*
X9758D1*
X9997D2*
X10296D1*
X4387Y15329D2*
X4641D1*
X4974D2*
X5294D1*
X5644D2*
X6212D1*
X6571D2*
X6855D1*
X7110D2*
X7394D1*
X7424D2*
X7678D1*
X7977D2*
X8411D1*
X8695D2*
X9414D1*
X9473D2*
X9758D1*
X10012D2*
X10296D1*
X5030Y15314D2*
X5240D1*
X5030Y16137D2*
X4974Y16122D1*
X4927Y16107D1*
X4888Y16092D1*
X4857Y16077D1*
X4831Y16062D1*
X4810Y16047D1*
X4793Y16032D1*
X4777Y16017D1*
X4761Y16002D1*
X4747Y15987D1*
X4734Y15972D1*
X4723Y15957D1*
X4714Y15942D1*
X4707Y15927D1*
X4702Y15912D1*
X4696Y15897D1*
X4691Y15882D1*
X4686Y15867D1*
X4681Y15852D1*
X4677Y15837D1*
X4674Y15823D1*
X4672Y15808D1*
X4671Y15793D1*
Y15778D1*
X4668Y15763D1*
X4663Y15748D1*
X4656Y15733D1*
X5240Y16137D2*
X5293Y16122D1*
X5340Y16107D1*
X5378Y16092D1*
X5409Y16077D1*
X5435Y16062D1*
X5457Y16047D1*
X5476Y16032D1*
X5492Y16017D1*
X5506Y16002D1*
X5518Y15987D1*
X5528Y15972D1*
X5539Y15957D1*
X5548Y15942D1*
X5556Y15927D1*
X5563Y15912D1*
X5568Y15897D1*
X5574Y15882D1*
X5578Y15867D1*
X5582Y15852D1*
X5585Y15837D1*
X5589Y15823D1*
X5593Y15808D1*
X5596Y15793D1*
X5598Y15778D1*
Y15763D1*
Y15748D1*
X5599Y15733D1*
Y15718D1*
Y15703D1*
Y15688D1*
X5598Y15673D1*
X5596Y15658D1*
X5593Y15643D1*
X5589Y15628D1*
X5586Y15613D1*
X5582Y15598D1*
X5578Y15583D1*
X5573Y15568D1*
X5569Y15553D1*
X5563Y15538D1*
X5557Y15523D1*
X5550Y15508D1*
X5542Y15493D1*
X5532Y15478D1*
X5521Y15463D1*
X5508Y15449D1*
X5493Y15434D1*
X5478Y15419D1*
X5461Y15404D1*
X5440Y15389D1*
X5414Y15374D1*
X5383Y15359D1*
X5344Y15344D1*
X5294Y15329D1*
X5240Y15314D1*
X4387Y16122D2*
Y16107D1*
Y16092D1*
Y16077D1*
Y16062D1*
Y16047D1*
Y16032D1*
Y16017D1*
Y16002D1*
Y15987D1*
Y15972D1*
Y15957D1*
Y15942D1*
Y15927D1*
Y15912D1*
Y15897D1*
Y15882D1*
Y15867D1*
Y15852D1*
Y15837D1*
Y15823D1*
Y15808D1*
Y15793D1*
Y15778D1*
Y15763D1*
Y15748D1*
Y15733D1*
Y15718D1*
Y15703D1*
Y15688D1*
Y15673D1*
Y15658D1*
Y15643D1*
Y15628D1*
Y15613D1*
Y15598D1*
Y15583D1*
Y15568D1*
Y15553D1*
Y15538D1*
Y15523D1*
Y15508D1*
Y15493D1*
Y15478D1*
Y15463D1*
Y15449D1*
Y15434D1*
Y15419D1*
Y15404D1*
Y15389D1*
Y15374D1*
Y15359D1*
Y15344D1*
Y15329D1*
X4641Y16122D2*
Y16107D1*
Y16092D1*
Y16077D1*
Y16062D1*
Y16047D1*
Y16032D1*
Y16017D1*
Y16002D1*
Y15987D1*
Y15972D1*
Y15957D1*
Y15942D1*
Y15927D1*
Y15912D1*
Y15897D1*
Y15882D1*
Y15867D1*
Y15852D1*
Y15837D1*
Y15823D1*
Y15808D1*
Y15793D1*
X4642Y15778D1*
X4644Y15763D1*
X4649Y15748D1*
X4656Y15733D1*
X5644Y16122D2*
Y16107D1*
X6212Y16122D2*
X6261Y16107D1*
X6303Y16092D1*
X6338Y16077D1*
X6365Y16062D1*
X6387Y16047D1*
X6404Y16032D1*
X6421Y16017D1*
X6436Y16002D1*
X6449Y15987D1*
X6460Y15972D1*
X6469Y15957D1*
X6477Y15942D1*
X6485Y15927D1*
X6492Y15912D1*
X6499Y15897D1*
X6505Y15882D1*
X6509Y15867D1*
X6513Y15852D1*
X6517Y15837D1*
X6521Y15823D1*
X6524Y15808D1*
X6525Y15793D1*
X6526Y15778D1*
Y15763D1*
Y15748D1*
Y15733D1*
Y15718D1*
Y15703D1*
Y15688D1*
X6524Y15673D1*
X6520Y15658D1*
X6516Y15643D1*
X6514Y15628D1*
X6512Y15613D1*
X6509Y15598D1*
X6505Y15583D1*
X6501Y15568D1*
X6496Y15553D1*
X6491Y15538D1*
X6484Y15523D1*
X6477Y15508D1*
X6469Y15493D1*
X6460Y15478D1*
X6448Y15463D1*
X6435Y15449D1*
X6421Y15434D1*
X6406Y15419D1*
X6388Y15404D1*
X6367Y15389D1*
X6341Y15374D1*
X6306Y15359D1*
X6262Y15344D1*
X6212Y15329D1*
X6571Y16122D2*
Y16107D1*
Y16092D1*
Y16077D1*
Y16062D1*
Y16047D1*
Y16032D1*
Y16017D1*
Y16002D1*
Y15987D1*
Y15972D1*
Y15957D1*
Y15942D1*
Y15927D1*
Y15912D1*
Y15897D1*
Y15882D1*
Y15867D1*
Y15852D1*
Y15837D1*
Y15823D1*
Y15808D1*
Y15793D1*
Y15778D1*
Y15763D1*
Y15748D1*
Y15733D1*
Y15718D1*
Y15703D1*
Y15688D1*
Y15673D1*
Y15658D1*
Y15643D1*
Y15628D1*
Y15613D1*
Y15598D1*
Y15583D1*
Y15568D1*
Y15553D1*
Y15538D1*
Y15523D1*
Y15508D1*
Y15493D1*
Y15478D1*
Y15463D1*
Y15449D1*
Y15434D1*
Y15419D1*
Y15404D1*
Y15389D1*
Y15374D1*
Y15359D1*
Y15344D1*
Y15329D1*
X7140Y16122D2*
X7181Y16107D1*
X7215Y16092D1*
X7243Y16077D1*
X7266Y16062D1*
X7286Y16047D1*
X7302Y16032D1*
X7315Y16017D1*
X7325Y16002D1*
X7332Y15987D1*
X7338Y15972D1*
X7343Y15957D1*
X7347Y15942D1*
X7350Y15927D1*
X7355Y15912D1*
X7358Y15897D1*
X7359Y15882D1*
X7357Y15867D1*
X7354Y15852D1*
X7351Y15837D1*
X7347Y15823D1*
X7343Y15808D1*
X7337Y15793D1*
X7330Y15778D1*
X7322Y15763D1*
X7313Y15748D1*
X7301Y15733D1*
X7287Y15718D1*
X7271Y15703D1*
X7249Y15688D1*
X7221Y15673D1*
X7192Y15658D1*
X7167Y15643D1*
X7147Y15628D1*
X7150Y15613D1*
X7160Y15598D1*
X7172Y15583D1*
X7185Y15568D1*
X7199Y15553D1*
X7424Y16122D2*
Y16107D1*
Y16092D1*
Y16077D1*
Y16062D1*
Y16047D1*
Y16032D1*
Y16017D1*
Y16002D1*
Y15987D1*
Y15972D1*
Y15957D1*
Y15942D1*
Y15927D1*
Y15912D1*
Y15897D1*
Y15882D1*
Y15867D1*
Y15852D1*
Y15837D1*
Y15823D1*
Y15808D1*
Y15793D1*
Y15778D1*
Y15763D1*
Y15748D1*
Y15733D1*
Y15718D1*
Y15703D1*
Y15688D1*
Y15673D1*
Y15658D1*
Y15643D1*
Y15628D1*
Y15613D1*
Y15598D1*
Y15583D1*
Y15568D1*
Y15553D1*
Y15538D1*
Y15523D1*
Y15508D1*
Y15493D1*
Y15478D1*
Y15463D1*
Y15449D1*
Y15434D1*
Y15419D1*
Y15404D1*
Y15389D1*
Y15374D1*
Y15359D1*
Y15344D1*
Y15329D1*
X7992Y16122D2*
X7999Y16107D1*
X8004Y16092D1*
X8008Y16077D1*
X8013Y16062D1*
X8018Y16047D1*
X8022Y16032D1*
X8027Y16017D1*
X8032Y16002D1*
X8037Y15987D1*
X8042Y15972D1*
X8047Y15957D1*
X8050Y15942D1*
X8054Y15927D1*
X8058Y15912D1*
X8063Y15897D1*
X8067Y15882D1*
X8072Y15867D1*
X8077Y15852D1*
X8080Y15837D1*
X8083Y15823D1*
X8088Y15808D1*
X8092Y15793D1*
X8097Y15778D1*
X8102Y15763D1*
X8107Y15748D1*
X8112Y15733D1*
X8117Y15718D1*
X8122Y15703D1*
X8125Y15688D1*
X8128Y15673D1*
X8133Y15658D1*
X8137Y15643D1*
X8142Y15628D1*
X8147Y15613D1*
X8152Y15598D1*
X8157Y15583D1*
X8162Y15568D1*
X8167Y15553D1*
X8172Y15538D1*
X8179Y15523D1*
X8187Y15508D1*
X8381Y16122D2*
X8374Y16107D1*
X8368Y16092D1*
X8362Y16077D1*
X8357Y16062D1*
X8353Y16047D1*
X8350Y16032D1*
X8346Y16017D1*
X8341Y16002D1*
X8336Y15987D1*
X8331Y15972D1*
X8326Y15957D1*
X8322Y15942D1*
X8317Y15927D1*
X8312Y15912D1*
X8309Y15897D1*
X8305Y15882D1*
X8301Y15867D1*
X8296Y15852D1*
X8292Y15837D1*
X8287Y15823D1*
X8281Y15808D1*
X8277Y15793D1*
X8272Y15778D1*
X8267Y15763D1*
X8264Y15748D1*
X8260Y15733D1*
X8256Y15718D1*
X8251Y15703D1*
X8247Y15688D1*
X8242Y15673D1*
X8237Y15658D1*
X8232Y15643D1*
X8227Y15628D1*
X8222Y15613D1*
X8219Y15598D1*
X8215Y15583D1*
X8211Y15568D1*
X8206Y15553D1*
X8201Y15538D1*
X8195Y15523D1*
X8187Y15508D1*
X9384Y16122D2*
Y16107D1*
Y16092D1*
Y16077D1*
Y16062D1*
Y16047D1*
Y16032D1*
Y16017D1*
Y16002D1*
Y15987D1*
Y15972D1*
Y15957D1*
Y15942D1*
Y15927D1*
Y15912D1*
Y15897D1*
X9473Y16122D2*
Y16107D1*
Y16092D1*
Y16077D1*
Y16062D1*
Y16047D1*
Y16032D1*
Y16017D1*
Y16002D1*
Y15987D1*
Y15972D1*
Y15957D1*
Y15942D1*
Y15927D1*
Y15912D1*
Y15897D1*
Y15882D1*
Y15867D1*
Y15852D1*
Y15837D1*
Y15823D1*
Y15808D1*
Y15793D1*
Y15778D1*
Y15763D1*
Y15748D1*
Y15733D1*
Y15718D1*
Y15703D1*
Y15688D1*
Y15673D1*
Y15658D1*
Y15643D1*
Y15628D1*
Y15613D1*
Y15598D1*
Y15583D1*
Y15568D1*
Y15553D1*
Y15538D1*
Y15523D1*
Y15508D1*
Y15493D1*
Y15478D1*
Y15463D1*
Y15449D1*
Y15434D1*
Y15419D1*
Y15404D1*
Y15389D1*
Y15374D1*
Y15359D1*
Y15344D1*
Y15329D1*
X10042Y16122D2*
X10083Y16107D1*
X10118Y16092D1*
X10145Y16077D1*
X10169Y16062D1*
X10188Y16047D1*
X10204Y16032D1*
X10218Y16017D1*
X10228Y16002D1*
X10235Y15987D1*
X10241Y15972D1*
X10246Y15957D1*
X10249Y15942D1*
X10253Y15927D1*
X10257Y15912D1*
X10261Y15897D1*
Y15882D1*
X10259Y15867D1*
X10256Y15852D1*
X10253Y15837D1*
X10250Y15823D1*
X10245Y15808D1*
X10239Y15793D1*
X10232Y15778D1*
X10224Y15763D1*
X10215Y15748D1*
X10204Y15733D1*
X10190Y15718D1*
X10173Y15703D1*
X10151Y15688D1*
X10124Y15673D1*
X10094Y15658D1*
X10069Y15643D1*
X10050Y15628D1*
X10052Y15613D1*
X10062Y15598D1*
X10074Y15583D1*
X10088Y15568D1*
X10102Y15553D1*
X5075Y16122D2*
X5019Y16107D1*
X4968Y16092D1*
X4924Y16077D1*
X4887Y16062D1*
X4856Y16047D1*
X4831Y16032D1*
X4810Y16017D1*
X4793Y16002D1*
X4777Y15987D1*
X4764Y15972D1*
X4753Y15957D1*
X4743Y15942D1*
X4735Y15927D1*
X4728Y15912D1*
X4722Y15897D1*
X4716Y15882D1*
X4711Y15867D1*
X4706Y15852D1*
X4703Y15837D1*
X4700Y15823D1*
X4695Y15808D1*
X4691Y15793D1*
X4689Y15778D1*
X4687Y15763D1*
X4686Y15748D1*
Y15733D1*
Y15718D1*
Y15703D1*
X4687Y15688D1*
X4689Y15673D1*
X4692Y15658D1*
X4696Y15643D1*
X4699Y15628D1*
X4702Y15613D1*
X4707Y15598D1*
X4711Y15583D1*
X4716Y15568D1*
X4722Y15553D1*
X4728Y15538D1*
X4735Y15523D1*
X4743Y15508D1*
X4752Y15493D1*
X4764Y15478D1*
X4777Y15463D1*
X4792Y15449D1*
X4809Y15434D1*
X4828Y15419D1*
X4852Y15404D1*
X4882Y15389D1*
X4921Y15374D1*
X4967Y15359D1*
X5020Y15344D1*
X5075Y15329D1*
X5165Y16122D2*
X5233Y16107D1*
X5293Y16092D1*
X5341Y16077D1*
X5379Y16062D1*
X5407Y16047D1*
X5431Y16032D1*
X5450Y16017D1*
X5467Y16002D1*
X5481Y15987D1*
X5495Y15972D1*
X5507Y15957D1*
X5517Y15942D1*
X5526Y15927D1*
X5535Y15912D1*
X5542Y15897D1*
X5548Y15882D1*
X5553Y15867D1*
X5559Y15852D1*
X5563Y15837D1*
X5566Y15823D1*
X5568Y15808D1*
X5569Y15793D1*
X5571Y15778D1*
X5575Y15763D1*
X5579Y15748D1*
X5581Y15733D1*
X5582Y15718D1*
X5581Y15703D1*
X5577Y15688D1*
X5574Y15673D1*
X5571Y15658D1*
X5569Y15643D1*
X5567Y15628D1*
X5563Y15613D1*
X5558Y15598D1*
X5554Y15583D1*
X5548Y15568D1*
X5542Y15553D1*
X5535Y15538D1*
X5527Y15523D1*
X5518Y15508D1*
X5508Y15493D1*
X5499Y15478D1*
X5488Y15463D1*
X5474Y15449D1*
X5456Y15434D1*
X5435Y15419D1*
X5411Y15404D1*
X5382Y15389D1*
X5342Y15374D1*
X5291Y15359D1*
X5230Y15344D1*
X5165Y15329D1*
X7678Y16122D2*
Y16107D1*
Y16092D1*
Y16077D1*
Y16062D1*
Y16047D1*
Y16032D1*
Y16017D1*
Y16002D1*
Y15987D1*
Y15972D1*
Y15957D1*
Y15942D1*
Y15927D1*
Y15912D1*
Y15897D1*
Y15882D1*
Y15867D1*
Y15852D1*
Y15837D1*
Y15823D1*
Y15808D1*
Y15793D1*
Y15778D1*
Y15763D1*
Y15748D1*
Y15733D1*
Y15718D1*
Y15703D1*
Y15688D1*
Y15673D1*
Y15658D1*
Y15643D1*
Y15628D1*
Y15613D1*
Y15598D1*
Y15583D1*
Y15568D1*
Y15553D1*
Y15538D1*
Y15523D1*
Y15508D1*
Y15493D1*
Y15478D1*
Y15463D1*
Y15449D1*
Y15434D1*
Y15419D1*
Y15404D1*
Y15389D1*
Y15374D1*
Y15359D1*
Y15344D1*
Y15329D1*
X7708Y16122D2*
X7709Y16107D1*
X7711Y16092D1*
X7715Y16077D1*
X7720Y16062D1*
X7727Y16047D1*
X7732Y16032D1*
X7738Y16017D1*
X7743Y16002D1*
X7748Y15987D1*
X7753Y15972D1*
X7758Y15957D1*
X7763Y15942D1*
X7768Y15927D1*
X7773Y15912D1*
X7778Y15897D1*
X7783Y15882D1*
X7788Y15867D1*
X7793Y15852D1*
X7798Y15837D1*
X7803Y15823D1*
X7810Y15808D1*
X7816Y15793D1*
X7822Y15778D1*
X7827Y15763D1*
X7833Y15748D1*
X7838Y15733D1*
X7843Y15718D1*
X7848Y15703D1*
X7853Y15688D1*
X7858Y15673D1*
X7863Y15658D1*
X7868Y15643D1*
X7873Y15628D1*
X7878Y15613D1*
X7885Y15598D1*
X7891Y15583D1*
X7897Y15568D1*
X7902Y15553D1*
X7907Y15538D1*
X7913Y15523D1*
X7917Y15508D1*
X7923Y15493D1*
X7928Y15478D1*
X7932Y15463D1*
X7938Y15449D1*
X7943Y15434D1*
X7947Y15419D1*
X7952Y15404D1*
X7958Y15389D1*
X7962Y15374D1*
X7968Y15359D1*
X7973Y15344D1*
X7977Y15329D1*
X4417Y16107D2*
Y16092D1*
Y16077D1*
Y16062D1*
Y16047D1*
Y16032D1*
Y16017D1*
Y16002D1*
Y15987D1*
Y15972D1*
Y15957D1*
Y15942D1*
Y15927D1*
Y15912D1*
Y15897D1*
Y15882D1*
Y15867D1*
Y15852D1*
Y15837D1*
Y15823D1*
Y15808D1*
Y15793D1*
Y15778D1*
Y15763D1*
Y15748D1*
Y15733D1*
Y15718D1*
Y15703D1*
Y15688D1*
Y15673D1*
Y15658D1*
Y15643D1*
Y15628D1*
Y15613D1*
Y15598D1*
Y15583D1*
Y15568D1*
Y15553D1*
Y15538D1*
Y15523D1*
Y15508D1*
Y15493D1*
Y15478D1*
Y15463D1*
Y15449D1*
Y15434D1*
Y15419D1*
Y15404D1*
Y15389D1*
Y15374D1*
Y15359D1*
Y15344D1*
X4626Y16107D2*
Y16092D1*
Y16077D1*
Y16062D1*
Y16047D1*
Y16032D1*
Y16017D1*
Y16002D1*
Y15987D1*
Y15972D1*
Y15957D1*
Y15942D1*
Y15927D1*
Y15912D1*
Y15897D1*
Y15882D1*
Y15867D1*
Y15852D1*
Y15837D1*
Y15823D1*
Y15808D1*
Y15793D1*
Y15778D1*
Y15763D1*
Y15748D1*
Y15733D1*
Y15718D1*
Y15703D1*
Y15688D1*
Y15673D1*
Y15658D1*
Y15643D1*
Y15628D1*
Y15613D1*
Y15598D1*
Y15583D1*
Y15568D1*
Y15553D1*
Y15538D1*
Y15523D1*
Y15508D1*
Y15493D1*
Y15478D1*
Y15463D1*
Y15449D1*
Y15434D1*
Y15419D1*
Y15404D1*
Y15389D1*
Y15374D1*
Y15359D1*
Y15344D1*
X6167Y16107D2*
X6221Y16092D1*
X6268Y16077D1*
X6308Y16062D1*
X6340Y16047D1*
X6366Y16032D1*
X6387Y16017D1*
X6405Y16002D1*
X6420Y15987D1*
X6434Y15972D1*
X6445Y15957D1*
X6454Y15942D1*
X6462Y15927D1*
X6470Y15912D1*
X6477Y15897D1*
X6484Y15882D1*
X6490Y15867D1*
X6493Y15852D1*
X6495Y15837D1*
X6496Y15823D1*
X6497Y15808D1*
X6499Y15793D1*
X6502Y15778D1*
X6506Y15763D1*
X6509Y15748D1*
X6510Y15733D1*
X6508Y15718D1*
X6505Y15703D1*
X6501Y15688D1*
X6499Y15673D1*
X6497Y15658D1*
Y15643D1*
X6496Y15628D1*
X6494Y15613D1*
X6490Y15598D1*
X6486Y15583D1*
X6481Y15568D1*
X6476Y15553D1*
X6469Y15538D1*
X6460Y15523D1*
X6451Y15508D1*
X6441Y15493D1*
X6431Y15478D1*
X6419Y15463D1*
X6405Y15449D1*
X6389Y15434D1*
X6369Y15419D1*
X6344Y15404D1*
X6309Y15389D1*
X6261Y15374D1*
X6202Y15359D1*
X6137Y15344D1*
X6586Y16107D2*
Y16092D1*
Y16077D1*
Y16062D1*
Y16047D1*
Y16032D1*
Y16017D1*
Y16002D1*
Y15987D1*
Y15972D1*
Y15957D1*
Y15942D1*
Y15927D1*
Y15912D1*
Y15897D1*
Y15882D1*
Y15867D1*
Y15852D1*
Y15837D1*
Y15823D1*
Y15808D1*
Y15793D1*
Y15778D1*
Y15763D1*
Y15748D1*
Y15733D1*
Y15718D1*
Y15703D1*
Y15688D1*
Y15673D1*
Y15658D1*
Y15643D1*
Y15628D1*
Y15613D1*
Y15598D1*
Y15583D1*
Y15568D1*
Y15553D1*
Y15538D1*
Y15523D1*
Y15508D1*
Y15493D1*
Y15478D1*
Y15463D1*
Y15449D1*
Y15434D1*
Y15419D1*
Y15404D1*
Y15389D1*
Y15374D1*
Y15359D1*
Y15344D1*
X7110Y16107D2*
X7152Y16092D1*
X7190Y16077D1*
X7222Y16062D1*
X7248Y16047D1*
X7269Y16032D1*
X7287Y16017D1*
X7300Y16002D1*
X7310Y15987D1*
X7317Y15972D1*
X7323Y15957D1*
X7328Y15942D1*
X7331Y15927D1*
X7333Y15912D1*
X7334Y15897D1*
Y15882D1*
Y15867D1*
X7333Y15852D1*
X7332Y15837D1*
X7327Y15823D1*
X7322Y15808D1*
X7315Y15793D1*
X7307Y15778D1*
X7297Y15763D1*
X7283Y15748D1*
X7264Y15733D1*
X7239Y15718D1*
X7208Y15703D1*
X7175Y15688D1*
X7147Y15673D1*
X7125Y15658D1*
X7116Y15643D1*
X7114Y15628D1*
X7120Y15613D1*
X7129Y15598D1*
X7141Y15583D1*
X7152Y15568D1*
X7162Y15553D1*
X7170Y15538D1*
X7454Y16107D2*
Y16092D1*
Y16077D1*
Y16062D1*
Y16047D1*
Y16032D1*
Y16017D1*
Y16002D1*
Y15987D1*
Y15972D1*
Y15957D1*
Y15942D1*
Y15927D1*
Y15912D1*
Y15897D1*
Y15882D1*
Y15867D1*
Y15852D1*
Y15837D1*
Y15823D1*
Y15808D1*
Y15793D1*
Y15778D1*
Y15763D1*
Y15748D1*
Y15733D1*
Y15718D1*
Y15703D1*
Y15688D1*
Y15673D1*
Y15658D1*
Y15643D1*
Y15628D1*
Y15613D1*
Y15598D1*
Y15583D1*
Y15568D1*
Y15553D1*
Y15538D1*
Y15523D1*
Y15508D1*
Y15493D1*
Y15478D1*
Y15463D1*
Y15449D1*
Y15434D1*
Y15419D1*
Y15404D1*
Y15389D1*
Y15374D1*
Y15359D1*
Y15344D1*
X7663Y16107D2*
Y16092D1*
Y16077D1*
Y16062D1*
Y16047D1*
Y16032D1*
Y16017D1*
Y16002D1*
Y15987D1*
Y15972D1*
Y15957D1*
Y15942D1*
Y15927D1*
Y15912D1*
Y15897D1*
Y15882D1*
Y15867D1*
Y15852D1*
Y15837D1*
Y15823D1*
Y15808D1*
Y15793D1*
Y15778D1*
Y15763D1*
Y15748D1*
Y15733D1*
Y15718D1*
Y15703D1*
Y15688D1*
Y15673D1*
Y15658D1*
Y15643D1*
Y15628D1*
Y15613D1*
Y15598D1*
Y15583D1*
Y15568D1*
Y15553D1*
Y15538D1*
Y15523D1*
Y15508D1*
Y15493D1*
Y15478D1*
Y15463D1*
Y15449D1*
Y15434D1*
Y15419D1*
Y15404D1*
Y15389D1*
Y15374D1*
Y15359D1*
Y15344D1*
X7738Y16107D2*
X7740Y16092D1*
X7744Y16077D1*
X7748Y16062D1*
X7753Y16047D1*
X7758Y16032D1*
X7763Y16017D1*
X7768Y16002D1*
X7773Y15987D1*
X7778Y15972D1*
X7783Y15957D1*
X7788Y15942D1*
X7793Y15927D1*
X7798Y15912D1*
X7803Y15897D1*
X7808Y15882D1*
X7813Y15867D1*
X7818Y15852D1*
X7823Y15837D1*
X7828Y15823D1*
X7833Y15808D1*
X7838Y15793D1*
X7843Y15778D1*
X7848Y15763D1*
X7853Y15748D1*
X7858Y15733D1*
X7863Y15718D1*
X7870Y15703D1*
X7876Y15688D1*
X7882Y15673D1*
X7887Y15658D1*
X7893Y15643D1*
X7898Y15628D1*
X7902Y15613D1*
X7908Y15598D1*
X7913Y15583D1*
X7917Y15568D1*
X7923Y15553D1*
X7928Y15538D1*
X7932Y15523D1*
X7938Y15508D1*
X7943Y15493D1*
X7947Y15478D1*
X7952Y15463D1*
X7958Y15449D1*
X7962Y15434D1*
X7967Y15419D1*
X7973Y15404D1*
X7978Y15389D1*
X7985Y15374D1*
X7996Y15359D1*
X8007Y15344D1*
X7962Y16107D2*
X7975Y16092D1*
X7984Y16077D1*
X7991Y16062D1*
X7997Y16047D1*
X8002Y16032D1*
X8005Y16017D1*
X8009Y16002D1*
X8013Y15987D1*
X8018Y15972D1*
X8022Y15957D1*
X8027Y15942D1*
X8032Y15927D1*
X8037Y15912D1*
X8042Y15897D1*
X8047Y15882D1*
X8050Y15867D1*
X8054Y15852D1*
X8058Y15837D1*
X8063Y15823D1*
X8067Y15808D1*
X8072Y15793D1*
X8077Y15778D1*
X8082Y15763D1*
X8087Y15748D1*
X8092Y15733D1*
X8095Y15718D1*
X8098Y15703D1*
X8103Y15688D1*
X8107Y15673D1*
X8112Y15658D1*
X8117Y15643D1*
X8122Y15628D1*
X8127Y15613D1*
X8132Y15598D1*
X8137Y15583D1*
X8140Y15568D1*
X8143Y15553D1*
X8148Y15538D1*
X8152Y15523D1*
X8157Y15508D1*
X8164Y15493D1*
X8172Y15478D1*
X8381Y16107D2*
Y16092D1*
Y16077D1*
X8379Y16062D1*
X8375Y16047D1*
X8371Y16032D1*
X8366Y16017D1*
X8361Y16002D1*
X8356Y15987D1*
X8352Y15972D1*
X8346Y15957D1*
X8342Y15942D1*
X8338Y15927D1*
X8335Y15912D1*
X8331Y15897D1*
X8326Y15882D1*
X8321Y15867D1*
X8316Y15852D1*
X8311Y15837D1*
X8307Y15823D1*
X8302Y15808D1*
X8297Y15793D1*
X8294Y15778D1*
X8290Y15763D1*
X8286Y15748D1*
X8281Y15733D1*
X8277Y15718D1*
X8272Y15703D1*
X8267Y15688D1*
X8264Y15673D1*
X8260Y15658D1*
X8256Y15643D1*
X8251Y15628D1*
X8247Y15613D1*
X8242Y15598D1*
X8237Y15583D1*
X8232Y15568D1*
X8227Y15553D1*
X8222Y15538D1*
X8219Y15523D1*
X8215Y15508D1*
X8209Y15493D1*
X8202Y15478D1*
X8681Y16107D2*
X8668Y16092D1*
X8657Y16077D1*
X8649Y16062D1*
X8642Y16047D1*
X8636Y16032D1*
X8631Y16017D1*
X8626Y16002D1*
X8621Y15987D1*
X8616Y15972D1*
X8611Y15957D1*
X8606Y15942D1*
X8601Y15927D1*
X8596Y15912D1*
X8591Y15897D1*
X8585Y15882D1*
X8579Y15867D1*
X8572Y15852D1*
X8566Y15837D1*
X8561Y15823D1*
X8556Y15808D1*
X8551Y15793D1*
X8546Y15778D1*
X8541Y15763D1*
X8536Y15748D1*
X8531Y15733D1*
X8526Y15718D1*
X8521Y15703D1*
X8516Y15688D1*
X8510Y15673D1*
X8504Y15658D1*
X8497Y15643D1*
X8492Y15628D1*
X8486Y15613D1*
X8481Y15598D1*
X8476Y15583D1*
X8471Y15568D1*
X8466Y15553D1*
X8461Y15538D1*
X8456Y15523D1*
X8451Y15508D1*
X8446Y15493D1*
X8441Y15478D1*
X8436Y15463D1*
X8429Y15449D1*
X8423Y15434D1*
X8417Y15419D1*
X8412Y15404D1*
X8406Y15389D1*
X8402Y15374D1*
X8399Y15359D1*
X8396Y15344D1*
X8725Y16107D2*
Y16092D1*
Y16077D1*
Y16062D1*
Y16047D1*
Y16032D1*
Y16017D1*
Y16002D1*
Y15987D1*
Y15972D1*
Y15957D1*
Y15942D1*
Y15927D1*
Y15912D1*
Y15897D1*
Y15882D1*
Y15867D1*
Y15852D1*
Y15837D1*
Y15823D1*
Y15808D1*
Y15793D1*
Y15778D1*
Y15763D1*
Y15748D1*
Y15733D1*
Y15718D1*
Y15703D1*
Y15688D1*
Y15673D1*
Y15658D1*
Y15643D1*
Y15628D1*
Y15613D1*
Y15598D1*
Y15583D1*
Y15568D1*
Y15553D1*
Y15538D1*
Y15523D1*
Y15508D1*
Y15493D1*
Y15478D1*
Y15463D1*
Y15449D1*
Y15434D1*
Y15419D1*
Y15404D1*
Y15389D1*
Y15374D1*
Y15359D1*
Y15344D1*
X9369Y16107D2*
Y16092D1*
Y16077D1*
Y16062D1*
Y16047D1*
Y16032D1*
Y16017D1*
Y16002D1*
Y15987D1*
Y15972D1*
Y15957D1*
Y15942D1*
Y15927D1*
Y15912D1*
X9488Y16107D2*
Y16092D1*
Y16077D1*
Y16062D1*
Y16047D1*
Y16032D1*
Y16017D1*
Y16002D1*
Y15987D1*
Y15972D1*
Y15957D1*
Y15942D1*
Y15927D1*
Y15912D1*
Y15897D1*
Y15882D1*
Y15867D1*
Y15852D1*
Y15837D1*
Y15823D1*
Y15808D1*
Y15793D1*
Y15778D1*
Y15763D1*
Y15748D1*
Y15733D1*
Y15718D1*
Y15703D1*
Y15688D1*
Y15673D1*
Y15658D1*
Y15643D1*
Y15628D1*
Y15613D1*
Y15598D1*
Y15583D1*
Y15568D1*
Y15553D1*
Y15538D1*
Y15523D1*
Y15508D1*
Y15493D1*
Y15478D1*
Y15463D1*
Y15449D1*
Y15434D1*
Y15419D1*
Y15404D1*
Y15389D1*
Y15374D1*
Y15359D1*
Y15344D1*
X10012Y16107D2*
X10054Y16092D1*
X10092Y16077D1*
X10124Y16062D1*
X10151Y16047D1*
X10172Y16032D1*
X10189Y16017D1*
X10203Y16002D1*
X10213Y15987D1*
X10220Y15972D1*
X10226Y15957D1*
X10231Y15942D1*
X10234Y15927D1*
X10235Y15912D1*
X10236Y15897D1*
Y15882D1*
Y15867D1*
Y15852D1*
X10234Y15837D1*
X10230Y15823D1*
X10224Y15808D1*
X10217Y15793D1*
X10209Y15778D1*
X10200Y15763D1*
X10185Y15748D1*
X10166Y15733D1*
X10141Y15718D1*
X10111Y15703D1*
X10078Y15688D1*
X10049Y15673D1*
X10027Y15658D1*
X10018Y15643D1*
X10016Y15628D1*
X10022Y15613D1*
X10031Y15598D1*
X10043Y15583D1*
X10055Y15568D1*
X10064Y15553D1*
X10072Y15538D1*
X8666Y16077D2*
X8663Y16062D1*
X8659Y16047D1*
X8655Y16032D1*
X8651Y16017D1*
X8646Y16002D1*
X8641Y15987D1*
X8636Y15972D1*
X8631Y15957D1*
X8626Y15942D1*
X8621Y15927D1*
X8615Y15912D1*
X8609Y15897D1*
X8602Y15882D1*
X8596Y15867D1*
X8591Y15852D1*
X8586Y15837D1*
X8581Y15823D1*
X8576Y15808D1*
X8571Y15793D1*
X8566Y15778D1*
X8561Y15763D1*
X8555Y15748D1*
X8549Y15733D1*
X8542Y15718D1*
X8537Y15703D1*
X8531Y15688D1*
X8526Y15673D1*
X8521Y15658D1*
X8516Y15643D1*
X8511Y15628D1*
X8506Y15613D1*
X8501Y15598D1*
X8496Y15583D1*
X8491Y15568D1*
X8486Y15553D1*
X8481Y15538D1*
X8474Y15523D1*
X8468Y15508D1*
X8462Y15493D1*
X8457Y15478D1*
X8451Y15463D1*
X8446Y15449D1*
X8441Y15434D1*
X8436Y15419D1*
X8431Y15404D1*
X8426Y15389D1*
X8421Y15374D1*
X8417Y15359D1*
X8414Y15344D1*
X8411Y15329D1*
X8695Y16092D2*
Y16077D1*
Y16062D1*
Y16047D1*
Y16032D1*
Y16017D1*
Y16002D1*
Y15987D1*
Y15972D1*
Y15957D1*
Y15942D1*
Y15927D1*
Y15912D1*
Y15897D1*
Y15882D1*
Y15867D1*
Y15852D1*
Y15837D1*
Y15823D1*
Y15808D1*
Y15793D1*
Y15778D1*
Y15763D1*
Y15748D1*
Y15733D1*
Y15718D1*
Y15703D1*
Y15688D1*
Y15673D1*
Y15658D1*
Y15643D1*
Y15628D1*
Y15613D1*
Y15598D1*
Y15583D1*
Y15568D1*
Y15553D1*
Y15538D1*
Y15523D1*
Y15508D1*
Y15493D1*
Y15478D1*
Y15463D1*
Y15449D1*
Y15434D1*
Y15419D1*
Y15404D1*
Y15389D1*
Y15374D1*
Y15359D1*
Y15344D1*
Y15329D1*
X5898Y15942D2*
Y15927D1*
Y15912D1*
Y15897D1*
Y15882D1*
Y15867D1*
Y15852D1*
Y15837D1*
Y15823D1*
Y15808D1*
Y15793D1*
Y15778D1*
Y15763D1*
Y15748D1*
Y15733D1*
Y15718D1*
Y15703D1*
Y15688D1*
Y15673D1*
Y15658D1*
Y15643D1*
Y15628D1*
Y15613D1*
Y15598D1*
Y15583D1*
Y15568D1*
Y15553D1*
Y15538D1*
Y15523D1*
X6107Y15942D2*
X6136Y15927D1*
X6160Y15912D1*
X6178Y15897D1*
X6193Y15882D1*
X6205Y15867D1*
X6214Y15852D1*
X6220Y15837D1*
X6224Y15823D1*
X6226Y15808D1*
X6227Y15793D1*
X6229Y15778D1*
X6232Y15763D1*
X6234Y15748D1*
X6233Y15733D1*
X6231Y15718D1*
X6229Y15703D1*
X6228Y15688D1*
X6227Y15673D1*
X6225Y15658D1*
X6221Y15643D1*
X6216Y15628D1*
X6211Y15613D1*
X6204Y15598D1*
X6193Y15583D1*
X6179Y15568D1*
X6161Y15553D1*
X6136Y15538D1*
X6107Y15523D1*
X6840Y15942D2*
Y15927D1*
Y15912D1*
Y15897D1*
Y15882D1*
Y15867D1*
Y15852D1*
Y15837D1*
Y15823D1*
Y15808D1*
Y15793D1*
Y15778D1*
X7095Y15942D2*
X7104Y15927D1*
X7112Y15912D1*
X7118Y15897D1*
X7122Y15882D1*
X7123Y15867D1*
X7124Y15852D1*
Y15837D1*
X7121Y15823D1*
X7115Y15808D1*
X7106Y15793D1*
X7095Y15778D1*
X9743Y15942D2*
Y15927D1*
Y15912D1*
Y15897D1*
Y15882D1*
Y15867D1*
Y15852D1*
Y15837D1*
Y15823D1*
Y15808D1*
Y15793D1*
Y15778D1*
X9997Y15942D2*
X10006Y15927D1*
X10014Y15912D1*
X10020Y15897D1*
X10024Y15882D1*
X10026Y15867D1*
Y15852D1*
Y15837D1*
X10024Y15823D1*
X10018Y15808D1*
X10008Y15793D1*
X9997Y15778D1*
X5060Y15927D2*
X5033Y15912D1*
X5010Y15897D1*
X4992Y15882D1*
X4979Y15867D1*
X4968Y15852D1*
X4960Y15837D1*
X4952Y15823D1*
X4947Y15808D1*
X4943Y15793D1*
X4942Y15778D1*
X4941Y15763D1*
Y15748D1*
X4940Y15733D1*
Y15718D1*
Y15703D1*
X4941Y15688D1*
X4943Y15673D1*
X4947Y15658D1*
X4951Y15643D1*
X4955Y15628D1*
X4961Y15613D1*
X4968Y15598D1*
X4977Y15583D1*
X4990Y15568D1*
X5007Y15553D1*
X5032Y15538D1*
X5060Y15523D1*
X5195Y15927D2*
X5223Y15912D1*
X5246Y15897D1*
X5264Y15882D1*
X5277Y15867D1*
X5287Y15852D1*
X5295Y15837D1*
X5302Y15823D1*
X5308Y15808D1*
X5312Y15793D1*
X5314Y15778D1*
X5316Y15763D1*
X5320Y15748D1*
X5322Y15733D1*
X5321Y15718D1*
X5318Y15703D1*
X5316Y15688D1*
X5315Y15673D1*
X5314Y15658D1*
X5312Y15643D1*
X5308Y15628D1*
X5301Y15613D1*
X5293Y15598D1*
X5281Y15583D1*
X5267Y15568D1*
X5248Y15553D1*
X5223Y15538D1*
X5195Y15523D1*
X5644Y15912D2*
Y15897D1*
Y15882D1*
Y15867D1*
Y15852D1*
Y15837D1*
Y15823D1*
Y15808D1*
Y15793D1*
Y15778D1*
Y15763D1*
Y15748D1*
Y15733D1*
Y15718D1*
Y15703D1*
Y15688D1*
Y15673D1*
Y15658D1*
Y15643D1*
Y15628D1*
Y15613D1*
Y15598D1*
Y15583D1*
Y15568D1*
Y15553D1*
Y15538D1*
X5658Y15912D2*
Y15897D1*
Y15882D1*
Y15867D1*
Y15852D1*
Y15837D1*
Y15823D1*
Y15808D1*
Y15793D1*
Y15778D1*
Y15763D1*
Y15748D1*
Y15733D1*
Y15718D1*
Y15703D1*
Y15688D1*
Y15673D1*
Y15658D1*
Y15643D1*
Y15628D1*
Y15613D1*
Y15598D1*
Y15583D1*
Y15568D1*
Y15553D1*
Y15538D1*
X5913Y15927D2*
Y15912D1*
Y15897D1*
Y15882D1*
Y15867D1*
Y15852D1*
Y15837D1*
Y15823D1*
Y15808D1*
Y15793D1*
Y15778D1*
Y15763D1*
Y15748D1*
Y15733D1*
Y15718D1*
Y15703D1*
Y15688D1*
Y15673D1*
Y15658D1*
Y15643D1*
Y15628D1*
Y15613D1*
Y15598D1*
Y15583D1*
Y15568D1*
Y15553D1*
Y15538D1*
X6092Y15927D2*
X6119Y15912D1*
X6142Y15897D1*
X6160Y15882D1*
X6174Y15867D1*
X6184Y15852D1*
X6193Y15837D1*
X6200Y15823D1*
X6206Y15808D1*
X6209Y15793D1*
X6211Y15778D1*
X6212Y15763D1*
Y15748D1*
Y15733D1*
Y15718D1*
Y15703D1*
X6211Y15688D1*
X6210Y15673D1*
X6206Y15658D1*
X6201Y15643D1*
X6196Y15628D1*
X6189Y15613D1*
X6178Y15598D1*
X6162Y15583D1*
X6142Y15568D1*
X6118Y15553D1*
X6092Y15538D1*
X6870Y15927D2*
Y15912D1*
Y15897D1*
Y15882D1*
Y15867D1*
Y15852D1*
Y15837D1*
Y15823D1*
Y15808D1*
Y15793D1*
X7065Y15927D2*
X7079Y15912D1*
X7092Y15897D1*
X7100Y15882D1*
X7106Y15867D1*
Y15852D1*
X7100Y15837D1*
X7090Y15823D1*
X7078Y15808D1*
X7065Y15793D1*
X8935Y15912D2*
Y15897D1*
Y15882D1*
Y15867D1*
Y15852D1*
Y15837D1*
Y15823D1*
Y15808D1*
Y15793D1*
Y15778D1*
X9773Y15927D2*
Y15912D1*
Y15897D1*
Y15882D1*
Y15867D1*
Y15852D1*
Y15837D1*
Y15823D1*
Y15808D1*
Y15793D1*
X9967Y15927D2*
X9981Y15912D1*
X9994Y15897D1*
X10003Y15882D1*
X10009Y15867D1*
Y15852D1*
X10003Y15837D1*
X9993Y15823D1*
X9980Y15808D1*
X9967Y15793D1*
X5090Y15897D2*
X5061Y15882D1*
X5036Y15867D1*
X5016Y15852D1*
X5000Y15837D1*
X4988Y15823D1*
X4979Y15808D1*
X4974Y15793D1*
X4969Y15778D1*
X4965Y15763D1*
X4961Y15748D1*
X4958Y15733D1*
X4959Y15718D1*
X4962Y15703D1*
X4965Y15688D1*
X4968Y15673D1*
X4970Y15658D1*
X4973Y15643D1*
X4979Y15628D1*
X4987Y15613D1*
X4997Y15598D1*
X5011Y15583D1*
X5053Y15568D1*
X5117Y15553D1*
X5195Y15538D1*
X5150Y15897D2*
X5189Y15882D1*
X5221Y15867D1*
X5244Y15852D1*
X5259Y15837D1*
X5271Y15823D1*
X5280Y15808D1*
X5287Y15793D1*
X5293Y15778D1*
X5296Y15763D1*
X5298Y15748D1*
X5299Y15733D1*
Y15718D1*
Y15703D1*
Y15688D1*
X5297Y15673D1*
X5293Y15658D1*
X5289Y15643D1*
X5284Y15628D1*
X5276Y15613D1*
X5264Y15598D1*
X5248Y15583D1*
X5204Y15568D1*
X5139Y15553D1*
X5060Y15538D1*
X8950Y15897D2*
Y15882D1*
Y15867D1*
Y15852D1*
Y15837D1*
Y15823D1*
Y15808D1*
Y15793D1*
X9234D2*
Y15778D1*
Y15763D1*
Y15748D1*
Y15733D1*
Y15718D1*
Y15703D1*
Y15688D1*
Y15673D1*
Y15658D1*
X9204Y15778D2*
Y15763D1*
Y15748D1*
Y15733D1*
Y15718D1*
Y15703D1*
Y15688D1*
Y15673D1*
X4641Y15703D2*
Y15688D1*
Y15673D1*
Y15658D1*
Y15643D1*
Y15628D1*
Y15613D1*
Y15598D1*
Y15583D1*
Y15568D1*
Y15553D1*
Y15538D1*
Y15523D1*
Y15508D1*
Y15493D1*
Y15478D1*
Y15463D1*
Y15449D1*
Y15434D1*
Y15419D1*
Y15404D1*
Y15389D1*
Y15374D1*
Y15359D1*
Y15344D1*
Y15329D1*
X4671Y15703D2*
Y15688D1*
Y15673D1*
Y15658D1*
X4672Y15643D1*
X4674Y15628D1*
X4677Y15613D1*
X4682Y15598D1*
X4686Y15583D1*
X4691Y15568D1*
X4696Y15553D1*
X4701Y15538D1*
X4707Y15523D1*
X4714Y15508D1*
X4723Y15493D1*
X4733Y15478D1*
X4745Y15463D1*
X4756Y15449D1*
X4769Y15434D1*
X4785Y15419D1*
X4804Y15404D1*
X4826Y15389D1*
X4851Y15374D1*
X4882Y15359D1*
X4923Y15344D1*
X4974Y15329D1*
X5030Y15314D1*
X8935Y15673D2*
Y15658D1*
Y15643D1*
Y15628D1*
Y15613D1*
Y15598D1*
Y15583D1*
Y15568D1*
Y15553D1*
Y15538D1*
X8950Y15658D2*
Y15643D1*
Y15628D1*
Y15613D1*
Y15598D1*
Y15583D1*
Y15568D1*
Y15553D1*
X6825Y15613D2*
Y15598D1*
Y15583D1*
Y15568D1*
Y15553D1*
Y15538D1*
Y15523D1*
Y15508D1*
Y15493D1*
Y15478D1*
Y15463D1*
Y15449D1*
Y15434D1*
Y15419D1*
Y15404D1*
Y15389D1*
Y15374D1*
Y15359D1*
Y15344D1*
X6870Y15613D2*
X6885Y15598D1*
X6900Y15583D1*
X6915Y15568D1*
X6930Y15553D1*
X6945Y15538D1*
X6960Y15523D1*
X6975Y15508D1*
X6990Y15493D1*
X7005Y15478D1*
X7020Y15463D1*
X7035Y15449D1*
X7050Y15434D1*
X7065Y15419D1*
X7080Y15404D1*
X7095Y15389D1*
X7110Y15374D1*
X7125Y15359D1*
X7140Y15344D1*
X9728Y15613D2*
Y15598D1*
Y15583D1*
Y15568D1*
Y15553D1*
Y15538D1*
Y15523D1*
Y15508D1*
Y15493D1*
Y15478D1*
Y15463D1*
Y15449D1*
Y15434D1*
Y15419D1*
Y15404D1*
Y15389D1*
Y15374D1*
Y15359D1*
Y15344D1*
X9773Y15613D2*
X9788Y15598D1*
X9803Y15583D1*
X9818Y15568D1*
X9833Y15553D1*
X9847Y15538D1*
X9862Y15523D1*
X9877Y15508D1*
X9892Y15493D1*
X9907Y15478D1*
X9922Y15463D1*
X9937Y15449D1*
X9952Y15434D1*
X9967Y15419D1*
X9982Y15404D1*
X9997Y15389D1*
X10012Y15374D1*
X10027Y15359D1*
X10042Y15344D1*
X6855Y15583D2*
Y15568D1*
Y15553D1*
Y15538D1*
Y15523D1*
Y15508D1*
Y15493D1*
Y15478D1*
Y15463D1*
Y15449D1*
Y15434D1*
Y15419D1*
Y15404D1*
Y15389D1*
Y15374D1*
Y15359D1*
Y15344D1*
Y15329D1*
X6870Y15583D2*
X6885Y15568D1*
X6900Y15553D1*
X6915Y15538D1*
X6930Y15523D1*
X6945Y15508D1*
X6960Y15493D1*
X6975Y15478D1*
X6989Y15463D1*
X7002Y15449D1*
X7014Y15434D1*
X7025Y15419D1*
X7037Y15404D1*
X7051Y15389D1*
X7065Y15374D1*
X7080Y15359D1*
X7095Y15344D1*
X7110Y15329D1*
X9758Y15583D2*
Y15568D1*
Y15553D1*
Y15538D1*
Y15523D1*
Y15508D1*
Y15493D1*
Y15478D1*
Y15463D1*
Y15449D1*
Y15434D1*
Y15419D1*
Y15404D1*
Y15389D1*
Y15374D1*
Y15359D1*
Y15344D1*
Y15329D1*
X9773Y15583D2*
X9788Y15568D1*
X9803Y15553D1*
X9818Y15538D1*
X9833Y15523D1*
X9847Y15508D1*
X9862Y15493D1*
X9877Y15478D1*
X9892Y15463D1*
X9905Y15449D1*
X9916Y15434D1*
X9927Y15419D1*
X9940Y15404D1*
X9953Y15389D1*
X9968Y15374D1*
X9982Y15359D1*
X9997Y15344D1*
X10012Y15329D1*
X7394Y15553D2*
Y15538D1*
Y15523D1*
Y15508D1*
Y15493D1*
Y15478D1*
Y15463D1*
Y15449D1*
Y15434D1*
Y15419D1*
Y15404D1*
Y15389D1*
Y15374D1*
Y15359D1*
Y15344D1*
Y15329D1*
X9414Y15553D2*
Y15538D1*
Y15523D1*
Y15508D1*
Y15493D1*
Y15478D1*
Y15463D1*
Y15449D1*
Y15434D1*
Y15419D1*
Y15404D1*
Y15389D1*
Y15374D1*
Y15359D1*
Y15344D1*
Y15329D1*
X10296Y15553D2*
Y15538D1*
Y15523D1*
Y15508D1*
Y15493D1*
Y15478D1*
Y15463D1*
Y15449D1*
Y15434D1*
Y15419D1*
Y15404D1*
Y15389D1*
Y15374D1*
Y15359D1*
Y15344D1*
Y15329D1*
X7379Y15538D2*
Y15523D1*
Y15508D1*
Y15493D1*
Y15478D1*
Y15463D1*
Y15449D1*
Y15434D1*
Y15419D1*
Y15404D1*
Y15389D1*
Y15374D1*
Y15359D1*
Y15344D1*
X9399Y15538D2*
Y15523D1*
Y15508D1*
Y15493D1*
Y15478D1*
Y15463D1*
Y15449D1*
Y15434D1*
Y15419D1*
Y15404D1*
Y15389D1*
Y15374D1*
Y15359D1*
Y15344D1*
X10281Y15538D2*
Y15523D1*
Y15508D1*
Y15493D1*
Y15478D1*
Y15463D1*
Y15449D1*
Y15434D1*
Y15419D1*
Y15404D1*
Y15389D1*
Y15374D1*
Y15359D1*
Y15344D1*
X5644D2*
Y15329D1*
X4935Y20653D2*
D104*
X5150D1*
X5222Y20677D1*
X5246Y20701D1*
X5270Y20749D1*
Y20797D1*
X5246Y20844D1*
X5222Y20869D1*
X5150Y20892D1*
X4935D1*
Y20390D1*
X5103Y20653D2*
X5270Y20390D1*
X6269Y20773D2*
X6245Y20820D1*
X6197Y20869D1*
X6150Y20892D1*
X6054D1*
X6006Y20869D1*
X5959Y20820D1*
X5934Y20773D1*
X5910Y20701D1*
Y20581D1*
X5934Y20510D1*
X5959Y20462D1*
X6006Y20414D1*
X6054Y20390D1*
X6150D1*
X6197Y20414D1*
X6245Y20462D1*
X6269Y20510D1*
Y20581D1*
X6150D1*
X6910Y20892D2*
Y20390D1*
X7125D1*
X7197Y20414D1*
X7221Y20438D1*
X7245Y20486D1*
Y20557D1*
X7221Y20605D1*
X7197Y20629D1*
X7125Y20653D1*
X7197Y20677D1*
X7221Y20701D1*
X7245Y20749D1*
Y20797D1*
X7221Y20844D1*
X7197Y20869D1*
X7125Y20892D1*
X6910D1*
Y20653D2*
X7125D1*
X7885Y20892D2*
X8005Y20390D1*
X8124Y20892D1*
X8244Y20390D1*
X8364Y20892D1*
X9363Y20773D2*
X9339Y20820D1*
X9291Y20869D1*
X9243Y20892D1*
X9148D1*
X9100Y20869D1*
X9052Y20820D1*
X9028Y20773D1*
X9004Y20701D1*
Y20581D1*
X9028Y20510D1*
X9052Y20462D1*
X9100Y20414D1*
X9148Y20390D1*
X9243D1*
X9291Y20414D1*
X9339Y20462D1*
X9363Y20510D1*
Y20581D1*
X9243D1*
X9517Y20725D2*
Y20390D1*
Y20629D2*
X9589Y20701D1*
X9637Y20725D1*
X9708D1*
X9756Y20701D1*
X9780Y20629D1*
Y20390D1*
X10221Y20892D2*
Y20390D1*
Y20653D2*
X10174Y20701D1*
X10126Y20725D1*
X10054D1*
X10006Y20701D1*
X9958Y20653D1*
X9935Y20581D1*
Y20534D1*
X9958Y20462D1*
X10006Y20414D1*
X10054Y20390D1*
X10126D1*
X10174Y20414D1*
X10221Y20462D1*
X4398Y5585D2*
D105*
Y5284D1*
X4527D1*
X4570Y5298D1*
X4584Y5313D1*
X4599Y5341D1*
Y5384D1*
X4584Y5413D1*
X4570Y5427D1*
X4527Y5442D1*
X4570Y5456D1*
X4584Y5471D1*
X4599Y5499D1*
Y5528D1*
X4584Y5556D1*
X4570Y5571D1*
X4527Y5585D1*
X4398D1*
Y5442D2*
X4527D1*
X4691Y5585D2*
Y5370D1*
X4706Y5327D1*
X4734Y5298D1*
X4777Y5284D1*
X4806D1*
X4849Y5298D1*
X4878Y5327D1*
X4892Y5370D1*
Y5585D1*
X5085D2*
Y5284D1*
X4985Y5585D2*
X5186D1*
X5379D2*
Y5284D1*
X5278Y5585D2*
X5479D1*
X5658D2*
X5629Y5571D1*
X5601Y5542D1*
X5586Y5514D1*
X5572Y5471D1*
Y5399D1*
X5586Y5356D1*
X5601Y5327D1*
X5629Y5298D1*
X5658Y5284D1*
X5716D1*
X5744Y5298D1*
X5773Y5327D1*
X5787Y5356D1*
X5802Y5399D1*
Y5471D1*
X5787Y5514D1*
X5773Y5542D1*
X5744Y5571D1*
X5716Y5585D1*
X5658D1*
X6095D2*
Y5284D1*
X5894Y5585D1*
Y5284D1*
X8585Y5585D2*
Y5284D1*
X8714D1*
X8758Y5298D1*
X8772Y5313D1*
X8786Y5341D1*
Y5384D1*
X8772Y5413D1*
X8758Y5427D1*
X8714Y5442D1*
X8758Y5456D1*
X8772Y5471D1*
X8786Y5499D1*
Y5528D1*
X8772Y5556D1*
X8758Y5571D1*
X8714Y5585D1*
X8585D1*
Y5442D2*
X8714D1*
X9109Y5284D2*
X8994Y5585D1*
X8879Y5284D1*
X8922Y5384D2*
X9065D1*
X9302Y5585D2*
Y5284D1*
X9201Y5585D2*
X9402D1*
X9595D2*
Y5284D1*
X9495Y5585D2*
X9696D1*
X9975D2*
X9788D1*
Y5284D1*
X9975D1*
X9788Y5442D2*
X9903D1*
X10067D2*
X10196D1*
X10240Y5456D1*
X10254Y5471D1*
X10268Y5499D1*
Y5528D1*
X10254Y5556D1*
X10240Y5571D1*
X10196Y5585D1*
X10067D1*
Y5284D1*
X10168Y5442D2*
X10268Y5284D1*
X10361Y5585D2*
X10476Y5442D1*
Y5284D1*
X10590Y5585D2*
X10476Y5442D1*
M02*
