G04 DipTrace 2.4.0.2*
%INIoDriverRevF2.gbl*%
%MOIN*%
%ADD13C,0.0061*%
%ADD14C,0.022*%
%ADD16C,0.013*%
%ADD17C,0.0157*%
%ADD18C,0.0079*%
%ADD20C,0.0087*%
%ADD21R,0.0512X0.0591*%
%ADD22R,0.0591X0.0512*%
%ADD24R,0.0709X0.0551*%
%ADD26R,0.0299X0.0807*%
%ADD27R,0.0669X0.0669*%
%ADD28C,0.0669*%
%ADD29R,0.0472X0.063*%
%ADD30C,0.0787*%
%ADD32R,0.0256X0.0413*%
%ADD34R,0.0335X0.0197*%
%ADD35R,0.126X0.0709*%
%ADD41R,0.0787X0.0236*%
%ADD44R,0.0531X0.0157*%
%ADD45R,0.0551X0.063*%
%ADD46R,0.0512X0.0906*%
%ADD48C,0.0295*%
%ADD50C,0.04*%
%FSLAX44Y44*%
G04*
G70*
G90*
G75*
G01*
%LNBottom*%
%LPD*%
X8312Y18312D2*
D14*
X8187Y18187D1*
Y18125D1*
Y20329D2*
X7437Y21079D1*
Y21750D1*
X8375Y16375D2*
D13*
Y17058D1*
X8437D1*
X9125Y16375D2*
X8812Y16062D1*
Y15187D1*
X8750Y15125D1*
X8250D1*
X8187Y15187D1*
Y15375D1*
X7937Y15625D1*
Y15660D1*
X8000Y16375D2*
X7937Y16437D1*
Y17058D1*
X8437Y15660D2*
X8625Y15847D1*
Y16125D1*
X8750Y16250D1*
Y16375D1*
X7187Y12875D2*
X7250Y12812D1*
X7625D1*
X7750Y12687D1*
Y11187D1*
X7625Y11062D1*
X6875D1*
X6437Y10625D1*
Y9687D1*
X6187Y9437D1*
Y8937D1*
X8759Y5572D2*
D16*
X8717Y5529D1*
X8678D1*
X8062Y6000D2*
X8532Y5529D1*
X8678D1*
X5812Y7011D2*
D13*
X5798Y6998D1*
X5595D1*
X4908Y7685D1*
X4374D1*
X4499Y6444D2*
Y6373D1*
X4687Y6185D1*
X5187D1*
X5312Y6310D1*
Y6647D1*
X5420Y6755D1*
X5812D1*
X6625Y18312D2*
D14*
X6562Y18250D1*
Y18125D1*
Y20329D2*
X6437Y20454D1*
Y21750D1*
X7187Y12375D2*
D13*
X6437D1*
X6187Y12125D1*
Y11125D1*
X5875Y10812D1*
X4437D1*
X4375Y10875D1*
Y10937D1*
X4250D1*
X7437Y15660D2*
X7312Y15785D1*
Y16375D1*
X5061Y11375D2*
X4999Y11312D1*
X4250D1*
X6937Y17058D2*
Y16375D1*
X10375Y6939D2*
Y6375D1*
X5310Y17062D2*
X5500Y16873D1*
Y16125D1*
X5108Y15733D1*
Y15485D1*
X4812Y15500D2*
X4826Y15485D1*
X5108D1*
X9423Y9925D2*
X9622Y10125D1*
X9750D1*
X9812Y10187D1*
Y10750D1*
X9188Y11374D1*
Y11499D1*
X9626Y11937D1*
X10187D1*
X10625Y11500D1*
X5250Y18250D2*
D14*
X5125Y18125D1*
X4937D1*
Y20329D2*
X5437Y20829D1*
Y21750D1*
X9500Y8560D2*
D13*
X9376Y8437D1*
X8687D1*
X8562Y8312D1*
X8500D1*
X5061Y11875D2*
X4562D1*
X4375Y11687D1*
X4250D1*
X6937Y15660D2*
X6812Y15785D1*
Y16124D1*
X6562Y16375D1*
X10250Y8560D2*
X10187Y8498D1*
Y8250D1*
X10062Y8125D1*
X9000D1*
X9875Y5562D2*
D16*
X9859Y5547D1*
Y5529D1*
X5312Y10375D2*
D13*
X5125Y10187D1*
X4250D1*
X7687Y7433D2*
D16*
D3*
X4750Y13500D2*
D13*
X4250D1*
X5812Y6500D2*
D17*
X5750D1*
X5812Y6437D1*
D14*
X6312D1*
X9500Y9308D2*
D16*
X10250D1*
Y9309D1*
Y10181D1*
X10625Y10556D1*
Y10750D1*
X7525Y10309D2*
X6687Y9471D1*
Y9062D1*
X8891Y13579D2*
X8875Y13595D1*
Y14000D1*
X6189Y13937D2*
Y14625D1*
Y13937D2*
X6001Y13750D1*
X4250Y16250D2*
D14*
Y16000D1*
X4360Y15485D2*
X4250Y15596D1*
Y16000D1*
X9936Y11499D2*
D13*
X10187Y11248D1*
Y10875D1*
X10312Y10750D1*
X10625D1*
X5061Y12875D2*
X6312D1*
X6687Y13250D1*
X7687D1*
X8687Y12250D1*
X10625D1*
X7437Y17187D2*
Y16875D1*
Y17058D2*
Y17187D1*
X5250Y16375D2*
D14*
X5233Y16391D1*
X4734D1*
X5000Y16375D2*
X4983Y16391D1*
X4734D1*
X7314Y8873D2*
D16*
X7315Y8874D1*
X7811D1*
X7812Y8875D1*
X8562D1*
Y10213D2*
X8786Y10437D1*
X9423D1*
X9875Y18250D2*
D14*
X9812Y18187D1*
Y18125D1*
Y20329D2*
X9017Y21125D1*
X8687D1*
X8437Y21375D1*
Y21750D1*
X9687Y13875D2*
D13*
X10000Y13562D1*
Y13437D1*
X6437Y15660D2*
Y15187D1*
X6562Y15062D1*
X6812D1*
X6937Y14937D1*
Y14625D1*
X6437Y15660D2*
X6347Y15750D1*
X5500D1*
D48*
X8312Y18312D3*
X10625Y13437D3*
X8250Y19125D3*
X8375Y16375D3*
X9125D3*
X8000D3*
X6250Y13250D3*
X4250Y13875D3*
X8750Y16375D3*
X6250Y13250D3*
X6187Y8937D3*
X8759Y5572D3*
X4374Y7685D3*
X4499Y6444D3*
X6625Y18312D3*
X10625Y12625D3*
X6437Y19000D3*
X4250Y10937D3*
X7312Y16375D3*
X4250Y10937D3*
Y11312D3*
X6937Y16375D3*
X4250Y11312D3*
X10375Y6375D3*
X4375Y9750D3*
X7437Y15000D3*
X8000D3*
X4812Y15500D3*
X10625Y11500D3*
X5250Y18250D3*
X10625Y11875D3*
X4750Y18750D3*
X8500Y8312D3*
X4250Y11687D3*
X6562Y16375D3*
X4250Y11687D3*
X9000Y8125D3*
X4250Y10562D3*
X9000Y8125D3*
X6375Y7687D3*
X9000Y8125D3*
X9875Y5562D3*
X4250Y10187D3*
D3*
X5125Y9812D3*
X4250Y12687D3*
X5500Y9812D3*
X4250Y13062D3*
D50*
X7687Y7433D3*
D48*
X4250Y13500D3*
Y12062D3*
X6312Y6437D3*
X9937Y6062D3*
X5812Y11750D3*
X6312Y6437D3*
X5812Y11750D3*
X10625Y10750D3*
D3*
X6687Y9062D3*
X8891Y13579D3*
X6001Y13750D3*
X10625Y12250D3*
X5250Y16375D3*
X5000D3*
D50*
X7314Y8873D3*
D48*
X9875Y18250D3*
X10625Y13000D3*
X10000Y19125D3*
X9687Y13875D3*
X8312Y7562D3*
X10625Y11125D3*
X5500Y15750D3*
X6625Y8437D3*
D50*
X6937Y7437D3*
D48*
X7437Y16875D3*
Y17187D3*
X4250Y16250D3*
Y16000D3*
X5375Y19687D3*
X6062D3*
X7062D3*
X7750D3*
X8812D3*
X9437D3*
X8312Y11250D3*
Y11562D3*
Y11875D3*
X8937Y7000D3*
X9375D3*
Y6562D3*
X8937D3*
X4161Y22221D2*
D13*
X10713D1*
X4161Y22161D2*
X5310D1*
X5565D2*
X6310D1*
X6565D2*
X7310D1*
X7565D2*
X8310D1*
X8565D2*
X9002D1*
X9873D2*
X10713D1*
X4161Y22101D2*
X5185D1*
X5690D2*
X6185D1*
X6690D2*
X7185D1*
X7689D2*
X8185D1*
X8689D2*
X9002D1*
X9873D2*
X10713D1*
X4161Y22041D2*
X5116D1*
X5758D2*
X6116D1*
X6759D2*
X7116D1*
X7759D2*
X8116D1*
X8759D2*
X9002D1*
X9873D2*
X10713D1*
X4161Y21981D2*
X5070D1*
X5805D2*
X6070D1*
X6805D2*
X7070D1*
X7805D2*
X8070D1*
X8805D2*
X9002D1*
X9873D2*
X10713D1*
X4161Y21921D2*
X5037D1*
X5836D2*
X6037D1*
X6836D2*
X7037D1*
X7836D2*
X8037D1*
X8836D2*
X9002D1*
X9873D2*
X10713D1*
X4161Y21861D2*
X5016D1*
X5858D2*
X6016D1*
X6857D2*
X7016D1*
X7857D2*
X8016D1*
X8857D2*
X9002D1*
X9873D2*
X10713D1*
X4161Y21800D2*
X5005D1*
X5869D2*
X6005D1*
X6869D2*
X7004D1*
X7869D2*
X8004D1*
X8869D2*
X9002D1*
X9873D2*
X10713D1*
X4161Y21740D2*
X5002D1*
X5872D2*
X6002D1*
X6872D2*
X7002D1*
X7872D2*
X8002D1*
X8872D2*
X9002D1*
X9873D2*
X10713D1*
X4161Y21680D2*
X5007D1*
X5866D2*
X6007D1*
X6867D2*
X7007D1*
X7867D2*
X8007D1*
X8867D2*
X9002D1*
X9873D2*
X10713D1*
X4161Y21620D2*
X5022D1*
X5853D2*
X6022D1*
X6853D2*
X7022D1*
X7853D2*
X8022D1*
X8853D2*
X9002D1*
X9873D2*
X10713D1*
X4161Y21560D2*
X5046D1*
X5828D2*
X6046D1*
X6828D2*
X7046D1*
X7828D2*
X8046D1*
X8829D2*
X9002D1*
X9873D2*
X10713D1*
X4161Y21500D2*
X5081D1*
X5792D2*
X6082D1*
X6792D2*
X7082D1*
X7792D2*
X8082D1*
X8792D2*
X9002D1*
X9873D2*
X10713D1*
X4161Y21440D2*
X5134D1*
X5740D2*
X6134D1*
X6740D2*
X7134D1*
X7740D2*
X8134D1*
X8740D2*
X9002D1*
X9873D2*
X10713D1*
X4161Y21380D2*
X5213D1*
X5661D2*
X6213D1*
X6661D2*
X7213D1*
X7661D2*
X8214D1*
X8728D2*
X9002D1*
X9873D2*
X10713D1*
X4161Y21320D2*
X5226D1*
X5647D2*
X6226D1*
X6648D2*
X7226D1*
X7648D2*
X8234D1*
X9085D2*
X10713D1*
X4161Y21260D2*
X5226D1*
X5647D2*
X6226D1*
X6648D2*
X7226D1*
X7648D2*
X8262D1*
X9177D2*
X10713D1*
X4161Y21199D2*
X5226D1*
X5647D2*
X6226D1*
X6648D2*
X7226D1*
X7648D2*
X8316D1*
X9237D2*
X10713D1*
X4161Y21139D2*
X5226D1*
X5647D2*
X6226D1*
X6648D2*
X7226D1*
X7672D2*
X8377D1*
X9298D2*
X10713D1*
X4161Y21079D2*
X5226D1*
X5647D2*
X6226D1*
X6648D2*
X7226D1*
X7733D2*
X8436D1*
X9357D2*
X10713D1*
X4161Y21019D2*
X5226D1*
X5647D2*
X6226D1*
X6648D2*
X7235D1*
X7793D2*
X8497D1*
X9418D2*
X10713D1*
X4161Y20959D2*
X5226D1*
X5647D2*
X6226D1*
X6648D2*
X7266D1*
X7853D2*
X8560D1*
X9478D2*
X10713D1*
X4161Y20899D2*
X5211D1*
X5647D2*
X6226D1*
X6648D2*
X7322D1*
X7913D2*
X8947D1*
X9538D2*
X10713D1*
X4161Y20839D2*
X5150D1*
X5647D2*
X6226D1*
X6648D2*
X7382D1*
X7974D2*
X9007D1*
X9598D2*
X10713D1*
X4161Y20779D2*
X5091D1*
X5642D2*
X6226D1*
X6648D2*
X7442D1*
X8033D2*
X9067D1*
X9658D2*
X10713D1*
X4161Y20719D2*
X4206D1*
X5668D2*
X5832D1*
X7292D2*
X7456D1*
X8918D2*
X9081D1*
X10543D2*
X10713D1*
X4161Y20658D2*
X4206D1*
X5668D2*
X5832D1*
X7292D2*
X7456D1*
X8918D2*
X9081D1*
X10543D2*
X10713D1*
X4161Y20598D2*
X4206D1*
X5668D2*
X5832D1*
X7292D2*
X7456D1*
X8918D2*
X9081D1*
X10543D2*
X10713D1*
X4161Y20538D2*
X4206D1*
X5668D2*
X5832D1*
X7292D2*
X7456D1*
X8918D2*
X9081D1*
X10543D2*
X10713D1*
X4161Y20478D2*
X4206D1*
X5668D2*
X5832D1*
X7292D2*
X7456D1*
X8918D2*
X9081D1*
X10543D2*
X10713D1*
X4161Y20418D2*
X4206D1*
X5668D2*
X5832D1*
X7292D2*
X7456D1*
X8918D2*
X9081D1*
X10543D2*
X10713D1*
X4161Y20358D2*
X4206D1*
X5668D2*
X5832D1*
X7292D2*
X7456D1*
X8918D2*
X9081D1*
X10543D2*
X10713D1*
X4161Y20298D2*
X4206D1*
X5668D2*
X5832D1*
X7292D2*
X7456D1*
X8918D2*
X9081D1*
X10543D2*
X10713D1*
X4161Y20238D2*
X4206D1*
X5668D2*
X5832D1*
X7292D2*
X7456D1*
X8918D2*
X9081D1*
X10543D2*
X10713D1*
X4161Y20178D2*
X4206D1*
X5668D2*
X5832D1*
X7292D2*
X7456D1*
X8918D2*
X9081D1*
X10543D2*
X10713D1*
X4161Y20118D2*
X4206D1*
X5668D2*
X5832D1*
X7292D2*
X7456D1*
X8918D2*
X9081D1*
X10543D2*
X10713D1*
X4161Y20057D2*
X4206D1*
X5668D2*
X5832D1*
X7292D2*
X7456D1*
X8918D2*
X9081D1*
X10543D2*
X10713D1*
X4161Y19997D2*
X4206D1*
X5668D2*
X5832D1*
X7292D2*
X7456D1*
X8918D2*
X9081D1*
X10543D2*
X10713D1*
X4161Y19937D2*
X4206D1*
X5668D2*
X5832D1*
X7292D2*
X7456D1*
X8918D2*
X9081D1*
X10543D2*
X10713D1*
X4161Y19877D2*
X5219D1*
X5530D2*
X5906D1*
X6218D2*
X6906D1*
X7218D2*
X7594D1*
X7905D2*
X8656D1*
X8968D2*
X9281D1*
X9593D2*
X10713D1*
X4161Y19817D2*
X5164D1*
X5585D2*
X5852D1*
X6272D2*
X6852D1*
X7272D2*
X7539D1*
X7960D2*
X8601D1*
X9022D2*
X9227D1*
X9647D2*
X10713D1*
X4161Y19757D2*
X5137D1*
X5613D2*
X5824D1*
X6300D2*
X6824D1*
X7300D2*
X7511D1*
X7987D2*
X8574D1*
X9050D2*
X9199D1*
X9675D2*
X10713D1*
X4161Y19697D2*
X5126D1*
X5622D2*
X5814D1*
X6310D2*
X6814D1*
X7310D2*
X7502D1*
X7998D2*
X8564D1*
X9060D2*
X9189D1*
X9685D2*
X10713D1*
X4161Y19637D2*
X5131D1*
X5618D2*
X5819D1*
X6305D2*
X6819D1*
X7305D2*
X7506D1*
X7993D2*
X8569D1*
X9055D2*
X9194D1*
X9680D2*
X10713D1*
X4161Y19577D2*
X5153D1*
X5596D2*
X5840D1*
X6284D2*
X6840D1*
X7284D2*
X7528D1*
X7971D2*
X8591D1*
X9034D2*
X9216D1*
X9659D2*
X10713D1*
X4161Y19516D2*
X5197D1*
X5552D2*
X5884D1*
X6240D2*
X6884D1*
X7240D2*
X7572D1*
X7927D2*
X8634D1*
X8990D2*
X9259D1*
X9615D2*
X10713D1*
X4161Y19456D2*
X5294D1*
X5454D2*
X5982D1*
X6142D2*
X6982D1*
X7142D2*
X7670D1*
X7830D2*
X8732D1*
X8892D2*
X9358D1*
X9517D2*
X10713D1*
X4161Y19396D2*
X10713D1*
X4161Y19336D2*
X8125D1*
X8373D2*
X9876D1*
X10123D2*
X10713D1*
X4161Y19276D2*
X8054D1*
X8445D2*
X9805D1*
X10194D2*
X10713D1*
X4161Y19216D2*
X6322D1*
X6551D2*
X8019D1*
X8480D2*
X9769D1*
X10230D2*
X10713D1*
X4161Y19156D2*
X6246D1*
X6628D2*
X8003D1*
X8496D2*
X9753D1*
X10246D2*
X10713D1*
X4161Y19096D2*
X6209D1*
X6666D2*
X8003D1*
X8496D2*
X9753D1*
X10246D2*
X10713D1*
X4161Y19036D2*
X6192D1*
X6683D2*
X8018D1*
X8481D2*
X9768D1*
X10231D2*
X10713D1*
X4161Y18976D2*
X4656D1*
X4842D2*
X6190D1*
X6684D2*
X8052D1*
X8447D2*
X9803D1*
X10196D2*
X10713D1*
X4161Y18915D2*
X4567D1*
X4931D2*
X6204D1*
X6670D2*
X8122D1*
X8378D2*
X9871D1*
X10128D2*
X10713D1*
X4161Y18855D2*
X4526D1*
X4974D2*
X6237D1*
X6638D2*
X10713D1*
X4161Y18795D2*
X4506D1*
X4994D2*
X6301D1*
X6573D2*
X10713D1*
X4161Y18735D2*
X4502D1*
X4998D2*
X10713D1*
X4161Y18675D2*
X4513D1*
X4986D2*
X10713D1*
X4161Y18615D2*
X4542D1*
X4956D2*
X10713D1*
X4161Y18555D2*
X4206D1*
X5668D2*
X5832D1*
X7292D2*
X7456D1*
X8918D2*
X9081D1*
X10543D2*
X10713D1*
X4161Y18495D2*
X4206D1*
X5668D2*
X5832D1*
X7292D2*
X7456D1*
X8918D2*
X9081D1*
X10543D2*
X10713D1*
X4161Y18435D2*
X4206D1*
X5668D2*
X5832D1*
X7292D2*
X7456D1*
X8918D2*
X9081D1*
X10543D2*
X10713D1*
X4161Y18374D2*
X4206D1*
X5668D2*
X5832D1*
X7292D2*
X7456D1*
X8918D2*
X9081D1*
X10543D2*
X10713D1*
X4161Y18314D2*
X4206D1*
X5668D2*
X5832D1*
X7292D2*
X7456D1*
X8918D2*
X9081D1*
X10543D2*
X10713D1*
X4161Y18254D2*
X4206D1*
X5668D2*
X5832D1*
X7292D2*
X7456D1*
X8918D2*
X9081D1*
X10543D2*
X10713D1*
X4161Y18194D2*
X4206D1*
X5668D2*
X5832D1*
X7292D2*
X7456D1*
X8918D2*
X9081D1*
X10543D2*
X10713D1*
X4161Y18134D2*
X4206D1*
X5668D2*
X5832D1*
X7292D2*
X7456D1*
X8918D2*
X9081D1*
X10543D2*
X10713D1*
X4161Y18074D2*
X4206D1*
X5668D2*
X5832D1*
X7292D2*
X7456D1*
X8918D2*
X9081D1*
X10543D2*
X10713D1*
X4161Y18014D2*
X4206D1*
X5668D2*
X5832D1*
X7292D2*
X7456D1*
X8918D2*
X9081D1*
X10543D2*
X10713D1*
X4161Y17954D2*
X4206D1*
X5668D2*
X5832D1*
X7292D2*
X7456D1*
X8918D2*
X9081D1*
X10543D2*
X10713D1*
X4161Y17894D2*
X4206D1*
X5668D2*
X5832D1*
X7292D2*
X7456D1*
X8918D2*
X9081D1*
X10543D2*
X10713D1*
X4161Y17834D2*
X4206D1*
X5668D2*
X5832D1*
X7292D2*
X7456D1*
X8918D2*
X9081D1*
X10543D2*
X10713D1*
X4161Y17773D2*
X4206D1*
X5668D2*
X5832D1*
X7292D2*
X7456D1*
X8918D2*
X9081D1*
X10543D2*
X10713D1*
X4161Y17713D2*
X4206D1*
X5668D2*
X5832D1*
X7292D2*
X7456D1*
X8918D2*
X9081D1*
X10543D2*
X10713D1*
X4161Y17653D2*
X10713D1*
X4161Y17593D2*
X10713D1*
X4161Y17533D2*
X6187D1*
X8688D2*
X10713D1*
X4161Y17473D2*
X6187D1*
X8688D2*
X10713D1*
X4161Y17413D2*
X4205D1*
X4918D2*
X4954D1*
X5667D2*
X6187D1*
X8688D2*
X10713D1*
X4161Y17353D2*
X4205D1*
X4918D2*
X4954D1*
X5667D2*
X6187D1*
X8688D2*
X10713D1*
X4161Y17293D2*
X4205D1*
X4918D2*
X4954D1*
X5667D2*
X6187D1*
X8688D2*
X10713D1*
X4161Y17232D2*
X4205D1*
X4918D2*
X4954D1*
X5667D2*
X6187D1*
X8688D2*
X10713D1*
X4161Y17172D2*
X4205D1*
X4918D2*
X4954D1*
X5667D2*
X6187D1*
X8688D2*
X10713D1*
X4161Y17112D2*
X4205D1*
X4918D2*
X4954D1*
X5667D2*
X6187D1*
X8688D2*
X10713D1*
X4161Y17052D2*
X4205D1*
X4918D2*
X4954D1*
X5667D2*
X6187D1*
X8688D2*
X10713D1*
X4161Y16992D2*
X4205D1*
X4918D2*
X4954D1*
X5667D2*
X6187D1*
X8688D2*
X10713D1*
X4161Y16932D2*
X4205D1*
X4918D2*
X4954D1*
X5667D2*
X6187D1*
X8688D2*
X10713D1*
X4161Y16872D2*
X4205D1*
X4918D2*
X4954D1*
X5667D2*
X6187D1*
X8688D2*
X10713D1*
X4161Y16812D2*
X4205D1*
X4918D2*
X4954D1*
X5667D2*
X6187D1*
X8688D2*
X10713D1*
X4161Y16752D2*
X4205D1*
X4918D2*
X4954D1*
X5667D2*
X6187D1*
X8688D2*
X10713D1*
X4161Y16692D2*
X4205D1*
X5667D2*
X6187D1*
X8688D2*
X10713D1*
X4161Y16631D2*
X4506D1*
X4963D2*
X5368D1*
X5631D2*
X6187D1*
X8688D2*
X10713D1*
X4161Y16571D2*
X4506D1*
X5631D2*
X6187D1*
X8897D2*
X8978D1*
X9272D2*
X10713D1*
X4161Y16511D2*
X4506D1*
X5631D2*
X6356D1*
X7518D2*
X7793D1*
X9330D2*
X10713D1*
X4389Y16451D2*
X4506D1*
X5631D2*
X6326D1*
X7547D2*
X7764D1*
X9360D2*
X10713D1*
X4452Y16391D2*
X4506D1*
X5631D2*
X6315D1*
X7560D2*
X7752D1*
X9372D2*
X10713D1*
X4483Y16331D2*
X4505D1*
X5631D2*
X6317D1*
X7556D2*
X7755D1*
X9369D2*
X10713D1*
X5631Y16271D2*
X6338D1*
X7537D2*
X7775D1*
X9350D2*
X10713D1*
X5631Y16211D2*
X6378D1*
X7497D2*
X7815D1*
X9308D2*
X10713D1*
X4477Y16151D2*
X4505D1*
X5097D2*
X5151D1*
X5631D2*
X6187D1*
X9223D2*
X10713D1*
X4480Y16090D2*
X4506D1*
X4963D2*
X5282D1*
X5626D2*
X6187D1*
X9023D2*
X10713D1*
X4496Y16030D2*
X5222D1*
X5589D2*
X6187D1*
X8964D2*
X10713D1*
X4496Y15970D2*
X5162D1*
X5605D2*
X6187D1*
X8944D2*
X10713D1*
X4480Y15910D2*
X5102D1*
X5687D2*
X6187D1*
X8944D2*
X10713D1*
X4460Y15850D2*
X5042D1*
X8944D2*
X10713D1*
X4460Y15790D2*
X4990D1*
X8944D2*
X10713D1*
X4589Y15730D2*
X4731D1*
X8944D2*
X10713D1*
X4589Y15670D2*
X4634D1*
X8944D2*
X10713D1*
X5703Y15610D2*
X6187D1*
X8944D2*
X10713D1*
X5336Y15550D2*
X5357D1*
X5643D2*
X6187D1*
X8944D2*
X10713D1*
X5336Y15489D2*
X6187D1*
X8944D2*
X10713D1*
X5336Y15429D2*
X6187D1*
X8944D2*
X10713D1*
X5336Y15369D2*
X6187D1*
X8944D2*
X10713D1*
X4589Y15309D2*
X4656D1*
X5336D2*
X6187D1*
X8944D2*
X10713D1*
X4589Y15249D2*
X4880D1*
X5336D2*
X6187D1*
X8944D2*
X10713D1*
X4589Y15189D2*
X4880D1*
X5336D2*
X6187D1*
X8944D2*
X10713D1*
X4161Y15129D2*
X6320D1*
X7648D2*
X7789D1*
X8929D2*
X10713D1*
X4161Y15069D2*
X6372D1*
X7675D2*
X7762D1*
X9270D2*
X10713D1*
X4161Y15009D2*
X5833D1*
X7685D2*
X7751D1*
X9270D2*
X10713D1*
X4161Y14948D2*
X5833D1*
X7680D2*
X7757D1*
X8242D2*
X8479D1*
X9270D2*
X10713D1*
X4161Y14888D2*
X5833D1*
X6546D2*
X6580D1*
X7658D2*
X7778D1*
X8221D2*
X8479D1*
X9270D2*
X10713D1*
X4161Y14828D2*
X5833D1*
X6546D2*
X6580D1*
X7615D2*
X7822D1*
X8177D2*
X8479D1*
X9270D2*
X10713D1*
X4161Y14768D2*
X5833D1*
X6546D2*
X6580D1*
X7293D2*
X7360D1*
X7515D2*
X7922D1*
X8077D2*
X8479D1*
X9270D2*
X10713D1*
X4161Y14708D2*
X5833D1*
X6546D2*
X6580D1*
X7293D2*
X8479D1*
X9270D2*
X10713D1*
X4161Y14648D2*
X5833D1*
X6546D2*
X6580D1*
X7293D2*
X8479D1*
X9270D2*
X10713D1*
X4161Y14588D2*
X5833D1*
X6546D2*
X6580D1*
X7293D2*
X8479D1*
X9270D2*
X10713D1*
X4161Y14528D2*
X5833D1*
X6546D2*
X6580D1*
X7293D2*
X8479D1*
X9270D2*
X10713D1*
X4161Y14468D2*
X5833D1*
X6546D2*
X6580D1*
X7293D2*
X8479D1*
X9270D2*
X10713D1*
X4161Y14408D2*
X5833D1*
X6546D2*
X6580D1*
X7293D2*
X8479D1*
X9270D2*
X10713D1*
X4161Y14347D2*
X5833D1*
X6546D2*
X6580D1*
X7293D2*
X8479D1*
X9270D2*
X10713D1*
X4161Y14287D2*
X5833D1*
X6546D2*
X6580D1*
X7293D2*
X8479D1*
X9270D2*
X10713D1*
X4161Y14227D2*
X5833D1*
X6546D2*
X6580D1*
X7293D2*
X8479D1*
X9270D2*
X10713D1*
X4161Y14167D2*
X5833D1*
X6546D2*
X6580D1*
X7293D2*
X8479D1*
X9270D2*
X10713D1*
X4323Y14107D2*
X5833D1*
X6546D2*
X6580D1*
X7293D2*
X8479D1*
X9270D2*
X9614D1*
X9760D2*
X10713D1*
X4426Y14047D2*
X5833D1*
X6546D2*
X6580D1*
X7293D2*
X8479D1*
X9270D2*
X9511D1*
X9863D2*
X10713D1*
X4470Y13987D2*
X5833D1*
X6546D2*
X6580D1*
X7293D2*
X8479D1*
X9270D2*
X9466D1*
X9907D2*
X10713D1*
X4492Y13927D2*
X5831D1*
X6546D2*
X6580D1*
X7293D2*
X8479D1*
X9270D2*
X9445D1*
X9929D2*
X10713D1*
X5106Y13867D2*
X5141D1*
X6546D2*
X6580D1*
X7293D2*
X8479D1*
X9270D2*
X9439D1*
X9935D2*
X10713D1*
X5106Y13806D2*
X5141D1*
X6546D2*
X6580D1*
X7293D2*
X8479D1*
X9270D2*
X9449D1*
X9938D2*
X10713D1*
X5106Y13746D2*
X5141D1*
X6546D2*
X6580D1*
X7293D2*
X8479D1*
X9270D2*
X9476D1*
X10396D2*
X10713D1*
X5106Y13686D2*
X5141D1*
X6546D2*
X6580D1*
X7293D2*
X8479D1*
X9270D2*
X9528D1*
X10396D2*
X10713D1*
X5106Y13626D2*
X5141D1*
X6546D2*
X6580D1*
X7293D2*
X8647D1*
X9135D2*
X9603D1*
X10396D2*
X10467D1*
X5106Y13566D2*
X5141D1*
X6546D2*
X6580D1*
X7293D2*
X8644D1*
X9139D2*
X9603D1*
X5106Y13506D2*
X5141D1*
X5854D2*
X8654D1*
X9128D2*
X9603D1*
X5106Y13446D2*
X5141D1*
X5854D2*
X6101D1*
X6397D2*
X8683D1*
X9100D2*
X9603D1*
X5106Y13386D2*
X5141D1*
X5854D2*
X6043D1*
X6455D2*
X8739D1*
X9044D2*
X9603D1*
X5106Y13326D2*
X5141D1*
X5854D2*
X6013D1*
X6485D2*
X6580D1*
X7794D2*
X9603D1*
X5106Y13266D2*
X5141D1*
X5854D2*
X6002D1*
X6498D2*
X6519D1*
X7855D2*
X9603D1*
X10396D2*
X10448D1*
X5106Y13205D2*
X5141D1*
X5854D2*
X6005D1*
X7914D2*
X9603D1*
X10396D2*
X10491D1*
X5106Y13145D2*
X5141D1*
X5854D2*
X6025D1*
X7975D2*
X9603D1*
X10396D2*
X10424D1*
X4497Y13085D2*
X4567D1*
X5555D2*
X6066D1*
X8034D2*
X10392D1*
X4495Y13025D2*
X4567D1*
X5555D2*
X6152D1*
X6645D2*
X6693D1*
X7681D2*
X7728D1*
X8094D2*
X9603D1*
X4478Y12965D2*
X4567D1*
X6586D2*
X6693D1*
X7681D2*
X7789D1*
X8155D2*
X9603D1*
X4440Y12905D2*
X4567D1*
X6525D2*
X6693D1*
X7714D2*
X7848D1*
X8214D2*
X9603D1*
X4439Y12845D2*
X4567D1*
X6465D2*
X6693D1*
X7775D2*
X7908D1*
X8275D2*
X9603D1*
X4478Y12785D2*
X4567D1*
X6405D2*
X6693D1*
X7835D2*
X7969D1*
X8335D2*
X9603D1*
X4495Y12725D2*
X4567D1*
X5555D2*
X6693D1*
X7875D2*
X8028D1*
X8395D2*
X9603D1*
X4497Y12665D2*
X4567D1*
X5555D2*
X6693D1*
X7880D2*
X8089D1*
X8455D2*
X9603D1*
X4483Y12604D2*
X7619D1*
X7880D2*
X8149D1*
X8516D2*
X9603D1*
X4452Y12544D2*
X4567D1*
X5555D2*
X6693D1*
X7880D2*
X8209D1*
X8575D2*
X9603D1*
X4387Y12484D2*
X4567D1*
X5555D2*
X6370D1*
X7880D2*
X8269D1*
X8636D2*
X9603D1*
X4161Y12424D2*
X4567D1*
X5555D2*
X6303D1*
X7880D2*
X8330D1*
X8695D2*
X9603D1*
X4161Y12364D2*
X4567D1*
X5555D2*
X6243D1*
X7880D2*
X8389D1*
X4161Y12304D2*
X4233D1*
X4267D2*
X4567D1*
X5555D2*
X6183D1*
X7880D2*
X8450D1*
X4415Y12244D2*
X4567D1*
X5555D2*
X6124D1*
X6489D2*
X6693D1*
X7880D2*
X8509D1*
X4465Y12184D2*
X4567D1*
X5555D2*
X6071D1*
X6429D2*
X6693D1*
X7880D2*
X8570D1*
X4490Y12124D2*
X6055D1*
X6369D2*
X7619D1*
X7880D2*
X10411D1*
X4498Y12063D2*
X4567D1*
X5555D2*
X6055D1*
X6318D2*
X6693D1*
X7880D2*
X10463D1*
X4491Y12003D2*
X4567D1*
X5555D2*
X6055D1*
X6318D2*
X6693D1*
X7880D2*
X9510D1*
X10304D2*
X10413D1*
X5555Y11943D2*
X5661D1*
X5963D2*
X6055D1*
X6318D2*
X6693D1*
X7880D2*
X9450D1*
X10364D2*
X10386D1*
X5555Y11883D2*
X5604D1*
X6020D2*
X6055D1*
X6318D2*
X6693D1*
X7880D2*
X8832D1*
X5555Y11823D2*
X5575D1*
X6318D2*
X6693D1*
X7880D2*
X8832D1*
X6318Y11763D2*
X6693D1*
X7880D2*
X8832D1*
X6318Y11703D2*
X6693D1*
X7880D2*
X8832D1*
X4513Y11643D2*
X5589D1*
X6035D2*
X6056D1*
X6318D2*
X7619D1*
X7880D2*
X8832D1*
X4474Y11583D2*
X4567D1*
X5555D2*
X5630D1*
X5994D2*
X6055D1*
X6318D2*
X6693D1*
X7880D2*
X8832D1*
X4433Y11523D2*
X4567D1*
X5555D2*
X5722D1*
X5903D2*
X6055D1*
X6318D2*
X6693D1*
X7880D2*
X8832D1*
X4445Y11462D2*
X4567D1*
X5555D2*
X6055D1*
X6318D2*
X6693D1*
X7880D2*
X8832D1*
X5555Y11402D2*
X6055D1*
X6318D2*
X6693D1*
X7880D2*
X8832D1*
X5555Y11342D2*
X6055D1*
X6318D2*
X6693D1*
X7880D2*
X8832D1*
X5555Y11282D2*
X6055D1*
X6318D2*
X6693D1*
X7880D2*
X8832D1*
X5555Y11222D2*
X6055D1*
X6318D2*
X6693D1*
X7880D2*
X8832D1*
X4446Y11162D2*
X6041D1*
X6318D2*
X6793D1*
X7879D2*
X8832D1*
X4433Y11102D2*
X5982D1*
X6316D2*
X6731D1*
X7847D2*
X9277D1*
X9643D2*
X10056D1*
X4474Y11042D2*
X5921D1*
X6286D2*
X6671D1*
X7787D2*
X9336D1*
X9703D2*
X10056D1*
X4498Y10982D2*
X5861D1*
X6227D2*
X6611D1*
X7727D2*
X9397D1*
X9763D2*
X10056D1*
X6167Y10921D2*
X6551D1*
X6917D2*
X9457D1*
X9823D2*
X10056D1*
X6107Y10861D2*
X6491D1*
X6857D2*
X9517D1*
X9883D2*
X10056D1*
X6047Y10801D2*
X6431D1*
X6797D2*
X9577D1*
X9932D2*
X10079D1*
X6737Y10741D2*
X9637D1*
X9944D2*
X10137D1*
X4466Y10681D2*
X4956D1*
X5668D2*
X5703D1*
X6677D2*
X9681D1*
X9944D2*
X10197D1*
X4490Y10621D2*
X4956D1*
X5668D2*
X5703D1*
X6617D2*
X7128D1*
X7921D2*
X9155D1*
X9944D2*
X10413D1*
X4498Y10561D2*
X4956D1*
X5668D2*
X5703D1*
X6569D2*
X7128D1*
X7921D2*
X8107D1*
X9944D2*
X10398D1*
X4490Y10501D2*
X4956D1*
X5668D2*
X5703D1*
X6569D2*
X7128D1*
X7921D2*
X8107D1*
X9944D2*
X10337D1*
X4465Y10441D2*
X4956D1*
X5668D2*
X5703D1*
X6569D2*
X7128D1*
X7921D2*
X8107D1*
X9944D2*
X10278D1*
X4416Y10381D2*
X4956D1*
X5668D2*
X5703D1*
X6569D2*
X7128D1*
X7921D2*
X8107D1*
X9944D2*
X10217D1*
X10681D2*
X10713D1*
X4457Y10320D2*
X4956D1*
X5668D2*
X5703D1*
X6569D2*
X7128D1*
X7921D2*
X8107D1*
X9944D2*
X9981D1*
X10620D2*
X10713D1*
X5668Y10260D2*
X5703D1*
X6569D2*
X7128D1*
X7921D2*
X8107D1*
X9017D2*
X9155D1*
X9944D2*
X9981D1*
X10561D2*
X10713D1*
X5668Y10200D2*
X5703D1*
X6569D2*
X7128D1*
X7921D2*
X8107D1*
X9017D2*
X9515D1*
X9944D2*
X9981D1*
X10518D2*
X10713D1*
X5668Y10140D2*
X5703D1*
X6569D2*
X7124D1*
X7921D2*
X8107D1*
X9017D2*
X9454D1*
X9934D2*
X9981D1*
X10518D2*
X10713D1*
X5668Y10080D2*
X5703D1*
X6569D2*
X7064D1*
X7921D2*
X8107D1*
X9017D2*
X9155D1*
X9888D2*
X9981D1*
X10518D2*
X10713D1*
X4431Y10020D2*
X4956D1*
X5668D2*
X5703D1*
X6569D2*
X7004D1*
X7921D2*
X8107D1*
X9017D2*
X9155D1*
X9825D2*
X9981D1*
X10518D2*
X10713D1*
X4501Y9960D2*
X4927D1*
X5697D2*
X6306D1*
X6569D2*
X6944D1*
X7921D2*
X8107D1*
X9017D2*
X9155D1*
X9690D2*
X10084D1*
X10415D2*
X10713D1*
X4571Y9900D2*
X4892D1*
X5731D2*
X6306D1*
X6569D2*
X6885D1*
X7921D2*
X8107D1*
X9017D2*
X9155D1*
X9690D2*
X10084D1*
X10415D2*
X10713D1*
X4605Y9840D2*
X4878D1*
X5746D2*
X6306D1*
X6569D2*
X6824D1*
X7921D2*
X9155D1*
X9690D2*
X10084D1*
X10415D2*
X10713D1*
X4621Y9779D2*
X4879D1*
X5745D2*
X6306D1*
X6569D2*
X6764D1*
X7921D2*
X9155D1*
X9690D2*
X10084D1*
X10415D2*
X10713D1*
X4621Y9719D2*
X4895D1*
X5729D2*
X6287D1*
X6569D2*
X6704D1*
X7921D2*
X10084D1*
X10415D2*
X10713D1*
X4605Y9659D2*
X4931D1*
X5693D2*
X6226D1*
X6565D2*
X6644D1*
X7107D2*
X7128D1*
X7921D2*
X10084D1*
X10415D2*
X10713D1*
X4571Y9599D2*
X5003D1*
X5246D2*
X5378D1*
X5620D2*
X6166D1*
X6532D2*
X6583D1*
X7047D2*
X7128D1*
X7921D2*
X9104D1*
X10646D2*
X10713D1*
X4161Y9539D2*
X4248D1*
X4501D2*
X6106D1*
X6473D2*
X6537D1*
X6987D2*
X7128D1*
X7921D2*
X9104D1*
X10646D2*
X10713D1*
X4161Y9479D2*
X6063D1*
X6412D2*
X6522D1*
X6927D2*
X7128D1*
X7921D2*
X9104D1*
X10646D2*
X10713D1*
X4161Y9419D2*
X6055D1*
X6352D2*
X6522D1*
X6866D2*
X7128D1*
X7921D2*
X9104D1*
X10646D2*
X10713D1*
X4161Y9359D2*
X6055D1*
X6318D2*
X6522D1*
X6853D2*
X7128D1*
X7921D2*
X9104D1*
X10646D2*
X10713D1*
X4161Y9299D2*
X6055D1*
X6318D2*
X6522D1*
X6853D2*
X7128D1*
X7921D2*
X9104D1*
X10646D2*
X10713D1*
X4161Y9239D2*
X6055D1*
X6318D2*
X6515D1*
X6858D2*
X7128D1*
X7921D2*
X8107D1*
X9017D2*
X9104D1*
X10646D2*
X10713D1*
X4161Y9178D2*
X6055D1*
X6318D2*
X6469D1*
X6905D2*
X7415D1*
X9017D2*
X9104D1*
X10646D2*
X10713D1*
X4161Y9118D2*
X6021D1*
X6354D2*
X6445D1*
X6928D2*
X7146D1*
X9017D2*
X9104D1*
X10646D2*
X10713D1*
X4161Y9058D2*
X5971D1*
X6403D2*
X6439D1*
X6935D2*
X7079D1*
X9017D2*
X9104D1*
X10646D2*
X10713D1*
X4161Y8998D2*
X4402D1*
X5116D2*
X5947D1*
X6428D2*
X6447D1*
X6927D2*
X7042D1*
X9017D2*
X9104D1*
X10646D2*
X10713D1*
X4161Y8938D2*
X4402D1*
X5116D2*
X5938D1*
X6435D2*
X6473D1*
X6901D2*
X7021D1*
X9017D2*
X10713D1*
X4161Y8878D2*
X4402D1*
X5116D2*
X5946D1*
X6428D2*
X6524D1*
X6851D2*
X7013D1*
X9017D2*
X9104D1*
X10646D2*
X10713D1*
X4161Y8818D2*
X4402D1*
X5116D2*
X5970D1*
X6404D2*
X7019D1*
X9017D2*
X9104D1*
X10646D2*
X10713D1*
X4161Y8758D2*
X4402D1*
X5116D2*
X6018D1*
X6356D2*
X7037D1*
X9017D2*
X9104D1*
X10646D2*
X10713D1*
X4161Y8698D2*
X4402D1*
X5116D2*
X6145D1*
X6229D2*
X7072D1*
X9017D2*
X9104D1*
X10646D2*
X10713D1*
X4161Y8637D2*
X4402D1*
X5116D2*
X5347D1*
X6099D2*
X6482D1*
X6766D2*
X7131D1*
X9017D2*
X9104D1*
X10646D2*
X10713D1*
X4161Y8577D2*
X4402D1*
X5116D2*
X5347D1*
X6099D2*
X6421D1*
X6828D2*
X7415D1*
X9017D2*
X9104D1*
X10646D2*
X10713D1*
X4161Y8517D2*
X4402D1*
X5116D2*
X5347D1*
X6099D2*
X6390D1*
X6859D2*
X8107D1*
X10646D2*
X10713D1*
X4161Y8457D2*
X4402D1*
X5116D2*
X5347D1*
X6099D2*
X6377D1*
X6872D2*
X7415D1*
X8207D2*
X8300D1*
X10646D2*
X10713D1*
X4161Y8397D2*
X4402D1*
X5116D2*
X5347D1*
X6099D2*
X6380D1*
X6869D2*
X7415D1*
X8207D2*
X8266D1*
X10646D2*
X10713D1*
X4161Y8337D2*
X4402D1*
X5116D2*
X5347D1*
X6099D2*
X6398D1*
X6851D2*
X7415D1*
X8207D2*
X8253D1*
X10646D2*
X10713D1*
X4161Y8277D2*
X4402D1*
X5116D2*
X5347D1*
X6099D2*
X6436D1*
X6812D2*
X7415D1*
X8207D2*
X8254D1*
X8745D2*
X8805D1*
X10646D2*
X10713D1*
X4161Y8217D2*
X4402D1*
X5116D2*
X5347D1*
X6099D2*
X6518D1*
X6731D2*
X7415D1*
X8207D2*
X8271D1*
X8728D2*
X8769D1*
X10646D2*
X10713D1*
X4161Y8157D2*
X4402D1*
X5116D2*
X5347D1*
X6099D2*
X7415D1*
X8207D2*
X8308D1*
X8691D2*
X8753D1*
X10278D2*
X10713D1*
X4161Y8097D2*
X4402D1*
X5116D2*
X5347D1*
X6099D2*
X7415D1*
X8207D2*
X8384D1*
X8616D2*
X8753D1*
X10217D2*
X10713D1*
X4161Y8036D2*
X4402D1*
X5116D2*
X5347D1*
X6099D2*
X7415D1*
X8207D2*
X8768D1*
X4161Y7976D2*
X4402D1*
X5116D2*
X5347D1*
X6099D2*
X7415D1*
X8207D2*
X8802D1*
X9197D2*
X9978D1*
X4161Y7916D2*
X4295D1*
X4453D2*
X5347D1*
X6099D2*
X6291D1*
X6458D2*
X7415D1*
X8207D2*
X8870D1*
X9129D2*
X9978D1*
X4161Y7856D2*
X4197D1*
X4552D2*
X6196D1*
X6554D2*
X7415D1*
X8207D2*
X9978D1*
X4972Y7796D2*
X6152D1*
X6596D2*
X7415D1*
X8207D2*
X8243D1*
X8380D2*
X9978D1*
X5040Y7736D2*
X6131D1*
X6618D2*
X7291D1*
X8083D2*
X8138D1*
X8487D2*
X9978D1*
X5100Y7676D2*
X5446D1*
X6622D2*
X6759D1*
X7116D2*
X7291D1*
X8532D2*
X9978D1*
X5161Y7616D2*
X5446D1*
X6612D2*
X6696D1*
X7177D2*
X7291D1*
X8554D2*
X9978D1*
X4585Y7556D2*
X4854D1*
X5220D2*
X5446D1*
X6584D2*
X6661D1*
X7213D2*
X7291D1*
X8560D2*
X9978D1*
X4161Y7495D2*
X4218D1*
X4530D2*
X4914D1*
X5281D2*
X5446D1*
X6178D2*
X6220D1*
X6528D2*
X6643D1*
X7232D2*
X7291D1*
X8551D2*
X9978D1*
X4161Y7435D2*
X4975D1*
X5341D2*
X5446D1*
X6178D2*
X6636D1*
X7237D2*
X7291D1*
X8524D2*
X9978D1*
X4161Y7375D2*
X5034D1*
X5401D2*
X5446D1*
X6178D2*
X6643D1*
X7231D2*
X7291D1*
X8083D2*
X8152D1*
X8473D2*
X9978D1*
X4161Y7315D2*
X5095D1*
X6178D2*
X6663D1*
X7212D2*
X7291D1*
X8083D2*
X10713D1*
X4161Y7255D2*
X5155D1*
X6178D2*
X6699D1*
X7175D2*
X7291D1*
X8083D2*
X9978D1*
X4161Y7195D2*
X5215D1*
X6178D2*
X6764D1*
X7111D2*
X7291D1*
X8083D2*
X9978D1*
X4161Y7135D2*
X5275D1*
X6178D2*
X7291D1*
X8083D2*
X9978D1*
X4161Y7075D2*
X5335D1*
X6178D2*
X9978D1*
X4161Y7015D2*
X5395D1*
X6178D2*
X7291D1*
X8083D2*
X9978D1*
X4161Y6955D2*
X5446D1*
X6178D2*
X7291D1*
X8083D2*
X9978D1*
X4161Y6894D2*
X5446D1*
X6178D2*
X7291D1*
X8083D2*
X9978D1*
X4161Y6834D2*
X5316D1*
X6178D2*
X7291D1*
X8083D2*
X9978D1*
X4161Y6774D2*
X5256D1*
X6178D2*
X7291D1*
X8083D2*
X9978D1*
X4161Y6714D2*
X5200D1*
X6178D2*
X7291D1*
X8083D2*
X9978D1*
X4161Y6654D2*
X4372D1*
X4626D2*
X5181D1*
X6178D2*
X6198D1*
X6426D2*
X7291D1*
X8083D2*
X9978D1*
X4161Y6594D2*
X4303D1*
X4695D2*
X5180D1*
X6502D2*
X7291D1*
X8083D2*
X9978D1*
X4161Y6534D2*
X4269D1*
X4730D2*
X5180D1*
X6540D2*
X7291D1*
X8083D2*
X10186D1*
X10563D2*
X10713D1*
X4161Y6474D2*
X4253D1*
X4745D2*
X5180D1*
X6557D2*
X7291D1*
X8083D2*
X10147D1*
X10601D2*
X10713D1*
X4161Y6414D2*
X4253D1*
X4745D2*
X5180D1*
X6559D2*
X7291D1*
X8083D2*
X10129D1*
X10619D2*
X10713D1*
X4161Y6353D2*
X4269D1*
X4730D2*
X5173D1*
X6546D2*
X6957D1*
X8419D2*
X10127D1*
X10622D2*
X10713D1*
X4161Y6293D2*
X4304D1*
X5442D2*
X5660D1*
X6513D2*
X6957D1*
X7670D2*
X7705D1*
X8419D2*
X9859D1*
X10015D2*
X10141D1*
X10609D2*
X10713D1*
X4161Y6233D2*
X4374D1*
X5417D2*
X5786D1*
X6449D2*
X6957D1*
X7670D2*
X7705D1*
X8419D2*
X9760D1*
X10115D2*
X10171D1*
X10577D2*
X10713D1*
X4161Y6173D2*
X4515D1*
X5358D2*
X6957D1*
X7670D2*
X7705D1*
X8419D2*
X9715D1*
X10159D2*
X10234D1*
X10515D2*
X10713D1*
X4161Y6113D2*
X4576D1*
X5298D2*
X5347D1*
X6099D2*
X6957D1*
X7670D2*
X7705D1*
X8419D2*
X9694D1*
X10180D2*
X10713D1*
X4161Y6053D2*
X4402D1*
X5116D2*
X5347D1*
X6099D2*
X6957D1*
X7670D2*
X7705D1*
X8419D2*
X9689D1*
X10186D2*
X10713D1*
X4161Y5993D2*
X4402D1*
X5116D2*
X5347D1*
X6099D2*
X6957D1*
X7670D2*
X7705D1*
X8419D2*
X9699D1*
X10175D2*
X10713D1*
X4161Y5933D2*
X4402D1*
X5116D2*
X5347D1*
X6099D2*
X6957D1*
X7670D2*
X7705D1*
X9015D2*
X9523D1*
X10196D2*
X10713D1*
X4161Y5873D2*
X4402D1*
X5116D2*
X5347D1*
X6099D2*
X6957D1*
X7670D2*
X7705D1*
X9015D2*
X9523D1*
X10196D2*
X10713D1*
X4161Y5813D2*
X4402D1*
X5116D2*
X5347D1*
X6099D2*
X6957D1*
X7670D2*
X7705D1*
X9015D2*
X9523D1*
X10196D2*
X10713D1*
X4161Y5752D2*
X4402D1*
X5116D2*
X5347D1*
X6099D2*
X6957D1*
X7670D2*
X7705D1*
X9015D2*
X9523D1*
X10196D2*
X10713D1*
X4161Y5692D2*
X4402D1*
X5116D2*
X5347D1*
X6099D2*
X6957D1*
X7670D2*
X7705D1*
X9015D2*
X9523D1*
X10196D2*
X10713D1*
X4161Y5632D2*
X4402D1*
X5116D2*
X5347D1*
X6099D2*
X6957D1*
X7670D2*
X7705D1*
X9015D2*
X9523D1*
X10196D2*
X10713D1*
X4161Y5572D2*
X4402D1*
X5116D2*
X5347D1*
X6099D2*
X8258D1*
X9015D2*
X9523D1*
X10196D2*
X10713D1*
X4161Y5512D2*
X4402D1*
X5116D2*
X5347D1*
X6099D2*
X8318D1*
X9015D2*
X9523D1*
X10196D2*
X10713D1*
X4161Y5452D2*
X4402D1*
X5116D2*
X5347D1*
X6099D2*
X8341D1*
X9015D2*
X9523D1*
X10196D2*
X10713D1*
X4161Y5392D2*
X4402D1*
X5116D2*
X5347D1*
X6099D2*
X8341D1*
X9015D2*
X9523D1*
X10196D2*
X10713D1*
X4161Y5332D2*
X4402D1*
X5116D2*
X8341D1*
X9015D2*
X9523D1*
X10196D2*
X10713D1*
X4161Y5272D2*
X4402D1*
X5116D2*
X8341D1*
X9015D2*
X9523D1*
X10196D2*
X10713D1*
X4161Y5211D2*
X4402D1*
X5116D2*
X7148D1*
X7475D2*
X8341D1*
X9015D2*
X9523D1*
X10196D2*
X10713D1*
X4161Y5151D2*
X4402D1*
X5116D2*
X7028D1*
X7595D2*
X8341D1*
X9015D2*
X9523D1*
X10196D2*
X10713D1*
X4161Y5091D2*
X4402D1*
X5116D2*
X6957D1*
X7666D2*
X8542D1*
X9413D2*
X9782D1*
X10173D2*
X10713D1*
X4161Y5031D2*
X4402D1*
X5116D2*
X6908D1*
X7717D2*
X8542D1*
X9413D2*
X9691D1*
X10263D2*
X10713D1*
X4161Y4971D2*
X4252D1*
X5122D2*
X5552D1*
X5823D2*
X6871D1*
X7753D2*
X8542D1*
X9413D2*
X9634D1*
X10321D2*
X10713D1*
X4161Y4911D2*
X4252D1*
X5122D2*
X5431D1*
X5943D2*
X6845D1*
X7779D2*
X8542D1*
X9413D2*
X9595D1*
X10360D2*
X10713D1*
X4161Y4851D2*
X4252D1*
X5122D2*
X5364D1*
X6010D2*
X6828D1*
X7796D2*
X8542D1*
X9413D2*
X9568D1*
X10387D2*
X10713D1*
X4161Y4791D2*
X4252D1*
X5122D2*
X5317D1*
X6056D2*
X6819D1*
X7805D2*
X8542D1*
X9413D2*
X9550D1*
X10404D2*
X10713D1*
X4161Y4731D2*
X4252D1*
X5122D2*
X5287D1*
X6088D2*
X6818D1*
X7806D2*
X8542D1*
X9413D2*
X9543D1*
X10412D2*
X10713D1*
X4161Y4671D2*
X4252D1*
X5122D2*
X5266D1*
X6108D2*
X6824D1*
X7800D2*
X8542D1*
X9413D2*
X9544D1*
X10411D2*
X10713D1*
X4161Y4610D2*
X4252D1*
X5122D2*
X5254D1*
X6120D2*
X6838D1*
X7786D2*
X8542D1*
X9413D2*
X9553D1*
X10401D2*
X10713D1*
X4161Y4550D2*
X4252D1*
X5122D2*
X5252D1*
X6122D2*
X6861D1*
X7763D2*
X8542D1*
X9413D2*
X9572D1*
X10383D2*
X10713D1*
X4161Y4490D2*
X4252D1*
X5122D2*
X5258D1*
X6117D2*
X6892D1*
X7732D2*
X8542D1*
X9413D2*
X9600D1*
X10354D2*
X10713D1*
X4161Y4430D2*
X4252D1*
X5122D2*
X5272D1*
X6101D2*
X6936D1*
X7688D2*
X8542D1*
X9413D2*
X9643D1*
X10312D2*
X10713D1*
X4161Y4370D2*
X4252D1*
X5122D2*
X5297D1*
X6077D2*
X6999D1*
X7625D2*
X8542D1*
X9413D2*
X9705D1*
X10250D2*
X10713D1*
X4161Y4310D2*
X4252D1*
X5122D2*
X5334D1*
X6041D2*
X7094D1*
X7530D2*
X8542D1*
X9413D2*
X9807D1*
X10148D2*
X10713D1*
X4161Y4250D2*
X4252D1*
X5122D2*
X5387D1*
X5987D2*
X10713D1*
X4161Y4190D2*
X4252D1*
X5122D2*
X5467D1*
X5906D2*
X10713D1*
X7287Y14327D2*
Y13547D1*
X6587D1*
Y14936D1*
X6549Y14937D1*
X6539Y14922D1*
Y14235D1*
Y14173D1*
Y13547D1*
X6134D1*
X6102Y13529D1*
X6074Y13518D1*
X6044Y13511D1*
X6013Y13508D1*
X5983D1*
X5952Y13512D1*
X5923Y13520D1*
X5894Y13532D1*
X5869Y13547D1*
X5847D1*
X5848Y13521D1*
Y13110D1*
X5147D1*
Y13889D1*
X5804D1*
X5831Y13921D1*
X5839Y13928D1*
Y14327D1*
X5838Y14388D1*
Y15014D1*
X6433D1*
X6348Y15098D1*
X6330Y15123D1*
X6313Y15162D1*
X6193D1*
Y15623D1*
X5918Y15624D1*
X5707D1*
X5675Y15583D1*
X5652Y15562D1*
X5627Y15544D1*
X5600Y15529D1*
X5572Y15518D1*
X5542Y15511D1*
X5511Y15508D1*
X5481D1*
X5450Y15512D1*
X5421Y15520D1*
X5392Y15532D1*
X5366Y15548D1*
X5331Y15576D1*
Y15184D1*
X4886D1*
X4884Y15268D1*
X4854Y15261D1*
X4824Y15258D1*
X4793D1*
X4763Y15262D1*
X4733Y15270D1*
X4705Y15282D1*
X4678Y15298D1*
X4654Y15316D1*
X4632Y15337D1*
X4613Y15362D1*
X4597Y15388D1*
X4583Y15422D1*
Y15184D1*
X4156D1*
X4155Y14389D1*
Y14098D1*
X4184Y14108D1*
X4214Y14114D1*
X4244Y14117D1*
X4275Y14115D1*
X4305Y14110D1*
X4335Y14101D1*
X4363Y14089D1*
X4389Y14073D1*
X4413Y14054D1*
X4434Y14031D1*
X4452Y14007D1*
X4467Y13980D1*
X4479Y13952D1*
X4487Y13922D1*
X4491Y13889D1*
X5100D1*
Y13110D1*
X4487D1*
X4492Y13062D1*
X4490Y13031D1*
X4484Y13001D1*
X4474Y12972D1*
X4461Y12944D1*
X4445Y12919D1*
X4425Y12895D1*
X4403Y12875D1*
X4434Y12844D1*
X4452Y12819D1*
X4467Y12793D1*
X4479Y12764D1*
X4487Y12735D1*
X4492Y12687D1*
X4490Y12656D1*
X4484Y12626D1*
X4474Y12597D1*
X4461Y12569D1*
X4445Y12544D1*
X4425Y12520D1*
X4402Y12499D1*
X4377Y12481D1*
X4350Y12467D1*
X4322Y12456D1*
X4292Y12449D1*
X4261Y12445D1*
X4231Y12446D1*
X4200Y12450D1*
X4156Y12464D1*
X4155Y12285D1*
X4184Y12295D1*
X4214Y12302D1*
X4244Y12304D1*
X4275Y12303D1*
X4305Y12298D1*
X4335Y12289D1*
X4363Y12276D1*
X4389Y12260D1*
X4413Y12241D1*
X4434Y12219D1*
X4452Y12194D1*
X4467Y12168D1*
X4479Y12139D1*
X4487Y12110D1*
X4492Y12062D1*
X4490Y12031D1*
X4484Y12001D1*
X4467Y11957D1*
X4498Y11982D1*
X4526Y11994D1*
X4562Y12000D1*
X4573D1*
Y12087D1*
X5549D1*
Y11662D1*
X4573D1*
Y11709D1*
X4482Y11617D1*
X4461Y11569D1*
X4445Y11544D1*
X4425Y11520D1*
X4403Y11500D1*
X4434Y11469D1*
X4457Y11437D1*
X4573D1*
Y11587D1*
X5549D1*
Y11162D1*
X4573D1*
Y11188D1*
X4507Y11187D1*
X4456D1*
X4445Y11169D1*
X4425Y11145D1*
X4403Y11125D1*
X4434Y11094D1*
X4452Y11069D1*
X4467Y11043D1*
X4483Y10998D1*
X4497Y10961D1*
X4499Y10949D1*
X4529Y10937D1*
X5824D1*
X5938Y11053D1*
X6062Y11177D1*
Y12125D1*
X6065Y12155D1*
X6076Y12184D1*
X6098Y12213D1*
X6348Y12463D1*
X6373Y12482D1*
X6401Y12494D1*
X6437Y12500D1*
X6699D1*
Y12587D1*
X7625D1*
X7624Y12635D1*
X7598Y12662D1*
X6699D1*
Y13085D1*
X6401Y12786D1*
X6376Y12767D1*
X6348Y12755D1*
X6312Y12749D1*
X5549D1*
Y12662D1*
X4573D1*
Y13087D1*
X5549D1*
Y13000D1*
X6260D1*
X6261Y13008D1*
X6231D1*
X6200Y13012D1*
X6171Y13020D1*
X6142Y13032D1*
X6116Y13048D1*
X6091Y13066D1*
X6069Y13087D1*
X6050Y13112D1*
X6035Y13138D1*
X6022Y13166D1*
X6013Y13195D1*
X6008Y13226D1*
X6007Y13256D1*
X6010Y13287D1*
X6017Y13317D1*
X6027Y13346D1*
X6041Y13373D1*
X6058Y13398D1*
X6079Y13421D1*
X6102Y13442D1*
X6127Y13459D1*
X6155Y13472D1*
X6184Y13483D1*
X6214Y13489D1*
X6244Y13492D1*
X6275Y13490D1*
X6305Y13485D1*
X6335Y13476D1*
X6363Y13464D1*
X6389Y13448D1*
X6413Y13429D1*
X6434Y13406D1*
X6452Y13382D1*
X6467Y13355D1*
X6479Y13327D1*
X6487Y13297D1*
X6492Y13250D1*
X6490Y13229D1*
X6598Y13338D1*
X6623Y13357D1*
X6651Y13369D1*
X6687Y13375D1*
X7687D1*
X7717Y13371D1*
X7746Y13360D1*
X7776Y13338D1*
X8738Y12375D1*
X9609D1*
X9610Y12529D1*
Y13039D1*
X10386D1*
X10392Y13067D1*
X10402Y13096D1*
X10416Y13123D1*
X10433Y13148D1*
X10454Y13171D1*
X10477Y13192D1*
X10502Y13209D1*
X10520Y13218D1*
X10491Y13235D1*
X10466Y13254D1*
X10444Y13275D1*
X10425Y13299D1*
X10410Y13325D1*
X10397Y13353D1*
X10389Y13380D1*
Y13087D1*
X9610D1*
X9608Y13645D1*
X9580Y13657D1*
X9553Y13673D1*
X9529Y13691D1*
X9507Y13712D1*
X9488Y13737D1*
X9472Y13763D1*
X9460Y13791D1*
X9451Y13820D1*
X9446Y13851D1*
X9445Y13881D1*
X9448Y13912D1*
X9454Y13942D1*
X9465Y13971D1*
X9479Y13998D1*
X9496Y14023D1*
X9516Y14046D1*
X9539Y14067D1*
X9565Y14084D1*
X9592Y14097D1*
X9621Y14108D1*
X9651Y14114D1*
X9682Y14117D1*
X9712Y14115D1*
X9743Y14110D1*
X9772Y14101D1*
X9800Y14089D1*
X9826Y14073D1*
X9850Y14054D1*
X9872Y14031D1*
X9890Y14007D1*
X9905Y13980D1*
X9917Y13952D1*
X9925Y13922D1*
X9929Y13875D1*
X9927Y13844D1*
X9922Y13817D1*
X9951Y13787D1*
X10389D1*
Y13495D1*
X10402Y13533D1*
X10416Y13561D1*
X10433Y13586D1*
X10454Y13609D1*
X10477Y13629D1*
X10502Y13646D1*
X10530Y13660D1*
X10559Y13670D1*
X10589Y13677D1*
X10619Y13679D1*
X10650Y13678D1*
X10680Y13673D1*
X10719Y13659D1*
Y15302D1*
Y22281D1*
X4155D1*
Y16473D1*
X4184Y16483D1*
X4214Y16489D1*
X4244Y16492D1*
X4275Y16490D1*
X4305Y16485D1*
X4335Y16476D1*
X4363Y16464D1*
X4389Y16448D1*
X4413Y16429D1*
X4434Y16406D1*
X4452Y16382D1*
X4467Y16355D1*
X4479Y16327D1*
X4487Y16297D1*
X4492Y16250D1*
X4490Y16219D1*
X4484Y16189D1*
X4474Y16160D1*
X4457Y16125D1*
X4467Y16105D1*
X4479Y16077D1*
X4487Y16047D1*
X4492Y16000D1*
X4490Y15969D1*
X4484Y15939D1*
X4474Y15910D1*
X4455Y15871D1*
X4454Y15786D1*
X4583Y15787D1*
Y15578D1*
X4604Y15623D1*
X4621Y15648D1*
X4641Y15671D1*
X4664Y15692D1*
X4690Y15709D1*
X4717Y15722D1*
X4746Y15733D1*
X4776Y15739D1*
X4807Y15742D1*
X4837Y15740D1*
X4885Y15730D1*
X4886Y15787D1*
X4994D1*
X5020Y15822D1*
X5350Y16154D1*
X5322Y16143D1*
X5292Y16136D1*
X5261Y16133D1*
X5231D1*
X5200Y16137D1*
X5171Y16145D1*
X5142Y16157D1*
X5125Y16167D1*
X5100Y16154D1*
X5072Y16143D1*
X5042Y16136D1*
X5011Y16133D1*
X4981D1*
X4957Y16136D1*
Y16089D1*
X4512D1*
Y16672D1*
X4212D1*
Y17452D1*
X4912D1*
Y16692D1*
X4957D1*
Y16612D1*
X4994Y16617D1*
X5025Y16615D1*
X5055Y16610D1*
X5098Y16595D1*
X5152Y16596D1*
X5184Y16608D1*
X5214Y16614D1*
X5244Y16617D1*
X5275Y16615D1*
X5305Y16610D1*
X5335Y16601D1*
X5375Y16581D1*
X5374Y16672D1*
X4960D1*
Y17452D1*
X5661D1*
Y16672D1*
X5625D1*
Y16125D1*
X5621Y16094D1*
X5610Y16066D1*
X5588Y16036D1*
X5540Y15988D1*
X5585Y15976D1*
X5613Y15964D1*
X5639Y15948D1*
X5663Y15929D1*
X5684Y15906D1*
X5707Y15874D1*
X6193Y15875D1*
Y16158D1*
X6453D1*
X6428Y16172D1*
X6404Y16191D1*
X6382Y16212D1*
X6363Y16237D1*
X6347Y16263D1*
X6335Y16291D1*
X6326Y16320D1*
X6321Y16351D1*
X6320Y16381D1*
X6323Y16412D1*
X6329Y16442D1*
X6340Y16471D1*
X6354Y16498D1*
X6371Y16523D1*
X6391Y16546D1*
X6405Y16559D1*
X6193D1*
Y17556D1*
X6681D1*
Y16585D1*
X6693Y16590D1*
Y17556D1*
X7181D1*
Y16578D1*
X7192Y16585D1*
X7193Y17481D1*
Y17556D1*
X7681D1*
Y16559D1*
X7469D1*
X7497Y16531D1*
X7515Y16507D1*
X7530Y16480D1*
X7542Y16452D1*
X7550Y16422D1*
X7554Y16375D1*
X7552Y16344D1*
X7546Y16314D1*
X7537Y16285D1*
X7524Y16257D1*
X7507Y16231D1*
X7487Y16208D1*
X7465Y16187D1*
X7437Y16167D1*
X7438Y16158D1*
X7681D1*
Y15162D1*
X7617D1*
X7640Y15132D1*
X7655Y15105D1*
X7667Y15077D1*
X7675Y15047D1*
X7679Y15000D1*
X7677Y14969D1*
X7671Y14939D1*
X7662Y14910D1*
X7649Y14882D1*
X7632Y14856D1*
X7612Y14833D1*
X7590Y14812D1*
X7565Y14794D1*
X7538Y14779D1*
X7509Y14768D1*
X7479Y14761D1*
X7449Y14758D1*
X7418D1*
X7388Y14762D1*
X7358Y14770D1*
X7330Y14782D1*
X7303Y14798D1*
X7287Y14810D1*
Y14235D1*
X6539Y14327D2*
Y14235D1*
X6587D1*
Y14327D1*
X8515Y14350D2*
X9264D1*
Y13649D1*
X9123D1*
X9133Y13596D1*
X9131Y13548D1*
X9126Y13518D1*
X9116Y13489D1*
X9103Y13461D1*
X9086Y13435D1*
X9067Y13412D1*
X9044Y13391D1*
X9019Y13373D1*
X8992Y13358D1*
X8963Y13347D1*
X8934Y13340D1*
X8903Y13337D1*
X8872D1*
X8842Y13341D1*
X8812Y13350D1*
X8784Y13361D1*
X8757Y13377D1*
X8733Y13395D1*
X8711Y13417D1*
X8692Y13441D1*
X8676Y13467D1*
X8664Y13495D1*
X8655Y13524D1*
X8650Y13555D1*
X8649Y13585D1*
X8652Y13616D1*
X8659Y13649D1*
X8485D1*
Y14350D1*
X8515D1*
X8900Y15098D2*
X9264D1*
Y14397D1*
X8485D1*
Y15000D1*
X8242D1*
X8240Y14969D1*
X8234Y14939D1*
X8224Y14910D1*
X8211Y14882D1*
X8195Y14856D1*
X8175Y14833D1*
X8152Y14812D1*
X8127Y14794D1*
X8100Y14779D1*
X8072Y14768D1*
X8042Y14761D1*
X8011Y14758D1*
X7981D1*
X7950Y14762D1*
X7921Y14770D1*
X7892Y14782D1*
X7866Y14798D1*
X7841Y14816D1*
X7819Y14837D1*
X7800Y14862D1*
X7785Y14888D1*
X7772Y14916D1*
X7763Y14945D1*
X7758Y14976D1*
X7757Y15006D1*
X7760Y15037D1*
X7767Y15067D1*
X7777Y15096D1*
X7791Y15123D1*
X7821Y15162D1*
X7693D1*
Y16158D1*
X7891D1*
X7866Y16173D1*
X7841Y16191D1*
X7819Y16212D1*
X7800Y16237D1*
X7785Y16263D1*
X7772Y16291D1*
X7763Y16320D1*
X7758Y16351D1*
X7757Y16381D1*
X7760Y16412D1*
X7767Y16442D1*
X7777Y16471D1*
X7791Y16498D1*
X7812Y16527D1*
Y16559D1*
X7693D1*
Y17556D1*
X8181D1*
Y16559D1*
X8155D1*
X8184Y16531D1*
X8187Y16528D1*
X8219Y16560D1*
X8193Y16559D1*
Y17556D1*
X8681D1*
Y16607D1*
X8714Y16614D1*
X8744Y16617D1*
X8775Y16615D1*
X8805Y16610D1*
X8835Y16601D1*
X8863Y16589D1*
X8889Y16573D1*
X8913Y16554D1*
X8937Y16528D1*
X8954Y16546D1*
X8977Y16567D1*
X9002Y16584D1*
X9030Y16597D1*
X9059Y16608D1*
X9089Y16614D1*
X9119Y16617D1*
X9150Y16615D1*
X9180Y16610D1*
X9210Y16601D1*
X9238Y16589D1*
X9264Y16573D1*
X9288Y16554D1*
X9309Y16531D1*
X9327Y16507D1*
X9342Y16480D1*
X9354Y16452D1*
X9362Y16422D1*
X9367Y16375D1*
X9365Y16344D1*
X9359Y16314D1*
X9349Y16285D1*
X9336Y16257D1*
X9320Y16231D1*
X9300Y16208D1*
X9277Y16187D1*
X9252Y16169D1*
X9225Y16154D1*
X9197Y16143D1*
X9167Y16136D1*
X9136Y16133D1*
X9106D1*
X9067Y16140D1*
X8937Y16010D1*
Y15187D1*
X8934Y15157D1*
X8923Y15128D1*
X8900Y15098D1*
X4962Y10312D2*
Y10686D1*
X4615Y10687D1*
X4456D1*
X4467Y10668D1*
X4479Y10639D1*
X4487Y10610D1*
X4492Y10562D1*
X4490Y10531D1*
X4484Y10501D1*
X4474Y10472D1*
X4461Y10444D1*
X4445Y10419D1*
X4425Y10395D1*
X4403Y10375D1*
X4434Y10344D1*
X4457Y10312D1*
X4963D1*
X6004Y10764D2*
X6400D1*
X6787Y11151D1*
X6785Y11162D1*
X6699D1*
Y11587D1*
X7624D1*
Y11662D1*
X6699D1*
Y12087D1*
X7625D1*
X7624Y12161D1*
X7460Y12162D1*
X6699D1*
Y12249D1*
X6489D1*
X6312Y12072D1*
Y11295D1*
Y11125D1*
X6309Y11094D1*
X6298Y11066D1*
X6276Y11036D1*
X6003Y10764D1*
X7427Y8476D2*
X8201D1*
Y7777D1*
X8217Y7785D1*
X8246Y7795D1*
X8276Y7802D1*
X8307Y7804D1*
X8337Y7803D1*
X8368Y7798D1*
X8397Y7789D1*
X8425Y7776D1*
X8451Y7760D1*
X8475Y7741D1*
X8496Y7719D1*
X8515Y7694D1*
X8530Y7668D1*
X8542Y7639D1*
X8549Y7610D1*
X8554Y7562D1*
X8552Y7531D1*
X8546Y7501D1*
X8537Y7472D1*
X8524Y7444D1*
X8507Y7419D1*
X8487Y7395D1*
X8465Y7374D1*
X8440Y7356D1*
X8413Y7342D1*
X8384Y7331D1*
X8354Y7324D1*
X8324Y7320D1*
X8293Y7321D1*
X8263Y7325D1*
X8233Y7333D1*
X8205Y7345D1*
X8178Y7360D1*
X8154Y7379D1*
X8132Y7400D1*
X8113Y7424D1*
X8097Y7450D1*
X8085Y7478D1*
X8077Y7505D1*
Y7083D1*
X7297D1*
Y7784D1*
X7421D1*
Y8476D1*
X7427D1*
X8197Y7775D2*
X8077D1*
Y7620D1*
X8090Y7658D1*
X8104Y7686D1*
X8121Y7711D1*
X8141Y7734D1*
X8164Y7754D1*
X8190Y7771D1*
X8077Y6389D2*
X8412D1*
Y5939D1*
X8747D1*
X9009D1*
Y5136D1*
X9407Y5135D1*
Y4277D1*
X8548D1*
Y5120D1*
X8347D1*
Y5489D1*
X8226Y5610D1*
X7712D1*
Y6334D1*
X7665Y6335D1*
X7664Y5610D1*
X6963D1*
Y6389D1*
X7297Y6390D1*
Y7036D1*
X8077D1*
Y6389D1*
X9014Y22179D2*
X9866D1*
Y21320D1*
X9077D1*
X9106Y21309D1*
X9132Y21294D1*
X9162Y21269D1*
X9654Y20777D1*
X9855Y20778D1*
X10537D1*
Y19880D1*
X9584D1*
X9622Y19844D1*
X9640Y19819D1*
X9655Y19793D1*
X9667Y19764D1*
X9675Y19735D1*
X9679Y19687D1*
X9677Y19656D1*
X9671Y19626D1*
X9662Y19597D1*
X9649Y19569D1*
X9632Y19544D1*
X9612Y19520D1*
X9590Y19499D1*
X9565Y19481D1*
X9538Y19467D1*
X9509Y19456D1*
X9479Y19449D1*
X9449Y19445D1*
X9418Y19446D1*
X9388Y19450D1*
X9358Y19458D1*
X9330Y19470D1*
X9303Y19485D1*
X9279Y19504D1*
X9257Y19525D1*
X9238Y19549D1*
X9222Y19575D1*
X9210Y19603D1*
X9201Y19633D1*
X9196Y19663D1*
X9195Y19694D1*
X9198Y19724D1*
X9204Y19754D1*
X9215Y19783D1*
X9229Y19811D1*
X9246Y19836D1*
X9266Y19859D1*
X9292Y19881D1*
X9088Y19880D1*
Y20764D1*
X8932Y20919D1*
X8687Y20920D1*
X8656Y20922D1*
X8627Y20929D1*
X8598Y20940D1*
X8571Y20955D1*
X8542Y20980D1*
X8292Y21230D1*
X8272Y21253D1*
X8256Y21279D1*
X8244Y21307D1*
X8236Y21337D1*
X8232Y21368D1*
X8230Y21374D1*
X8178Y21407D1*
X8132Y21447D1*
X8092Y21494D1*
X8059Y21546D1*
X8034Y21602D1*
X8017Y21661D1*
X8009Y21722D1*
Y21783D1*
X8018Y21844D1*
X8036Y21902D1*
X8062Y21958D1*
X8095Y22009D1*
X8136Y22055D1*
X8183Y22095D1*
X8235Y22128D1*
X8291Y22153D1*
X8350Y22170D1*
X8410Y22178D1*
X8472Y22177D1*
X8532Y22168D1*
X8591Y22150D1*
X8647Y22124D1*
X8698Y22090D1*
X8744Y22050D1*
X8784Y22003D1*
X8816Y21951D1*
X8841Y21895D1*
X8858Y21836D1*
X8865Y21775D1*
Y21719D1*
X8856Y21658D1*
X8839Y21599D1*
X8814Y21543D1*
X8780Y21492D1*
X8740Y21446D1*
X8694Y21406D1*
X8773Y21329D1*
X8963D1*
X9008D1*
Y22179D1*
X9014D1*
X7865Y21719D2*
X7856Y21658D1*
X7839Y21599D1*
X7814Y21543D1*
X7780Y21492D1*
X7740Y21446D1*
X7694Y21405D1*
X7641Y21372D1*
X7642Y21163D1*
X7799Y21007D1*
X8028Y20778D1*
X8912D1*
Y19908D1*
X8951Y19885D1*
X8975Y19866D1*
X8997Y19844D1*
X9015Y19819D1*
X9030Y19793D1*
X9042Y19764D1*
X9050Y19735D1*
X9054Y19687D1*
X9052Y19656D1*
X9046Y19626D1*
X9037Y19597D1*
X9024Y19569D1*
X9007Y19544D1*
X8987Y19520D1*
X8965Y19499D1*
X8940Y19481D1*
X8913Y19467D1*
X8884Y19456D1*
X8854Y19449D1*
X8824Y19445D1*
X8793Y19446D1*
X8763Y19450D1*
X8733Y19458D1*
X8705Y19470D1*
X8678Y19485D1*
X8654Y19504D1*
X8632Y19525D1*
X8613Y19549D1*
X8597Y19575D1*
X8585Y19603D1*
X8576Y19633D1*
X8571Y19663D1*
X8570Y19694D1*
X8573Y19724D1*
X8579Y19754D1*
X8590Y19783D1*
X8604Y19811D1*
X8621Y19836D1*
X8641Y19859D1*
X8666Y19880D1*
X7895D1*
X7934Y19844D1*
X7952Y19819D1*
X7967Y19793D1*
X7979Y19764D1*
X7987Y19735D1*
X7992Y19687D1*
X7990Y19656D1*
X7984Y19626D1*
X7974Y19597D1*
X7961Y19569D1*
X7945Y19544D1*
X7925Y19520D1*
X7902Y19499D1*
X7877Y19481D1*
X7850Y19467D1*
X7822Y19456D1*
X7792Y19449D1*
X7761Y19445D1*
X7731Y19446D1*
X7700Y19450D1*
X7671Y19458D1*
X7642Y19470D1*
X7616Y19485D1*
X7591Y19504D1*
X7569Y19525D1*
X7550Y19549D1*
X7535Y19575D1*
X7522Y19603D1*
X7513Y19633D1*
X7508Y19663D1*
X7507Y19694D1*
X7510Y19724D1*
X7517Y19754D1*
X7527Y19783D1*
X7541Y19811D1*
X7558Y19836D1*
X7579Y19859D1*
X7604Y19881D1*
X7463Y19880D1*
Y20764D1*
X7292Y20934D1*
X7272Y20958D1*
X7256Y20984D1*
X7244Y21012D1*
X7236Y21041D1*
X7232Y21079D1*
Y21372D1*
X7178Y21407D1*
X7132Y21447D1*
X7092Y21494D1*
X7059Y21546D1*
X7034Y21602D1*
X7017Y21661D1*
X7009Y21722D1*
Y21783D1*
X7018Y21844D1*
X7036Y21902D1*
X7062Y21958D1*
X7095Y22009D1*
X7136Y22055D1*
X7183Y22095D1*
X7235Y22128D1*
X7291Y22153D1*
X7350Y22170D1*
X7410Y22178D1*
X7472Y22177D1*
X7532Y22168D1*
X7591Y22150D1*
X7647Y22124D1*
X7698Y22090D1*
X7744Y22050D1*
X7784Y22003D1*
X7816Y21951D1*
X7841Y21895D1*
X7858Y21836D1*
X7865Y21775D1*
Y21719D1*
X6865D2*
X6856Y21658D1*
X6839Y21599D1*
X6814Y21543D1*
X6780Y21492D1*
X6740Y21446D1*
X6694Y21405D1*
X6641Y21372D1*
X6642Y21135D1*
Y20777D1*
X6912Y20778D1*
X7287D1*
Y19880D1*
X7207D1*
X7225Y19866D1*
X7247Y19844D1*
X7265Y19819D1*
X7280Y19793D1*
X7292Y19764D1*
X7300Y19735D1*
X7304Y19687D1*
X7302Y19656D1*
X7296Y19626D1*
X7287Y19597D1*
X7274Y19569D1*
X7257Y19544D1*
X7237Y19520D1*
X7215Y19499D1*
X7190Y19481D1*
X7163Y19467D1*
X7134Y19456D1*
X7104Y19449D1*
X7074Y19445D1*
X7043Y19446D1*
X7013Y19450D1*
X6983Y19458D1*
X6955Y19470D1*
X6928Y19485D1*
X6904Y19504D1*
X6882Y19525D1*
X6863Y19549D1*
X6847Y19575D1*
X6835Y19603D1*
X6826Y19633D1*
X6821Y19663D1*
X6820Y19694D1*
X6823Y19724D1*
X6829Y19754D1*
X6840Y19783D1*
X6854Y19811D1*
X6871Y19836D1*
X6891Y19859D1*
X6917Y19881D1*
X6207Y19880D1*
X6225Y19866D1*
X6247Y19844D1*
X6265Y19819D1*
X6280Y19793D1*
X6292Y19764D1*
X6300Y19735D1*
X6304Y19687D1*
X6302Y19656D1*
X6296Y19626D1*
X6287Y19597D1*
X6274Y19569D1*
X6257Y19544D1*
X6237Y19520D1*
X6215Y19499D1*
X6190Y19481D1*
X6163Y19467D1*
X6134Y19456D1*
X6104Y19449D1*
X6074Y19445D1*
X6043Y19446D1*
X6013Y19450D1*
X5983Y19458D1*
X5955Y19470D1*
X5928Y19485D1*
X5904Y19504D1*
X5882Y19525D1*
X5863Y19549D1*
X5847Y19575D1*
X5835Y19603D1*
X5826Y19633D1*
X5821Y19663D1*
X5820Y19694D1*
X5823Y19724D1*
X5829Y19754D1*
X5840Y19783D1*
X5854Y19811D1*
X5871Y19836D1*
X5891Y19859D1*
X5917Y19881D1*
X5838Y19880D1*
Y20778D1*
X6232D1*
Y21373D1*
X6203Y21389D1*
X6154Y21426D1*
X6111Y21470D1*
X6075Y21519D1*
X6046Y21573D1*
X6024Y21631D1*
X6012Y21691D1*
X6008Y21752D1*
X6013Y21813D1*
X6026Y21873D1*
X6048Y21931D1*
X6078Y21984D1*
X6115Y22033D1*
X6159Y22076D1*
X6208Y22113D1*
X6262Y22141D1*
X6320Y22162D1*
X6380Y22175D1*
X6441Y22179D1*
X6502Y22174D1*
X6562Y22160D1*
X6619Y22138D1*
X6673Y22108D1*
X6722Y22071D1*
X6765Y22027D1*
X6801Y21977D1*
X6830Y21923D1*
X6850Y21865D1*
X6863Y21805D1*
X6866Y21750D1*
X6865Y21719D1*
X5865D2*
X5856Y21658D1*
X5839Y21599D1*
X5814Y21543D1*
X5780Y21492D1*
X5740Y21446D1*
X5694Y21405D1*
X5641Y21372D1*
X5642Y21135D1*
Y20829D1*
X5638Y20789D1*
X5656Y20778D1*
X5662D1*
Y19880D1*
X5520D1*
X5559Y19844D1*
X5577Y19819D1*
X5592Y19793D1*
X5604Y19764D1*
X5612Y19735D1*
X5617Y19687D1*
X5615Y19656D1*
X5609Y19626D1*
X5599Y19597D1*
X5586Y19569D1*
X5570Y19544D1*
X5550Y19520D1*
X5527Y19499D1*
X5502Y19481D1*
X5475Y19467D1*
X5447Y19456D1*
X5417Y19449D1*
X5386Y19445D1*
X5356Y19446D1*
X5325Y19450D1*
X5296Y19458D1*
X5267Y19470D1*
X5241Y19485D1*
X5216Y19504D1*
X5194Y19525D1*
X5175Y19549D1*
X5160Y19575D1*
X5147Y19603D1*
X5138Y19633D1*
X5133Y19663D1*
X5132Y19694D1*
X5135Y19724D1*
X5142Y19754D1*
X5152Y19783D1*
X5166Y19811D1*
X5183Y19836D1*
X5204Y19859D1*
X5229Y19881D1*
X4213Y19880D1*
Y20778D1*
X5096D1*
X5233Y20914D1*
X5232Y21373D1*
X5203Y21389D1*
X5154Y21426D1*
X5111Y21470D1*
X5075Y21519D1*
X5046Y21573D1*
X5024Y21631D1*
X5012Y21691D1*
X5008Y21752D1*
X5013Y21813D1*
X5026Y21873D1*
X5048Y21931D1*
X5078Y21984D1*
X5115Y22033D1*
X5159Y22076D1*
X5208Y22113D1*
X5262Y22141D1*
X5320Y22162D1*
X5380Y22175D1*
X5441Y22179D1*
X5502Y22174D1*
X5562Y22160D1*
X5619Y22138D1*
X5673Y22108D1*
X5722Y22071D1*
X5765Y22027D1*
X5801Y21977D1*
X5830Y21923D1*
X5850Y21865D1*
X5863Y21805D1*
X5866Y21750D1*
X5865Y21719D1*
X4288Y4991D2*
X4408D1*
Y6082D1*
X4615D1*
X4598Y6097D1*
X4493Y6202D1*
X4450Y6207D1*
X4421Y6215D1*
X4392Y6227D1*
X4366Y6242D1*
X4341Y6261D1*
X4319Y6282D1*
X4300Y6306D1*
X4284Y6332D1*
X4272Y6360D1*
X4263Y6390D1*
X4258Y6420D1*
X4257Y6451D1*
X4260Y6481D1*
X4267Y6511D1*
X4277Y6540D1*
X4291Y6568D1*
X4308Y6593D1*
X4329Y6616D1*
X4352Y6636D1*
X4377Y6653D1*
X4405Y6667D1*
X4433Y6677D1*
X4463Y6684D1*
X4494Y6686D1*
X4525Y6685D1*
X4555Y6680D1*
X4584Y6671D1*
X4612Y6658D1*
X4638Y6642D1*
X4662Y6623D1*
X4684Y6601D1*
X4702Y6576D1*
X4717Y6550D1*
X4729Y6521D1*
X4737Y6492D1*
X4741Y6444D1*
X4740Y6413D1*
X4734Y6383D1*
X4724Y6354D1*
X4715Y6334D1*
X4739Y6310D1*
X5135D1*
X5187Y6363D1*
Y6647D1*
X5190Y6677D1*
X5201Y6706D1*
X5223Y6736D1*
X5332Y6844D1*
X5356Y6863D1*
X5384Y6875D1*
X5420Y6881D1*
X5452D1*
X5453Y6929D1*
X5452Y6964D1*
X4856Y7560D1*
X4580D1*
X4569Y7542D1*
X4550Y7518D1*
X4527Y7497D1*
X4502Y7480D1*
X4475Y7465D1*
X4447Y7454D1*
X4417Y7447D1*
X4386Y7443D1*
X4356Y7444D1*
X4325Y7448D1*
X4296Y7456D1*
X4267Y7468D1*
X4241Y7483D1*
X4216Y7502D1*
X4194Y7523D1*
X4175Y7547D1*
X4155Y7583D1*
Y4155D1*
X4258D1*
Y4991D1*
X4288D1*
X10405Y4676D2*
X10397Y4615D1*
X10379Y4556D1*
X10354Y4500D1*
X10321Y4449D1*
X10280Y4402D1*
X10234Y4362D1*
X10182Y4329D1*
X10126Y4304D1*
X10067Y4287D1*
X10007Y4278D1*
X9945D1*
X9885Y4287D1*
X9826Y4305D1*
X9770Y4330D1*
X9719Y4364D1*
X9672Y4404D1*
X9632Y4451D1*
X9600Y4503D1*
X9574Y4558D1*
X9557Y4617D1*
X9549Y4678D1*
Y4740D1*
X9559Y4800D1*
X9576Y4859D1*
X9602Y4915D1*
X9636Y4966D1*
X9676Y5012D1*
X9723Y5052D1*
X9775Y5085D1*
X9831Y5110D1*
X9863Y5120D1*
X9528D1*
Y5939D1*
X9729D1*
X9710Y5978D1*
X9701Y6008D1*
X9696Y6038D1*
X9695Y6069D1*
X9698Y6099D1*
X9704Y6129D1*
X9715Y6158D1*
X9729Y6186D1*
X9746Y6211D1*
X9766Y6234D1*
X9789Y6254D1*
X9815Y6271D1*
X9842Y6285D1*
X9871Y6295D1*
X9901Y6302D1*
X9932Y6304D1*
X9962Y6303D1*
X9993Y6298D1*
X10022Y6289D1*
X10050Y6276D1*
X10076Y6260D1*
X10100Y6241D1*
X10122Y6219D1*
X10140Y6194D1*
X10155Y6168D1*
X10167Y6139D1*
X10175Y6110D1*
X10179Y6062D1*
X10177Y6031D1*
X10171Y6001D1*
X10162Y5972D1*
X10145Y5939D1*
X10190D1*
Y5120D1*
X10093D1*
X10131Y5107D1*
X10187Y5081D1*
X10238Y5047D1*
X10284Y5006D1*
X10324Y4960D1*
X10356Y4908D1*
X10381Y4851D1*
X10398Y4792D1*
X10406Y4731D1*
X10405Y4676D1*
X7799Y4719D2*
X7792Y4658D1*
X7776Y4598D1*
X7754Y4541D1*
X7724Y4488D1*
X7688Y4438D1*
X7646Y4393D1*
X7599Y4354D1*
X7547Y4321D1*
X7491Y4295D1*
X7433Y4276D1*
X7373Y4265D1*
X7311Y4261D1*
X7250Y4265D1*
X7190Y4277D1*
X7131Y4296D1*
X7076Y4322D1*
X7024Y4355D1*
X6977Y4394D1*
X6935Y4439D1*
X6899Y4489D1*
X6870Y4543D1*
X6847Y4600D1*
X6832Y4659D1*
X6825Y4720D1*
Y4782D1*
X6833Y4843D1*
X6848Y4902D1*
X6871Y4959D1*
X6901Y5013D1*
X6937Y5062D1*
X6979Y5107D1*
X7027Y5146D1*
X7078Y5178D1*
X7134Y5204D1*
X7193Y5223D1*
X7253Y5234D1*
X7314Y5238D1*
X7375Y5234D1*
X7436Y5222D1*
X7494Y5203D1*
X7549Y5176D1*
X7601Y5143D1*
X7648Y5104D1*
X7690Y5059D1*
X7726Y5009D1*
X7755Y4955D1*
X7777Y4898D1*
X7792Y4838D1*
X7800Y4777D1*
X7799Y4719D1*
X4243Y18573D2*
X4584D1*
X4569Y18587D1*
X4550Y18612D1*
X4535Y18638D1*
X4522Y18666D1*
X4513Y18695D1*
X4508Y18726D1*
X4507Y18756D1*
X4510Y18787D1*
X4517Y18817D1*
X4527Y18846D1*
X4541Y18873D1*
X4558Y18898D1*
X4579Y18921D1*
X4602Y18942D1*
X4627Y18959D1*
X4655Y18972D1*
X4684Y18983D1*
X4714Y18989D1*
X4744Y18992D1*
X4775Y18990D1*
X4805Y18985D1*
X4835Y18976D1*
X4863Y18964D1*
X4889Y18948D1*
X4913Y18929D1*
X4934Y18906D1*
X4952Y18882D1*
X4967Y18855D1*
X4979Y18827D1*
X4987Y18797D1*
X4992Y18750D1*
X4990Y18719D1*
X4984Y18689D1*
X4974Y18660D1*
X4961Y18632D1*
X4945Y18606D1*
X4914Y18573D1*
X5103D1*
X5662D1*
Y17676D1*
X4213D1*
Y18573D1*
X4243D1*
X5868D2*
X7287D1*
Y17676D1*
X5838D1*
Y18573D1*
X5868D1*
X7493D2*
X8912D1*
Y17676D1*
X7463D1*
Y18573D1*
X7493D1*
X9118D2*
X10537D1*
Y17676D1*
X9088D1*
Y18573D1*
X9118D1*
X7230Y7406D2*
X7225Y7376D1*
X7217Y7346D1*
X7206Y7318D1*
X7192Y7290D1*
X7176Y7265D1*
X7157Y7241D1*
X7135Y7219D1*
X7111Y7199D1*
X7086Y7183D1*
X7058Y7169D1*
X7030Y7157D1*
X7000Y7149D1*
X6970Y7144D1*
X6939Y7142D1*
X6908Y7144D1*
X6878Y7148D1*
X6848Y7156D1*
X6820Y7167D1*
X6792Y7180D1*
X6766Y7197D1*
X6742Y7216D1*
X6720Y7238D1*
X6701Y7261D1*
X6684Y7287D1*
X6669Y7314D1*
X6658Y7342D1*
X6650Y7372D1*
X6644Y7402D1*
X6642Y7433D1*
X6644Y7463D1*
X6648Y7494D1*
X6655Y7524D1*
X6666Y7552D1*
X6679Y7580D1*
X6696Y7606D1*
X6715Y7630D1*
X6736Y7652D1*
X6759Y7672D1*
X6785Y7689D1*
X6812Y7704D1*
X6840Y7715D1*
X6870Y7724D1*
X6900Y7729D1*
X6931Y7732D1*
X6961Y7731D1*
X6992Y7726D1*
X7022Y7719D1*
X7051Y7709D1*
X7078Y7696D1*
X7104Y7679D1*
X7129Y7661D1*
X7151Y7640D1*
X7171Y7616D1*
X7188Y7591D1*
X7203Y7564D1*
X7215Y7536D1*
X7223Y7506D1*
X7229Y7476D1*
X7232Y7437D1*
X7230Y7406D1*
X7675Y13084D2*
Y12927D1*
X7709Y12904D1*
X7838Y12776D1*
X7857Y12751D1*
X7869Y12723D1*
X7875Y12687D1*
Y11187D1*
X7871Y11157D1*
X7860Y11128D1*
X7838Y11098D1*
X7713Y10973D1*
X7689Y10955D1*
X7661Y10942D1*
X7625Y10937D1*
X6927D1*
X6562Y10572D1*
Y9687D1*
X6559Y9657D1*
X6548Y9628D1*
X6526Y9598D1*
X6312Y9385D1*
Y9144D1*
X6350Y9116D1*
X6372Y9094D1*
X6390Y9069D1*
X6405Y9043D1*
X6417Y9014D1*
X6425Y8985D1*
X6429Y8937D1*
X6427Y8906D1*
X6421Y8876D1*
X6412Y8847D1*
X6399Y8819D1*
X6382Y8794D1*
X6362Y8770D1*
X6340Y8749D1*
X6315Y8731D1*
X6288Y8717D1*
X6259Y8706D1*
X6229Y8699D1*
X6199Y8695D1*
X6168Y8696D1*
X6138Y8700D1*
X6108Y8708D1*
X6080Y8720D1*
X6053Y8735D1*
X6029Y8754D1*
X6007Y8775D1*
X5988Y8799D1*
X5972Y8825D1*
X5960Y8853D1*
X5951Y8883D1*
X5946Y8913D1*
X5945Y8944D1*
X5948Y8974D1*
X5954Y9004D1*
X5965Y9033D1*
X5979Y9061D1*
X5996Y9086D1*
X6016Y9109D1*
X6039Y9129D1*
X6062Y9145D1*
Y9306D1*
Y9437D1*
X6065Y9467D1*
X6076Y9496D1*
X6098Y9526D1*
X6312Y9739D1*
Y9985D1*
X5710D1*
Y10687D1*
X5662D1*
X5663Y9991D1*
X5684Y9969D1*
X5702Y9944D1*
X5717Y9918D1*
X5729Y9889D1*
X5737Y9860D1*
X5742Y9812D1*
X5740Y9781D1*
X5734Y9751D1*
X5724Y9722D1*
X5711Y9694D1*
X5695Y9669D1*
X5675Y9645D1*
X5652Y9624D1*
X5627Y9606D1*
X5600Y9592D1*
X5572Y9581D1*
X5542Y9574D1*
X5511Y9570D1*
X5481Y9571D1*
X5450Y9575D1*
X5421Y9583D1*
X5392Y9595D1*
X5366Y9610D1*
X5341Y9629D1*
X5312Y9660D1*
X5300Y9645D1*
X5277Y9624D1*
X5252Y9606D1*
X5225Y9592D1*
X5197Y9581D1*
X5167Y9574D1*
X5136Y9570D1*
X5106Y9571D1*
X5075Y9575D1*
X5046Y9583D1*
X5017Y9595D1*
X4991Y9610D1*
X4966Y9629D1*
X4944Y9650D1*
X4925Y9674D1*
X4910Y9700D1*
X4897Y9728D1*
X4888Y9758D1*
X4883Y9788D1*
X4882Y9819D1*
X4885Y9849D1*
X4892Y9879D1*
X4902Y9908D1*
X4916Y9936D1*
X4933Y9961D1*
X4962Y9991D1*
Y10062D1*
X4633D1*
X4458D1*
X4425Y10020D1*
X4391Y9991D1*
X4430Y9985D1*
X4460Y9976D1*
X4488Y9964D1*
X4514Y9948D1*
X4538Y9929D1*
X4559Y9906D1*
X4577Y9882D1*
X4592Y9855D1*
X4604Y9827D1*
X4612Y9797D1*
X4617Y9750D1*
X4615Y9719D1*
X4609Y9689D1*
X4599Y9660D1*
X4586Y9632D1*
X4570Y9606D1*
X4550Y9583D1*
X4527Y9562D1*
X4502Y9544D1*
X4475Y9529D1*
X4447Y9518D1*
X4417Y9511D1*
X4386Y9508D1*
X4356D1*
X4325Y9512D1*
X4296Y9520D1*
X4267Y9532D1*
X4241Y9548D1*
X4216Y9566D1*
X4194Y9587D1*
X4175Y9612D1*
X4155Y9647D1*
Y7788D1*
X4166Y7809D1*
X4183Y7834D1*
X4204Y7857D1*
X4227Y7877D1*
X4252Y7894D1*
X4280Y7908D1*
X4308Y7918D1*
X4338Y7925D1*
X4369Y7927D1*
X4400Y7926D1*
X4430Y7921D1*
X4459Y7912D1*
X4487Y7900D1*
X4513Y7883D1*
X4537Y7864D1*
X4559Y7842D1*
X4581Y7810D1*
X4908Y7811D1*
X4938Y7807D1*
X4967Y7796D1*
X4996Y7774D1*
X5452Y7319D1*
X5453Y7441D1*
X5452Y7460D1*
Y7696D1*
X6132D1*
X6135Y7724D1*
X6142Y7754D1*
X6152Y7783D1*
X6166Y7811D1*
X6183Y7836D1*
X6204Y7859D1*
X6227Y7879D1*
X6252Y7896D1*
X6280Y7910D1*
X6309Y7920D1*
X6339Y7927D1*
X6369Y7929D1*
X6400Y7928D1*
X6430Y7923D1*
X6460Y7914D1*
X6488Y7901D1*
X6514Y7885D1*
X6538Y7866D1*
X6559Y7844D1*
X6577Y7819D1*
X6592Y7793D1*
X6604Y7764D1*
X6612Y7735D1*
X6617Y7687D1*
X6615Y7656D1*
X6609Y7626D1*
X6599Y7597D1*
X6586Y7569D1*
X6570Y7544D1*
X6550Y7520D1*
X6527Y7499D1*
X6502Y7481D1*
X6475Y7467D1*
X6447Y7456D1*
X6417Y7449D1*
X6386Y7445D1*
X6356Y7446D1*
X6325Y7450D1*
X6296Y7458D1*
X6267Y7470D1*
X6241Y7485D1*
X6216Y7504D1*
X6194Y7525D1*
X6172Y7555D1*
Y7350D1*
X6171Y7094D1*
X6172Y7031D1*
X6171Y6838D1*
X6172Y6775D1*
Y6641D1*
X6183Y6642D1*
X6217Y6660D1*
X6246Y6670D1*
X6276Y6677D1*
X6307Y6679D1*
X6337Y6678D1*
X6368Y6673D1*
X6397Y6664D1*
X6425Y6651D1*
X6451Y6635D1*
X6475Y6616D1*
X6497Y6594D1*
X6515Y6569D1*
X6530Y6543D1*
X6542Y6514D1*
X6550Y6485D1*
X6554Y6437D1*
X6552Y6406D1*
X6546Y6376D1*
X6537Y6347D1*
X6524Y6319D1*
X6507Y6294D1*
X6487Y6270D1*
X6465Y6249D1*
X6440Y6231D1*
X6413Y6217D1*
X6384Y6206D1*
X6354Y6199D1*
X6324Y6195D1*
X6293Y6196D1*
X6263Y6200D1*
X6233Y6208D1*
X6205Y6220D1*
X6183Y6233D1*
X5812Y6232D1*
X5781Y6234D1*
X5752Y6241D1*
X5723Y6253D1*
X5696Y6268D1*
X5672Y6287D1*
X5652Y6310D1*
X5640Y6326D1*
X5452D1*
Y6609D1*
X5438Y6596D1*
X5437Y6310D1*
X5433Y6280D1*
X5422Y6251D1*
X5400Y6222D1*
X5275Y6097D1*
X5251Y6078D1*
X5223Y6065D1*
X5187Y6060D1*
X5109D1*
Y4991D1*
X5116D1*
Y4156D1*
X5550Y4155D1*
X5502Y4175D1*
X5459Y4199D1*
X5419Y4227D1*
X5382Y4260D1*
X5350Y4297D1*
X5321Y4337D1*
X5298Y4380D1*
X5280Y4426D1*
X5267Y4473D1*
X5260Y4522D1*
X5258Y4571D1*
X5262Y4620D1*
X5271Y4668D1*
X5286Y4715D1*
X5306Y4760D1*
X5331Y4802D1*
X5361Y4841D1*
X5395Y4876D1*
X5433Y4908D1*
X5474Y4935D1*
X5518Y4956D1*
X5564Y4973D1*
X5612Y4985D1*
X5660Y4990D1*
X5710Y4991D1*
X5758Y4985D1*
X5806Y4974D1*
X5853Y4958D1*
X5897Y4937D1*
X5938Y4910D1*
X5976Y4879D1*
X6011Y4844D1*
X6041Y4805D1*
X6066Y4763D1*
X6087Y4719D1*
X6102Y4672D1*
X6112Y4624D1*
X6116Y4575D1*
X6115Y4525D1*
X6108Y4477D1*
X6095Y4429D1*
X6077Y4383D1*
X6054Y4340D1*
X6027Y4299D1*
X5994Y4262D1*
X5958Y4229D1*
X5918Y4200D1*
X5876Y4176D1*
X5830Y4157D1*
X5824Y4155D1*
X10719D1*
Y6588D1*
X10500D1*
X10514Y6573D1*
X10538Y6554D1*
X10559Y6531D1*
X10577Y6507D1*
X10592Y6480D1*
X10604Y6452D1*
X10612Y6422D1*
X10617Y6375D1*
X10615Y6344D1*
X10609Y6314D1*
X10599Y6285D1*
X10586Y6257D1*
X10570Y6231D1*
X10550Y6208D1*
X10527Y6187D1*
X10502Y6169D1*
X10475Y6154D1*
X10447Y6143D1*
X10417Y6136D1*
X10386Y6133D1*
X10356D1*
X10325Y6137D1*
X10296Y6145D1*
X10267Y6157D1*
X10241Y6173D1*
X10216Y6191D1*
X10194Y6212D1*
X10175Y6237D1*
X10160Y6263D1*
X10147Y6291D1*
X10138Y6320D1*
X10133Y6351D1*
X10132Y6381D1*
X10135Y6412D1*
X10142Y6442D1*
X10152Y6471D1*
X10166Y6498D1*
X10183Y6523D1*
X10204Y6546D1*
X10227Y6567D1*
X10250Y6582D1*
X10242Y6588D1*
X9985D1*
Y7289D1*
X10719D1*
Y7336D1*
X9985Y7337D1*
Y7999D1*
X9207D1*
X9175Y7958D1*
X9152Y7937D1*
X9127Y7919D1*
X9100Y7904D1*
X9072Y7893D1*
X9042Y7886D1*
X9011Y7883D1*
X8981D1*
X8950Y7887D1*
X8921Y7895D1*
X8892Y7907D1*
X8866Y7923D1*
X8841Y7941D1*
X8819Y7962D1*
X8800Y7987D1*
X8785Y8013D1*
X8772Y8041D1*
X8763Y8070D1*
X8758Y8101D1*
X8757Y8131D1*
X8760Y8162D1*
X8767Y8192D1*
X8777Y8221D1*
X8791Y8248D1*
X8808Y8273D1*
X8829Y8296D1*
X8847Y8312D1*
X8742D1*
X8740Y8281D1*
X8734Y8251D1*
X8724Y8222D1*
X8711Y8194D1*
X8695Y8169D1*
X8675Y8145D1*
X8652Y8124D1*
X8627Y8106D1*
X8600Y8092D1*
X8572Y8081D1*
X8542Y8074D1*
X8511Y8070D1*
X8481Y8071D1*
X8450Y8075D1*
X8421Y8083D1*
X8392Y8095D1*
X8366Y8110D1*
X8341Y8129D1*
X8319Y8150D1*
X8300Y8174D1*
X8285Y8200D1*
X8272Y8228D1*
X8263Y8258D1*
X8258Y8288D1*
X8257Y8319D1*
X8260Y8349D1*
X8267Y8379D1*
X8277Y8408D1*
X8291Y8436D1*
X8308Y8461D1*
X8329Y8484D1*
X8353Y8505D1*
X8113Y8504D1*
Y8523D1*
X7587D1*
X7421D1*
Y8599D1*
X7377Y8585D1*
X7347Y8580D1*
X7316Y8578D1*
X7286Y8580D1*
X7255Y8584D1*
X7225Y8592D1*
X7197Y8603D1*
X7169Y8616D1*
X7143Y8633D1*
X7119Y8652D1*
X7097Y8673D1*
X7078Y8697D1*
X7061Y8723D1*
X7046Y8750D1*
X7035Y8778D1*
X7027Y8808D1*
X7022Y8838D1*
X7020Y8869D1*
X7021Y8899D1*
X7025Y8930D1*
X7033Y8960D1*
X7043Y8988D1*
X7057Y9016D1*
X7073Y9042D1*
X7092Y9066D1*
X7113Y9088D1*
X7137Y9108D1*
X7162Y9125D1*
X7189Y9140D1*
X7218Y9151D1*
X7247Y9160D1*
X7277Y9165D1*
X7308Y9167D1*
X7338Y9166D1*
X7369Y9162D1*
X7421Y9147D1*
Y9210D1*
X7135D1*
Y9693D1*
X6847Y9405D1*
Y9244D1*
X6872Y9219D1*
X6890Y9194D1*
X6905Y9168D1*
X6917Y9139D1*
X6925Y9110D1*
X6929Y9062D1*
X6927Y9031D1*
X6921Y9001D1*
X6912Y8972D1*
X6899Y8944D1*
X6882Y8919D1*
X6862Y8895D1*
X6840Y8874D1*
X6815Y8856D1*
X6788Y8842D1*
X6759Y8831D1*
X6729Y8824D1*
X6699Y8820D1*
X6668Y8821D1*
X6638Y8825D1*
X6608Y8833D1*
X6580Y8845D1*
X6553Y8860D1*
X6529Y8879D1*
X6507Y8900D1*
X6488Y8924D1*
X6472Y8950D1*
X6460Y8978D1*
X6451Y9008D1*
X6446Y9038D1*
X6445Y9069D1*
X6448Y9099D1*
X6454Y9129D1*
X6465Y9158D1*
X6479Y9186D1*
X6496Y9211D1*
X6527Y9243D1*
Y9471D1*
X6530Y9501D1*
X6539Y9531D1*
X6553Y9558D1*
X6574Y9584D1*
X7135Y10143D1*
Y10659D1*
X7914D1*
Y9958D1*
X7399Y9957D1*
X7353Y9911D1*
X7608D1*
X7914D1*
Y9224D1*
X8113D1*
Y9245D1*
X9011D1*
Y8562D1*
X9110D1*
Y8911D1*
X9890Y8910D1*
X9952Y8911D1*
X10640D1*
Y8210D1*
X10305D1*
X10291Y8180D1*
X10254Y8139D1*
X10152Y8037D1*
X10719D1*
Y10425D1*
X10511Y10217D1*
Y9988D1*
X10409D1*
Y9658D1*
X10505Y9659D1*
X10640D1*
Y8958D1*
X9860Y8959D1*
X9798Y8958D1*
X9110D1*
Y9659D1*
X9890Y9658D1*
X9952Y9659D1*
X10089D1*
X10090Y9989D1*
X10020Y9988D1*
X9988D1*
Y10374D1*
X10217D1*
X10439Y10596D1*
X10418Y10624D1*
X10312D1*
X10282Y10628D1*
X10253Y10639D1*
X10223Y10661D1*
X10098Y10786D1*
X10080Y10810D1*
X10067Y10838D1*
X10062Y10875D1*
Y11110D1*
X9918Y11109D1*
X9629D1*
X9901Y10838D1*
X9919Y10814D1*
X9932Y10786D1*
X9937Y10750D1*
Y10187D1*
X9934Y10157D1*
X9923Y10128D1*
X9901Y10098D1*
X9838Y10036D1*
X9814Y10017D1*
X9786Y10005D1*
X9750Y9999D1*
X9685D1*
Y9732D1*
X9161D1*
Y10118D1*
X9438D1*
X9533Y10213D1*
X9568Y10238D1*
X9562Y10244D1*
X9161D1*
Y10278D1*
X9011Y10276D1*
Y9843D1*
X8113D1*
Y10583D1*
X8724Y10584D1*
X8753Y10593D1*
X8786Y10597D1*
X9161D1*
Y10630D1*
X9685D1*
Y10250D1*
X9687Y10310D1*
Y10699D1*
X9506Y10878D1*
X9275Y11109D1*
X9109D1*
X8838D1*
Y11888D1*
X9401D1*
X9538Y12026D1*
X9562Y12044D1*
X9590Y12057D1*
X9626Y12062D1*
X10187D1*
X10217Y12059D1*
X10246Y12048D1*
X10276Y12026D1*
X10386Y11915D1*
X10392Y11942D1*
X10402Y11971D1*
X10416Y11998D1*
X10433Y12023D1*
X10454Y12046D1*
X10472Y12062D1*
X10444Y12087D1*
X10418Y12124D1*
X8687D1*
X8657Y12128D1*
X8628Y12139D1*
X8598Y12161D1*
X7636Y13124D1*
X6738D1*
X6702Y13087D1*
X7673D1*
X4603Y12587D2*
X5549D1*
Y12162D1*
X4573D1*
Y12587D1*
X4603D1*
X5359Y6161D2*
X6094D1*
Y5342D1*
X5353D1*
Y6161D1*
X5359D1*
Y8681D2*
X6094D1*
Y7862D1*
X5353D1*
Y8681D1*
X5359D1*
X4415Y9035D2*
X5109D1*
Y7940D1*
X4408D1*
Y9035D1*
X4415D1*
X8490Y19094D2*
X8484Y19064D1*
X8474Y19035D1*
X8461Y19007D1*
X8445Y18981D1*
X8425Y18958D1*
X8402Y18937D1*
X8377Y18919D1*
X8350Y18904D1*
X8322Y18893D1*
X8292Y18886D1*
X8261Y18883D1*
X8231D1*
X8200Y18887D1*
X8171Y18895D1*
X8142Y18907D1*
X8116Y18923D1*
X8091Y18941D1*
X8069Y18962D1*
X8050Y18987D1*
X8035Y19013D1*
X8022Y19041D1*
X8013Y19070D1*
X8008Y19101D1*
X8007Y19131D1*
X8010Y19162D1*
X8017Y19192D1*
X8027Y19221D1*
X8041Y19248D1*
X8058Y19273D1*
X8079Y19296D1*
X8102Y19317D1*
X8127Y19334D1*
X8155Y19347D1*
X8184Y19358D1*
X8214Y19364D1*
X8244Y19367D1*
X8275Y19365D1*
X8305Y19360D1*
X8335Y19351D1*
X8363Y19339D1*
X8389Y19323D1*
X8413Y19304D1*
X8434Y19281D1*
X8452Y19257D1*
X8467Y19230D1*
X8479Y19202D1*
X8487Y19172D1*
X8492Y19125D1*
X8490Y19094D1*
X6268Y13008D2*
X6231D1*
X6200Y13012D1*
X6171Y13020D1*
X6142Y13032D1*
X6116Y13048D1*
X6091Y13066D1*
X6069Y13087D1*
X6050Y13112D1*
X6035Y13138D1*
X6022Y13166D1*
X6013Y13195D1*
X6008Y13226D1*
X6007Y13256D1*
X6010Y13287D1*
X6017Y13317D1*
X6027Y13346D1*
X6041Y13373D1*
X6058Y13398D1*
X6079Y13421D1*
X6102Y13442D1*
X6127Y13459D1*
X6155Y13472D1*
X6184Y13483D1*
X6214Y13489D1*
X6244Y13492D1*
X6275Y13490D1*
X6305Y13485D1*
X6335Y13476D1*
X6363Y13464D1*
X6389Y13448D1*
X6413Y13429D1*
X6434Y13406D1*
X6452Y13382D1*
X6467Y13355D1*
X6479Y13327D1*
X6487Y13297D1*
X6492Y13250D1*
X6490Y13229D1*
X6677Y18969D2*
X6671Y18939D1*
X6662Y18910D1*
X6649Y18882D1*
X6632Y18856D1*
X6612Y18833D1*
X6590Y18812D1*
X6565Y18794D1*
X6538Y18779D1*
X6509Y18768D1*
X6479Y18761D1*
X6449Y18758D1*
X6418D1*
X6388Y18762D1*
X6358Y18770D1*
X6330Y18782D1*
X6303Y18798D1*
X6279Y18816D1*
X6257Y18837D1*
X6238Y18862D1*
X6222Y18888D1*
X6210Y18916D1*
X6201Y18945D1*
X6196Y18976D1*
X6195Y19006D1*
X6198Y19037D1*
X6204Y19067D1*
X6215Y19096D1*
X6229Y19123D1*
X6246Y19148D1*
X6266Y19171D1*
X6289Y19192D1*
X6315Y19209D1*
X6342Y19222D1*
X6371Y19233D1*
X6401Y19239D1*
X6432Y19242D1*
X6462Y19240D1*
X6493Y19235D1*
X6522Y19226D1*
X6550Y19214D1*
X6576Y19198D1*
X6600Y19179D1*
X6622Y19156D1*
X6640Y19132D1*
X6655Y19105D1*
X6667Y19077D1*
X6675Y19047D1*
X6679Y19000D1*
X6677Y18969D1*
X4457Y11187D2*
X4445Y11169D1*
X4425Y11145D1*
X4403Y11124D1*
X4434Y11094D1*
X4452Y11069D1*
X4467Y11043D1*
X4483Y10998D1*
X4492Y10979D1*
X4499Y10950D1*
X4481Y11616D2*
X4474Y11597D1*
X4461Y11569D1*
X4445Y11544D1*
X4425Y11520D1*
X4403Y11499D1*
X4434Y11469D1*
X4457Y11437D1*
X9207Y8000D2*
X9195Y7981D1*
X9175Y7958D1*
X9152Y7937D1*
X9127Y7919D1*
X9100Y7904D1*
X9072Y7893D1*
X9042Y7886D1*
X9011Y7883D1*
X8981D1*
X8950Y7887D1*
X8921Y7895D1*
X8892Y7907D1*
X8866Y7923D1*
X8841Y7941D1*
X8819Y7962D1*
X8800Y7987D1*
X8785Y8013D1*
X8772Y8041D1*
X8763Y8070D1*
X8758Y8101D1*
X8757Y8131D1*
X8760Y8162D1*
X8767Y8192D1*
X8777Y8221D1*
X8791Y8248D1*
X8808Y8273D1*
X8829Y8296D1*
X8847Y8312D1*
X9207Y8000D2*
X9195Y7981D1*
X9175Y7958D1*
X9152Y7937D1*
X9127Y7919D1*
X9100Y7904D1*
X9072Y7893D1*
X9042Y7886D1*
X9011Y7883D1*
X8981D1*
X8950Y7887D1*
X8921Y7895D1*
X8892Y7907D1*
X8866Y7923D1*
X8841Y7941D1*
X8819Y7962D1*
X8800Y7987D1*
X8785Y8013D1*
X8772Y8041D1*
X8763Y8070D1*
X8758Y8101D1*
X8757Y8131D1*
X8760Y8162D1*
X8767Y8192D1*
X8777Y8221D1*
X8791Y8248D1*
X8808Y8273D1*
X8829Y8296D1*
X8847Y8312D1*
X6052Y11719D2*
X6047Y11689D1*
X6037Y11660D1*
X6024Y11632D1*
X6007Y11606D1*
X5988Y11583D1*
X5965Y11562D1*
X5940Y11544D1*
X5913Y11529D1*
X5884Y11518D1*
X5855Y11511D1*
X5824Y11508D1*
X5793D1*
X5763Y11512D1*
X5733Y11520D1*
X5705Y11532D1*
X5678Y11548D1*
X5654Y11566D1*
X5632Y11588D1*
X5613Y11612D1*
X5597Y11638D1*
X5585Y11666D1*
X5576Y11695D1*
X5571Y11726D1*
X5570Y11756D1*
X5573Y11787D1*
X5579Y11817D1*
X5590Y11846D1*
X5604Y11873D1*
X5621Y11898D1*
X5641Y11921D1*
X5664Y11942D1*
X5690Y11959D1*
X5717Y11972D1*
X5746Y11983D1*
X5776Y11989D1*
X5807Y11992D1*
X5838Y11990D1*
X5868Y11985D1*
X5897Y11976D1*
X5925Y11964D1*
X5951Y11948D1*
X5975Y11929D1*
X5997Y11907D1*
X6015Y11882D1*
X6030Y11855D1*
X6042Y11827D1*
X6050Y11797D1*
X6054Y11750D1*
X6052Y11719D1*
X6183Y6641D2*
X6217Y6660D1*
X6246Y6670D1*
X6276Y6677D1*
X6307Y6679D1*
X6337Y6678D1*
X6368Y6673D1*
X6397Y6664D1*
X6425Y6651D1*
X6451Y6635D1*
X6475Y6616D1*
X6497Y6594D1*
X6515Y6569D1*
X6530Y6543D1*
X6542Y6514D1*
X6550Y6485D1*
X6554Y6437D1*
X6552Y6406D1*
X6546Y6376D1*
X6537Y6347D1*
X6524Y6319D1*
X6507Y6294D1*
X6487Y6270D1*
X6465Y6249D1*
X6440Y6231D1*
X6413Y6217D1*
X6384Y6206D1*
X6354Y6199D1*
X6324Y6195D1*
X6293Y6196D1*
X6263Y6200D1*
X6233Y6208D1*
X6205Y6220D1*
X6183Y6233D1*
X6052Y11719D2*
X6047Y11689D1*
X6037Y11660D1*
X6024Y11632D1*
X6007Y11606D1*
X5988Y11583D1*
X5965Y11562D1*
X5940Y11544D1*
X5913Y11529D1*
X5884Y11518D1*
X5855Y11511D1*
X5824Y11508D1*
X5793D1*
X5763Y11512D1*
X5733Y11520D1*
X5705Y11532D1*
X5678Y11548D1*
X5654Y11566D1*
X5632Y11588D1*
X5613Y11612D1*
X5597Y11638D1*
X5585Y11666D1*
X5576Y11695D1*
X5571Y11726D1*
X5570Y11756D1*
X5573Y11787D1*
X5579Y11817D1*
X5590Y11846D1*
X5604Y11873D1*
X5621Y11898D1*
X5641Y11921D1*
X5664Y11942D1*
X5690Y11959D1*
X5717Y11972D1*
X5746Y11983D1*
X5776Y11989D1*
X5807Y11992D1*
X5838Y11990D1*
X5868Y11985D1*
X5897Y11976D1*
X5925Y11964D1*
X5951Y11948D1*
X5975Y11929D1*
X5997Y11907D1*
X6015Y11882D1*
X6030Y11855D1*
X6042Y11827D1*
X6050Y11797D1*
X6054Y11750D1*
X6052Y11719D1*
X10240Y19094D2*
X10234Y19064D1*
X10224Y19035D1*
X10211Y19007D1*
X10195Y18981D1*
X10175Y18958D1*
X10152Y18937D1*
X10127Y18919D1*
X10100Y18904D1*
X10072Y18893D1*
X10042Y18886D1*
X10011Y18883D1*
X9981D1*
X9950Y18887D1*
X9921Y18895D1*
X9892Y18907D1*
X9866Y18923D1*
X9841Y18941D1*
X9819Y18962D1*
X9800Y18987D1*
X9785Y19013D1*
X9772Y19041D1*
X9763Y19070D1*
X9758Y19101D1*
X9757Y19131D1*
X9760Y19162D1*
X9767Y19192D1*
X9777Y19221D1*
X9791Y19248D1*
X9808Y19273D1*
X9829Y19296D1*
X9852Y19317D1*
X9877Y19334D1*
X9905Y19347D1*
X9934Y19358D1*
X9964Y19364D1*
X9994Y19367D1*
X10025Y19365D1*
X10055Y19360D1*
X10085Y19351D1*
X10113Y19339D1*
X10139Y19323D1*
X10163Y19304D1*
X10184Y19281D1*
X10202Y19257D1*
X10217Y19230D1*
X10229Y19202D1*
X10237Y19172D1*
X10242Y19125D1*
X10240Y19094D1*
X6865Y8406D2*
X6859Y8376D1*
X6849Y8347D1*
X6836Y8319D1*
X6820Y8294D1*
X6800Y8270D1*
X6777Y8249D1*
X6752Y8231D1*
X6725Y8217D1*
X6697Y8206D1*
X6667Y8199D1*
X6636Y8195D1*
X6606Y8196D1*
X6575Y8200D1*
X6546Y8208D1*
X6517Y8220D1*
X6491Y8235D1*
X6466Y8254D1*
X6444Y8275D1*
X6425Y8299D1*
X6410Y8325D1*
X6397Y8353D1*
X6388Y8383D1*
X6383Y8413D1*
X6382Y8444D1*
X6385Y8474D1*
X6392Y8504D1*
X6402Y8533D1*
X6416Y8561D1*
X6433Y8586D1*
X6454Y8609D1*
X6477Y8629D1*
X6502Y8646D1*
X6530Y8660D1*
X6559Y8670D1*
X6589Y8677D1*
X6619Y8679D1*
X6650Y8678D1*
X6680Y8673D1*
X6710Y8664D1*
X6738Y8651D1*
X6764Y8635D1*
X6788Y8616D1*
X6809Y8594D1*
X6827Y8569D1*
X6842Y8543D1*
X6854Y8514D1*
X6862Y8485D1*
X6867Y8437D1*
X6865Y8406D1*
X6937Y13937D2*
D16*
Y13547D1*
X6587Y13937D2*
X7287D1*
X8875Y14748D2*
X9264Y14397D1*
Y15098D2*
X8485Y14397D1*
X7525Y9911D2*
D20*
Y9561D1*
X7135D2*
X7914D1*
X5147Y13500D2*
D18*
X5848D1*
X6060Y10764D2*
D16*
Y9985D1*
X5710Y10375D2*
X6060D1*
X7811Y8476D2*
Y8125D1*
X7421D2*
X8201D1*
X10375Y8037D2*
Y7337D1*
X9985Y7687D2*
X10375D1*
X7314Y6389D2*
Y5610D1*
X6964Y6000D2*
X7664D1*
X6437Y17556D2*
D18*
Y17058D1*
X6193D2*
X6681D1*
X9437Y22179D2*
D16*
Y21320D1*
X9008Y21750D2*
X9866D1*
X5687Y4991D2*
Y4562D1*
X5258D2*
X6116D1*
X8977Y4706D2*
Y4277D1*
X8548Y4706D2*
X9406D1*
X10000Y13039D2*
Y12689D1*
X9610D2*
X10000D1*
X4562Y17452D2*
Y17062D1*
X4212D2*
X4912D1*
X7297Y7036D2*
D18*
X7687Y6685D1*
X8077Y7036D2*
X7687Y6685D1*
X7187Y11587D2*
D16*
Y11375D1*
X6699D2*
X7187D1*
X5812Y7696D2*
Y7523D1*
X5723Y6161D2*
Y5342D1*
X5353Y5751D2*
X6093D1*
X5723Y8681D2*
Y7862D1*
X5353Y8271D2*
X6093D1*
X4408Y5535D2*
X5109D1*
X4759Y9035D2*
Y7940D1*
X4408Y8488D2*
X5109D1*
D21*
X6937Y13937D3*
X6189D3*
D22*
X8875Y14000D3*
Y14748D3*
X7525Y10309D3*
Y9561D3*
D21*
X4750Y13500D3*
X5498D3*
X5312Y10375D3*
X6060D3*
D22*
X7811Y8874D3*
Y8125D3*
X10375Y7687D3*
Y6939D3*
D21*
X8062Y6000D3*
X7314D3*
D24*
X8562Y8875D3*
Y10213D3*
D26*
X8437Y15660D3*
X7937D3*
X7437D3*
X6937D3*
X6437D3*
Y17058D3*
X6937D3*
X7437D3*
X7937D3*
X8437D3*
D27*
X9437Y21750D3*
D28*
X8437D3*
X7437D3*
X6437D3*
X5437D3*
D27*
X4687Y4562D3*
D28*
X5687D3*
D27*
X8977Y4706D3*
D28*
X9977D3*
D29*
X9859Y5529D3*
X8678D3*
D30*
X9812Y14687D3*
X4687D3*
X7312Y4750D3*
D32*
X5108Y15485D3*
X4360D3*
X4734Y16391D3*
D34*
X9423Y9925D3*
Y10437D3*
X10250Y10181D3*
D21*
X6937Y14625D3*
X6189D3*
D35*
X4937Y18125D3*
Y20329D3*
D22*
X10000Y13437D3*
Y12689D3*
D35*
X6562Y18125D3*
Y20329D3*
X8187Y18125D3*
Y20329D3*
X9812Y18125D3*
Y20329D3*
D21*
X9188Y11499D3*
X9936D3*
X4562Y17062D3*
X5310D3*
D22*
X10250Y8560D3*
Y9308D3*
X9500Y8560D3*
Y9308D3*
X7687Y6685D3*
Y7433D3*
D41*
X7187Y12875D3*
Y12375D3*
Y11875D3*
Y11375D3*
X5061D3*
Y11875D3*
Y12375D3*
Y12875D3*
D44*
X5812Y6500D3*
Y6755D3*
Y7011D3*
Y7267D3*
Y7523D3*
D45*
X5723Y5751D3*
Y8271D3*
D46*
X4759Y5535D3*
Y8488D3*
M02*
